<svg version="1.1" id="Layer_1" xmlns="http://www.w3.org/2000/svg" xmlns:xlink="http://www.w3.org/1999/xlink" x="0px" y="0px"
	 width="100%" viewBox="0 0 1200 628" enable-background="new 0 0 1200 628" xml:space="preserve">
<path fill="#0081CC" opacity="1.000000" stroke="none" 
	d="
M427.000000,1.000001 
	C542.355347,1.000000 657.710693,1.000000 773.751831,1.343755 
	C780.991577,2.818681 787.611694,3.657715 794.089233,5.125987 
	C862.876465,20.718172 913.519043,82.093689 913.915100,152.471298 
	C914.532227,262.107452 914.097351,371.749664 914.021667,481.389282 
	C914.018127,486.527039 913.534790,491.726593 912.663940,496.792328 
	C899.926392,570.888000 841.701538,623.368469 766.589722,628.073120 
	C659.723938,627.989929 553.321411,627.994324 446.918854,628.008911 
	C442.595245,628.009521 438.271667,628.106750 433.508759,628.107544 
	C393.125763,625.507568 358.877747,610.068787 331.086060,581.400269 
	C301.593201,550.976990 287.024475,514.143188 287.010956,471.703766 
	C286.977295,366.064240 286.986420,260.424683 287.037933,154.785172 
	C287.040619,149.302780 287.359802,143.795670 287.932953,138.342224 
	C294.542114,75.453125 342.325775,20.900961 403.871735,5.978406 
	C411.533112,4.120812 419.288300,2.650022 427.000000,1.000001 
M799.564575,189.968994 
	C799.564575,189.968994 799.118652,189.934189 798.960449,189.263489 
	C795.650208,186.898346 792.623413,183.895401 788.981445,182.276474 
	C771.532715,174.520111 753.256104,175.067230 733.985474,177.682983 
	C716.951111,181.678970 699.916809,185.674957 682.097107,189.771057 
	C678.333984,190.837112 674.570862,191.903168 670.783325,192.976135 
	C667.334106,179.598526 664.705750,166.525101 660.520996,153.970459 
	C656.183899,140.958878 650.338440,128.450089 645.025452,115.041916 
	C640.001709,107.636932 635.590393,99.708847 629.814209,92.946663 
	C620.605103,82.165688 608.662476,76.630394 593.314758,78.181152 
	C584.397705,80.006470 577.021912,84.639412 570.649353,90.925560 
	C557.757385,103.642654 549.394348,119.187363 542.482788,136.441956 
	C537.279602,152.936798 531.850159,169.365906 527.024048,185.970367 
	C525.734924,190.405777 524.319580,192.015182 520.003479,190.006332 
	C519.104126,189.587769 518.128418,189.303574 517.161499,189.064255 
	C503.444794,185.669250 489.723541,182.292648 475.321716,178.552872 
	C460.649414,175.969925 445.934509,174.218262 430.224487,176.229187 
	C424.902954,177.508240 419.421112,178.333618 414.288544,180.147385 
	C395.296417,186.858978 385.586395,203.296692 389.409729,223.059601 
	C394.108917,247.349472 407.452454,267.090546 423.919067,285.797943 
	C433.267639,295.557861 442.616241,305.317780 452.297363,315.622742 
	C453.140961,316.734467 453.984558,317.846222 455.030090,319.224060 
	C453.099945,320.995972 451.523590,322.443115 449.382843,324.251617 
	C440.227753,333.775543 431.072662,343.299469 421.362518,353.210632 
	C419.321228,355.610199 417.158997,357.918060 415.258392,360.424316 
	C403.542908,375.873016 392.991882,391.861633 390.358521,411.766632 
	C388.420563,426.414795 396.766541,442.130646 410.108459,447.752716 
	C418.451141,452.530426 427.582550,454.354553 437.880157,455.064697 
	C452.416138,456.688629 466.757507,455.163757 481.894287,452.319489 
	C496.597046,449.158539 511.299805,445.997620 525.283264,442.991333 
	C531.166504,460.062225 537.045898,477.121857 543.044678,494.887146 
	C548.411072,508.249451 554.966553,520.966309 564.158630,532.128967 
	C571.113647,540.575012 578.934204,547.996765 590.794067,551.138855 
	C602.141357,553.847839 612.484619,551.661499 621.737122,544.600708 
	C632.660217,536.265015 640.324280,525.388977 646.466248,512.466431 
	C657.418518,490.254578 664.130432,466.621979 669.289551,442.331055 
	C673.572571,443.402588 677.247803,444.322021 681.537903,445.636841 
	C694.026184,448.362061 706.514465,451.087311 719.808777,454.001099 
	C732.857788,454.737823 745.906738,455.474548 759.845032,456.279724 
	C761.915588,456.104218 763.986145,455.928680 766.497070,455.805054 
	C766.497070,455.805054 766.920593,455.673645 767.711365,455.694824 
	C770.971191,455.060181 774.258301,454.540100 777.486633,453.772827 
	C803.822510,447.513184 815.569031,428.016144 808.454407,402.089355 
	C802.989929,382.176270 790.584595,366.415588 777.097412,350.634521 
	C771.473694,344.856781 765.849915,339.079041 759.945862,332.743896 
	C754.547546,327.686096 749.149292,322.628296 743.270813,317.120636 
	C751.517578,309.070679 759.878296,300.909546 768.815796,292.339813 
	C775.626648,283.959137 782.928040,275.924652 789.140869,267.121918 
	C800.230835,251.409149 809.935791,234.953903 810.246277,214.781662 
	C810.267456,213.406494 811.192444,212.009796 811.827393,210.685577 
	C814.955688,204.160828 813.588379,197.660339 807.609741,192.231247 
	C805.074585,191.504822 802.539368,190.778397 799.564575,189.968994 
z"/>
<path fill="#FFFFFF" opacity="1.000000" stroke="none" 
	d="
M767.052979,628.162537 
	C841.701538,623.368469 899.926392,570.888000 912.663940,496.792328 
	C913.534790,491.726593 914.018127,486.527039 914.021667,481.389282 
	C914.097351,371.749664 914.532227,262.107452 913.915100,152.471298 
	C913.519043,82.093689 862.876465,20.718172 794.089233,5.125987 
	C787.611694,3.657715 780.991577,2.818681 774.218811,1.343755 
	C916.291565,1.000000 1058.583130,1.000000 1200.937256,1.000000 
	C1200.937256,210.230026 1200.937256,419.460083 1200.937256,629.000000 
	C1056.645874,629.000000 912.291626,629.000000 767.479980,628.790527 
	C767.022644,628.581055 767.052979,628.162537 767.052979,628.162537 
z"/>
<path fill="#FFFFFF" opacity="1.000000" stroke="none" 
	d="
M426.531342,1.000001 
	C419.288300,2.650022 411.533112,4.120812 403.871735,5.978406 
	C342.325775,20.900961 294.542114,75.453125 287.932953,138.342224 
	C287.359802,143.795670 287.040619,149.302780 287.037933,154.785172 
	C286.986420,260.424683 286.977295,366.064240 287.010956,471.703766 
	C287.024475,514.143188 301.593201,550.976990 331.086060,581.400269 
	C358.877747,610.068787 393.125763,625.507568 433.525177,628.317566 
	C433.980896,628.579041 434.000000,629.000000 434.000000,629.000000 
	C289.709106,629.000000 145.418198,629.000000 1.063645,629.000000 
	C1.063645,419.770660 1.063645,210.541275 1.063645,1.000000 
	C142.687408,1.000000 284.375061,1.000000 426.531342,1.000001 
z"/>
<path fill="#C0DFF2" opacity="1.000000" stroke="none" 
	d="
M434.466980,629.000000 
	C434.000000,629.000000 433.980896,628.579041 433.964478,628.369019 
	C438.271667,628.106750 442.595245,628.009521 446.918854,628.008911 
	C553.321411,627.994324 659.723938,627.989929 766.589722,628.073120 
	C767.052979,628.162537 767.022644,628.581055 767.011353,628.790527 
	C656.311340,629.000000 545.622620,629.000000 434.466980,629.000000 
z"/>
<path fill="#54C792" opacity="1.000000" stroke="none" 
	d="
M542.925293,494.181519 
	C537.045898,477.121857 531.166504,460.062225 525.283264,442.991333 
	C511.299805,445.997620 496.597046,449.158539 481.485535,451.908203 
	C481.053040,446.687347 481.029297,441.877777 481.378784,436.953430 
	C493.943115,433.493317 506.113312,430.068634 518.338867,426.854462 
	C521.697510,425.971466 522.755737,424.619904 522.207825,420.927002 
	C519.669006,403.817200 517.607117,386.636749 515.080566,369.524933 
	C514.743103,367.239380 513.213440,364.595703 511.408081,363.155487 
	C504.390625,357.557159 497.039276,352.377502 490.054443,346.699890 
	C490.532990,338.345123 490.769287,330.332458 491.291931,322.458496 
	C498.318054,327.505280 505.057800,332.413361 511.797577,337.321411 
	C512.240112,337.040619 512.682617,336.759827 513.125183,336.479034 
	C513.125183,319.225952 513.125183,301.972870 513.125183,283.819427 
	C505.841553,289.086975 498.927765,294.087067 491.935516,298.703857 
	C490.784760,296.169434 489.712433,294.018341 488.864197,291.600647 
	C496.474121,285.961823 503.924561,280.674591 511.194122,275.149384 
	C512.749695,273.967072 514.488892,272.032532 514.723328,270.256958 
	C517.567688,248.719070 520.098145,227.139954 522.844849,205.588715 
	C523.252991,202.386612 522.546570,200.583664 519.192810,199.851456 
	C504.121643,196.561142 489.076508,193.151581 474.285706,189.526047 
	C475.034088,185.815247 475.518707,182.363434 476.003357,178.911621 
	C489.723541,182.292648 503.444794,185.669250 517.161499,189.064255 
	C518.128418,189.303574 519.104126,189.587769 520.003479,190.006332 
	C524.319580,192.015182 525.734924,190.405777 527.024048,185.970367 
	C531.850159,169.365906 537.279602,152.936798 542.907227,136.478302 
	C544.220581,139.087967 545.768616,141.634125 545.875977,144.239624 
	C546.210571,152.366150 545.899048,160.517334 546.079651,168.653610 
	C546.119385,170.445694 547.155212,172.215683 547.716553,174.377869 
	C546.482117,180.100418 545.593750,185.544922 543.953430,190.752579 
	C542.268127,196.103073 543.557251,199.301270 549.155090,200.993774 
	C549.469238,204.258087 549.737610,207.087814 549.627258,209.880859 
	C548.610168,209.659836 547.964600,209.497192 547.334534,209.287811 
	C540.984375,207.177689 540.897644,207.222763 539.980347,213.925079 
	C538.764343,222.810654 537.462463,231.686264 536.397156,240.590057 
	C535.696960,246.442810 535.349304,252.337738 534.750488,259.297852 
	C539.239990,256.818146 542.668579,254.924393 546.460815,253.084351 
	C547.551575,255.368011 548.278748,257.597961 548.744568,260.053772 
	C545.264221,262.330444 542.122803,264.518524 538.804321,266.393188 
	C535.527588,268.244263 533.623413,270.498230 533.615295,274.594696 
	C533.566284,299.314728 533.249817,324.034393 533.267151,348.754059 
	C533.268372,350.479065 534.863098,352.706665 536.366821,353.831757 
	C540.740295,357.103973 545.444336,359.934448 550.014282,363.411438 
	C549.676147,371.549866 549.342407,379.214996 548.683960,386.778687 
	C544.546326,384.471008 540.733398,382.264862 536.920410,380.058685 
	C536.432495,380.293518 535.944580,380.528381 535.456665,380.763245 
	C536.977295,393.280945 538.497986,405.798676 540.077271,418.799377 
	C543.687378,417.681122 546.346130,416.857574 549.040222,416.448883 
	C549.052551,422.554962 549.029480,428.246155 548.681213,434.112030 
	C544.506287,435.152283 543.237976,437.362518 544.440369,441.203308 
	C545.126648,443.395508 545.355591,445.730896 545.569946,448.308502 
	C544.899719,451.190613 544.148071,453.754730 544.051270,456.343384 
	C543.579895,468.952484 543.283569,481.568176 542.925293,494.181519 
z"/>
<path fill="#70CFA1" opacity="1.000000" stroke="none" 
	d="
M680.922974,445.241486 
	C677.247803,444.322021 673.572571,443.402588 669.289551,442.331055 
	C664.130432,466.621979 657.418518,490.254578 645.891174,512.552490 
	C644.877075,510.657593 644.456238,508.672455 643.994812,506.696808 
	C643.233948,503.438690 642.446899,500.186676 641.774902,496.570679 
	C647.716736,478.536926 653.511292,460.850067 659.433167,443.205902 
	C660.479187,440.089294 659.579651,438.712036 656.534546,437.740112 
	C652.278015,436.381531 648.173218,434.547272 644.002563,432.454346 
	C644.001099,430.171478 643.890808,428.342896 644.021118,426.531677 
	C644.371826,421.657349 644.825317,416.790436 645.539307,412.102722 
	C651.821960,414.405518 657.803223,416.526123 665.285400,419.178894 
	C666.928955,403.260559 668.441467,388.611877 670.032593,373.971039 
	C670.111267,373.978882 670.143738,373.787262 670.143738,373.787262 
	C670.143738,373.787262 670.026855,374.039307 669.671265,374.042694 
	C660.876465,379.031403 652.437256,384.016724 643.998535,388.534241 
	C643.668579,381.756073 643.338074,375.445770 643.268616,368.907501 
	C650.828857,364.090637 657.930542,359.137634 665.493896,355.036011 
	C670.866089,352.122711 672.954041,348.254822 672.852295,342.343719 
	C672.477783,320.590424 672.407410,298.831604 671.955139,277.080444 
	C671.915894,275.194305 670.362671,272.690094 668.750610,271.595734 
	C660.646179,266.094208 652.288391,260.965912 644.055298,255.324707 
	C644.407837,252.561539 644.724792,250.180206 645.382202,247.904205 
	C653.918884,252.853470 662.114990,257.697418 670.311096,262.541351 
	C670.752319,262.311310 671.193542,262.081268 671.634827,261.851257 
	C669.089783,243.235977 666.544739,224.620712 663.883545,205.155365 
	C655.670593,208.084625 648.834839,210.522675 641.998413,212.545685 
	C641.643982,209.703964 641.290344,207.277298 641.199219,204.618286 
	C645.766357,202.661865 650.057251,200.902527 654.378662,199.221573 
	C661.731873,196.361343 662.125977,196.261719 659.729309,188.574799 
	C653.970337,170.103851 647.813171,151.757065 641.988892,132.955688 
	C642.440735,130.096222 642.587769,127.616905 643.032837,125.192299 
	C643.616516,122.012749 644.435181,118.876343 645.152710,115.721390 
	C650.338440,128.450089 656.183899,140.958878 660.520996,153.970459 
	C664.705750,166.525101 667.334106,179.598526 670.783325,192.976135 
	C674.570862,191.903168 678.333984,190.837112 682.578003,190.111298 
	C683.513550,193.049713 683.968140,195.647888 684.114014,198.465363 
	C680.968079,199.594254 677.980225,200.207428 675.357910,201.540024 
	C674.069580,202.194672 672.541870,204.281403 672.678772,205.552444 
	C674.770142,224.969803 677.224670,244.348068 679.316772,263.765350 
	C679.725220,267.556122 681.039001,270.321014 684.125366,272.782288 
	C683.733521,275.771210 683.375549,278.304016 682.700684,280.755219 
	C681.718994,281.537079 680.498291,282.392914 680.486267,283.265381 
	C680.436340,286.904999 680.895508,290.549255 680.904785,294.192474 
	C680.943420,309.288605 680.867371,324.384979 680.888611,339.481201 
	C680.891235,341.352783 679.876587,344.474915 683.930542,343.248413 
	C684.007446,350.364288 684.067200,356.997253 683.910950,363.873779 
	C680.355286,365.925476 679.143677,368.580688 678.804749,372.508606 
	C677.664551,385.726166 676.122864,398.917114 674.391052,412.072998 
	C673.090820,421.950195 672.855408,421.919220 682.058472,426.128113 
	C681.670227,432.825989 681.296570,439.033722 680.922974,445.241486 
z"/>
<path fill="#2FB78D" opacity="1.000000" stroke="none" 
	d="
M423.614380,285.178589 
	C407.452454,267.090546 394.108917,247.349472 389.409729,223.059601 
	C385.586395,203.296692 395.296417,186.858978 414.288544,180.147385 
	C419.421112,178.333618 424.902954,177.508240 430.578522,176.650635 
	C430.633514,181.171768 430.334442,185.271454 429.718903,189.528351 
	C425.167938,191.156509 420.807709,192.344070 416.724548,194.156052 
	C407.589417,198.209869 403.367584,205.700119 404.234467,215.404938 
	C404.728455,220.934967 405.929626,226.849747 408.540497,231.651657 
	C414.396118,242.421143 421.331299,252.603668 427.503357,263.220337 
	C426.786011,268.462219 426.578217,273.533569 425.914703,278.544586 
	C425.613739,280.817627 424.409088,282.970947 423.614380,285.178589 
z"/>
<path fill="#90DAB6" opacity="1.000000" stroke="none" 
	d="
M777.395874,351.171417 
	C790.584595,366.415588 802.989929,382.176270 808.454407,402.089355 
	C815.569031,428.016144 803.822510,447.513184 777.486633,453.772827 
	C774.258301,454.540100 770.971191,455.060181 767.210083,455.629883 
	C766.460327,455.512421 766.242981,455.575165 766.056702,455.753143 
	C763.986145,455.928680 761.915588,456.104218 759.526245,455.871155 
	C760.140503,450.356628 761.073486,445.250732 762.424805,440.075073 
	C767.099854,439.330170 771.414673,438.906372 775.602661,437.935242 
	C791.775696,434.184784 798.466064,424.361816 795.906738,408.117584 
	C795.395081,404.870056 794.724365,401.437622 793.188293,398.598267 
	C786.904114,386.981445 780.256287,375.561371 774.102112,363.900269 
	C774.973389,362.099121 775.597717,360.491852 775.970215,358.828186 
	C776.537048,356.296417 776.929443,353.725647 777.395874,351.171417 
z"/>
<path fill="#5BC996" opacity="1.000000" stroke="none" 
	d="
M542.984985,494.534332 
	C543.283569,481.568176 543.579895,468.952484 544.051270,456.343384 
	C544.148071,453.754730 544.899719,451.190613 545.672363,448.707153 
	C550.005981,462.278412 553.369385,475.994232 558.185791,489.179230 
	C564.716309,507.056885 572.893127,524.173401 589.033325,536.287659 
	C589.360901,541.425720 589.683472,546.130676 590.006042,550.835571 
	C578.934204,547.996765 571.113647,540.575012 564.158630,532.128967 
	C554.966553,520.966309 548.411072,508.249451 542.984985,494.534332 
z"/>
<path fill="#5CCA96" opacity="1.000000" stroke="none" 
	d="
M547.732361,173.995834 
	C547.155212,172.215683 546.119385,170.445694 546.079651,168.653610 
	C545.899048,160.517334 546.210571,152.366150 545.875977,144.239624 
	C545.768616,141.634125 544.220581,139.087967 543.129761,136.199661 
	C549.394348,119.187363 557.757385,103.642654 570.649353,90.925560 
	C577.021912,84.639412 584.397705,80.006470 593.949829,78.450775 
	C595.084106,82.962769 595.583374,87.205139 595.790039,91.607529 
	C583.248352,95.778099 576.216248,105.449432 570.015320,115.772751 
	C559.164001,133.838150 552.939026,153.736816 547.732361,173.995834 
z"/>
<path fill="#4AC28F" opacity="1.000000" stroke="none" 
	d="
M488.640106,291.867218 
	C489.712433,294.018341 490.784760,296.169434 491.756836,298.979828 
	C487.157410,303.400757 482.658203,307.162384 477.700104,311.307678 
	C482.473053,315.257965 486.739349,318.788879 491.005615,322.319794 
	C490.769287,330.332458 490.532990,338.345123 489.752991,346.572571 
	C483.021942,341.855255 476.726990,337.051086 470.672180,331.961304 
	C461.433380,324.195038 461.503845,324.111206 452.841736,332.916962 
	C451.652191,329.805481 450.799774,326.847870 449.947296,323.890259 
	C451.523590,322.443115 453.099945,320.995972 455.030090,319.224060 
	C453.984558,317.846222 453.140961,316.734467 452.140381,314.875122 
	C452.412781,306.185944 452.842163,298.244354 453.561066,290.513428 
	C458.247223,294.645813 462.759125,298.448059 466.996338,302.535034 
	C469.451294,304.902954 471.280853,305.280151 474.095032,302.894196 
	C478.728821,298.965485 483.770416,295.517731 488.640106,291.867218 
z"/>
<path fill="#90DAB6" opacity="1.000000" stroke="none" 
	d="
M808.012878,192.788681 
	C813.588379,197.660339 814.955688,204.160828 811.827393,210.685577 
	C811.192444,212.009796 810.267456,213.406494 810.246277,214.781662 
	C809.935791,234.953903 800.230835,251.409149 789.140869,267.121918 
	C782.928040,275.924652 775.626648,283.959137 768.482666,292.020081 
	C767.778320,284.852173 767.407166,278.004028 767.172363,270.842468 
	C772.098450,264.346497 777.179626,258.364777 781.611450,251.935394 
	C788.724487,241.616211 794.876099,230.768005 796.893188,217.999451 
	C798.132507,217.960724 799.033752,217.929459 800.324524,217.902496 
	C807.449646,216.388641 807.954529,215.785675 807.982422,209.072708 
	C808.005005,203.644760 808.003662,198.216690 808.012878,192.788681 
z"/>
<path fill="#2DB68E" opacity="1.000000" stroke="none" 
	d="
M409.572510,447.278015 
	C396.766541,442.130646 388.420563,426.414795 390.358521,411.766632 
	C392.991882,391.861633 403.542908,375.873016 415.258392,360.424316 
	C417.158997,357.918060 419.321228,355.610199 421.739868,353.434479 
	C422.829803,357.667725 423.542358,361.677155 424.130096,365.964905 
	C422.373291,368.735046 420.760803,371.239899 419.105927,373.716431 
	C412.543915,383.536346 406.726776,393.713745 403.961975,405.347076 
	C401.187164,417.022644 402.517914,427.428864 412.973328,435.200836 
	C411.680023,439.430420 410.626282,443.354218 409.572510,447.278015 
z"/>
<path fill="#87D6B0" opacity="1.000000" stroke="none" 
	d="
M767.036072,271.155823 
	C767.407166,278.004028 767.778320,284.852173 768.194214,292.224365 
	C759.878296,300.909546 751.517578,309.070679 743.270813,317.120636 
	C749.149292,322.628296 754.547546,327.686096 760.015015,333.478210 
	C759.373596,337.856567 758.663025,341.500610 757.671387,344.959351 
	C751.460815,338.811066 745.637451,332.735046 739.510437,326.982361 
	C738.315674,325.860596 735.941650,325.994812 734.089722,325.038910 
	C734.045105,320.773956 734.249268,316.999847 733.922119,313.272400 
	C733.692017,310.649628 732.739441,308.090240 732.328064,305.231567 
	C744.043152,293.692352 755.539612,282.424072 767.036072,271.155823 
z"/>
<path fill="#67CD9C" opacity="1.000000" stroke="none" 
	d="
M590.400024,550.987183 
	C589.683472,546.130676 589.360901,541.425720 589.386230,536.401489 
	C598.897217,541.057800 607.454895,539.442627 615.259033,533.252014 
	C619.001404,530.283386 622.820801,527.038818 625.475098,523.148193 
	C631.257935,514.671631 636.316345,505.700867 641.670898,496.932098 
	C642.446899,500.186676 643.233948,503.438690 643.994812,506.696808 
	C644.456238,508.672455 644.877075,510.657593 645.653931,512.818970 
	C640.324280,525.388977 632.660217,536.265015 621.737122,544.600708 
	C612.484619,551.661499 602.141357,553.847839 590.400024,550.987183 
z"/>
<path fill="#67CD9C" opacity="1.000000" stroke="none" 
	d="
M596.082642,91.447510 
	C595.583374,87.205139 595.084106,82.962769 594.331482,78.448654 
	C608.662476,76.630394 620.605103,82.165688 629.814209,92.946663 
	C635.590393,99.708847 640.001709,107.636932 645.089111,115.381653 
	C644.435181,118.876343 643.616516,122.012749 643.032837,125.192299 
	C642.587769,127.616905 642.440735,130.096222 641.757996,132.680084 
	C640.216858,130.585541 639.120117,128.339905 637.933899,126.142548 
	C632.053223,115.249283 625.646240,104.776291 615.643250,97.009079 
	C609.829956,92.495117 603.435791,90.373291 596.082642,91.447510 
z"/>
<path fill="#83D5AD" opacity="1.000000" stroke="none" 
	d="
M762.006409,440.144775 
	C761.073486,445.250732 760.140503,450.356628 759.081665,455.836914 
	C745.906738,455.474548 732.857788,454.737823 719.392456,453.493774 
	C718.679932,447.186371 718.383789,441.386261 718.509155,435.653503 
	C733.289307,437.195496 747.647827,438.670135 762.006409,440.144775 
z"/>
<path fill="#3EBD8E" opacity="1.000000" stroke="none" 
	d="
M453.271545,290.302765 
	C452.842163,298.244354 452.412781,306.185944 451.974121,314.602600 
	C442.616241,305.317780 433.267639,295.557861 423.766724,285.488281 
	C424.409088,282.970947 425.613739,280.817627 425.914703,278.544586 
	C426.578217,273.533569 426.786011,268.462219 427.740387,263.468109 
	C430.320435,265.902710 432.235077,268.383942 434.379059,270.647949 
	C440.627380,277.246124 446.967438,283.757416 453.271545,290.302765 
z"/>
<path fill="#7AD2A5" opacity="1.000000" stroke="none" 
	d="
M718.087585,435.586151 
	C718.383789,441.386261 718.679932,447.186371 718.989441,453.399536 
	C706.514465,451.087311 694.026184,448.362061 681.230469,445.439148 
	C681.296570,439.033722 681.670227,432.825989 682.436340,426.211578 
	C694.581787,429.065338 706.334656,432.325745 718.087585,435.586151 
z"/>
<path fill="#89D7B3" opacity="1.000000" stroke="none" 
	d="
M734.857849,177.650513 
	C753.256104,175.067230 771.532715,174.520111 788.981445,182.276474 
	C792.623413,183.895401 795.650208,186.898346 798.634644,189.616119 
	C795.511963,191.169891 792.715027,192.371017 789.632812,193.747696 
	C788.596191,194.369568 787.844971,194.815887 786.781738,195.068130 
	C778.581116,192.586853 770.819702,189.302521 762.770325,188.276428 
	C753.647278,187.113464 744.266357,187.974014 735.237427,187.687317 
	C738.811096,183.938950 735.697327,180.866821 734.857849,177.650513 
z"/>
<path fill="#46C08F" opacity="1.000000" stroke="none" 
	d="
M481.005554,437.068207 
	C481.029297,441.877777 481.053040,446.687347 481.049469,451.947449 
	C466.757507,455.163757 452.416138,456.688629 437.762878,454.802856 
	C438.761200,452.847473 440.459595,451.278015 440.852783,449.430786 
	C441.412659,446.800323 441.014374,443.965881 441.488831,441.173462 
	C454.970062,439.774933 467.987823,438.421570 481.005554,437.068207 
z"/>
<path fill="#42BF8F" opacity="1.000000" stroke="none" 
	d="
M430.035370,189.371124 
	C430.334442,185.271454 430.633514,181.171768 430.978333,176.678070 
	C445.934509,174.218262 460.649414,175.969925 475.662537,178.732239 
	C475.518707,182.363434 475.034088,185.815247 473.870300,189.545166 
	C458.827271,187.630219 444.444122,187.279694 430.035370,189.371124 
z"/>
<path fill="#7CD3A7" opacity="1.000000" stroke="none" 
	d="
M734.421631,177.666748 
	C735.697327,180.866821 738.811096,183.938950 734.848816,187.801208 
	C717.621155,191.537048 701.021973,194.891556 684.422729,198.246063 
	C683.968140,195.647888 683.513550,193.049713 682.970703,190.061234 
	C699.916809,185.674957 716.951111,181.678970 734.421631,177.666748 
z"/>
<path fill="#36BA8E" opacity="1.000000" stroke="none" 
	d="
M441.025391,441.218597 
	C441.014374,443.965881 441.412659,446.800323 440.852783,449.430786 
	C440.459595,451.278015 438.761200,452.847473 437.344482,454.743103 
	C427.582550,454.354553 418.451141,452.530426 409.840485,447.515381 
	C410.626282,443.354218 411.680023,439.430420 413.311768,435.292572 
	C422.393555,439.517822 431.683594,440.482574 441.025391,441.218597 
z"/>
<path fill="#3BBC8E" opacity="1.000000" stroke="none" 
	d="
M424.254913,365.686554 
	C423.542358,361.677155 422.829803,357.667725 422.017395,353.240845 
	C431.072662,343.299469 440.227753,333.775543 449.665100,324.070953 
	C450.799774,326.847870 451.652191,329.805481 452.658752,333.201691 
	C443.293549,344.322388 433.774231,355.004486 424.254913,365.686554 
z"/>
<path fill="#89D7B3" opacity="1.000000" stroke="none" 
	d="
M757.952454,345.144592 
	C758.663025,341.500610 759.373596,337.856567 760.155151,333.756927 
	C765.849915,339.079041 771.473694,344.856781 777.246643,350.902954 
	C776.929443,353.725647 776.537048,356.296417 775.970215,358.828186 
	C775.597717,360.491852 774.973389,362.099121 773.836426,363.715210 
	C768.124817,357.514038 763.038635,351.329315 757.952454,345.144592 
z"/>
<path fill="#5BC996" opacity="1.000000" stroke="none" 
	d="
M789.918152,193.572159 
	C792.715027,192.371017 795.511963,191.169891 798.713745,189.951477 
	C799.118652,189.934189 799.564575,189.968994 799.783752,190.475143 
	C799.980286,199.953598 799.957642,208.925888 799.935059,217.898193 
	C799.033752,217.929459 798.132507,217.960724 796.538452,217.886993 
	C793.855713,216.592682 791.865784,215.403351 789.982788,213.790619 
	C790.032593,206.768860 789.975342,200.170502 789.918152,193.572159 
z"/>
<path fill="#71D0A0" opacity="1.000000" stroke="none" 
	d="
M800.324585,217.902496 
	C799.957642,208.925888 799.980286,199.953598 800.003540,190.516632 
	C802.539368,190.778397 805.074585,191.504822 807.811279,192.509964 
	C808.003662,198.216690 808.005005,203.644760 807.982422,209.072708 
	C807.954529,215.785675 807.449646,216.388641 800.324585,217.902496 
z"/>
<path fill="#83D5AD" opacity="1.000000" stroke="none" 
	d="
M766.276855,455.779114 
	C766.242981,455.575165 766.460327,455.512421 766.814697,455.619293 
	C766.920593,455.673645 766.497070,455.805054 766.276855,455.779114 
z"/>
<path fill="#0181CC" opacity="1.000000" stroke="none" 
	d="
M644.019592,255.706543 
	C652.288391,260.965912 660.646179,266.094208 668.750610,271.595734 
	C670.362671,272.690094 671.915894,275.194305 671.955139,277.080444 
	C672.407410,298.831604 672.477783,320.590424 672.852295,342.343719 
	C672.954041,348.254822 670.866089,352.122711 665.493896,355.036011 
	C657.930542,359.137634 650.828857,364.090637 642.942993,369.006042 
	C629.245239,376.630951 616.134277,383.929413 602.642090,391.198730 
	C600.284058,390.341034 598.211182,389.686310 596.345276,388.656647 
	C580.881409,380.123016 565.455872,371.520111 550.018738,362.938141 
	C545.444336,359.934448 540.740295,357.103973 536.366821,353.831757 
	C534.863098,352.706665 533.268372,350.479065 533.267151,348.754059 
	C533.249817,324.034393 533.566284,299.314728 533.615295,274.594696 
	C533.623413,270.498230 535.527588,268.244263 538.804321,266.393188 
	C542.122803,264.518524 545.264221,262.330444 549.065186,259.951263 
	C565.428894,250.780243 581.210693,241.937668 597.334717,233.017365 
	C599.696655,233.253708 601.922913,233.126450 603.700073,233.958344 
	C611.341003,237.535019 618.850098,241.393494 626.618896,245.446259 
	C632.560242,249.064316 638.289917,252.385422 644.019592,255.706543 
M621.699158,337.091766 
	C634.715027,324.529083 634.487976,305.400726 620.816956,291.971283 
	C618.866333,290.647186 616.915710,289.323059 614.458862,287.507843 
	C610.977966,286.431488 607.497009,285.355133 603.130432,284.088684 
	C599.401550,284.452942 595.672607,284.817200 591.481995,285.257538 
	C591.146362,285.358276 590.945923,285.580872 590.895996,285.739197 
	C590.895996,285.739197 590.710083,285.721863 589.996948,285.781036 
	C585.920410,288.427643 581.843872,291.074249 577.224426,294.123840 
	C565.835938,306.289673 566.224792,325.653107 578.457336,337.395142 
	C582.644592,339.853577 586.831787,342.312012 591.822876,345.009369 
	C595.885864,345.255981 599.948914,345.502594 604.758423,345.759369 
	C607.508911,344.855652 610.259338,343.951935 613.694092,342.944305 
	C616.188660,341.154633 618.683167,339.364929 621.699158,337.091766 
z"/>
<path fill="#0181CC" opacity="1.000000" stroke="none" 
	d="
M595.790039,91.607529 
	C603.435791,90.373291 609.829956,92.495117 615.643250,97.009079 
	C625.646240,104.776291 632.053223,115.249283 637.933899,126.142548 
	C639.120117,128.339905 640.216858,130.585541 641.585815,133.084564 
	C647.813171,151.757065 653.970337,170.103851 659.729309,188.574799 
	C662.125977,196.261719 661.731873,196.361343 654.378662,199.221573 
	C650.057251,200.902527 645.766357,202.661865 640.829590,204.673462 
	C629.790710,209.560410 619.465088,214.358597 608.933716,218.652390 
	C605.205627,220.172379 601.942993,224.107025 596.877014,221.667603 
	C580.784790,214.475433 564.947083,207.517319 549.109375,200.559204 
	C543.557251,199.301270 542.268127,196.103073 543.953430,190.752579 
	C545.593750,185.544922 546.482117,180.100418 547.716553,174.377869 
	C552.939026,153.736816 559.164001,133.838150 570.015320,115.772751 
	C576.216248,105.449432 583.248352,95.778099 595.790039,91.607529 
z"/>
<path fill="#0081CC" opacity="1.000000" stroke="none" 
	d="
M429.718903,189.528351 
	C444.444122,187.279694 458.827271,187.630219 473.606567,189.804169 
	C489.076508,193.151581 504.121643,196.561142 519.192810,199.851456 
	C522.546570,200.583664 523.252991,202.386612 522.844849,205.588715 
	C520.098145,227.139954 517.567688,248.719070 514.723328,270.256958 
	C514.488892,272.032532 512.749695,273.967072 511.194122,275.149384 
	C503.924561,280.674591 496.474121,285.961823 488.864197,291.600647 
	C483.770416,295.517731 478.728821,298.965485 474.095032,302.894196 
	C471.280853,305.280151 469.451294,304.902954 466.996338,302.535034 
	C462.759125,298.448059 458.247223,294.645813 453.561066,290.513428 
	C446.967438,283.757416 440.627380,277.246124 434.379059,270.647949 
	C432.235077,268.383942 430.320435,265.902710 428.063965,263.272949 
	C421.331299,252.603668 414.396118,242.421143 408.540497,231.651657 
	C405.929626,226.849747 404.728455,220.934967 404.234467,215.404938 
	C403.367584,205.700119 407.589417,198.209869 416.724548,194.156052 
	C420.807709,192.344070 425.167938,191.156509 429.718903,189.528351 
z"/>
<path fill="#0081CC" opacity="1.000000" stroke="none" 
	d="
M424.130096,365.964905 
	C433.774231,355.004486 443.293549,344.322388 452.995850,333.355591 
	C461.503845,324.111206 461.433380,324.195038 470.672180,331.961304 
	C476.726990,337.051086 483.021942,341.855255 489.510742,346.914673 
	C497.039276,352.377502 504.390625,357.557159 511.408081,363.155487 
	C513.213440,364.595703 514.743103,367.239380 515.080566,369.524933 
	C517.607117,386.636749 519.669006,403.817200 522.207825,420.927002 
	C522.755737,424.619904 521.697510,425.971466 518.338867,426.854462 
	C506.113312,430.068634 493.943115,433.493317 481.378815,436.953430 
	C467.987823,438.421570 454.970062,439.774933 441.488831,441.173462 
	C431.683594,440.482574 422.393555,439.517822 413.551270,434.986786 
	C402.517914,427.428864 401.187164,417.022644 403.961975,405.347076 
	C406.726776,393.713745 412.543915,383.536346 419.105927,373.716431 
	C420.760803,371.239899 422.373291,368.735046 424.130096,365.964905 
z"/>
<path fill="#0181CC" opacity="1.000000" stroke="none" 
	d="
M641.774902,496.570679 
	C636.316345,505.700867 631.257935,514.671631 625.475098,523.148193 
	C622.820801,527.038818 619.001404,530.283386 615.259033,533.252014 
	C607.454895,539.442627 598.897217,541.057800 589.381226,535.968262 
	C572.893127,524.173401 564.716309,507.056885 558.185791,489.179230 
	C553.369385,475.994232 550.005981,462.278412 545.892822,448.400482 
	C545.355591,445.730896 545.126648,443.395508 544.440369,441.203308 
	C543.237976,437.362518 544.506287,435.152283 549.044983,434.068420 
	C564.138000,427.867584 578.601318,422.021393 592.903320,415.803955 
	C596.366150,414.298553 599.399719,413.653259 603.030518,415.631836 
	C616.862244,421.537354 630.432922,427.226959 644.003540,432.916565 
	C648.173218,434.547272 652.278015,436.381531 656.534546,437.740112 
	C659.579651,438.712036 660.479187,440.089294 659.433167,443.205902 
	C653.511292,460.850067 647.716736,478.536926 641.774902,496.570679 
z"/>
<path fill="#5ECA96" opacity="1.000000" stroke="none" 
	d="
M602.769470,415.415955 
	C599.399719,413.653259 596.366150,414.298553 592.903320,415.803955 
	C578.601318,422.021393 564.138000,427.867584 549.370178,433.893738 
	C549.029480,428.246155 549.052551,422.554962 549.335571,416.252960 
	C558.510742,411.721008 567.426025,407.799896 577.192200,403.504547 
	C566.869385,397.415527 557.939026,392.147858 549.008667,386.880157 
	C549.342407,379.214996 549.676147,371.549866 550.014282,363.411438 
	C565.455872,371.520111 580.881409,380.123016 596.345276,388.656647 
	C598.211182,389.686310 600.284058,390.341034 602.734375,391.589020 
	C603.061646,399.810974 602.915527,407.613464 602.769470,415.415955 
z"/>
<path fill="#0282CB" opacity="1.000000" stroke="none" 
	d="
M546.097229,253.030655 
	C542.668579,254.924393 539.239990,256.818146 534.750488,259.297852 
	C535.349304,252.337738 535.696960,246.442810 536.397156,240.590057 
	C537.462463,231.686264 538.764343,222.810654 539.980347,213.925079 
	C540.897644,207.222763 540.984375,207.177689 547.334534,209.287811 
	C547.964600,209.497192 548.610168,209.659836 549.922852,210.085876 
	C563.632080,215.806808 576.666992,221.286072 590.522888,227.110428 
	C574.784790,236.292877 560.440979,244.661774 546.097229,253.030655 
z"/>
<path fill="#0282CB" opacity="1.000000" stroke="none" 
	d="
M491.291931,322.458496 
	C486.739349,318.788879 482.473053,315.257965 477.700104,311.307678 
	C482.658203,307.162384 487.157410,303.400757 491.835297,299.363129 
	C498.927765,294.087067 505.841553,289.086975 513.125183,283.819427 
	C513.125183,301.972870 513.125183,319.225952 513.125183,336.479034 
	C512.682617,336.759827 512.240112,337.040619 511.797577,337.321411 
	C505.057800,332.413361 498.318054,327.505280 491.291931,322.458496 
z"/>
<path fill="#5CC998" opacity="1.000000" stroke="none" 
	d="
M546.460815,253.084381 
	C560.440979,244.661774 574.784790,236.292877 590.522888,227.110428 
	C576.666992,221.286072 563.632080,215.806808 550.301575,210.122559 
	C549.737610,207.087814 549.469238,204.258087 549.155090,200.993774 
	C564.947083,207.517319 580.784790,214.475433 596.702637,221.930771 
	C596.852722,225.983704 596.922607,229.539398 596.992432,233.095093 
	C581.210693,241.937668 565.428894,250.780243 549.326538,259.725342 
	C548.278748,257.597961 547.551575,255.368011 546.460815,253.084381 
z"/>
<path fill="#0282CB" opacity="1.000000" stroke="none" 
	d="
M548.683960,386.778687 
	C557.939026,392.147858 566.869385,397.415527 577.192200,403.504547 
	C567.426025,407.799896 558.510742,411.721008 549.300171,415.838074 
	C546.346130,416.857574 543.687378,417.681122 540.077271,418.799377 
	C538.497986,405.798676 536.977295,393.280945 535.456665,380.763245 
	C535.944580,380.528381 536.432495,380.293518 536.920410,380.058685 
	C540.733398,382.264862 544.546326,384.471008 548.683960,386.778687 
z"/>
<path fill="#0181CC" opacity="1.000000" stroke="none" 
	d="
M789.875793,214.214020 
	C791.865784,215.403351 793.855713,216.592682 796.200439,217.894470 
	C794.876099,230.768005 788.724487,241.616211 781.611450,251.935394 
	C777.179626,258.364777 772.098450,264.346497 767.172363,270.842468 
	C755.539612,282.424072 744.043152,293.692352 732.040527,305.354279 
	C729.857178,304.844757 728.054810,304.115265 726.522217,303.011261 
	C712.374695,292.819733 698.273682,282.563538 684.159180,272.326141 
	C681.039001,270.321014 679.725220,267.556122 679.316772,263.765350 
	C677.224670,244.348068 674.770142,224.969803 672.678772,205.552444 
	C672.541870,204.281403 674.069580,202.194672 675.357910,201.540024 
	C677.980225,200.207428 680.968079,199.594254 684.114014,198.465363 
	C701.021973,194.891556 717.621155,191.537048 734.609009,188.068665 
	C744.266357,187.974014 753.647278,187.113464 762.770325,188.276428 
	C770.819702,189.302521 778.581116,192.586853 786.687134,195.424500 
	C784.196045,202.657227 783.793701,208.963791 789.875793,214.214020 
z"/>
<path fill="#0181CC" opacity="1.000000" stroke="none" 
	d="
M757.671387,344.959351 
	C763.038635,351.329315 768.124817,357.514038 773.476685,363.883820 
	C780.256287,375.561371 786.904114,386.981445 793.188293,398.598267 
	C794.724365,401.437622 795.395081,404.870056 795.906738,408.117584 
	C798.466064,424.361816 791.775696,434.184784 775.602661,437.935242 
	C771.414673,438.906372 767.099854,439.330170 762.424805,440.075073 
	C747.647827,438.670135 733.289307,437.195496 718.509155,435.653503 
	C706.334656,432.325745 694.581787,429.065338 682.450989,425.721466 
	C672.855408,421.919220 673.090820,421.950195 674.391052,412.072998 
	C676.122864,398.917114 677.664551,385.726166 678.804749,372.508606 
	C679.143677,368.580688 680.355286,365.925476 684.242676,363.717102 
	C701.230774,350.727783 717.671143,338.138733 734.111511,325.549683 
	C735.941650,325.994812 738.315674,325.860596 739.510437,326.982361 
	C745.637451,332.735046 751.460815,338.811066 757.671387,344.959351 
z"/>
<path fill="#0282CB" opacity="1.000000" stroke="none" 
	d="
M641.999146,212.960739 
	C648.834839,210.522675 655.670593,208.084625 663.883545,205.155365 
	C666.544739,224.620712 669.089783,243.235977 671.634827,261.851257 
	C671.193542,262.081268 670.752319,262.311310 670.311096,262.541351 
	C662.114990,257.697418 653.918884,252.853470 645.175659,247.648132 
	C639.752747,244.539551 634.876953,241.792343 629.713318,238.838196 
	C622.805237,235.067642 616.184875,231.504013 608.770386,227.512894 
	C620.426147,222.408386 631.212646,217.684570 641.999146,212.960739 
z"/>
<path fill="#67CD9C" opacity="1.000000" stroke="none" 
	d="
M603.030518,415.631836 
	C602.915527,407.613464 603.061646,399.810974 603.115479,391.618164 
	C616.134277,383.929413 629.245239,376.630951 642.681885,369.233948 
	C643.338074,375.445770 643.668579,381.756073 643.761841,388.777405 
	C636.813599,393.298737 630.102722,397.109070 622.526245,401.410858 
	C630.792725,405.236145 638.015320,408.578369 645.237915,411.920593 
	C644.825317,416.790436 644.371826,421.657349 644.021118,426.531677 
	C643.890808,428.342896 644.001099,430.171478 644.002563,432.454346 
	C630.432922,427.226959 616.862244,421.537354 603.030518,415.631836 
z"/>
<path fill="#7CD3A7" opacity="1.000000" stroke="none" 
	d="
M734.089722,325.038879 
	C717.671143,338.138733 701.230774,350.727783 684.458679,363.473511 
	C684.067200,356.997253 684.007446,350.364288 684.126831,342.986328 
	C697.311829,332.590271 710.317566,322.939240 724.446228,312.454956 
	C709.862000,301.324371 696.439819,291.080597 683.017578,280.836823 
	C683.375549,278.304016 683.733521,275.771210 684.125366,272.782288 
	C698.273682,282.563538 712.374695,292.819733 726.522217,303.011261 
	C728.054810,304.115265 729.857178,304.844757 731.821899,305.625244 
	C732.739441,308.090240 733.692017,310.649628 733.922119,313.272400 
	C734.249268,316.999847 734.045105,320.773956 734.089722,325.038879 
z"/>
<path fill="#0282CB" opacity="1.000000" stroke="none" 
	d="
M682.700684,280.755219 
	C696.439819,291.080597 709.862000,301.324371 724.446228,312.454956 
	C710.317566,322.939240 697.311829,332.590271 684.109741,342.503387 
	C679.876587,344.474915 680.891235,341.352783 680.888611,339.481201 
	C680.867371,324.384979 680.943420,309.288605 680.904785,294.192474 
	C680.895508,290.549255 680.436340,286.904999 680.486267,283.265381 
	C680.498291,282.392914 681.718994,281.537079 682.700684,280.755219 
z"/>
<path fill="#0282CB" opacity="1.000000" stroke="none" 
	d="
M645.539307,412.102722 
	C638.015320,408.578369 630.792725,405.236145 622.526245,401.410858 
	C630.102722,397.109070 636.813599,393.298737 643.761230,389.245239 
	C652.437256,384.016724 660.876465,379.031403 669.653687,374.023071 
	C669.991638,374.000061 669.953979,373.963196 669.953979,373.963196 
	C668.441467,388.611877 666.928955,403.260559 665.285400,419.178894 
	C657.803223,416.526123 651.821960,414.405518 645.539307,412.102722 
z"/>
<path fill="#65CC9C" opacity="1.000000" stroke="none" 
	d="
M641.998413,212.545700 
	C631.212646,217.684570 620.426147,222.408386 608.770386,227.512894 
	C616.184875,231.504013 622.805237,235.067642 629.711914,239.255280 
	C630.092651,242.515945 629.930908,244.978104 626.407166,245.149292 
	C618.850098,241.393494 611.341003,237.535019 603.700073,233.958344 
	C601.922913,233.126450 599.696655,233.253708 597.334778,233.017365 
	C596.922607,229.539398 596.852722,225.983704 596.957153,222.164825 
	C601.942993,224.107025 605.205627,220.172379 608.933716,218.652390 
	C619.465088,214.358597 629.790710,209.560410 640.567078,204.905792 
	C641.290344,207.277298 641.643982,209.703964 641.998413,212.545700 
z"/>
<path fill="#67CD9C" opacity="1.000000" stroke="none" 
	d="
M626.618896,245.446259 
	C629.930908,244.978104 630.092651,242.515945 629.999695,239.462219 
	C634.876953,241.792343 639.752747,244.539551 644.835144,247.542816 
	C644.724792,250.180206 644.407837,252.561539 644.055298,255.324707 
	C638.289917,252.385422 632.560242,249.064316 626.618896,245.446259 
z"/>
<path fill="#0282CB" opacity="1.000000" stroke="none" 
	d="
M670.009277,374.019684 
	C670.026855,374.039307 670.143738,373.787262 670.143738,373.787262 
	C670.143738,373.787262 670.111267,373.978882 670.032593,373.971039 
	C669.953979,373.963196 669.991638,374.000061 670.009277,374.019684 
z"/>
<path fill="#3BBC8E" opacity="1.000000" stroke="none" 
	d="
M789.982788,213.790619 
	C783.793701,208.963791 784.196045,202.657227 786.999146,195.618591 
	C787.844971,194.815887 788.596191,194.369568 789.632812,193.747696 
	C789.975342,200.170502 790.032593,206.768860 789.982788,213.790619 
z"/>
<path fill="#61CB98" opacity="1.000000" stroke="none" 
	d="
M591.943726,285.181458 
	C595.672607,284.817200 599.401550,284.452942 603.571167,284.632355 
	C604.011963,305.367096 604.011963,325.558136 604.011902,345.749207 
	C599.948914,345.502594 595.885864,345.255981 591.458984,344.488800 
	C591.394165,341.848358 591.941895,339.729736 591.952515,337.608398 
	C592.027771,322.569855 592.046204,307.530334 591.935974,292.492218 
	C591.919434,290.232574 591.137756,287.978516 590.710083,285.721863 
	C590.710083,285.721863 590.895996,285.739197 591.081177,285.730408 
	C591.515686,285.571075 591.741455,285.391022 591.943726,285.181458 
z"/>
<path fill="#52C690" opacity="1.000000" stroke="none" 
	d="
M590.353516,285.751465 
	C591.137756,287.978516 591.919434,290.232574 591.935974,292.492218 
	C592.046204,307.530334 592.027771,322.569855 591.952515,337.608398 
	C591.941895,339.729736 591.394165,341.848358 591.057007,344.369324 
	C586.831787,342.312012 582.644592,339.853577 578.346313,336.718872 
	C578.386414,322.699951 578.552979,309.357391 578.648071,296.014343 
	C578.653503,295.251953 578.074402,294.485413 577.767334,293.720825 
	C581.843872,291.074249 585.920410,288.427643 590.353516,285.751465 
z"/>
<path fill="#71D0A0" opacity="1.000000" stroke="none" 
	d="
M604.385132,345.754272 
	C604.011963,325.558136 604.011963,305.367096 604.014038,284.727386 
	C607.497009,285.355133 610.977966,286.431488 614.372742,287.898499 
	C613.548279,289.685059 612.157776,291.087128 612.170898,292.475861 
	C612.330627,309.334442 612.697083,326.191071 613.009766,343.048187 
	C610.259338,343.951935 607.508911,344.855652 604.385132,345.754272 
z"/>
<path fill="#7FD4A8" opacity="1.000000" stroke="none" 
	d="
M613.351929,342.996246 
	C612.697083,326.191071 612.330627,309.334442 612.170898,292.475861 
	C612.157776,291.087128 613.548279,289.685059 614.625854,288.144073 
	C616.915710,289.323059 618.866333,290.647186 620.830383,292.662048 
	C620.563721,295.150177 620.053955,296.945892 620.041382,298.745117 
	C619.965576,309.576813 619.942139,320.409973 620.056885,331.241028 
	C620.079346,333.356171 620.786438,335.464020 621.177734,337.575256 
	C618.683167,339.364929 616.188660,341.154633 613.351929,342.996246 
z"/>
<path fill="#8DD9B4" opacity="1.000000" stroke="none" 
	d="
M621.438477,337.333496 
	C620.786438,335.464020 620.079346,333.356171 620.056885,331.241028 
	C619.942139,320.409973 619.965576,309.576813 620.041382,298.745117 
	C620.053955,296.945892 620.563721,295.150177 621.006836,292.925171 
	C634.487976,305.400726 634.715027,324.529083 621.438477,337.333496 
z"/>
<path fill="#3BBC8E" opacity="1.000000" stroke="none" 
	d="
M577.495850,293.922333 
	C578.074402,294.485413 578.653503,295.251953 578.648071,296.014343 
	C578.552979,309.357391 578.386414,322.699951 578.158691,336.438354 
	C566.224792,325.653107 565.835938,306.289673 577.495850,293.922333 
z"/>
<path fill="#52C690" opacity="1.000000" stroke="none" 
	d="
M591.712891,285.219482 
	C591.741455,285.391022 591.515686,285.571075 591.073486,285.823456 
	C590.945923,285.580872 591.146362,285.358276 591.712891,285.219482 
z"/>
</svg>