<svg version="1.1" id="Layer_1" xmlns="http://www.w3.org/2000/svg" xmlns:xlink="http://www.w3.org/1999/xlink" x="0px" y="0px"
	 width="100%" viewBox="510 215 185 195" enable-background="new 510 215 185 195" xml:space="preserve">
<path fill="#0081CC" opacity="1.000000" stroke="none" 
	d="
M534.532471,318.972809 
	C527.810120,326.832855 518.896057,332.984589 515.280762,343.265198 
	C513.665649,347.858093 511.720612,352.500610 511.185516,357.262238 
	C510.623962,362.259003 518.262390,370.761505 523.740662,371.833008 
	C529.302673,372.920868 535.023926,374.022552 540.634583,373.842957 
	C549.406372,373.562134 558.143738,372.207306 566.357788,371.362762 
	C568.128052,375.960236 570.124268,380.913544 571.947449,385.929749 
	C575.245422,395.003601 578.979370,403.522583 588.069031,408.714081 
	C601.376892,416.314911 612.461426,413.410034 621.052795,401.764435 
	C626.630127,394.204346 629.739075,385.419708 631.658630,376.556580 
	C632.776550,371.394714 635.136414,371.500549 638.378235,372.184784 
	C651.092773,374.868408 663.867615,374.807434 676.583740,372.862793 
	C681.804626,372.064392 690.481934,364.640198 691.056702,359.774292 
	C692.244141,349.721130 689.073059,341.170410 682.444580,333.833893 
	C676.960205,327.763641 671.208740,321.934723 665.802490,316.237885 
	C666.582947,315.563751 667.936157,314.633331 668.992981,313.440247 
	C673.234619,308.651611 677.872070,304.113220 681.445801,298.858398 
	C685.989563,292.177155 692.308105,286.038483 691.054138,276.722839 
	C690.941406,275.885315 691.261597,274.793274 691.767700,274.103180 
	C693.796326,271.336945 693.583374,269.002258 691.094299,266.581299 
	C684.893799,260.550568 677.331848,257.505524 668.903503,257.077240 
	C657.628906,256.504364 646.355225,256.794617 635.224609,261.416473 
	C633.392151,255.718719 632.080994,250.250961 629.883484,245.166275 
	C627.232300,239.031937 624.465698,232.767838 620.611084,227.372940 
	C613.844360,217.902359 596.868958,214.337799 589.093018,220.548843 
	C581.239685,226.821671 575.442261,234.901947 572.034973,244.446365 
	C570.080078,249.922195 568.591064,255.564362 566.889465,261.141174 
	C554.363464,257.354126 542.417725,254.683228 529.890320,256.973145 
	C519.908752,258.797729 510.954254,264.407562 510.885590,276.935577 
	C510.840881,285.083893 514.947754,291.444885 519.219788,297.375580 
	C524.226501,304.326355 530.681763,310.233795 536.838379,316.953552 
	C536.564758,317.178162 535.799377,317.806458 534.532471,318.972809 
z"/>
<path fill="#FFFFFF" opacity="1.000000" stroke="none" 
	d="
M534.783264,318.703796 
	C535.799377,317.806458 536.564758,317.178162 536.838379,316.953552 
	C530.681763,310.233795 524.226501,304.326355 519.219788,297.375580 
	C514.947754,291.444885 510.840881,285.083893 510.885590,276.935577 
	C510.954254,264.407562 519.908752,258.797729 529.890320,256.973145 
	C542.417725,254.683228 554.363464,257.354126 566.889465,261.141174 
	C568.591064,255.564362 570.080078,249.922195 572.034973,244.446365 
	C575.442261,234.901947 581.239685,226.821671 589.093018,220.548843 
	C596.868958,214.337799 613.844360,217.902359 620.611084,227.372940 
	C624.465698,232.767838 627.232300,239.031937 629.883484,245.166275 
	C632.080994,250.250961 633.392151,255.718719 635.224609,261.416473 
	C646.355225,256.794617 657.628906,256.504364 668.903503,257.077240 
	C677.331848,257.505524 684.893799,260.550568 691.094299,266.581299 
	C693.583374,269.002258 693.796326,271.336945 691.767700,274.103180 
	C691.261597,274.793274 690.941406,275.885315 691.054138,276.722839 
	C692.308105,286.038483 685.989563,292.177155 681.445801,298.858398 
	C677.872070,304.113220 673.234619,308.651611 668.992981,313.440247 
	C667.936157,314.633331 666.582947,315.563751 665.802490,316.237885 
	C671.208740,321.934723 676.960205,327.763641 682.444580,333.833893 
	C689.073059,341.170410 692.244141,349.721130 691.056702,359.774292 
	C690.481934,364.640198 681.804626,372.064392 676.583740,372.862793 
	C663.867615,374.807434 651.092773,374.868408 638.378235,372.184784 
	C635.136414,371.500549 632.776550,371.394714 631.658630,376.556580 
	C629.739075,385.419708 626.630127,394.204346 621.052795,401.764435 
	C612.461426,413.410034 601.376892,416.314911 588.069031,408.714081 
	C578.979370,403.522583 575.245422,395.003601 571.947449,385.929749 
	C570.124268,380.913544 568.128052,375.960236 566.357788,371.362762 
	C558.143738,372.207306 549.406372,373.562134 540.634583,373.842957 
	C535.023926,374.022552 529.302673,372.920868 523.740662,371.833008 
	C518.262390,370.761505 510.623962,362.259003 511.185516,357.262238 
	C511.720612,352.500610 513.665649,347.858093 515.280762,343.265198 
	C518.896057,332.984589 527.810120,326.832855 534.783264,318.703796 
M679.033203,263.942261 
	C674.277588,260.250427 668.856506,259.204987 662.073364,259.857147 
	C652.715881,261.575043 643.358398,263.292938 633.218018,265.034698 
	C631.807556,265.368591 630.397095,265.702454 629.393127,265.940125 
	C626.232178,256.614136 623.437805,247.518753 620.054199,238.648087 
	C617.185791,231.127975 613.335144,224.129791 604.280273,220.824661 
	C598.524780,218.812988 593.312073,220.693146 589.787537,224.828644 
	C585.324951,230.064774 581.299377,235.945007 578.383484,242.156815 
	C574.969421,249.429855 572.952515,257.358704 570.276611,265.157135 
	C565.118164,263.896118 560.133911,262.677673 554.423828,261.136414 
	C548.599426,260.570007 542.775085,260.003571 536.167419,259.270325 
	C533.610168,259.807526 531.058105,260.370667 528.494812,260.877319 
	C519.059753,262.742279 514.429749,269.703796 516.566589,279.083740 
	C519.129517,290.333862 525.791016,299.129028 534.009094,307.750977 
	C536.727783,310.592377 539.446411,313.433746 542.249878,316.363770 
	C540.301453,318.529877 538.549683,320.477356 536.199341,322.791718 
	C528.327820,330.489563 520.939270,338.598267 517.728333,349.441315 
	C514.692078,359.694244 518.529114,367.242310 528.775208,369.677856 
	C534.577271,371.057007 540.867615,370.381897 547.746704,370.794067 
	C555.354553,369.360687 562.962402,367.927307 570.787720,366.452942 
	C573.132141,373.368500 575.086365,380.569916 578.000610,387.359283 
	C581.505005,395.523651 585.388184,403.679626 594.510681,408.562958 
	C600.367126,411.356873 605.713074,410.200928 609.822510,405.536591 
	C613.711731,401.122192 617.773499,396.483337 620.171509,391.219788 
	C623.779602,383.299957 626.004272,374.749878 628.898804,366.227203 
	C629.759644,366.405945 630.868530,366.636139 632.733398,367.080780 
	C644.600586,370.290314 656.527344,372.912537 669.703735,370.868011 
	C680.041443,368.585938 685.497803,363.239716 684.752991,354.846497 
	C683.953552,345.837463 679.656799,338.233551 672.910400,331.312561 
	C667.780090,326.337189 662.649841,321.361816 658.023254,316.874908 
	C662.970337,311.132935 667.247559,306.168488 672.091003,300.964355 
	C679.961121,292.748291 684.190552,282.770020 685.674133,271.663208 
	C685.897888,269.987732 683.888062,268.013916 682.318787,265.889648 
	C681.344116,265.430573 680.369385,264.971497 679.033203,263.942261 
z"/>
<path fill="#10bb82" opacity="1.000000" stroke="none" 
	d="
M555.149658,261.459229 
	C560.133911,262.677673 565.118164,263.896118 570.276611,265.157135 
	C572.952515,257.358704 574.969421,249.429855 578.383484,242.156815 
	C581.299377,235.945007 585.324951,230.064774 589.787537,224.828644 
	C593.312073,220.693146 598.524780,218.812988 604.633789,221.420898 
	C604.982544,223.386887 604.977661,224.756607 604.533020,226.070969 
	C598.118530,224.674164 593.938171,227.196121 590.649475,232.018616 
	C583.766357,242.111786 580.730225,253.626205 578.276245,265.336060 
	C578.042847,266.450012 578.845581,268.597961 579.738708,269.001526 
	C586.741089,272.165771 593.874023,275.043671 601.002258,277.921753 
	C601.477478,278.113647 602.243469,277.585205 602.908630,277.747620 
	C602.959717,279.703339 602.976440,281.303192 602.645142,282.844055 
	C601.209717,282.703674 599.873901,282.170715 599.073303,282.610992 
	C591.292480,286.889648 583.543091,291.235229 575.949280,295.833618 
	C574.854919,296.496338 574.119934,298.588745 574.090515,300.037262 
	C573.907776,309.012421 573.928345,317.993103 574.012512,326.970703 
	C574.023804,328.176819 574.411072,329.824646 575.245483,330.497253 
	C578.172302,332.856567 581.264954,335.055908 584.492615,336.984741 
	C588.585754,339.430817 592.872437,341.553192 597.081421,344.132935 
	C597.750977,344.563385 598.414734,344.676086 599.444641,344.850891 
	C600.537048,345.068298 601.263306,345.223572 601.990479,345.809540 
	C601.993469,349.164948 601.995544,352.089661 601.623413,354.983276 
	C600.512085,354.809540 599.774902,354.666901 599.015991,354.209473 
	C598.679138,353.403564 598.364014,352.912506 598.048950,352.421448 
	C597.734009,353.362335 597.419128,354.303223 596.852051,355.477814 
	C590.443481,358.390869 584.286987,361.070221 578.078735,363.772125 
	C581.079346,378.272552 583.780762,392.415894 595.038696,403.229950 
	C594.678711,405.080505 594.337646,406.549866 593.996582,408.019196 
	C585.388184,403.679626 581.505005,395.523651 578.000610,387.359283 
	C575.086365,380.569916 573.132141,373.368500 570.787720,366.452942 
	C562.962402,367.927307 555.354553,369.360687 547.351562,370.364319 
	C546.625427,368.356049 546.294434,366.777588 546.354614,365.082153 
	C554.407898,363.140717 562.070007,361.316193 569.802002,359.475067 
	C569.096130,355.451385 568.061340,352.508850 568.164185,349.606720 
	C568.530334,339.285339 564.858643,331.511780 555.271729,326.905640 
	C553.975708,326.282990 552.986389,325.021942 552.248352,323.992371 
	C553.458679,321.539703 554.275757,319.151123 555.423462,316.868774 
	C558.922974,319.236816 562.091797,321.498688 565.744141,324.105652 
	C565.744141,316.663452 565.744141,310.030975 565.744141,302.796631 
	C561.488770,305.717957 557.736206,308.294128 553.987183,310.453766 
	C553.952454,309.205383 553.914185,308.373505 554.061279,307.286591 
	C557.570801,304.567749 560.959167,302.183929 564.182739,299.594971 
	C565.249878,298.737976 566.482300,297.426056 566.635193,296.197266 
	C567.731567,287.382660 568.569153,278.535858 569.538208,269.225708 
	C564.765320,268.030762 559.829346,266.794952 554.927124,265.049469 
	C555.023865,263.512909 555.086792,262.486084 555.149658,261.459229 
M583.939453,287.468628 
	C587.947449,285.082214 591.955505,282.695831 596.820496,279.799164 
	C589.771362,276.902740 583.729431,274.420197 576.813599,271.578522 
	C576.008179,278.677460 575.280273,285.092529 574.429871,292.587982 
	C578.179932,290.588776 580.743286,289.222260 583.939453,287.468628 
M575.235474,341.686707 
	C575.569824,346.391479 575.904236,351.096283 576.321655,356.970245 
	C581.811829,354.632080 586.257019,352.739014 591.626038,350.452484 
	C585.889893,347.179962 580.928467,344.349426 575.235474,341.686707 
z"/>
<path fill="#10bb82" opacity="1.000000" stroke="none" 
	d="
M601.997620,355.014374 
	C601.995544,352.089661 601.993469,349.164948 602.284790,345.594971 
	C609.506287,341.046967 616.319763,336.918945 623.401978,333.319580 
	C628.244629,330.858429 630.801270,327.527771 630.461487,322.016907 
	C631.435974,322.020813 632.085693,322.031189 632.791565,322.431519 
	C633.224121,324.003571 633.600464,325.185638 633.979492,326.794281 
	C634.604919,328.933044 635.227539,330.645264 635.583191,332.640472 
	C634.206360,334.637634 632.454285,336.234497 632.115723,338.089417 
	C631.325256,342.419617 631.164429,346.870270 630.844788,351.279083 
	C630.633728,354.191132 628.476379,357.428741 632.064575,360.238220 
	C632.018188,362.743896 631.997803,364.805145 631.977417,366.866364 
	C630.868530,366.636139 629.759644,366.405945 628.898804,366.227203 
	C626.004272,374.749878 623.779602,383.299957 620.171509,391.219788 
	C617.773499,396.483337 613.711731,401.122192 609.822510,405.536591 
	C605.713074,410.200928 600.367126,411.356873 594.253662,408.291077 
	C594.337646,406.549866 594.678711,405.080505 595.401001,403.337646 
	C598.986938,405.821167 601.967529,405.748932 605.423706,403.101746 
	C617.234070,394.055817 620.544983,380.654022 623.909973,367.336823 
	C624.183228,366.255280 622.070374,363.887329 620.562988,363.159271 
	C614.481873,360.222076 608.203308,357.693695 601.997620,355.014374 
M627.191711,351.926086 
	C627.775085,347.742218 628.358459,343.558350 629.115356,338.129822 
	C622.093750,342.277710 616.155945,345.785370 609.510315,349.711151 
	C614.629944,351.893219 618.893982,353.679718 623.131470,355.527344 
	C626.061157,356.804718 627.115051,355.547455 627.191711,351.926086 
z"/>
<path fill="#10bb82" opacity="1.000000" stroke="none" 
	d="
M602.993103,282.903076 
	C602.976440,281.303192 602.959717,279.703339 603.184143,277.572998 
	C610.588501,273.803253 617.751709,270.563965 624.830566,267.362793 
	C623.502686,255.437271 615.646301,233.295258 604.972839,226.126343 
	C604.977661,224.756607 604.982544,223.386887 604.982544,221.608597 
	C613.335144,224.129791 617.185791,231.127975 620.054199,238.648087 
	C623.437805,247.518753 626.232178,256.614136 629.393127,265.940125 
	C630.397095,265.702454 631.807556,265.368591 633.607300,265.406738 
	C634.007202,266.546814 634.017883,267.314819 633.732544,268.317993 
	C630.294983,268.964203 629.357300,270.690338 629.944214,273.758820 
	C630.436707,276.334320 630.297668,279.027710 630.750183,281.614349 
	C631.758179,287.375641 632.961243,293.102783 634.055359,299.247253 
	C634.002136,300.189453 633.978394,300.728241 633.608826,301.437012 
	C633.087463,303.724213 632.911865,305.841431 632.411804,307.967346 
	C631.437622,307.976196 630.787964,307.976288 630.081787,307.548065 
	C630.760193,300.542267 628.032776,296.378357 621.931580,293.533997 
	C615.388733,290.483673 609.287231,286.486847 602.993103,282.903076 
M627.874451,280.214478 
	C627.219910,277.379333 626.565430,274.544220 625.723816,270.898651 
	C618.313660,273.881439 611.612732,276.578735 604.911804,279.276031 
	C604.954285,279.886017 604.996765,280.495972 605.039246,281.105927 
	C612.826904,285.324524 620.614624,289.543152 629.053162,294.114319 
	C628.678467,289.184326 628.366760,285.082733 627.874451,280.214478 
z"/>
<path fill="#10bb82" opacity="1.000000" stroke="none" 
	d="
M633.954651,301.267029 
	C633.978394,300.728241 634.002136,300.189453 634.381226,299.382874 
	C640.805481,303.016815 646.874451,306.918549 653.640320,311.268341 
	C658.008789,306.995117 662.579529,302.524078 667.489014,298.091675 
	C669.060059,299.154877 670.292419,300.179474 671.524780,301.204041 
	C667.247559,306.168488 662.970337,311.132935 658.023254,316.874908 
	C662.649841,321.361816 667.780090,326.337189 672.724670,331.806824 
	C671.690735,332.868256 670.842468,333.435364 669.726685,333.809540 
	C664.776978,328.613312 660.094849,323.610016 655.842346,319.065887 
	C648.632141,323.859528 642.241150,328.108490 635.850220,332.357422 
	C635.227539,330.645264 634.604919,328.933044 634.220947,326.527435 
	C639.441284,322.075897 644.422913,318.317810 650.110657,314.027008 
	C644.247437,309.396240 639.101013,305.331635 633.954651,301.267029 
z"/>
<path fill="#10bb82" opacity="1.000000" stroke="none" 
	d="
M533.689148,307.147858 
	C525.791016,299.129028 519.129517,290.333862 516.566589,279.083740 
	C514.429749,269.703796 519.059753,262.742279 528.494812,260.877319 
	C531.058105,260.370667 533.610168,259.807526 536.571045,259.728516 
	C536.980896,261.443726 536.987183,262.700745 536.611877,264.048584 
	C520.906189,267.754333 518.307556,273.713837 526.709290,286.945618 
	C529.784546,291.788849 533.654663,296.127350 537.118286,301.121460 
	C536.995728,304.048248 537.341370,306.806213 533.689148,307.147858 
z"/>
<path fill="#10bb82" opacity="1.000000" stroke="none" 
	d="
M545.963440,365.199097 
	C546.294434,366.777588 546.625427,368.356049 546.947266,370.283295 
	C540.867615,370.381897 534.577271,371.057007 528.775208,369.677856 
	C518.529114,367.242310 514.692078,359.694244 517.728333,349.441315 
	C520.939270,338.598267 528.327820,330.489563 536.596130,323.047058 
	C537.545715,323.955353 538.098511,324.608276 538.454102,325.554810 
	C533.031921,333.753723 526.865845,341.213440 522.851257,349.691895 
	C518.978577,357.870850 523.392151,363.902771 532.571472,364.991425 
	C536.981689,365.514435 541.496155,365.157532 545.963440,365.199097 
z"/>
<path fill="#10bb82" opacity="1.000000" stroke="none" 
	d="
M632.355347,366.973572 
	C631.997803,364.805145 632.018188,362.743896 632.481873,360.283081 
	C634.868042,360.205078 636.863342,360.342773 638.745178,360.878967 
	C648.639648,363.698547 658.589172,366.007996 668.996948,365.406006 
	C668.976013,367.465790 668.957581,369.110168 668.939148,370.754547 
	C656.527344,372.912537 644.600586,370.290314 632.355347,366.973572 
z"/>
<path fill="#10bb82" opacity="1.000000" stroke="none" 
	d="
M669.321411,370.811279 
	C668.957581,369.110168 668.976013,367.465790 669.243225,365.153076 
	C678.860779,361.903442 681.440063,357.170074 677.662598,348.304138 
	C675.550781,343.347595 672.578735,338.757629 669.994263,334.002502 
	C670.842468,333.435364 671.690735,332.868256 672.817139,332.134888 
	C679.656799,338.233551 683.953552,345.837463 684.752991,354.846497 
	C685.497803,363.239716 680.041443,368.585938 669.321411,370.811279 
z"/>
<path fill="#10bb82" opacity="1.000000" stroke="none" 
	d="
M538.651306,325.261200 
	C538.098511,324.608276 537.545715,323.955353 536.895386,322.863617 
	C538.549683,320.477356 540.301453,318.529877 542.249878,316.363770 
	C539.446411,313.433746 536.727783,310.592377 533.849121,307.449402 
	C537.341370,306.806213 536.995728,304.048248 537.418823,301.282410 
	C541.373535,304.367493 544.984009,307.716949 548.636963,311.105865 
	C550.627686,309.751556 552.251831,308.646606 553.875854,307.541687 
	C553.914185,308.373505 553.952454,309.205383 553.685913,310.671783 
	C553.951660,313.125092 554.522217,314.943817 555.092834,316.762573 
	C554.275757,319.151123 553.458679,321.539703 551.935242,323.864105 
	C549.342773,322.304230 547.456604,320.808472 545.483765,319.243958 
	C543.028687,321.406097 540.839966,323.333649 538.651306,325.261200 
z"/>
<path fill="#10bb82" opacity="1.000000" stroke="none" 
	d="
M671.807861,301.084198 
	C670.292419,300.179474 669.060059,299.154877 667.592896,297.776917 
	C672.446106,290.960571 678.099670,284.804047 679.348633,276.010010 
	C680.827759,274.837555 682.495850,273.849945 682.839294,272.520264 
	C683.352539,270.532593 682.933655,268.304138 682.911377,266.178131 
	C683.888062,268.013916 685.897888,269.987732 685.674133,271.663208 
	C684.190552,282.770020 679.961121,292.748291 671.807861,301.084198 
z"/>
<path fill="#10bb82" opacity="1.000000" stroke="none" 
	d="
M634.028564,268.082825 
	C634.017883,267.314819 634.007202,266.546814 633.998779,265.394836 
	C643.358398,263.292938 652.715881,261.575043 662.535461,260.270264 
	C662.982910,261.711426 662.968201,262.739502 662.501160,263.828125 
	C652.708740,265.286713 643.368652,266.684753 634.028564,268.082825 
z"/>
<path fill="#10bb82" opacity="1.000000" stroke="none" 
	d="
M682.615051,266.033875 
	C682.933655,268.304138 683.352539,270.532593 682.839294,272.520264 
	C682.495850,273.849945 680.827759,274.837555 679.015137,275.915649 
	C674.172852,273.964874 673.990845,270.732880 675.533691,266.823242 
	C677.011292,265.929810 678.203003,265.221100 679.394714,264.512390 
	C680.369385,264.971497 681.344116,265.430573 682.615051,266.033875 
z"/>
<path fill="#10bb82" opacity="1.000000" stroke="none" 
	d="
M536.993469,263.957733 
	C536.987183,262.700745 536.980896,261.443726 536.962646,259.811951 
	C542.775085,260.003571 548.599426,260.570007 554.786743,261.297821 
	C555.086792,262.486084 555.023865,263.512909 554.489563,264.962250 
	C548.343262,264.909058 542.668396,264.433380 536.993469,263.957733 
z"/>
<path fill="#10bb82" opacity="1.000000" stroke="none" 
	d="
M679.213989,264.227325 
	C678.203003,265.221100 677.011292,265.929810 675.178589,266.670898 
	C670.676147,265.724731 666.814819,264.746155 662.953491,263.767578 
	C662.968201,262.739502 662.982910,261.711426 662.996460,260.296326 
	C668.856506,259.204987 674.277588,260.250427 679.213989,264.227325 
z"/>
<path fill="#FFFFFF" opacity="1.000000" stroke="none" 
	d="
M602.645142,282.844055 
	C609.287231,286.486847 615.388733,290.483673 621.931580,293.533997 
	C628.032776,296.378357 630.760193,300.542267 630.015991,308.010834 
	C630.050049,313.275757 630.093384,317.649567 630.136658,322.023407 
	C630.801270,327.527771 628.244629,330.858429 623.401978,333.319580 
	C616.319763,336.918945 609.506287,341.046967 602.283936,345.164246 
	C601.263306,345.223572 600.537048,345.068298 599.263184,344.624451 
	C598.168945,344.162323 597.622253,343.988739 597.075623,343.815186 
	C592.872437,341.553192 588.585754,339.430817 584.492615,336.984741 
	C581.264954,335.055908 578.172302,332.856567 575.245483,330.497253 
	C574.411072,329.824646 574.023804,328.176819 574.012512,326.970703 
	C573.928345,317.993103 573.907776,309.012421 574.090515,300.037262 
	C574.119934,298.588745 574.854919,296.496338 575.949280,295.833618 
	C583.543091,291.235229 591.292480,286.889648 599.073303,282.610992 
	C599.873901,282.170715 601.209717,282.703674 602.645142,282.844055 
M604.513000,303.293488 
	C601.610229,303.478577 598.707458,303.663635 595.125610,303.995270 
	C593.704102,305.107330 592.137329,306.077393 590.886780,307.356567 
	C586.042542,312.311554 587.622742,321.729706 594.279175,325.692230 
	C598.672058,328.240570 602.966675,328.352539 607.815491,325.029572 
	C615.849243,318.349060 614.552307,307.877014 604.513000,303.293488 
z"/>
<path fill="#FFFFFF" opacity="1.000000" stroke="none" 
	d="
M604.533020,226.070969 
	C615.646301,233.295258 623.502686,255.437271 624.830566,267.362793 
	C617.751709,270.563965 610.588501,273.803253 603.149780,277.217163 
	C602.243469,277.585205 601.477478,278.113647 601.002258,277.921753 
	C593.874023,275.043671 586.741089,272.165771 579.738708,269.001526 
	C578.845581,268.597961 578.042847,266.450012 578.276245,265.336060 
	C580.730225,253.626205 583.766357,242.111786 590.649475,232.018616 
	C593.938171,227.196121 598.118530,224.674164 604.533020,226.070969 
M587.994202,258.880829 
	C586.194397,261.786163 582.870483,265.313568 587.623474,267.658356 
	C592.242065,269.936859 597.587158,271.142761 602.740601,271.766022 
	C605.272034,272.072144 608.028809,269.745850 610.793457,269.043213 
	C617.645264,267.301941 618.253540,266.591644 617.004822,260.355194 
	C616.972717,260.195007 617.009521,260.022308 616.992615,259.857635 
	C615.972107,249.935760 612.028503,241.158478 606.476318,233.011536 
	C603.804993,229.091782 599.442139,229.366943 597.140015,233.650772 
	C595.710327,236.311157 594.205566,238.957306 593.079163,241.748947 
	C590.948792,247.028839 586.850037,251.724777 587.994202,258.880829 
z"/>
<path fill="#FFFFFF" opacity="1.000000" stroke="none" 
	d="
M601.623413,354.983276 
	C608.203308,357.693695 614.481873,360.222076 620.562988,363.159271 
	C622.070374,363.887329 624.183228,366.255280 623.909973,367.336823 
	C620.544983,380.654022 617.234070,394.055817 605.423706,403.101746 
	C601.967529,405.748932 598.986938,405.821167 595.419922,402.956421 
	C583.780762,392.415894 581.079346,378.272552 578.078735,363.772125 
	C584.286987,361.070221 590.443481,358.390869 597.197021,355.425110 
	C598.208679,354.933868 598.623169,354.729065 599.037720,354.524292 
	C599.774902,354.666901 600.512085,354.809540 601.623413,354.983276 
M585.007080,367.581268 
	C586.669983,372.508057 588.348572,377.429657 589.991821,382.362976 
	C592.141357,388.815918 595.356018,394.688110 600.198425,399.458984 
	C600.987183,400.236115 604.165588,400.097778 604.825256,399.263885 
	C611.851318,390.382202 615.312500,379.734863 618.839783,369.187439 
	C619.163757,368.218719 617.683899,365.872284 616.499939,365.313751 
	C612.328552,363.345764 607.863464,362.011475 603.620544,360.180206 
	C600.004456,358.619507 587.186340,363.092804 585.007080,367.581268 
z"/>
<path fill="#FFFFFF" opacity="1.000000" stroke="none" 
	d="
M536.611877,264.048584 
	C542.668396,264.433380 548.343262,264.909058 554.455750,265.471954 
	C559.829346,266.794952 564.765320,268.030762 569.538208,269.225708 
	C568.569153,278.535858 567.731567,287.382660 566.635193,296.197266 
	C566.482300,297.426056 565.249878,298.737976 564.182739,299.594971 
	C560.959167,302.183929 557.570801,304.567749 554.061279,307.286621 
	C552.251831,308.646606 550.627686,309.751556 548.636963,311.105865 
	C544.984009,307.716949 541.373535,304.367493 537.462646,300.857056 
	C533.654663,296.127350 529.784546,291.788849 526.709290,286.945618 
	C518.307556,273.713837 520.906189,267.754333 536.611877,264.048584 
M530.473877,270.028717 
	C530.122986,273.620209 528.151978,278.316681 529.712341,280.604492 
	C535.318359,288.823608 542.093079,296.249420 548.510925,303.903931 
	C549.039307,304.534119 550.256775,305.006866 551.068359,304.900269 
	C553.486145,304.582825 559.879028,295.980652 560.022766,293.387329 
	C560.146484,291.154907 560.242859,288.844635 560.887939,286.732666 
	C562.420471,281.714752 564.270935,276.793915 566.078613,271.587311 
	C553.504944,269.795624 542.533508,265.559509 530.473877,270.028717 
z"/>
<path fill="#FFFFFF" opacity="1.000000" stroke="none" 
	d="
M538.454102,325.554810 
	C540.839966,323.333649 543.028687,321.406097 545.483765,319.243958 
	C547.456604,320.808472 549.342773,322.304230 551.541992,323.928223 
	C552.986389,325.021942 553.975708,326.282990 555.271729,326.905640 
	C564.858643,331.511780 568.530334,339.285339 568.164185,349.606720 
	C568.061340,352.508850 569.096130,355.451385 569.802002,359.475067 
	C562.070007,361.316193 554.407898,363.140717 546.354614,365.082153 
	C541.496155,365.157532 536.981689,365.514435 532.571472,364.991425 
	C523.392151,363.902771 518.978577,357.870850 522.851257,349.691895 
	C526.865845,341.213440 533.031921,333.753723 538.454102,325.554810 
M555.655762,332.976715 
	C547.461853,325.511261 544.461182,325.985199 538.097656,335.522095 
	C535.731506,339.068146 532.297119,342.131653 530.825195,345.979584 
	C529.339355,349.863739 528.796814,354.637299 529.652344,358.633301 
	C530.004089,360.275787 535.153076,361.953186 538.018127,361.793091 
	C546.095276,361.341614 554.144104,360.091827 562.136841,358.754761 
	C563.256897,358.567413 564.900757,354.984619 564.787048,354.894989 
	C561.153259,352.029785 563.031372,348.108307 563.160339,344.895691 
	C563.387451,339.238770 561.337830,335.463531 555.655762,332.976715 
z"/>
<path fill="#FFFFFF" opacity="1.000000" stroke="none" 
	d="
M583.623047,287.662170 
	C580.743286,289.222260 578.179932,290.588776 574.429871,292.587982 
	C575.280273,285.092529 576.008179,278.677460 576.813599,271.578522 
	C583.729431,274.420197 589.771362,276.902740 596.820496,279.799164 
	C591.955505,282.695831 587.947449,285.082214 583.623047,287.662170 
z"/>
<path fill="#FFFFFF" opacity="1.000000" stroke="none" 
	d="
M555.423462,316.868774 
	C554.522217,314.943817 553.951660,313.125092 553.682373,311.088318 
	C557.736206,308.294128 561.488770,305.717957 565.744141,302.796631 
	C565.744141,310.030975 565.744141,316.663452 565.744141,324.105652 
	C562.091797,321.498688 558.922974,319.236816 555.423462,316.868774 
z"/>
<path fill="#FFFFFF" opacity="1.000000" stroke="none" 
	d="
M575.601257,341.602783 
	C580.928467,344.349426 585.889893,347.179962 591.626038,350.452484 
	C586.257019,352.739014 581.811829,354.632080 576.321655,356.970245 
	C575.904236,351.096283 575.569824,346.391479 575.601257,341.602783 
z"/>
<path fill="#10bb82" opacity="1.000000" stroke="none" 
	d="
M599.015991,354.209473 
	C598.623169,354.729065 598.208679,354.933868 597.449158,355.191406 
	C597.419128,354.303223 597.734009,353.362335 598.048950,352.421448 
	C598.364014,352.912506 598.679138,353.403564 599.015991,354.209473 
z"/>
<path fill="#10bb82" opacity="1.000000" stroke="none" 
	d="
M597.081421,344.132935 
	C597.622253,343.988739 598.168945,344.162323 598.897095,344.562317 
	C598.414734,344.676086 597.750977,344.563385 597.081421,344.132935 
z"/>
<path fill="#FFFFFF" opacity="1.000000" stroke="none" 
	d="
M669.726685,333.809540 
	C672.578735,338.757629 675.550781,343.347595 677.662598,348.304138 
	C681.440063,357.170074 678.860779,361.903442 669.245789,364.737701 
	C658.589172,366.007996 648.639648,363.698547 638.745178,360.878967 
	C636.863342,360.342773 634.868042,360.205078 632.507812,359.838623 
	C628.476379,357.428741 630.633728,354.191132 630.844788,351.279083 
	C631.164429,346.870270 631.325256,342.419617 632.115723,338.089417 
	C632.454285,336.234497 634.206360,334.637634 635.583191,332.640442 
	C642.241150,328.108490 648.632141,323.859528 655.842346,319.065887 
	C660.094849,323.610016 664.776978,328.613312 669.726685,333.809540 
M637.010193,349.554199 
	C636.202820,353.259552 636.535156,355.458862 641.066406,357.251007 
	C649.708862,360.669281 658.468811,361.066589 667.435059,360.984100 
	C672.982056,360.933075 675.655579,356.733917 673.320312,351.791931 
	C672.360474,349.760773 671.528931,347.624664 670.274353,345.785034 
	C665.572937,338.891449 660.720947,332.100616 655.358887,324.464355 
	C649.035461,332.235565 637.307678,333.672424 638.889771,345.925507 
	C638.997803,346.762817 637.694946,347.782257 637.010193,349.554199 
z"/>
<path fill="#FFFFFF" opacity="1.000000" stroke="none" 
	d="
M633.608826,301.437012 
	C639.101013,305.331635 644.247437,309.396240 650.110657,314.027008 
	C644.422913,318.317810 639.441284,322.075897 634.218201,326.100861 
	C633.600464,325.185638 633.224121,324.003571 632.881226,321.970520 
	C632.855164,316.732574 632.795715,312.345612 632.736267,307.958618 
	C632.911865,305.841431 633.087463,303.724213 633.608826,301.437012 
z"/>
<path fill="#FFFFFF" opacity="1.000000" stroke="none" 
	d="
M627.152466,352.325775 
	C627.115051,355.547455 626.061157,356.804718 623.131470,355.527344 
	C618.893982,353.679718 614.629944,351.893219 609.510315,349.711151 
	C616.155945,345.785370 622.093750,342.277710 629.115356,338.129822 
	C628.358459,343.558350 627.775085,347.742218 627.152466,352.325775 
z"/>
<path fill="#10bb82" opacity="1.000000" stroke="none" 
	d="
M632.411804,307.967346 
	C632.795715,312.345612 632.855164,316.732574 632.824951,321.580566 
	C632.085693,322.031189 631.435974,322.020813 630.461487,322.016907 
	C630.093384,317.649567 630.050049,313.275757 630.072510,308.439148 
	C630.787964,307.976288 631.437622,307.976196 632.411804,307.967346 
z"/>
<path fill="#FFFFFF" opacity="1.000000" stroke="none" 
	d="
M662.501160,263.828125 
	C666.814819,264.746155 670.676147,265.724731 674.892578,266.855652 
	C673.990845,270.732880 674.172852,273.964874 678.611328,275.947388 
	C678.099670,284.804047 672.446106,290.960571 667.254150,297.738281 
	C662.579529,302.524078 658.008789,306.995117 653.640320,311.268341 
	C646.874451,306.918549 640.805481,303.016815 634.410645,298.979431 
	C632.961243,293.102783 631.758179,287.375641 630.750183,281.614349 
	C630.297668,279.027710 630.436707,276.334320 629.944214,273.758820 
	C629.357300,270.690338 630.294983,268.964203 633.732544,268.317993 
	C643.368652,266.684753 652.708740,265.286713 662.501160,263.828125 
M638.979370,281.947693 
	C635.833496,294.554169 646.287842,299.171661 653.837952,306.778229 
	C660.127991,298.752960 666.494263,291.005554 672.318115,282.869812 
	C673.427002,281.320801 672.798584,278.134644 672.236145,275.887939 
	C671.610840,273.390106 670.143921,271.103027 668.767822,268.128510 
	C657.735901,267.610687 645.880432,267.526367 635.842041,273.507599 
	C636.406311,275.758209 636.605469,276.994568 637.036987,278.143677 
	C637.429504,279.188782 638.074402,280.139160 638.979370,281.947693 
z"/>
<path fill="#FFFFFF" opacity="1.000000" stroke="none" 
	d="
M627.964722,280.597809 
	C628.366760,285.082733 628.678467,289.184326 629.053162,294.114319 
	C620.614624,289.543152 612.826904,285.324524 605.039246,281.105927 
	C604.996765,280.495972 604.954285,279.886017 604.911804,279.276031 
	C611.612732,276.578735 618.313660,273.881439 625.723816,270.898651 
	C626.565430,274.544220 627.219910,277.379333 627.964722,280.597809 
z"/>
<path fill="#10bb82" opacity="1.000000" stroke="none" 
	d="
M593.792358,325.157043 
	C587.622742,321.729706 586.042542,312.311554 590.886780,307.356567 
	C592.137329,306.077393 593.704102,305.107330 595.730652,304.095093 
	C596.887878,305.083649 597.440063,305.972412 597.653931,307.063019 
	C593.647095,311.859467 594.503357,316.850891 595.907104,322.213562 
	C595.119019,323.402893 594.455688,324.279968 593.792358,325.157043 
z"/>
<path fill="#10bb82" opacity="1.000000" stroke="none" 
	d="
M605.181091,303.757629 
	C614.552307,307.877014 615.849243,318.349060 607.400024,324.765686 
	C606.307922,323.631714 605.631348,322.761688 605.126343,321.570374 
	C609.179443,317.649506 608.438171,313.419250 606.945068,308.728088 
	C606.348999,306.831268 605.765015,305.294464 605.181091,303.757629 
z"/>
<path fill="#10bb82" opacity="1.000000" stroke="none" 
	d="
M604.954712,321.891663 
	C605.631348,322.761688 606.307922,323.631714 607.056519,324.837891 
	C602.966675,328.352539 598.672058,328.240570 594.035767,325.424622 
	C594.455688,324.279968 595.119019,323.402893 596.238892,322.366028 
	C599.590210,325.819916 602.254761,323.391815 604.954712,321.891663 
z"/>
<path fill="#10bb82" opacity="1.000000" stroke="none" 
	d="
M604.847046,303.525574 
	C605.765015,305.294464 606.348999,306.831268 606.583984,308.683960 
	C603.535400,308.102112 601.557312,304.423462 597.992249,306.861176 
	C597.440063,305.972412 596.887878,305.083649 596.070190,304.021790 
	C598.707458,303.663635 601.610229,303.478577 604.847046,303.525574 
z"/>
<path fill="#0081CC" opacity="1.000000" stroke="none" 
	d="
M588.000122,258.456818 
	C586.850037,251.724777 590.948792,247.028839 593.079163,241.748947 
	C594.205566,238.957306 595.710327,236.311157 597.140015,233.650772 
	C599.442139,229.366943 603.804993,229.091782 606.476318,233.011536 
	C612.028503,241.158478 615.972107,249.935760 616.992615,259.857635 
	C617.009521,260.022308 616.972717,260.195007 617.004822,260.355194 
	C618.253540,266.591644 617.645264,267.301941 610.793457,269.043213 
	C608.028809,269.745850 605.272034,272.072144 602.740601,271.766022 
	C597.587158,271.142761 592.242065,269.936859 587.623474,267.658356 
	C582.870483,265.313568 586.194397,261.786163 588.000122,258.456818 
z"/>
<path fill="#0081CC" opacity="1.000000" stroke="none" 
	d="
M585.007935,367.164246 
	C587.186340,363.092804 600.004456,358.619507 603.620544,360.180206 
	C607.863464,362.011475 612.328552,363.345764 616.499939,365.313751 
	C617.683899,365.872284 619.163757,368.218719 618.839783,369.187439 
	C615.312500,379.734863 611.851318,390.382202 604.825256,399.263885 
	C604.165588,400.097778 600.987183,400.236115 600.198425,399.458984 
	C595.356018,394.688110 592.141357,388.815918 589.991821,382.362976 
	C588.348572,377.429657 586.669983,372.508057 585.007935,367.164246 
z"/>
<path fill="#0081CC" opacity="1.000000" stroke="none" 
	d="
M530.779663,269.721405 
	C542.533508,265.559509 553.504944,269.795624 566.078613,271.587311 
	C564.270935,276.793915 562.420471,281.714752 560.887939,286.732666 
	C560.242859,288.844635 560.146484,291.154907 560.022766,293.387329 
	C559.879028,295.980652 553.486145,304.582825 551.068359,304.900269 
	C550.256775,305.006866 549.039307,304.534119 548.510925,303.903931 
	C542.093079,296.249420 535.318359,288.823608 529.712341,280.604492 
	C528.151978,278.316681 530.122986,273.620209 530.779663,269.721405 
z"/>
<path fill="#0081CC" opacity="1.000000" stroke="none" 
	d="
M556.026123,333.008911 
	C561.337830,335.463531 563.387451,339.238770 563.160339,344.895691 
	C563.031372,348.108307 561.153259,352.029785 564.787048,354.894989 
	C564.900757,354.984619 563.256897,358.567413 562.136841,358.754761 
	C554.144104,360.091827 546.095276,361.341614 538.018127,361.793091 
	C535.153076,361.953186 530.004089,360.275787 529.652344,358.633301 
	C528.796814,354.637299 529.339355,349.863739 530.825195,345.979584 
	C532.297119,342.131653 535.731506,339.068146 538.097656,335.522095 
	C544.461182,325.985199 547.461853,325.511261 556.026123,333.008911 
z"/>
<path fill="#0081CC" opacity="1.000000" stroke="none" 
	d="
M637.029175,349.135620 
	C637.694946,347.782257 638.997803,346.762817 638.889771,345.925507 
	C637.307678,333.672424 649.035461,332.235565 655.358887,324.464355 
	C660.720947,332.100616 665.572937,338.891449 670.274353,345.785034 
	C671.528931,347.624664 672.360474,349.760773 673.320312,351.791931 
	C675.655579,356.733917 672.982056,360.933075 667.435059,360.984100 
	C658.468811,361.066589 649.708862,360.669281 641.066406,357.251007 
	C636.535156,355.458862 636.202820,353.259552 637.029175,349.135620 
z"/>
<path fill="#0081CC" opacity="1.000000" stroke="none" 
	d="
M638.793701,281.539490 
	C638.074402,280.139160 637.429504,279.188782 637.036987,278.143677 
	C636.605469,276.994568 636.406311,275.758209 635.842041,273.507599 
	C645.880432,267.526367 657.735901,267.610687 668.767822,268.128510 
	C670.143921,271.103027 671.610840,273.390106 672.236145,275.887939 
	C672.798584,278.134644 673.427002,281.320801 672.318115,282.869812 
	C666.494263,291.005554 660.127991,298.752960 653.837952,306.778229 
	C646.287842,299.171661 635.833496,294.554169 638.793701,281.539490 
z"/>
<path fill="#0081CC" opacity="1.000000" stroke="none" 
	d="
M597.653931,307.063019 
	C601.557312,304.423462 603.535400,308.102112 606.596069,309.043976 
	C608.438171,313.419250 609.179443,317.649506 605.126343,321.570374 
	C602.254761,323.391815 599.590210,325.819916 596.363770,322.053772 
	C594.503357,316.850891 593.647095,311.859467 597.653931,307.063019 
z"/>
</svg>