<svg version="1.1" id="Layer_1" xmlns="http://www.w3.org/2000/svg" xmlns:xlink="http://www.w3.org/1999/xlink" x="0px" y="0px"
	 width="100%" viewBox="0 0 1193 492" enable-background="new 0 0 1193 492" xml:space="preserve">
<path fill="#004AAD" opacity="1.000000" stroke="none" 
	d="
M1194.000000,76.000008 
	C1194.000000,190.361374 1194.000000,304.722748 1193.653076,419.717773 
	C1187.922485,451.302246 1171.235107,473.688995 1142.560181,486.771576 
	C1136.931152,489.339722 1130.864746,490.948669 1125.000000,493.000000 
	C770.971985,493.000000 416.943939,493.000000 62.288513,492.664642 
	C45.705288,488.568176 31.090172,481.859497 19.947323,469.725220 
	C12.785939,461.926666 7.259350,452.626892 1.000002,444.000000 
	C1.000000,312.971985 1.000000,181.943939 1.217893,50.194695 
	C11.152070,29.656191 25.846537,14.987174 46.329113,6.453075 
	C51.425381,4.329705 56.769695,2.801674 62.000000,1.000000 
	C416.361359,1.000000 770.722717,1.000000 1125.697266,1.348247 
	C1158.315430,9.300529 1179.536499,28.754984 1189.947754,59.905758 
	C1191.696289,65.137527 1192.668823,70.628716 1194.000000,76.000008 
M396.712738,145.324997 
	C395.130005,144.887772 393.547241,144.450546 391.632019,143.429459 
	C375.584137,131.333771 357.403381,132.373856 338.107758,134.849899 
	C324.069275,138.203796 310.030792,141.557693 295.211243,144.926849 
	C294.256653,145.205017 293.240387,145.355835 292.357971,145.783066 
	C288.152771,147.819092 286.209564,146.916626 285.591217,141.904694 
	C284.925110,136.505569 283.322113,131.204239 281.911224,125.918076 
	C277.460205,109.241745 271.940491,92.976173 262.800964,77.411293 
	C257.214050,71.130951 252.207794,64.171082 245.877029,58.761219 
	C239.535980,53.342575 231.492798,51.371040 222.217285,53.951454 
	C220.187592,54.652676 217.993301,55.062527 216.154388,56.101448 
	C202.090118,64.047302 193.442291,76.517731 186.809952,91.552498 
	C180.248611,109.380363 173.687271,127.208229 166.952194,145.508179 
	C159.467346,143.485931 150.748505,141.130280 141.436539,138.344498 
	C126.218208,134.492279 110.837448,132.083954 94.220726,133.043747 
	C91.759132,133.377197 89.284927,133.636932 86.837997,134.056030 
	C70.655357,136.827545 59.662514,145.625992 57.706253,159.309280 
	C56.755928,165.956451 57.576458,173.383987 59.594696,179.832489 
	C66.470200,201.800552 80.765663,219.079910 97.076241,235.698853 
	C101.911461,240.155701 106.746681,244.612549 111.697632,249.176056 
	C109.500542,251.480225 108.264465,252.776550 106.429008,254.353500 
	C98.606636,262.545837 90.784271,270.738159 82.396774,279.291229 
	C72.665565,291.017365 63.933792,303.333588 59.766815,318.278625 
	C54.370449,337.632843 62.199207,352.259369 81.329773,358.436676 
	C84.474747,359.452179 87.796310,359.920715 91.898727,360.840881 
	C107.454788,362.947479 122.792976,361.520782 138.826965,358.023651 
	C146.556091,356.212769 154.323807,354.550079 162.003922,352.550934 
	C170.340988,350.380737 168.518860,350.071411 171.083755,357.751434 
	C176.050430,372.623047 181.547852,387.317383 186.967850,402.792419 
	C190.924286,409.474640 194.283920,416.614166 198.973526,422.734650 
	C206.479141,432.530457 215.447678,440.669281 229.810898,440.822083 
	C246.876266,439.106079 256.295135,427.657318 264.456879,413.506348 
	C275.170013,393.916229 281.144257,372.618225 286.115082,350.887207 
	C290.294678,351.993713 293.656372,352.883698 297.763885,354.011810 
	C312.515289,356.632904 327.266693,359.253998 342.840240,362.045746 
	C352.592957,361.640442 362.534210,362.299286 372.059753,360.611725 
	C392.882965,356.922760 403.159637,343.605896 400.857483,324.442932 
	C400.233978,319.253113 398.570343,314.001617 396.413300,309.216034 
	C388.429749,291.504181 376.127106,276.935211 361.820770,263.126160 
	C357.323029,258.032867 352.825287,252.939590 347.580750,247.000626 
	C352.078827,242.775131 357.628723,237.561615 363.768372,232.001343 
	C370.345886,224.127533 377.273926,216.516129 383.413818,208.314697 
	C391.418060,197.622910 397.843933,186.015518 400.421387,172.651382 
	C401.318420,168.000320 402.307739,163.367126 403.231567,158.721130 
	C404.177887,153.961761 403.325867,149.831253 398.729614,146.467484 
	C398.222534,146.253250 397.715424,146.039001 396.712738,145.324997 
M959.339478,319.099060 
	C957.489990,315.749054 955.707581,312.359924 953.779846,309.055603 
	C944.583984,293.293091 949.715027,296.162323 930.873413,295.900360 
	C924.967407,295.818237 924.342834,296.511810 924.332703,302.523285 
	C924.300842,321.351074 924.320007,340.178925 924.320740,359.006775 
	C924.321045,367.171051 924.371887,375.335724 924.306641,383.499481 
	C924.275085,387.449097 925.864136,389.325073 930.018921,389.055756 
	C933.669128,388.819122 937.360657,388.806030 941.008972,389.057312 
	C945.522339,389.368225 946.878296,387.148132 946.810852,383.069092 
	C946.697876,376.239655 946.780701,369.406921 946.780945,362.575592 
	C946.781128,354.859558 946.781067,347.143524 946.781067,339.427460 
	C951.689819,345.895782 955.543152,352.600952 959.438904,359.281403 
	C964.288757,367.597870 972.804932,367.493317 977.634460,359.072723 
	C981.456787,352.408325 985.266357,345.736603 989.081543,339.068115 
	C989.414124,339.180542 989.746643,339.292969 990.079224,339.405396 
	C990.079224,341.003113 990.079102,342.600861 990.079163,344.198578 
	C990.079346,357.194794 990.166260,370.191895 990.030762,383.186676 
	C989.986389,387.438141 991.542358,389.327637 995.917053,389.055511 
	C999.734680,388.818054 1003.579346,388.946198 1007.410278,389.015045 
	C1010.576538,389.071930 1011.970337,387.536255 1011.969482,384.460297 
	C1011.961792,356.468536 1011.956299,328.476746 1011.982971,300.484985 
	C1011.985901,297.376343 1010.607910,295.861664 1007.471924,295.889465 
	C1003.640198,295.923401 999.797302,296.058899 995.978638,295.828613 
	C991.948792,295.585632 989.606873,297.300659 987.703674,300.814362 
	C981.527039,312.217834 975.055054,323.461304 968.400757,335.292755 
	C965.366638,329.825470 962.559753,324.767670 959.339478,319.099060 
M664.972290,175.492859 
	C664.972168,152.009262 664.899475,128.525269 665.035034,105.042458 
	C665.061157,100.520409 663.474243,98.590202 658.891296,98.946289 
	C655.745789,99.190674 652.547729,99.209152 649.405823,98.943008 
	C644.578186,98.534081 642.931396,100.576302 642.998901,105.313698 
	C643.195862,119.134605 643.077576,132.960144 643.051941,146.783813 
	C643.049805,147.935165 642.815796,149.086090 642.592773,151.118637 
	C633.983887,137.229233 626.003967,124.171700 617.839600,111.230515 
	C608.472595,96.383362 612.832886,99.451653 595.565552,98.919067 
	C590.581726,98.765343 589.227051,100.907959 589.267090,105.453682 
	C589.406372,121.274773 589.320129,137.097855 589.320251,152.920166 
	C589.320312,163.912521 589.364380,174.905121 589.298523,185.897079 
	C589.275146,189.791443 590.225281,192.391434 594.912231,192.055557 
	C598.391907,191.806183 601.926636,191.754044 605.395874,192.067505 
	C610.308411,192.511353 611.884583,190.331909 611.833801,185.685181 
	C611.684753,172.029648 611.772644,158.371429 611.795532,144.714310 
	C611.797729,143.415619 611.994324,142.117249 612.190491,139.723221 
	C620.936829,153.869019 628.895569,166.940369 637.055237,179.885086 
	C646.330688,194.599884 641.887390,191.667526 659.381470,192.004944 
	C659.714355,192.011368 660.047974,191.988205 660.380615,191.998123 
	C663.485229,192.090561 664.999939,190.611328 664.969421,187.481064 
	C664.933716,183.817368 664.968262,180.153000 664.972290,175.492859 
M861.550293,192.009216 
	C862.883362,192.009201 864.216492,192.009750 865.549561,192.009094 
	C873.402832,192.005219 873.609802,191.806274 873.618225,183.887848 
	C873.628357,174.389206 873.620605,164.890518 873.620605,155.391861 
	C873.620667,143.427963 873.620667,131.464066 873.620667,119.191406 
	C880.957581,119.191406 887.947327,118.740303 894.849731,119.323402 
	C901.236816,119.862968 905.151672,124.844955 905.108643,130.833862 
	C905.068054,136.485123 900.613586,141.173691 894.352051,142.026108 
	C892.543152,142.272369 890.446533,141.727875 888.934387,142.469116 
	C887.333252,143.253952 885.256531,145.058990 885.139099,146.555878 
	C884.406189,155.898727 884.125122,165.262482 891.549011,172.703918 
	C892.818115,173.976059 893.601257,175.726959 894.642151,177.233734 
	C907.016418,195.146805 901.052673,191.634048 922.413635,191.941086 
	C924.232239,191.967239 926.064575,191.033875 927.890564,190.546249 
	C927.285950,188.740158 927.037231,186.696899 926.017944,185.167053 
	C920.121521,176.316742 914.043213,167.587540 907.923218,158.666824 
	C908.952087,158.131592 909.662659,157.767639 910.368225,157.394165 
	C923.132751,150.637024 929.325378,137.893234 926.831970,123.515694 
	C924.510864,110.131691 915.290466,101.066284 900.405579,99.855530 
	C886.494263,98.723969 872.447876,99.220596 858.460144,99.075562 
	C851.899109,99.007523 851.330566,99.611008 851.324158,106.142143 
	C851.304199,126.639229 851.316589,147.136353 851.316772,167.633469 
	C851.316833,173.799271 851.399414,179.966492 851.290283,186.130356 
	C851.218018,190.208969 852.589783,192.559647 857.104492,192.029068 
	C858.255066,191.893829 859.435120,192.009064 861.550293,192.009216 
M901.877502,296.109558 
	C881.898743,296.071747 861.918457,296.155304 841.942200,295.909607 
	C837.038513,295.849304 835.624023,297.708588 835.648315,302.357330 
	C835.788452,329.163239 835.795715,355.970673 835.643372,382.776428 
	C835.616150,387.567322 837.309937,389.147156 842.067871,389.087891 
	C859.214844,388.874207 876.366638,389.095581 893.515442,388.977051 
	C909.196045,388.868622 906.949280,391.401337 907.238892,374.637390 
	C907.310791,370.477356 905.506348,369.043335 901.550842,369.074524 
	C888.731079,369.175568 875.910034,369.119507 863.089478,369.099854 
	C861.492188,369.097382 859.895203,368.950256 858.259094,368.868195 
	C858.259094,362.699738 858.259094,356.938904 858.259094,350.693451 
	C868.089539,350.693451 877.698181,350.673828 887.306763,350.697998 
	C902.225464,350.735565 899.849121,351.228058 899.992371,338.216797 
	C900.063782,331.732483 899.491028,331.224976 892.827637,331.212280 
	C881.384583,331.190460 869.941528,331.206238 858.388367,331.206238 
	C858.388367,325.875671 858.388367,321.010437 858.388367,315.974762 
	C872.058289,315.974762 885.370361,316.035736 898.680542,315.903931 
	C900.513550,315.885773 902.831787,315.430817 904.055847,314.265106 
	C906.202942,312.220398 904.900024,298.972595 901.877502,296.109558 
M968.029358,129.409271 
	C968.029358,125.986794 968.029358,122.564323 968.029358,119.273399 
	C969.064514,119.103142 969.388306,119.003777 969.712280,119.003296 
	C980.044250,118.987976 990.376770,119.051979 1000.708008,118.958954 
	C1016.906616,118.813110 1014.740234,121.428383 1014.921143,103.987968 
	C1014.958557,100.380173 1013.293640,98.953110 1009.728821,98.965675 
	C990.064758,99.035011 970.400208,99.040535 950.736206,98.962296 
	C947.076050,98.947739 945.652710,100.521591 945.694580,104.072372 
	C945.784912,111.737015 945.716370,119.403496 945.716125,127.069229 
	C945.715454,146.733521 945.755188,166.397949 945.682922,186.061981 
	C945.669434,189.747177 946.391724,192.085159 950.862305,192.057541 
	C971.359009,191.930862 991.856995,191.973267 1012.354370,192.024750 
	C1015.698792,192.033142 1017.294006,190.676682 1017.203979,187.271637 
	C1017.115967,183.941116 1017.088806,180.602615 1017.215759,177.274521 
	C1017.352844,173.681046 1015.748779,172.052917 1012.179382,172.101974 
	C1007.680786,172.163803 1003.180725,172.111298 998.681274,172.110855 
	C988.578796,172.109848 978.476318,172.110535 968.402527,172.110535 
	C968.402527,165.643814 968.402527,159.762970 968.402527,153.954224 
	C969.103760,153.837921 969.432068,153.736526 969.760681,153.735794 
	C978.926086,153.715439 988.091492,153.686035 997.256897,153.697769 
	C1012.288086,153.716995 1009.829773,154.349014 1009.989807,140.746140 
	C1010.058655,134.895401 1009.344360,134.239304 1003.345947,134.217163 
	C992.847412,134.178421 982.346497,134.091599 971.851013,134.276077 
	C968.774902,134.330170 967.488525,133.462814 968.029358,129.409271 
M1035.874023,381.646118 
	C1051.242676,392.860504 1067.900146,393.797852 1085.097778,387.078979 
	C1096.186646,382.746674 1101.950317,373.036926 1101.773682,361.087921 
	C1101.604126,349.609497 1096.210815,342.118866 1084.286255,337.620605 
	C1078.391846,335.397095 1072.182983,334.018555 1066.237305,331.915436 
	C1061.881470,330.374695 1057.420776,328.754089 1053.551147,326.308044 
	C1048.505981,323.119019 1049.144775,317.690735 1054.378174,314.778687 
	C1060.597534,311.317871 1074.270386,312.386627 1077.865967,321.338806 
	C1078.508789,322.939209 1081.164429,324.397278 1083.074097,324.679169 
	C1086.659668,325.208374 1090.384644,324.704285 1094.041260,324.865021 
	C1097.869263,325.033264 1099.447388,323.562775 1099.237427,319.591461 
	C1098.782593,310.988892 1094.631592,304.586578 1087.406860,300.517456 
	C1073.197510,292.514221 1058.287964,291.484985 1043.325195,298.210144 
	C1033.275024,302.727264 1027.365234,310.620483 1027.271240,322.008179 
	C1027.178833,333.211456 1032.772461,340.978210 1042.764648,345.492096 
	C1047.739014,347.739197 1052.988892,349.421173 1058.202148,351.082336 
	C1063.261719,352.694519 1068.500244,353.754272 1073.534058,355.434570 
	C1077.036133,356.603577 1079.558594,358.845612 1079.139282,363.200470 
	C1078.726318,367.492859 1076.270264,370.264465 1072.363159,370.696655 
	C1067.642822,371.218719 1062.713623,371.168365 1058.036255,370.392334 
	C1053.347412,369.614380 1049.851807,366.494568 1049.110474,361.464325 
	C1048.602539,358.018829 1046.666138,357.069214 1043.620728,357.097687 
	C1039.291260,357.138184 1034.959961,357.169373 1030.631592,357.089691 
	C1027.201904,357.026581 1025.864502,358.604156 1026.022705,361.988251 
	C1026.385620,369.748322 1029.581665,376.066345 1035.874023,381.646118 
M700.530701,391.083038 
	C707.056274,389.994751 713.831421,389.674438 720.053833,387.653076 
	C731.832336,383.826904 738.041992,374.234528 738.124268,361.718170 
	C738.204041,349.576904 732.879700,342.063263 720.434937,337.463409 
	C714.676453,335.334930 708.625916,334.002869 702.843445,331.931122 
	C698.339905,330.317535 693.775879,328.555359 689.735229,326.056335 
	C685.685303,323.551636 685.763672,318.911896 689.191467,315.902985 
	C695.162170,310.661865 709.298523,312.236420 712.802490,319.281219 
	C715.327820,324.358459 718.654785,325.340027 723.508850,324.874969 
	C725.985413,324.637695 728.506348,324.750153 731.001587,324.848419 
	C734.698120,324.993927 736.113403,323.229279 735.849365,319.652100 
	C735.224792,311.186859 731.251221,304.629181 723.975952,300.538544 
	C709.749390,292.539398 694.820190,291.453064 679.869812,298.194214 
	C670.097534,302.600494 664.117004,310.145386 663.861328,321.483673 
	C663.600891,333.033356 669.167908,340.748871 679.266785,345.503052 
	C683.013123,347.266663 686.921143,348.762512 690.877136,349.987610 
	C697.223999,351.953186 703.732788,353.403564 710.053406,355.442993 
	C713.551758,356.571747 716.204529,358.906677 715.705261,363.204163 
	C715.195984,367.588440 712.587585,370.378662 708.376221,370.831940 
	C704.120056,371.290070 699.681763,371.387695 695.481567,370.690155 
	C690.464661,369.856934 686.521179,367.007385 685.641052,361.437683 
	C685.122070,358.153564 683.205505,357.013977 680.077881,357.081696 
	C675.748047,357.175415 671.412598,357.189545 667.083557,357.080109 
	C663.535400,356.990417 662.430298,358.767365 662.577209,362.042053 
	C663.008118,371.646973 667.597473,378.793884 675.506042,383.891479 
	C682.806763,388.597260 690.875977,390.944061 700.530701,391.083038 
M505.230286,384.317017 
	C519.415894,392.689026 534.292358,393.076874 549.422363,387.625549 
	C561.021729,383.446259 567.144836,373.957397 567.127686,361.375366 
	C567.111511,349.497772 561.839539,342.112976 549.592285,337.540131 
	C543.844788,335.394196 537.805237,334.038574 532.023682,331.973114 
	C527.518921,330.363800 522.949646,328.638519 518.884033,326.179565 
	C514.778320,323.696320 514.720642,319.094269 518.040588,316.035522 
	C523.802124,310.727264 538.237366,312.079865 541.667175,319.105286 
	C544.300537,324.499237 547.831848,325.257141 552.783386,324.867065 
	C555.265930,324.671478 557.777588,324.769287 560.273376,324.836853 
	C563.737000,324.930603 565.060242,323.203339 564.853699,319.885284 
	C564.313538,311.209290 560.227905,304.545807 552.760132,300.407471 
	C538.679932,292.604675 523.931702,291.496429 509.121643,298.094543 
	C499.326599,302.458313 493.239166,309.867035 492.876923,321.194122 
	C492.508789,332.705597 497.891327,340.525513 507.995880,345.360382 
	C511.432739,347.004852 514.981018,348.508087 518.617004,349.624695 
	C525.284058,351.672150 532.113953,353.196289 538.757385,355.310822 
	C542.415833,356.475250 545.285706,358.803528 544.681213,363.370148 
	C544.100220,367.759460 541.421326,370.423309 537.218018,370.866760 
	C533.123047,371.298798 528.684265,371.776337 524.874512,370.636292 
	C521.377747,369.589935 516.468079,366.909302 515.783325,364.077576 
	C514.092712,357.086365 509.970123,356.637604 504.438721,357.064575 
	C501.790161,357.269043 499.107147,357.214722 496.450134,357.077118 
	C492.750793,356.885559 491.389557,358.558411 491.577057,362.171478 
	C492.075165,371.770813 496.735352,378.805115 505.230286,384.317017 
M1074.188110,158.033859 
	C1078.115845,159.622101 1081.499268,161.649124 1080.608032,166.746262 
	C1079.706787,171.901428 1076.122559,173.924179 1071.343872,174.117447 
	C1067.868530,174.258041 1064.037598,174.865814 1060.980103,173.679947 
	C1057.371948,172.280441 1052.288574,169.654831 1051.624146,166.708450 
	C1050.088379,159.898880 1046.096313,159.827377 1041.010254,160.076691 
	C1038.349976,160.207092 1035.665039,160.268799 1033.014282,160.064407 
	C1028.416016,159.709885 1027.276978,161.920410 1027.636475,166.116074 
	C1028.424683,175.318863 1032.926880,182.216003 1040.591919,186.909424 
	C1055.299927,195.915451 1070.872681,196.379303 1086.587280,190.090744 
	C1097.909668,185.559799 1103.360474,176.211319 1103.108398,163.561371 
	C1102.882446,152.227753 1097.646484,145.072556 1085.732056,140.611755 
	C1079.827026,138.400864 1073.619019,137.007935 1067.671631,134.897263 
	C1063.313965,133.350784 1058.897949,131.661728 1054.980957,129.263657 
	C1050.696655,126.640617 1050.691772,121.839401 1054.329834,118.782608 
	C1060.488525,113.607933 1074.403931,115.349785 1077.903320,122.445152 
	C1080.320435,127.345909 1083.551270,128.262939 1088.205078,127.870560 
	C1090.687500,127.661247 1093.209106,127.710129 1095.700317,127.857445 
	C1100.075195,128.116165 1101.217041,125.826118 1100.809937,121.950302 
	C1099.922729,113.507378 1095.713257,107.123352 1088.368774,103.172401 
	C1074.540527,95.733498 1060.165771,94.659515 1045.575928,100.889420 
	C1038.256348,104.014931 1032.611572,109.027016 1030.065063,116.852806 
	C1025.731445,130.170364 1030.931152,142.607941 1044.537231,148.490051 
	C1053.783203,152.487244 1063.773193,154.763474 1074.188110,158.033859 
M773.334229,188.896362 
	C774.487732,185.782867 775.409119,182.551437 776.903076,179.610931 
	C777.547913,178.341782 779.357788,176.889999 780.670410,176.858505 
	C790.318909,176.626999 799.977356,176.646698 809.627380,176.844742 
	C810.838379,176.869614 812.938782,178.270752 813.073181,179.247971 
	C814.754150,191.469391 822.678894,193.587997 833.055054,192.008530 
	C833.217712,191.983749 833.387451,192.006042 833.553894,192.005280 
	C839.770447,191.976532 840.210876,191.353607 837.992371,185.318253 
	C829.225830,161.468719 820.565735,137.578918 811.610596,113.800285 
	C804.983765,96.203835 808.673279,99.370491 789.917847,98.940765 
	C785.749390,98.845245 783.449585,100.604652 782.093994,104.369972 
	C778.943909,113.119537 775.650024,121.817284 772.423950,130.539551 
	C765.568359,149.075150 758.697876,167.605331 751.880371,186.154922 
	C750.023132,191.208115 750.585693,191.956619 755.929016,191.998871 
	C759.923584,192.030457 763.939026,192.239334 767.903931,191.894699 
	C769.659241,191.742142 771.312622,190.416580 773.334229,188.896362 
M576.928711,188.756805 
	C567.593506,163.349854 558.320374,137.919846 548.900452,112.544319 
	C542.967041,96.560791 545.524048,99.457649 529.322449,98.875374 
	C523.594788,98.669533 520.983276,101.005180 519.143127,106.071365 
	C509.902313,131.512970 500.417694,156.865997 491.025604,182.252686 
	C487.418579,192.002319 487.428040,192.104401 497.560852,191.981445 
	C511.514709,191.812134 509.376343,194.276428 514.105286,180.370224 
	C515.079102,177.506744 516.489624,176.558029 519.459412,176.662888 
	C525.776306,176.885956 532.106628,176.730759 538.431396,176.730728 
	C549.726746,176.730682 549.814941,176.697235 553.831909,187.273422 
	C555.053772,190.490524 556.759399,192.228821 560.389832,192.051025 
	C564.540955,191.847748 568.724792,192.206085 572.862305,191.893921 
	C574.289307,191.786255 575.619629,190.397949 576.928711,188.756805 
M595.264893,336.268738 
	C603.527954,347.409058 606.964783,359.802490 605.248230,373.644806 
	C604.862061,376.759033 605.297424,379.966431 605.166382,383.123138 
	C604.994873,387.254333 606.506470,389.393616 610.975464,389.052338 
	C614.119324,388.812195 617.296204,389.010590 620.458374,389.005310 
	C627.339417,388.993835 628.463684,388.488495 627.663208,381.671448 
	C625.388550,362.299133 630.423706,345.141907 641.020691,329.004486 
	C646.471802,320.703247 650.609924,311.537659 655.307312,302.744476 
	C658.359802,297.030273 657.708069,296.014404 651.090332,295.995087 
	C648.261047,295.986847 645.394775,296.285034 642.610168,295.932343 
	C636.999390,295.221741 633.743530,297.491791 631.312805,302.580597 
	C626.894897,311.830048 621.861145,320.785339 616.787292,330.428101 
	C613.006470,323.536133 609.649414,317.287140 606.173462,311.104919 
	C595.745483,292.557770 601.682251,296.436005 580.530945,296.018921 
	C574.130432,295.892700 573.494324,297.168854 576.721436,302.961578 
	C582.786865,313.848999 588.871521,324.725739 595.264893,336.268738 
M684.836426,118.971741 
	C691.415466,118.971741 697.994507,118.971741 704.808777,118.971741 
	C704.808777,141.703354 704.891479,163.668610 704.741821,185.632263 
	C704.710388,190.248383 706.039001,192.534851 711.013184,192.057312 
	C714.148560,191.756302 717.336365,192.015625 720.500549,191.998169 
	C726.591858,191.964584 726.979004,191.599380 726.984375,185.392441 
	C727.001953,165.074692 726.990906,144.756912 726.990906,124.439156 
	C726.990906,122.682999 726.990906,120.926834 726.990906,118.972115 
	C731.480713,118.972115 735.297180,119.015083 739.112366,118.964577 
	C754.627808,118.759186 752.794189,121.765541 752.791687,103.477150 
	C752.791321,100.424393 751.225708,98.980759 748.105957,98.986053 
	C726.622498,99.022530 705.138916,99.027809 683.655518,98.984520 
	C680.250061,98.977661 678.823730,100.525711 678.917969,103.857475 
	C679.012085,107.185577 679.041687,110.522560 678.909607,113.848099 
	C678.767212,117.431595 680.294495,119.168930 684.836426,118.971741 
M821.827209,303.695587 
	C821.748657,296.179779 821.587402,296.003632 814.329285,296.000885 
	C796.842529,295.994324 779.355286,295.919830 761.869141,296.021881 
	C745.824646,296.115509 748.215576,293.796265 747.879517,310.128235 
	C747.791138,314.423981 749.350891,316.167084 753.695374,316.026886 
	C760.281311,315.814362 766.879150,315.971344 773.808228,315.971344 
	C773.808228,318.430176 773.808228,320.233276 773.808289,322.036377 
	C773.808594,342.354340 773.893616,362.672882 773.743652,382.989746 
	C773.710266,387.514282 775.276672,389.441803 779.869873,389.049011 
	C782.845825,388.794525 785.861267,389.006989 788.859009,389.000153 
	C795.725891,388.984497 795.982727,388.753265 795.986694,382.034607 
	C795.998535,361.883209 795.990906,341.731781 795.990845,321.580383 
	C795.990845,319.810913 795.990906,318.041443 795.990906,315.972137 
	C801.199219,315.972137 805.834351,315.978058 810.469482,315.970978 
	C822.109802,315.953217 821.945923,317.271515 821.827209,303.695587 
z"/>
<path fill="#FDFEFE" opacity="1.000000" stroke="none" 
	d="
M1125.468628,493.000000 
	C1130.864746,490.948669 1136.931152,489.339722 1142.560181,486.771576 
	C1171.235107,473.688995 1187.922485,451.302246 1193.653076,420.175720 
	C1194.000000,444.258148 1194.000000,468.516266 1194.000000,493.000000 
	C1171.312866,493.000000 1148.625122,493.000000 1125.468628,493.000000 
z"/>
<path fill="#FDFEFE" opacity="1.000000" stroke="none" 
	d="
M1194.000000,75.531349 
	C1192.668823,70.628716 1191.696289,65.137527 1189.947754,59.905758 
	C1179.536499,28.754984 1158.315430,9.300529 1126.155151,1.348247 
	C1148.597046,1.000000 1171.194214,1.000000 1194.000000,1.000000 
	C1194.000000,25.687168 1194.000000,50.374928 1194.000000,75.531349 
z"/>
<path fill="#FDFDFE" opacity="1.000000" stroke="none" 
	d="
M1.000002,444.468658 
	C7.259350,452.626892 12.785939,461.926666 19.947323,469.725220 
	C31.090172,481.859497 45.705288,488.568176 61.830559,492.664642 
	C41.747871,493.000000 21.495741,493.000000 1.000000,493.000000 
	C1.000000,476.979919 1.000000,460.958618 1.000002,444.468658 
z"/>
<path fill="#FDFDFE" opacity="1.000000" stroke="none" 
	d="
M61.531342,1.000000 
	C56.769695,2.801674 51.425381,4.329705 46.329113,6.453075 
	C25.846537,14.987174 11.152070,29.656191 1.217893,49.736740 
	C1.000000,33.731899 1.000000,17.463797 1.000000,1.000000 
	C21.020470,1.000000 41.041576,1.000000 61.531342,1.000000 
z"/>
<path fill="#56BEC3" opacity="1.000000" stroke="none" 
	d="
M142.029663,138.774628 
	C150.748505,141.130280 159.467346,143.485931 166.952194,145.508179 
	C173.687271,127.208229 180.248611,109.380363 187.318604,91.763336 
	C188.218399,97.857536 188.466522,103.755974 189.083923,109.615494 
	C189.280594,111.481995 190.458527,113.245110 191.146637,115.445404 
	C189.071472,123.714874 186.862183,131.554367 185.044693,139.483673 
	C182.452087,150.794662 182.574722,150.822769 193.017960,155.764526 
	C193.015564,158.388412 193.016556,160.602463 192.661316,162.753998 
	C188.783783,161.454391 185.262497,160.217316 180.923004,158.692810 
	C179.185272,173.081635 177.537231,186.727798 175.743500,201.580399 
	C182.052368,197.968857 187.037933,195.114853 192.045135,192.620483 
	C192.384979,194.864487 192.703186,196.748840 192.745880,198.859970 
	C187.832062,202.005112 183.020920,204.691879 178.642792,207.958954 
	C176.954666,209.218689 175.277145,211.782990 175.248657,213.776550 
	C174.966461,233.520493 174.922272,253.270660 175.155273,273.015015 
	C175.180557,275.157013 176.859360,278.014465 178.657822,279.270416 
	C185.582825,284.106476 192.868286,288.426331 200.014313,293.410645 
	C199.675049,299.915100 199.340790,305.947540 198.664825,311.905731 
	C191.483627,307.900299 184.644135,303.969086 176.501755,299.289032 
	C177.837982,310.056244 178.929657,319.530121 180.361816,328.952271 
	C180.463165,329.619049 183.282440,330.603149 184.475571,330.242157 
	C188.746323,328.949951 192.861008,327.141907 197.429230,325.751038 
	C201.931961,329.809692 199.165970,334.808380 199.802536,339.427673 
	C195.849731,341.106537 192.251984,342.961273 188.429291,343.880249 
	C183.763657,345.001923 183.311707,347.568787 184.366119,351.539032 
	C186.613892,360.002869 188.669144,368.517761 190.463959,377.186676 
	C189.749954,378.904419 189.095886,380.439362 189.052124,381.991516 
	C188.911987,386.962219 189.183289,391.950073 188.896927,396.908264 
	C188.795288,398.667908 187.549026,400.361481 186.825287,402.085205 
	C181.547852,387.317383 176.050430,372.623047 171.083755,357.751434 
	C168.518860,350.071411 170.340988,350.380737 162.003922,352.550934 
	C154.323807,354.550079 146.556091,356.212769 138.413528,357.550690 
	C138.008194,353.139343 138.016296,349.200989 138.406403,345.153748 
	C146.593338,342.822388 154.368637,340.486816 162.217255,338.431183 
	C165.513931,337.567810 166.254242,335.857452 165.792572,332.658264 
	C164.042908,320.533813 162.379333,308.393219 160.962921,296.226105 
	C160.322784,290.727173 159.056992,286.122955 153.454056,283.434082 
	C150.395538,281.966278 147.916107,279.291779 145.289185,276.692413 
	C145.656723,269.909180 145.910583,263.594971 146.429062,257.552307 
	C150.540085,260.366455 154.386490,262.909088 158.453400,265.597473 
	C158.453400,250.323120 158.453400,235.900070 158.453400,221.133896 
	C153.982986,224.367950 150.005280,227.245560 146.021149,229.651123 
	C145.947098,226.969040 145.879425,224.759003 146.027618,222.313995 
	C149.873154,219.453690 153.639648,216.991638 157.064499,214.121857 
	C158.415863,212.989502 159.622375,211.028885 159.846954,209.308609 
	C162.081253,192.193756 163.933792,175.027695 166.313095,157.934387 
	C166.776489,154.605270 166.112396,153.502136 163.097229,152.753738 
	C155.704697,150.918839 148.372147,148.842300 141.094513,146.476074 
	C141.458939,143.650970 141.744293,141.212799 142.029663,138.774628 
z"/>
<path fill="#FBFCFE" opacity="1.000000" stroke="none" 
	d="
M959.546143,319.404449 
	C962.559753,324.767670 965.366638,329.825470 968.400757,335.292755 
	C975.055054,323.461304 981.527039,312.217834 987.703674,300.814362 
	C989.606873,297.300659 991.948792,295.585632 995.978638,295.828613 
	C999.797302,296.058899 1003.640198,295.923401 1007.471924,295.889465 
	C1010.607910,295.861664 1011.985901,297.376343 1011.982971,300.484985 
	C1011.956299,328.476746 1011.961792,356.468536 1011.969482,384.460297 
	C1011.970337,387.536255 1010.576538,389.071930 1007.410278,389.015045 
	C1003.579346,388.946198 999.734680,388.818054 995.917053,389.055511 
	C991.542358,389.327637 989.986389,387.438141 990.030762,383.186676 
	C990.166260,370.191895 990.079346,357.194794 990.079163,344.198578 
	C990.079102,342.600861 990.079224,341.003113 990.079224,339.405396 
	C989.746643,339.292969 989.414124,339.180542 989.081543,339.068115 
	C985.266357,345.736603 981.456787,352.408325 977.634460,359.072723 
	C972.804932,367.493317 964.288757,367.597870 959.438904,359.281403 
	C955.543152,352.600952 951.689819,345.895782 946.781067,339.427460 
	C946.781067,347.143524 946.781128,354.859558 946.780945,362.575592 
	C946.780701,369.406921 946.697876,376.239655 946.810852,383.069092 
	C946.878296,387.148132 945.522339,389.368225 941.008972,389.057312 
	C937.360657,388.806030 933.669128,388.819122 930.018921,389.055756 
	C925.864136,389.325073 924.275085,387.449097 924.306641,383.499481 
	C924.371887,375.335724 924.321045,367.171051 924.320740,359.006775 
	C924.320007,340.178925 924.300842,321.351074 924.332703,302.523285 
	C924.342834,296.511810 924.967407,295.818237 930.873413,295.900360 
	C949.715027,296.162323 944.583984,293.293091 953.779846,309.055603 
	C955.707581,312.359924 957.489990,315.749054 959.546143,319.404449 
z"/>
<path fill="#FBFCFE" opacity="1.000000" stroke="none" 
	d="
M664.972290,175.990891 
	C664.968262,180.153000 664.933716,183.817368 664.969421,187.481064 
	C664.999939,190.611328 663.485229,192.090561 660.380615,191.998123 
	C660.047974,191.988205 659.714355,192.011368 659.381470,192.004944 
	C641.887390,191.667526 646.330688,194.599884 637.055237,179.885086 
	C628.895569,166.940369 620.936829,153.869019 612.190491,139.723221 
	C611.994324,142.117249 611.797729,143.415619 611.795532,144.714310 
	C611.772644,158.371429 611.684753,172.029648 611.833801,185.685181 
	C611.884583,190.331909 610.308411,192.511353 605.395874,192.067505 
	C601.926636,191.754044 598.391907,191.806183 594.912231,192.055557 
	C590.225281,192.391434 589.275146,189.791443 589.298523,185.897079 
	C589.364380,174.905121 589.320312,163.912521 589.320251,152.920166 
	C589.320129,137.097855 589.406372,121.274773 589.267090,105.453682 
	C589.227051,100.907959 590.581726,98.765343 595.565552,98.919067 
	C612.832886,99.451653 608.472595,96.383362 617.839600,111.230515 
	C626.003967,124.171700 633.983887,137.229233 642.592773,151.118637 
	C642.815796,149.086090 643.049805,147.935165 643.051941,146.783813 
	C643.077576,132.960144 643.195862,119.134605 642.998901,105.313698 
	C642.931396,100.576302 644.578186,98.534081 649.405823,98.943008 
	C652.547729,99.209152 655.745789,99.190674 658.891296,98.946289 
	C663.474243,98.590202 665.061157,100.520409 665.035034,105.042458 
	C664.899475,128.525269 664.972168,152.009262 664.972290,175.990891 
z"/>
<path fill="#FAFBFD" opacity="1.000000" stroke="none" 
	d="
M861.075928,192.009216 
	C859.435120,192.009064 858.255066,191.893829 857.104492,192.029068 
	C852.589783,192.559647 851.218018,190.208969 851.290283,186.130356 
	C851.399414,179.966492 851.316833,173.799271 851.316772,167.633469 
	C851.316589,147.136353 851.304199,126.639229 851.324158,106.142143 
	C851.330566,99.611008 851.899109,99.007523 858.460144,99.075562 
	C872.447876,99.220596 886.494263,98.723969 900.405579,99.855530 
	C915.290466,101.066284 924.510864,110.131691 926.831970,123.515694 
	C929.325378,137.893234 923.132751,150.637024 910.368225,157.394165 
	C909.662659,157.767639 908.952087,158.131592 907.923218,158.666824 
	C914.043213,167.587540 920.121521,176.316742 926.017944,185.167053 
	C927.037231,186.696899 927.285950,188.740158 927.890564,190.546249 
	C926.064575,191.033875 924.232239,191.967239 922.413635,191.941086 
	C901.052673,191.634048 907.016418,195.146805 894.642151,177.233734 
	C893.601257,175.726959 892.818115,173.976059 891.549011,172.703918 
	C884.125122,165.262482 884.406189,155.898727 885.139099,146.555878 
	C885.256531,145.058990 887.333252,143.253952 888.934387,142.469116 
	C890.446533,141.727875 892.543152,142.272369 894.352051,142.026108 
	C900.613586,141.173691 905.068054,136.485123 905.108643,130.833862 
	C905.151672,124.844955 901.236816,119.862968 894.849731,119.323402 
	C887.947327,118.740303 880.957581,119.191406 873.620667,119.191406 
	C873.620667,131.464066 873.620667,143.427963 873.620605,155.391861 
	C873.620605,164.890518 873.628357,174.389206 873.618225,183.887848 
	C873.609802,191.806274 873.402832,192.005219 865.549561,192.009094 
	C864.216492,192.009750 862.883362,192.009201 861.075928,192.009216 
z"/>
<path fill="#FDFDFE" opacity="1.000000" stroke="none" 
	d="
M902.310181,296.223267 
	C904.900024,298.972595 906.202942,312.220398 904.055847,314.265106 
	C902.831787,315.430817 900.513550,315.885773 898.680542,315.903931 
	C885.370361,316.035736 872.058289,315.974762 858.388367,315.974762 
	C858.388367,321.010437 858.388367,325.875671 858.388367,331.206238 
	C869.941528,331.206238 881.384583,331.190460 892.827637,331.212280 
	C899.491028,331.224976 900.063782,331.732483 899.992371,338.216797 
	C899.849121,351.228058 902.225464,350.735565 887.306763,350.697998 
	C877.698181,350.673828 868.089539,350.693451 858.259094,350.693451 
	C858.259094,356.938904 858.259094,362.699738 858.259094,368.868195 
	C859.895203,368.950256 861.492188,369.097382 863.089478,369.099854 
	C875.910034,369.119507 888.731079,369.175568 901.550842,369.074524 
	C905.506348,369.043335 907.310791,370.477356 907.238892,374.637390 
	C906.949280,391.401337 909.196045,388.868622 893.515442,388.977051 
	C876.366638,389.095581 859.214844,388.874207 842.067871,389.087891 
	C837.309937,389.147156 835.616150,387.567322 835.643372,382.776428 
	C835.795715,355.970673 835.788452,329.163239 835.648315,302.357330 
	C835.624023,297.708588 837.038513,295.849304 841.942200,295.909607 
	C861.918457,296.155304 881.898743,296.071747 902.310181,296.223267 
z"/>
<path fill="#FDFDFE" opacity="1.000000" stroke="none" 
	d="
M968.029419,129.892731 
	C967.488525,133.462814 968.774902,134.330170 971.851013,134.276077 
	C982.346497,134.091599 992.847412,134.178421 1003.345947,134.217163 
	C1009.344360,134.239304 1010.058655,134.895401 1009.989807,140.746140 
	C1009.829773,154.349014 1012.288086,153.716995 997.256897,153.697769 
	C988.091492,153.686035 978.926086,153.715439 969.760681,153.735794 
	C969.432068,153.736526 969.103760,153.837921 968.402527,153.954224 
	C968.402527,159.762970 968.402527,165.643814 968.402527,172.110535 
	C978.476318,172.110535 988.578796,172.109848 998.681274,172.110855 
	C1003.180725,172.111298 1007.680786,172.163803 1012.179382,172.101974 
	C1015.748779,172.052917 1017.352844,173.681046 1017.215759,177.274521 
	C1017.088806,180.602615 1017.115967,183.941116 1017.203979,187.271637 
	C1017.294006,190.676682 1015.698792,192.033142 1012.354370,192.024750 
	C991.856995,191.973267 971.359009,191.930862 950.862305,192.057541 
	C946.391724,192.085159 945.669434,189.747177 945.682922,186.061981 
	C945.755188,166.397949 945.715454,146.733521 945.716125,127.069229 
	C945.716370,119.403496 945.784912,111.737015 945.694580,104.072372 
	C945.652710,100.521591 947.076050,98.947739 950.736206,98.962296 
	C970.400208,99.040535 990.064758,99.035011 1009.728821,98.965675 
	C1013.293640,98.953110 1014.958557,100.380173 1014.921143,103.987968 
	C1014.740234,121.428383 1016.906616,118.813110 1000.708008,118.958954 
	C990.376770,119.051979 980.044250,118.987976 969.712280,119.003296 
	C969.388306,119.003777 969.064514,119.103142 968.029358,119.273399 
	C968.029358,122.564323 968.029358,125.986794 968.029419,129.892731 
z"/>
<path fill="#FBFCFE" opacity="1.000000" stroke="none" 
	d="
M1035.607666,381.408997 
	C1029.581665,376.066345 1026.385620,369.748322 1026.022705,361.988251 
	C1025.864502,358.604156 1027.201904,357.026581 1030.631592,357.089691 
	C1034.959961,357.169373 1039.291260,357.138184 1043.620728,357.097687 
	C1046.666138,357.069214 1048.602539,358.018829 1049.110474,361.464325 
	C1049.851807,366.494568 1053.347412,369.614380 1058.036255,370.392334 
	C1062.713623,371.168365 1067.642822,371.218719 1072.363159,370.696655 
	C1076.270264,370.264465 1078.726318,367.492859 1079.139282,363.200470 
	C1079.558594,358.845612 1077.036133,356.603577 1073.534058,355.434570 
	C1068.500244,353.754272 1063.261719,352.694519 1058.202148,351.082336 
	C1052.988892,349.421173 1047.739014,347.739197 1042.764648,345.492096 
	C1032.772461,340.978210 1027.178833,333.211456 1027.271240,322.008179 
	C1027.365234,310.620483 1033.275024,302.727264 1043.325195,298.210144 
	C1058.287964,291.484985 1073.197510,292.514221 1087.406860,300.517456 
	C1094.631592,304.586578 1098.782593,310.988892 1099.237427,319.591461 
	C1099.447388,323.562775 1097.869263,325.033264 1094.041260,324.865021 
	C1090.384644,324.704285 1086.659668,325.208374 1083.074097,324.679169 
	C1081.164429,324.397278 1078.508789,322.939209 1077.865967,321.338806 
	C1074.270386,312.386627 1060.597534,311.317871 1054.378174,314.778687 
	C1049.144775,317.690735 1048.505981,323.119019 1053.551147,326.308044 
	C1057.420776,328.754089 1061.881470,330.374695 1066.237305,331.915436 
	C1072.182983,334.018555 1078.391846,335.397095 1084.286255,337.620605 
	C1096.210815,342.118866 1101.604126,349.609497 1101.773682,361.087921 
	C1101.950317,373.036926 1096.186646,382.746674 1085.097778,387.078979 
	C1067.900146,393.797852 1051.242676,392.860504 1035.607666,381.408997 
z"/>
<path fill="#FCFDFE" opacity="1.000000" stroke="none" 
	d="
M700.054565,391.065857 
	C690.875977,390.944061 682.806763,388.597260 675.506042,383.891479 
	C667.597473,378.793884 663.008118,371.646973 662.577209,362.042053 
	C662.430298,358.767365 663.535400,356.990417 667.083557,357.080109 
	C671.412598,357.189545 675.748047,357.175415 680.077881,357.081696 
	C683.205505,357.013977 685.122070,358.153564 685.641052,361.437683 
	C686.521179,367.007385 690.464661,369.856934 695.481567,370.690155 
	C699.681763,371.387695 704.120056,371.290070 708.376221,370.831940 
	C712.587585,370.378662 715.195984,367.588440 715.705261,363.204163 
	C716.204529,358.906677 713.551758,356.571747 710.053406,355.442993 
	C703.732788,353.403564 697.223999,351.953186 690.877136,349.987610 
	C686.921143,348.762512 683.013123,347.266663 679.266785,345.503052 
	C669.167908,340.748871 663.600891,333.033356 663.861328,321.483673 
	C664.117004,310.145386 670.097534,302.600494 679.869812,298.194214 
	C694.820190,291.453064 709.749390,292.539398 723.975952,300.538544 
	C731.251221,304.629181 735.224792,311.186859 735.849365,319.652100 
	C736.113403,323.229279 734.698120,324.993927 731.001587,324.848419 
	C728.506348,324.750153 725.985413,324.637695 723.508850,324.874969 
	C718.654785,325.340027 715.327820,324.358459 712.802490,319.281219 
	C709.298523,312.236420 695.162170,310.661865 689.191467,315.902985 
	C685.763672,318.911896 685.685303,323.551636 689.735229,326.056335 
	C693.775879,328.555359 698.339905,330.317535 702.843445,331.931122 
	C708.625916,334.002869 714.676453,335.334930 720.434937,337.463409 
	C732.879700,342.063263 738.204041,349.576904 738.124268,361.718170 
	C738.041992,374.234528 731.832336,383.826904 720.053833,387.653076 
	C713.831421,389.674438 707.056274,389.994751 700.054565,391.065857 
z"/>
<path fill="#FCFDFE" opacity="1.000000" stroke="none" 
	d="
M504.909485,384.145264 
	C496.735352,378.805115 492.075165,371.770813 491.577057,362.171478 
	C491.389557,358.558411 492.750793,356.885559 496.450134,357.077118 
	C499.107147,357.214722 501.790161,357.269043 504.438721,357.064575 
	C509.970123,356.637604 514.092712,357.086365 515.783325,364.077576 
	C516.468079,366.909302 521.377747,369.589935 524.874512,370.636292 
	C528.684265,371.776337 533.123047,371.298798 537.218018,370.866760 
	C541.421326,370.423309 544.100220,367.759460 544.681213,363.370148 
	C545.285706,358.803528 542.415833,356.475250 538.757385,355.310822 
	C532.113953,353.196289 525.284058,351.672150 518.617004,349.624695 
	C514.981018,348.508087 511.432739,347.004852 507.995880,345.360382 
	C497.891327,340.525513 492.508789,332.705597 492.876923,321.194122 
	C493.239166,309.867035 499.326599,302.458313 509.121643,298.094543 
	C523.931702,291.496429 538.679932,292.604675 552.760132,300.407471 
	C560.227905,304.545807 564.313538,311.209290 564.853699,319.885284 
	C565.060242,323.203339 563.737000,324.930603 560.273376,324.836853 
	C557.777588,324.769287 555.265930,324.671478 552.783386,324.867065 
	C547.831848,325.257141 544.300537,324.499237 541.667175,319.105286 
	C538.237366,312.079865 523.802124,310.727264 518.040588,316.035522 
	C514.720642,319.094269 514.778320,323.696320 518.884033,326.179565 
	C522.949646,328.638519 527.518921,330.363800 532.023682,331.973114 
	C537.805237,334.038574 543.844788,335.394196 549.592285,337.540131 
	C561.839539,342.112976 567.111511,349.497772 567.127686,361.375366 
	C567.144836,373.957397 561.021729,383.446259 549.422363,387.625549 
	C534.292358,393.076874 519.415894,392.689026 504.909485,384.145264 
z"/>
<path fill="#FCFDFE" opacity="1.000000" stroke="none" 
	d="
M1073.809326,157.921585 
	C1063.773193,154.763474 1053.783203,152.487244 1044.537231,148.490051 
	C1030.931152,142.607941 1025.731445,130.170364 1030.065063,116.852806 
	C1032.611572,109.027016 1038.256348,104.014931 1045.575928,100.889420 
	C1060.165771,94.659515 1074.540527,95.733498 1088.368774,103.172401 
	C1095.713257,107.123352 1099.922729,113.507378 1100.809937,121.950302 
	C1101.217041,125.826118 1100.075195,128.116165 1095.700317,127.857445 
	C1093.209106,127.710129 1090.687500,127.661247 1088.205078,127.870560 
	C1083.551270,128.262939 1080.320435,127.345909 1077.903320,122.445152 
	C1074.403931,115.349785 1060.488525,113.607933 1054.329834,118.782608 
	C1050.691772,121.839401 1050.696655,126.640617 1054.980957,129.263657 
	C1058.897949,131.661728 1063.313965,133.350784 1067.671631,134.897263 
	C1073.619019,137.007935 1079.827026,138.400864 1085.732056,140.611755 
	C1097.646484,145.072556 1102.882446,152.227753 1103.108398,163.561371 
	C1103.360474,176.211319 1097.909668,185.559799 1086.587280,190.090744 
	C1070.872681,196.379303 1055.299927,195.915451 1040.591919,186.909424 
	C1032.926880,182.216003 1028.424683,175.318863 1027.636475,166.116074 
	C1027.276978,161.920410 1028.416016,159.709885 1033.014282,160.064407 
	C1035.665039,160.268799 1038.349976,160.207092 1041.010254,160.076691 
	C1046.096313,159.827377 1050.088379,159.898880 1051.624146,166.708450 
	C1052.288574,169.654831 1057.371948,172.280441 1060.980103,173.679947 
	C1064.037598,174.865814 1067.868530,174.258041 1071.343872,174.117447 
	C1076.122559,173.924179 1079.706787,171.901428 1080.608032,166.746262 
	C1081.499268,161.649124 1078.115845,159.622101 1073.809326,157.921585 
z"/>
<path fill="#FCFDFE" opacity="1.000000" stroke="none" 
	d="
M773.173218,189.259918 
	C771.312622,190.416580 769.659241,191.742142 767.903931,191.894699 
	C763.939026,192.239334 759.923584,192.030457 755.929016,191.998871 
	C750.585693,191.956619 750.023132,191.208115 751.880371,186.154922 
	C758.697876,167.605331 765.568359,149.075150 772.423950,130.539551 
	C775.650024,121.817284 778.943909,113.119537 782.093994,104.369972 
	C783.449585,100.604652 785.749390,98.845245 789.917847,98.940765 
	C808.673279,99.370491 804.983765,96.203835 811.610596,113.800285 
	C820.565735,137.578918 829.225830,161.468719 837.992371,185.318253 
	C840.210876,191.353607 839.770447,191.976532 833.553894,192.005280 
	C833.387451,192.006042 833.217712,191.983749 833.055054,192.008530 
	C822.678894,193.587997 814.754150,191.469391 813.073181,179.247971 
	C812.938782,178.270752 810.838379,176.869614 809.627380,176.844742 
	C799.977356,176.646698 790.318909,176.626999 780.670410,176.858505 
	C779.357788,176.889999 777.547913,178.341782 776.903076,179.610931 
	C775.409119,182.551437 774.487732,185.782867 773.173218,189.259918 
M804.804932,154.032730 
	C801.737549,145.095627 798.670227,136.158524 795.108887,125.782005 
	C791.326904,136.952576 788.057007,146.610687 784.589478,156.852463 
	C791.217102,156.852463 797.165100,156.913406 803.107910,156.765472 
	C803.757080,156.749313 804.376404,155.530746 804.804932,154.032730 
z"/>
<path fill="#FCFDFE" opacity="1.000000" stroke="none" 
	d="
M576.961426,189.175720 
	C575.619629,190.397949 574.289307,191.786255 572.862305,191.893921 
	C568.724792,192.206085 564.540955,191.847748 560.389832,192.051025 
	C556.759399,192.228821 555.053772,190.490524 553.831909,187.273422 
	C549.814941,176.697235 549.726746,176.730682 538.431396,176.730728 
	C532.106628,176.730759 525.776306,176.885956 519.459412,176.662888 
	C516.489624,176.558029 515.079102,177.506744 514.105286,180.370224 
	C509.376343,194.276428 511.514709,191.812134 497.560852,191.981445 
	C487.428040,192.104401 487.418579,192.002319 491.025604,182.252686 
	C500.417694,156.865997 509.902313,131.512970 519.143127,106.071365 
	C520.983276,101.005180 523.594788,98.669533 529.322449,98.875374 
	C545.524048,99.457649 542.967041,96.560791 548.900452,112.544319 
	C558.320374,137.919846 567.593506,163.349854 576.961426,189.175720 
M534.711182,130.901230 
	C534.126648,129.641434 533.542053,128.381638 532.613220,126.379883 
	C529.061523,136.955933 525.806030,146.649719 522.485840,156.536407 
	C529.722839,156.536407 536.264099,156.536407 543.306335,156.536407 
	C540.419922,147.941422 537.681702,139.787552 534.711182,130.901230 
z"/>
<path fill="#FBFCFE" opacity="1.000000" stroke="none" 
	d="
M595.106567,335.937805 
	C588.871521,324.725739 582.786865,313.848999 576.721436,302.961578 
	C573.494324,297.168854 574.130432,295.892700 580.530945,296.018921 
	C601.682251,296.436005 595.745483,292.557770 606.173462,311.104919 
	C609.649414,317.287140 613.006470,323.536133 616.787292,330.428101 
	C621.861145,320.785339 626.894897,311.830048 631.312805,302.580597 
	C633.743530,297.491791 636.999390,295.221741 642.610168,295.932343 
	C645.394775,296.285034 648.261047,295.986847 651.090332,295.995087 
	C657.708069,296.014404 658.359802,297.030273 655.307312,302.744476 
	C650.609924,311.537659 646.471802,320.703247 641.020691,329.004486 
	C630.423706,345.141907 625.388550,362.299133 627.663208,381.671448 
	C628.463684,388.488495 627.339417,388.993835 620.458374,389.005310 
	C617.296204,389.010590 614.119324,388.812195 610.975464,389.052338 
	C606.506470,389.393616 604.994873,387.254333 605.166382,383.123138 
	C605.297424,379.966431 604.862061,376.759033 605.248230,373.644806 
	C606.964783,359.802490 603.527954,347.409058 595.106567,335.937805 
z"/>
<path fill="#FEFEFF" opacity="1.000000" stroke="none" 
	d="
M684.375549,118.970421 
	C680.294495,119.168930 678.767212,117.431595 678.909607,113.848099 
	C679.041687,110.522560 679.012085,107.185577 678.917969,103.857475 
	C678.823730,100.525711 680.250061,98.977661 683.655518,98.984520 
	C705.138916,99.027809 726.622498,99.022530 748.105957,98.986053 
	C751.225708,98.980759 752.791321,100.424393 752.791687,103.477150 
	C752.794189,121.765541 754.627808,118.759186 739.112366,118.964577 
	C735.297180,119.015083 731.480713,118.972115 726.990906,118.972115 
	C726.990906,120.926834 726.990906,122.682999 726.990906,124.439156 
	C726.990906,144.756912 727.001953,165.074692 726.984375,185.392441 
	C726.979004,191.599380 726.591858,191.964584 720.500549,191.998169 
	C717.336365,192.015625 714.148560,191.756302 711.013184,192.057312 
	C706.039001,192.534851 704.710388,190.248383 704.741821,185.632263 
	C704.891479,163.668610 704.808777,141.703354 704.808777,118.971741 
	C697.994507,118.971741 691.415466,118.971741 684.375549,118.970421 
z"/>
<path fill="#FEFEFF" opacity="1.000000" stroke="none" 
	d="
M821.827271,304.155151 
	C821.945923,317.271515 822.109802,315.953217 810.469482,315.970978 
	C805.834351,315.978058 801.199219,315.972137 795.990906,315.972137 
	C795.990906,318.041443 795.990845,319.810913 795.990845,321.580383 
	C795.990906,341.731781 795.998535,361.883209 795.986694,382.034607 
	C795.982727,388.753265 795.725891,388.984497 788.859009,389.000153 
	C785.861267,389.006989 782.845825,388.794525 779.869873,389.049011 
	C775.276672,389.441803 773.710266,387.514282 773.743652,382.989746 
	C773.893616,362.672882 773.808594,342.354340 773.808289,322.036377 
	C773.808228,320.233276 773.808228,318.430176 773.808228,315.971344 
	C766.879150,315.971344 760.281311,315.814362 753.695374,316.026886 
	C749.350891,316.167084 747.791138,314.423981 747.879517,310.128235 
	C748.215576,293.796265 745.824646,296.115509 761.869141,296.021881 
	C779.355286,295.919830 796.842529,295.994324 814.329285,296.000885 
	C821.587402,296.003632 821.748657,296.179779 821.827271,304.155151 
z"/>
<path fill="#8BD2D8" opacity="1.000000" stroke="none" 
	d="
M362.120667,263.701691 
	C376.127106,276.935211 388.429749,291.504181 396.413300,309.216034 
	C398.570343,314.001617 400.233978,319.253113 400.857483,324.442932 
	C403.159637,343.605896 392.882965,356.922760 372.059753,360.611725 
	C362.534210,362.299286 352.592957,361.640442 342.509979,361.562653 
	C342.459076,356.774811 342.738434,352.470062 343.432892,348.137024 
	C352.758667,348.017029 361.790405,348.820923 370.553375,347.636444 
	C386.065521,345.539642 392.413422,336.067505 388.740692,320.841095 
	C387.135468,314.186096 384.329926,307.500824 380.647736,301.737671 
	C374.328705,291.847595 366.893829,282.670380 360.059387,272.871002 
	C360.834473,269.599304 361.477570,266.650482 362.120667,263.701691 
z"/>
<path fill="#43ADB9" opacity="1.000000" stroke="none" 
	d="
M96.688660,235.137146 
	C80.765663,219.079910 66.470200,201.800552 59.594696,179.832489 
	C57.576458,173.383987 56.755928,165.956451 57.706253,159.309280 
	C59.662514,145.625992 70.655357,136.827545 86.837997,134.056030 
	C89.284927,133.636932 91.759132,133.377197 94.892166,133.361145 
	C96.048264,136.837402 96.532928,139.996277 96.690308,143.347473 
	C91.085960,144.933945 85.574463,145.765594 80.583351,147.845825 
	C71.706894,151.545380 67.534523,159.092056 70.066490,168.387817 
	C72.173141,176.122086 75.153236,183.974335 79.465805,190.666321 
	C85.550102,200.107590 93.220360,208.526779 100.046616,217.808441 
	C99.586349,222.006714 99.492920,225.810654 98.915047,229.539505 
	C98.615257,231.473938 97.458344,233.275528 96.688660,235.137146 
z"/>
<path fill="#6EC6CC" opacity="1.000000" stroke="none" 
	d="
M297.018066,353.773682 
	C293.656372,352.883698 290.294678,351.993713 286.115082,350.887207 
	C281.144257,372.618225 275.170013,393.916229 263.870728,413.605103 
	C262.150513,410.052307 261.016510,406.400757 259.954224,402.409149 
	C268.410828,384.961212 274.570496,367.110413 278.443268,348.533630 
	C269.980469,345.165100 261.998932,341.988129 254.014069,338.356232 
	C254.032822,332.156738 254.054901,326.412201 254.438141,320.770935 
	C263.592834,324.489716 272.386353,328.105286 281.710754,331.939087 
	C282.890411,326.247894 283.853088,321.603485 285.179810,317.097900 
	C286.032532,319.013855 286.331940,320.873993 287.064514,322.544128 
	C287.760162,324.130005 288.909119,325.517059 289.899597,327.397766 
	C289.687744,329.925842 289.434937,332.047699 289.156342,334.386200 
	C291.892731,335.427429 294.505829,336.421722 297.094421,337.918457 
	C297.052643,343.538452 297.035339,348.656067 297.018066,353.773682 
z"/>
<path fill="#4DB9BE" opacity="1.000000" stroke="none" 
	d="
M96.882446,235.417999 
	C97.458344,233.275528 98.615257,231.473938 98.915047,229.539505 
	C99.492920,225.810654 99.586349,222.006714 100.331688,218.018906 
	C108.306511,224.933975 115.830284,232.064041 123.274361,239.118576 
	C131.189117,233.299606 138.500443,227.924301 145.811768,222.548981 
	C145.879425,224.759003 145.947098,226.969040 145.855103,229.934982 
	C140.441315,234.918335 135.187210,239.145752 129.400177,243.801956 
	C135.383514,248.612686 140.773972,252.946747 146.164444,257.280792 
	C145.910583,263.594971 145.656723,269.909180 144.987854,276.527283 
	C138.165604,271.887115 131.626434,267.103149 125.383698,261.959473 
	C117.107193,255.140091 117.207428,255.020096 109.494087,261.849792 
	C109.123093,262.178253 108.719414,262.469788 108.267487,262.324493 
	C107.812149,259.271271 107.420265,256.672058 107.028389,254.072861 
	C108.264465,252.776550 109.500542,251.480225 111.697632,249.176056 
	C106.746681,244.612549 101.911461,240.155701 96.882446,235.417999 
z"/>
<path fill="#6EC6CC" opacity="1.000000" stroke="none" 
	d="
M262.962677,78.087509 
	C271.940491,92.976173 277.460205,109.241745 281.911224,125.918076 
	C283.322113,131.204239 284.925110,136.505569 285.591217,141.904694 
	C286.209564,146.916626 288.152771,147.819092 292.357971,145.783066 
	C293.240387,145.355835 294.256653,145.205017 295.603210,145.372238 
	C296.006927,147.928329 296.018738,150.039032 295.754700,152.380417 
	C291.861450,153.815308 287.251617,154.128937 288.522278,160.148087 
	C287.929749,161.787506 287.754059,163.311279 287.365387,164.778641 
	C286.296265,168.814697 288.948761,173.608261 284.661072,176.701584 
	C283.371857,170.249771 282.296265,164.121536 281.056061,157.055298 
	C271.521881,160.751297 262.808899,164.128952 254.037567,167.135529 
	C253.351196,164.928391 252.723206,163.092316 252.428757,161.107178 
	C259.944031,157.985947 267.023499,154.722153 274.347076,152.154541 
	C278.525909,150.689468 279.485596,148.913864 278.461609,144.542908 
	C273.952118,125.293755 267.630768,106.733406 259.117889,88.921394 
	C259.992004,87.155701 260.476318,85.522377 261.003906,83.903152 
	C261.637604,81.958336 262.308105,80.025520 262.962677,78.087509 
z"/>
<path fill="#41ACB8" opacity="1.000000" stroke="none" 
	d="
M91.036270,360.642059 
	C87.796310,359.920715 84.474747,359.452179 81.329773,358.436676 
	C62.199207,352.259369 54.370449,337.632843 59.766815,318.278625 
	C63.933792,303.333588 72.665565,291.017365 82.847641,279.499969 
	C83.606476,283.315063 83.914444,286.921417 84.119049,290.829224 
	C79.180496,300.707916 73.183784,309.893555 69.790855,319.957092 
	C65.071159,333.955841 70.324516,343.065704 83.316269,347.257629 
	C85.830658,348.068909 88.450378,348.553802 91.045921,349.580170 
	C91.058983,353.528076 91.047623,357.085052 91.036270,360.642059 
z"/>
<path fill="#8CD2D8" opacity="1.000000" stroke="none" 
	d="
M399.013702,146.948364 
	C403.325867,149.831253 404.177887,153.961761 403.231567,158.721130 
	C402.307739,163.367126 401.318420,168.000320 400.421387,172.651382 
	C397.843933,186.015518 391.418060,197.622910 383.413818,208.314697 
	C377.273926,216.516129 370.345886,224.127533 363.296051,231.774353 
	C362.548645,229.423203 362.444489,227.258621 361.954193,225.185349 
	C361.370422,222.716782 360.455292,220.326584 359.853119,217.602722 
	C361.757202,215.315460 363.509521,213.343002 365.223663,211.337891 
	C376.230774,198.462708 386.486572,185.154297 390.448425,168.005829 
	C392.530762,167.642105 394.236023,167.293198 396.290497,166.791840 
	C397.427094,164.998489 398.787476,163.393692 398.893585,161.709869 
	C399.202545,156.806320 399.009766,151.871140 399.013702,146.948364 
z"/>
<path fill="#5EC1C6" opacity="1.000000" stroke="none" 
	d="
M186.896576,402.438812 
	C187.549026,400.361481 188.795288,398.667908 188.896927,396.908264 
	C189.183289,391.950073 188.911987,386.962219 189.052124,381.991516 
	C189.095886,380.439362 189.749954,378.904419 190.603806,377.537598 
	C195.065811,387.426331 198.680130,397.311798 203.129761,406.805786 
	C208.095505,417.400970 215.633575,425.755737 227.010895,430.357819 
	C227.675507,434.091919 228.343353,437.397095 229.011200,440.702240 
	C215.447678,440.669281 206.479141,432.530457 198.973526,422.734650 
	C194.283920,416.614166 190.924286,409.474640 186.896576,402.438812 
z"/>
<path fill="#7ACCD0" opacity="1.000000" stroke="none" 
	d="
M297.390991,353.892731 
	C297.035339,348.656067 297.052643,343.538452 297.478729,338.021790 
	C312.930969,341.136902 327.974365,344.651093 343.017792,348.165314 
	C342.738434,352.470062 342.459076,356.774811 342.098907,361.477325 
	C327.266693,359.253998 312.515289,356.632904 297.390991,353.892731 
z"/>
<path fill="#5EC1C6" opacity="1.000000" stroke="none" 
	d="
M191.187469,115.055527 
	C190.458527,113.245110 189.280594,111.481995 189.083923,109.615494 
	C188.466522,103.755974 188.218399,97.857536 187.574097,91.510925 
	C193.442291,76.517731 202.090118,64.047302 216.154388,56.101448 
	C217.993301,55.062527 220.187592,54.652676 222.841125,54.241478 
	C223.645004,57.979980 223.825058,61.428463 223.699097,65.044739 
	C214.443207,69.706657 208.307632,77.109589 203.968658,85.733925 
	C199.184036,95.244049 195.404709,105.259949 191.187469,115.055527 
z"/>
<path fill="#84CFD4" opacity="1.000000" stroke="none" 
	d="
M359.683716,217.902420 
	C360.455292,220.326584 361.370422,222.716782 361.954193,225.185349 
	C362.444489,227.258621 362.548645,229.423203 363.001160,231.947739 
	C357.628723,237.561615 352.078827,242.775131 347.580750,247.000626 
	C352.825287,252.939590 357.323029,258.032867 361.970703,263.413940 
	C361.477570,266.650482 360.834473,269.599304 359.763824,272.705658 
	C354.151184,267.573822 349.040405,262.207550 343.719971,257.057953 
	C342.617950,255.991333 340.736816,255.729614 338.841248,254.941193 
	C337.648926,249.578506 336.830139,244.371567 336.344727,239.066162 
	C344.346649,231.945938 352.015167,224.924179 359.683716,217.902420 
z"/>
<path fill="#4BB6BD" opacity="1.000000" stroke="none" 
	d="
M91.467499,360.741455 
	C91.047623,357.085052 91.058983,353.528076 91.463234,349.569214 
	C95.310753,349.448425 98.826904,350.284912 102.208878,349.910217 
	C114.172188,348.584900 126.089592,346.845215 138.024399,345.262604 
	C138.016296,349.200989 138.008194,353.139343 138.001007,357.537903 
	C122.792976,361.520782 107.454788,362.947479 91.467499,360.741455 
z"/>
<path fill="#66C3C9" opacity="1.000000" stroke="none" 
	d="
M224.005127,64.876945 
	C223.825058,61.428463 223.645004,57.979980 223.223450,54.247269 
	C231.492798,51.371040 239.535980,53.342575 245.877029,58.761219 
	C252.207794,64.171082 257.214050,71.130951 262.881836,77.749405 
	C262.308105,80.025520 261.637604,81.958336 261.003906,83.903152 
	C260.476318,85.522377 259.992004,87.155701 258.868683,88.708054 
	C253.240753,82.318817 248.621704,75.637100 243.110229,69.797714 
	C238.054550,64.441254 231.379364,62.616608 224.005127,64.876945 
z"/>
<path fill="#87CFD6" opacity="1.000000" stroke="none" 
	d="
M338.984406,134.881042 
	C357.403381,132.373856 375.584137,131.333771 391.503906,143.850891 
	C390.564850,144.542038 389.753906,144.811752 388.607483,145.126343 
	C386.187927,146.457870 384.103821,147.744522 381.717529,148.838730 
	C376.896545,147.065796 372.468872,144.551682 367.839844,144.099716 
	C358.286285,143.166901 348.625366,143.333755 339.005005,142.596481 
	C338.995758,139.723495 338.990082,137.302277 338.984406,134.881042 
z"/>
<path fill="#66C3C9" opacity="1.000000" stroke="none" 
	d="
M229.411041,440.762146 
	C228.343353,437.397095 227.675507,434.091919 227.434448,430.327454 
	C234.440353,430.276245 240.125061,427.730377 244.253708,423.051331 
	C249.891556,416.661835 254.711761,409.550873 259.882477,402.749176 
	C261.016510,406.400757 262.150513,410.052307 263.626404,413.845215 
	C256.295135,427.657318 246.876266,439.106079 229.411041,440.762146 
z"/>
<path fill="#4BB7BE" opacity="1.000000" stroke="none" 
	d="
M97.017593,143.155151 
	C96.532928,139.996277 96.048264,136.837402 95.315941,133.403397 
	C110.837448,132.083954 126.218208,134.492279 141.733093,138.559570 
	C141.744293,141.212799 141.458939,143.650970 140.681580,146.519943 
	C125.798912,145.685547 111.408257,144.420349 97.017593,143.155151 
z"/>
<path fill="#78C9D0" opacity="1.000000" stroke="none" 
	d="
M338.546082,134.865479 
	C338.990082,137.302277 338.995758,139.723495 338.654694,142.767456 
	C324.215454,146.310028 310.122986,149.229889 296.030518,152.149734 
	C296.018738,150.039032 296.006927,147.928329 295.993713,145.364624 
	C310.030792,141.557693 324.069275,138.203796 338.546082,134.865479 
z"/>
<path fill="#46B1BB" opacity="1.000000" stroke="none" 
	d="
M84.222397,290.527771 
	C83.914444,286.921417 83.606476,283.315063 83.130211,279.319611 
	C90.784271,270.738159 98.606636,262.545837 106.728699,254.213181 
	C107.420265,256.672058 107.812149,259.271271 108.108894,262.577667 
	C100.083305,272.365845 92.152847,281.446808 84.222397,290.527771 
z"/>
<path fill="#66C3C9" opacity="1.000000" stroke="none" 
	d="
M388.942932,145.081467 
	C389.753906,144.811752 390.564850,144.542038 391.670166,144.142822 
	C393.547241,144.450546 395.130005,144.887772 396.695496,145.915817 
	C396.432587,153.319183 396.186920,160.131744 395.941223,166.944290 
	C394.236023,167.293198 392.530762,167.642105 390.276855,167.824829 
	C389.507690,167.408798 389.268219,167.178741 389.005737,166.502228 
	C388.982117,159.051178 388.962524,152.066315 388.942932,145.081467 
z"/>
<path fill="#7ACCD0" opacity="1.000000" stroke="none" 
	d="
M396.290466,166.791840 
	C396.186920,160.131744 396.432587,153.319183 396.943298,146.165710 
	C397.715424,146.039001 398.222534,146.253250 398.871643,146.707916 
	C399.009766,151.871140 399.202545,156.806320 398.893585,161.709869 
	C398.787476,163.393692 397.427094,164.998489 396.290466,166.791840 
z"/>
<path fill="#014BAD" opacity="1.000000" stroke="none" 
	d="
M200.019348,292.938660 
	C192.868286,288.426331 185.582825,284.106476 178.657822,279.270416 
	C176.859360,278.014465 175.180557,275.157013 175.155273,273.015015 
	C174.922272,253.270660 174.966461,233.520493 175.248657,213.776550 
	C175.277145,211.782990 176.954666,209.218689 178.642792,207.958954 
	C183.020920,204.691879 187.832062,202.005112 193.045990,198.736115 
	C204.476074,192.497086 215.269638,186.490219 226.248978,180.844650 
	C227.948074,179.970978 230.808990,180.072998 232.599731,180.890747 
	C239.213470,183.910934 245.603607,187.420792 252.363678,190.949249 
	C264.105133,198.086029 275.560699,205.020142 287.242615,212.296097 
	C288.025208,218.091415 288.581421,223.544907 289.081421,229.397171 
	C289.089355,230.864426 289.153503,231.932877 289.163788,233.466949 
	C289.142395,242.954010 289.174866,251.975479 289.135345,261.368591 
	C289.092438,262.494080 289.121582,263.247894 289.083130,264.442841 
	C288.347687,268.933441 287.679810,272.982910 286.681519,277.125641 
	C275.201538,284.125671 264.052002,291.032471 252.559662,298.006348 
	C246.677689,301.046661 241.056793,303.879852 235.630539,307.046631 
	C232.462097,308.895782 229.832474,309.114838 226.478317,307.194061 
	C217.787460,302.217316 208.855225,297.662109 200.019348,292.938660 
M208.486801,232.466522 
	C202.739883,241.536148 202.068466,250.708466 208.165863,260.652283 
	C210.871048,263.245544 213.576218,265.838806 216.870499,268.886688 
	C220.583740,269.893982 224.296982,270.901276 228.848953,272.041229 
	C231.246918,271.741211 233.644897,271.441223 236.769653,271.075165 
	C239.214096,269.840637 241.658524,268.606140 244.667770,266.957794 
	C258.305298,257.066986 258.452271,237.289368 244.575500,226.516617 
	C242.052841,225.335846 239.530197,224.155075 236.353683,222.495590 
	C233.563385,222.292664 230.773071,222.089737 227.152420,221.799286 
	C224.114288,222.626556 221.076157,223.453842 217.410141,224.464996 
	C214.610535,226.982285 211.810913,229.499573 208.486801,232.466522 
z"/>
<path fill="#004BAD" opacity="1.000000" stroke="none" 
	d="
M223.699097,65.044739 
	C231.379364,62.616608 238.054550,64.441254 243.110229,69.797714 
	C248.621704,75.637100 253.240753,82.318817 258.498047,88.846680 
	C267.630768,106.733406 273.952118,125.293755 278.461609,144.542908 
	C279.485596,148.913864 278.525909,150.689468 274.347076,152.154541 
	C267.023499,154.722153 259.944031,157.985947 252.093109,161.212280 
	C245.683197,164.110794 239.812393,166.511917 234.249069,169.487885 
	C230.738571,171.365723 227.940674,171.016708 224.468918,169.380066 
	C214.089203,164.486893 203.517868,160.000137 193.021347,155.354706 
	C182.574722,150.822769 182.452087,150.794662 185.044693,139.483673 
	C186.862183,131.554367 189.071472,123.714874 191.146637,115.445404 
	C195.404709,105.259949 199.184036,95.244049 203.968658,85.733925 
	C208.307632,77.109589 214.443207,69.706657 223.699097,65.044739 
z"/>
<path fill="#004BAD" opacity="1.000000" stroke="none" 
	d="
M96.690308,143.347473 
	C111.408257,144.420349 125.798912,145.685547 140.602524,146.906860 
	C148.372147,148.842300 155.704697,150.918839 163.097229,152.753738 
	C166.112396,153.502136 166.776489,154.605270 166.313095,157.934387 
	C163.933792,175.027695 162.081253,192.193756 159.846954,209.308609 
	C159.622375,211.028885 158.415863,212.989502 157.064499,214.121857 
	C153.639648,216.991638 149.873154,219.453690 146.027618,222.313995 
	C138.500443,227.924301 131.189117,233.299606 123.274361,239.118576 
	C115.830284,232.064041 108.306511,224.933975 100.497650,217.593414 
	C93.220360,208.526779 85.550102,200.107590 79.465805,190.666321 
	C75.153236,183.974335 72.173141,176.122086 70.066490,168.387817 
	C67.534523,159.092056 71.706894,151.545380 80.583351,147.845825 
	C85.574463,145.765594 91.085960,144.933945 96.690308,143.347473 
z"/>
<path fill="#004BAD" opacity="1.000000" stroke="none" 
	d="
M84.119049,290.829224 
	C92.152847,281.446808 100.083305,272.365845 108.172348,263.031708 
	C108.719414,262.469788 109.123093,262.178253 109.494087,261.849792 
	C117.207428,255.020096 117.107193,255.140091 125.383698,261.959473 
	C131.626434,267.103149 138.165604,271.887115 144.874176,276.996338 
	C147.916107,279.291779 150.395538,281.966278 153.454056,283.434082 
	C159.056992,286.122955 160.322784,290.727173 160.962921,296.226105 
	C162.379333,308.393219 164.042908,320.533813 165.792572,332.658264 
	C166.254242,335.857452 165.513931,337.567810 162.217255,338.431183 
	C154.368637,340.486816 146.593338,342.822388 138.406403,345.153748 
	C126.089592,346.845215 114.172188,348.584900 102.208878,349.910217 
	C98.826904,350.284912 95.310753,349.448425 91.438820,349.178345 
	C88.450378,348.553802 85.830658,348.068909 83.316269,347.257629 
	C70.324516,343.065704 65.071159,333.955841 69.790855,319.957092 
	C73.183784,309.893555 79.180496,300.707916 84.119049,290.829224 
z"/>
<path fill="#014BAD" opacity="1.000000" stroke="none" 
	d="
M259.954224,402.409149 
	C254.711761,409.550873 249.891556,416.661835 244.253708,423.051331 
	C240.125061,427.730377 234.440353,430.276245 227.437668,429.898499 
	C215.633575,425.755737 208.095505,417.400970 203.129761,406.805786 
	C198.680130,397.311798 195.065811,387.426331 190.943130,377.362671 
	C188.669144,368.517761 186.613892,360.002869 184.366119,351.539032 
	C183.311707,347.568787 183.763657,345.001923 188.429291,343.880249 
	C192.251984,342.961273 195.849731,341.106537 200.166534,339.357727 
	C208.025650,335.962128 215.368347,333.090576 222.462173,329.698578 
	C226.050034,327.982941 228.981873,327.716125 232.678986,329.532288 
	C239.633087,332.948364 246.887726,335.752563 254.017410,338.811188 
	C261.998932,341.988129 269.980469,345.165100 278.443268,348.533630 
	C274.570496,367.110413 268.410828,384.961212 259.954224,402.409149 
z"/>
<path fill="#63C3C7" opacity="1.000000" stroke="none" 
	d="
M254.014069,338.356232 
	C246.887726,335.752563 239.633087,332.948364 232.678986,329.532288 
	C228.981873,327.716125 226.050034,327.982941 222.462173,329.698578 
	C215.368347,333.090576 208.025650,335.962128 200.421875,339.118774 
	C199.165970,334.808380 201.931961,329.809692 197.770203,325.561218 
	C201.820465,323.210327 205.924240,321.271271 210.763504,318.984741 
	C206.284744,316.316315 202.645645,314.148163 199.006531,311.979980 
	C199.340790,305.947540 199.675049,299.915100 200.014313,293.410645 
	C208.855225,297.662109 217.787460,302.217316 226.478317,307.194061 
	C229.832474,309.114838 232.462097,308.895782 235.630539,307.046631 
	C241.056793,303.879852 246.677689,301.046661 252.807556,298.342407 
	C253.931763,303.406158 254.465286,308.200928 254.786041,313.255310 
	C252.536484,314.714783 250.499680,315.914673 248.096817,317.330200 
	C250.439819,318.637817 252.258408,319.652740 254.076996,320.667664 
	C254.054901,326.412201 254.032822,332.156738 254.014069,338.356232 
z"/>
<path fill="#024CAD" opacity="1.000000" stroke="none" 
	d="
M192.023499,192.260834 
	C187.037933,195.114853 182.052368,197.968857 175.743500,201.580399 
	C177.537231,186.727798 179.185272,173.081635 180.923004,158.692810 
	C185.262497,160.217316 188.783783,161.454391 192.990448,162.917084 
	C202.865219,167.082123 212.054642,171.021545 221.690430,175.152313 
	C211.263992,181.165100 201.643738,186.712967 192.023499,192.260834 
z"/>
<path fill="#61C1C7" opacity="1.000000" stroke="none" 
	d="
M192.045135,192.620483 
	C201.643738,186.712967 211.263992,181.165100 221.690430,175.152313 
	C212.054642,171.021545 202.865219,167.082123 193.346680,162.979614 
	C193.016556,160.602463 193.015564,158.388412 193.017960,155.764526 
	C203.517868,160.000137 214.089203,164.486893 224.468918,169.380066 
	C227.940674,171.016708 230.738571,171.365723 234.249069,169.487885 
	C239.812393,166.511917 245.683197,164.110794 251.759552,161.361359 
	C252.723206,163.092316 253.351196,164.928391 253.765472,167.319489 
	C248.219391,170.281509 242.887039,172.688461 237.145920,175.279938 
	C243.634186,179.021286 249.478622,182.391373 255.063568,185.983612 
	C253.895294,187.719360 252.986542,189.232971 252.077789,190.746582 
	C245.603607,187.420792 239.213470,183.910934 232.599731,180.890747 
	C230.808990,180.072998 227.948074,179.970978 226.248978,180.844650 
	C215.269638,186.490219 204.476074,192.497086 193.321503,198.509338 
	C192.703186,196.748840 192.384979,194.864487 192.045135,192.620483 
z"/>
<path fill="#024CAE" opacity="1.000000" stroke="none" 
	d="
M146.429062,257.552307 
	C140.773972,252.946747 135.383514,248.612686 129.400177,243.801956 
	C135.187210,239.145752 140.441315,234.918335 145.861496,230.407043 
	C150.005280,227.245560 153.982986,224.367950 158.453400,221.133896 
	C158.453400,235.900070 158.453400,250.323120 158.453400,265.597473 
	C154.386490,262.909088 150.540085,260.366455 146.429062,257.552307 
z"/>
<path fill="#024CAE" opacity="1.000000" stroke="none" 
	d="
M198.664825,311.905731 
	C202.645645,314.148163 206.284744,316.316315 210.763504,318.984741 
	C205.924240,321.271271 201.820465,323.210327 197.375702,325.339172 
	C192.861008,327.141907 188.746323,328.949951 184.475571,330.242157 
	C183.282440,330.603149 180.463165,329.619049 180.361816,328.952271 
	C178.929657,319.530121 177.837982,310.056244 176.501755,299.289032 
	C184.644135,303.969086 191.483627,307.900299 198.664825,311.905731 
z"/>
<path fill="#0A51B0" opacity="1.000000" stroke="none" 
	d="
M804.907227,154.451324 
	C804.376404,155.530746 803.757080,156.749313 803.107910,156.765472 
	C797.165100,156.913406 791.217102,156.852463 784.589478,156.852463 
	C788.057007,146.610687 791.326904,136.952576 795.108887,125.782005 
	C798.670227,136.158524 801.737549,145.095627 804.907227,154.451324 
z"/>
<path fill="#0A51B0" opacity="1.000000" stroke="none" 
	d="
M534.827271,131.267456 
	C537.681702,139.787552 540.419922,147.941422 543.306335,156.536407 
	C536.264099,156.536407 529.722839,156.536407 522.485840,156.536407 
	C525.806030,146.649719 529.061523,136.955933 532.613220,126.379883 
	C533.542053,128.381638 534.126648,129.641434 534.827271,131.267456 
z"/>
<path fill="#014BAD" opacity="1.000000" stroke="none" 
	d="
M339.214783,255.096924 
	C340.736816,255.729614 342.617950,255.991333 343.719971,257.057953 
	C349.040405,262.207550 354.151184,267.573822 359.631836,273.028564 
	C366.893829,282.670380 374.328705,291.847595 380.647736,301.737671 
	C384.329926,307.500824 387.135468,314.186096 388.740692,320.841095 
	C392.413422,336.067505 386.065521,345.539642 370.553375,347.636444 
	C361.790405,348.820923 352.758667,348.017029 343.432892,348.137024 
	C327.974365,344.651093 312.930969,341.136902 297.503235,337.519348 
	C294.505829,336.421722 291.892731,335.427429 289.156342,334.386200 
	C289.434937,332.047699 289.687744,329.925842 290.007141,327.001801 
	C291.359283,315.350861 292.837524,304.519348 293.812042,293.642731 
	C294.101593,290.410889 295.364807,288.638367 297.860657,286.901794 
	C301.747375,284.197449 305.336182,281.065002 309.408020,278.063324 
	C319.581482,270.374084 329.398132,262.735504 339.214783,255.096924 
z"/>
<path fill="#74C8CE" opacity="1.000000" stroke="none" 
	d="
M309.051270,278.114014 
	C305.336182,281.065002 301.747375,284.197449 297.860657,286.901794 
	C295.364807,288.638367 294.101593,290.410889 293.812042,293.642731 
	C292.837524,304.519348 291.359283,315.350861 289.966248,326.595581 
	C288.909119,325.517059 287.760162,324.130005 287.064514,322.544128 
	C286.331940,320.873993 286.032532,319.013855 285.191650,316.653320 
	C285.521515,308.825592 286.203613,301.581238 286.911621,293.845673 
	C286.962341,287.913757 286.987152,282.473083 287.011932,277.032410 
	C287.679810,272.982910 288.347687,268.933441 289.359192,264.347595 
	C289.537659,262.873169 289.372498,261.935059 289.207367,260.996948 
	C289.174866,251.975479 289.142395,242.954010 289.451477,233.345352 
	C289.574615,231.504898 289.356140,230.251633 289.137634,228.998383 
	C288.581421,223.544907 288.025208,218.091415 287.238953,211.862610 
	C287.023315,208.787201 287.037720,206.487122 287.125183,203.773041 
	C287.213867,202.240402 287.229523,201.121735 287.474701,199.925293 
	C287.528381,199.230576 287.352600,198.613647 287.103821,197.579132 
	C286.312164,190.449432 285.593475,183.737289 284.874756,177.025146 
	C288.948761,173.608261 286.296265,168.814697 287.365387,164.778641 
	C287.754059,163.311279 287.929749,161.787506 288.624817,160.488678 
	C290.260071,169.790680 291.473053,178.893494 292.461090,188.080475 
	C292.448242,188.777222 292.660370,189.389786 292.944336,190.434036 
	C293.403046,195.985809 293.586792,201.134094 294.291016,206.210175 
	C294.525696,207.901657 295.758545,209.822372 297.115875,210.920395 
	C300.965759,214.034805 305.115631,216.778381 308.981201,220.050644 
	C307.934784,222.088333 307.054504,223.743347 305.893005,225.259491 
	C302.329468,222.856400 299.047180,220.592178 295.413086,218.085266 
	C295.413086,236.047348 295.413086,253.012878 295.413086,270.838074 
	C299.382690,268.134338 302.740204,265.847534 306.448029,263.859741 
	C307.197784,265.883423 307.707214,267.591400 307.972015,269.336487 
	C308.414124,272.249817 308.699738,275.186920 309.051270,278.114014 
z"/>
<path fill="#024CAE" opacity="1.000000" stroke="none" 
	d="
M286.885681,294.336914 
	C286.203613,301.581238 285.521515,308.825592 284.827606,316.514496 
	C283.853088,321.603485 282.890411,326.247894 281.710754,331.939087 
	C272.386353,328.105286 263.592834,324.489716 254.438141,320.770935 
	C252.258408,319.652740 250.439819,318.637817 248.096817,317.330200 
	C250.499680,315.914673 252.536484,314.714783 255.129852,313.187073 
	C266.086151,306.685150 276.485931,300.511017 286.885681,294.336914 
z"/>
<path fill="#014BAD" opacity="1.000000" stroke="none" 
	d="
M309.147369,219.667984 
	C305.115631,216.778381 300.965759,214.034805 297.115875,210.920395 
	C295.758545,209.822372 294.525696,207.901657 294.291016,206.210175 
	C293.586792,201.134094 293.403046,195.985809 292.975952,190.095657 
	C292.852509,188.882507 292.769287,188.439407 292.686035,187.996292 
	C291.473053,178.893494 290.260071,169.790680 288.944519,160.347290 
	C287.251617,154.128937 291.861450,153.815308 295.754700,152.380417 
	C310.122986,149.229889 324.215454,146.310028 338.658264,143.219208 
	C348.625366,143.333755 358.286285,143.166901 367.839844,144.099716 
	C372.468872,144.551682 376.896545,147.065796 381.686523,149.214386 
	C379.034698,158.952667 381.353027,164.602432 389.009766,166.968414 
	C389.268219,167.178741 389.507690,167.408798 389.899719,167.839630 
	C386.486572,185.154297 376.230774,198.462708 365.223663,211.337891 
	C363.509521,213.343002 361.757202,215.315460 359.853119,217.602722 
	C352.015167,224.924179 344.346649,231.945938 335.988281,238.968628 
	C334.575348,238.665604 333.749237,238.497086 333.144745,238.037216 
	C325.127472,231.938004 317.141296,225.797882 309.147369,219.667984 
z"/>
<path fill="#024CAD" opacity="1.000000" stroke="none" 
	d="
M287.245209,200.003082 
	C287.229523,201.121735 287.213867,202.240402 286.796478,203.636536 
	C276.037537,197.863159 265.680298,191.812317 255.323074,185.761475 
	C249.478622,182.391373 243.634186,179.021286 237.145920,175.279938 
	C242.887039,172.688461 248.219391,170.281509 253.823837,167.690582 
	C262.808899,164.128952 271.521881,160.751297 281.056061,157.055298 
	C282.296265,164.121536 283.371857,170.249771 284.661102,176.701584 
	C285.593475,183.737289 286.312164,190.449432 287.055389,197.913910 
	C287.135040,199.111862 287.190125,199.557480 287.245209,200.003082 
z"/>
<path fill="#7ACCD0" opacity="1.000000" stroke="none" 
	d="
M308.981201,220.050644 
	C317.141296,225.797882 325.127472,231.938004 333.144745,238.037216 
	C333.749237,238.497086 334.575348,238.665604 335.654907,239.067108 
	C336.830139,244.371567 337.648926,249.578506 338.841248,254.941193 
	C329.398132,262.735504 319.581482,270.374084 309.408020,278.063354 
	C308.699738,275.186920 308.414124,272.249817 307.972015,269.336487 
	C307.707214,267.591400 307.197784,265.883423 306.718384,263.617096 
	C314.461884,257.094452 322.285309,251.113464 330.519287,244.818634 
	C321.751648,237.824600 313.962952,231.611496 306.174255,225.398376 
	C307.054504,223.743347 307.934784,222.088333 308.981201,220.050644 
z"/>
<path fill="#4DB9BE" opacity="1.000000" stroke="none" 
	d="
M389.005737,166.502228 
	C381.353027,164.602432 379.034698,158.952667 381.988708,149.406830 
	C384.103821,147.744522 386.187927,146.457870 388.607483,145.126343 
	C388.962524,152.066315 388.982117,159.051178 389.005737,166.502228 
z"/>
<path fill="#6EC6CC" opacity="1.000000" stroke="none" 
	d="
M286.911621,293.845673 
	C276.485931,300.511017 266.086151,306.685150 255.342590,312.927490 
	C254.465286,308.200928 253.931763,303.406158 253.150360,298.275330 
	C264.052002,291.032471 275.201538,284.125671 286.681519,277.125641 
	C286.987152,282.473083 286.962341,287.913757 286.911621,293.845673 
z"/>
<path fill="#5BC0C4" opacity="1.000000" stroke="none" 
	d="
M218.038025,224.281128 
	C221.076157,223.453842 224.114288,222.626556 227.571991,222.321259 
	C227.997772,239.198349 228.003998,255.553452 228.010223,271.908569 
	C224.296982,270.901276 220.583740,269.893982 216.924744,268.331757 
	C217.319214,265.865570 217.939056,263.956573 217.954346,262.042725 
	C218.054947,249.456100 218.025223,236.868439 218.038025,224.281128 
z"/>
<path fill="#69C5CA" opacity="1.000000" stroke="none" 
	d="
M228.429581,271.974915 
	C228.003998,255.553452 227.997772,239.198349 227.987152,222.365021 
	C230.773071,222.089737 233.563385,222.292664 236.598755,223.146530 
	C236.563248,225.762878 236.047958,227.727325 236.039764,229.693863 
	C235.982254,243.509399 236.029266,257.325378 236.042862,271.141205 
	C233.644897,271.441223 231.246918,271.741211 228.429581,271.974915 
z"/>
<path fill="#78CBCF" opacity="1.000000" stroke="none" 
	d="
M236.406250,271.108185 
	C236.029266,257.325378 235.982254,243.509399 236.039764,229.693863 
	C236.047958,227.727325 236.563248,225.762878 236.925690,223.385895 
	C239.530197,224.155075 242.052841,225.335846 244.609467,227.176880 
	C244.429077,229.294678 244.031418,230.751953 244.029236,232.209824 
	C244.011703,243.930359 244.068741,255.651001 244.102966,267.371613 
	C241.658524,268.606140 239.214096,269.840637 236.406250,271.108185 
z"/>
<path fill="#4DB9BE" opacity="1.000000" stroke="none" 
	d="
M217.724075,224.373047 
	C218.025223,236.868439 218.054947,249.456100 217.954346,262.042725 
	C217.939056,263.956573 217.319214,265.865570 216.630203,268.104431 
	C213.576218,265.838806 210.871048,263.245544 208.413467,260.179688 
	C208.777817,250.477005 208.894562,241.246933 209.011307,232.016846 
	C211.810913,229.499573 214.610535,226.982285 217.724075,224.373047 
z"/>
<path fill="#87CFD6" opacity="1.000000" stroke="none" 
	d="
M244.385361,267.164703 
	C244.068741,255.651001 244.011703,243.930359 244.029236,232.209824 
	C244.031418,230.751953 244.429077,229.294678 244.803772,227.458511 
	C258.452271,237.289368 258.305298,257.066986 244.385361,267.164703 
z"/>
<path fill="#6EC6CC" opacity="1.000000" stroke="none" 
	d="
M255.063568,185.983612 
	C265.680298,191.812317 276.037537,197.863159 286.723450,204.050522 
	C287.037720,206.487122 287.023315,208.787201 287.012573,211.520767 
	C275.560699,205.020142 264.105133,198.086029 252.363678,190.949249 
	C252.986542,189.232971 253.895294,187.719360 255.063568,185.983612 
z"/>
<path fill="#43ADB9" opacity="1.000000" stroke="none" 
	d="
M208.749054,232.241684 
	C208.894562,241.246933 208.777817,250.477005 208.295288,259.860016 
	C202.068466,250.708466 202.739883,241.536148 208.749054,232.241684 
z"/>
<path fill="#6EC6CC" opacity="1.000000" stroke="none" 
	d="
M289.081421,229.397171 
	C289.356140,230.251633 289.574615,231.504898 289.505371,232.879761 
	C289.153503,231.932877 289.089355,230.864426 289.081421,229.397171 
z"/>
<path fill="#6EC6CC" opacity="1.000000" stroke="none" 
	d="
M289.135345,261.368591 
	C289.372498,261.935059 289.537659,262.873169 289.426758,263.906494 
	C289.121582,263.247894 289.092438,262.494080 289.135345,261.368591 
z"/>
<path fill="#024CAE" opacity="1.000000" stroke="none" 
	d="
M305.893005,225.259491 
	C313.962952,231.611496 321.751648,237.824600 330.519287,244.818634 
	C322.285309,251.113464 314.461884,257.094452 306.368073,263.318054 
	C302.740204,265.847534 299.382690,268.134338 295.413086,270.838074 
	C295.413086,253.012878 295.413086,236.047348 295.413086,218.085266 
	C299.047180,220.592178 302.329468,222.856400 305.893005,225.259491 
z"/>
<path fill="#6EC6CC" opacity="1.000000" stroke="none" 
	d="
M287.474701,199.925293 
	C287.190125,199.557480 287.135040,199.111862 287.128357,198.331482 
	C287.352600,198.613647 287.528381,199.230576 287.474701,199.925293 
z"/>
<path fill="#6EC6CC" opacity="1.000000" stroke="none" 
	d="
M292.461060,188.080475 
	C292.769287,188.439407 292.852509,188.882507 292.904114,189.663986 
	C292.660370,189.389786 292.448242,188.777222 292.461060,188.080475 
z"/>
</svg>