<svg version="1.1" id="Layer_1" xmlns="http://www.w3.org/2000/svg" xmlns:xlink="http://www.w3.org/1999/xlink" x="0px" y="0px"
	 width="100%" viewBox="0 0 1200 628" enable-background="new 0 0 1200 628" xml:space="preserve">
<path fill="#0181CC" opacity="1.000000" stroke="none" 
	d="
M0.999996,522.000000 
	C1.000000,405.977997 1.000000,289.955963 1.334442,173.266266 
	C9.138637,129.009491 45.859642,100.514229 86.164459,100.510201 
	C429.391052,100.475937 772.617676,100.483589 1115.844238,100.500595 
	C1153.424683,100.502457 1186.404541,125.187340 1197.120239,161.283020 
	C1198.654175,166.450531 1199.718384,171.757553 1201.000000,177.000000 
	C1201.000000,291.022003 1201.000000,405.044037 1200.674316,519.751221 
	C1193.289917,564.898376 1158.264648,594.838013 1113.307983,594.838074 
	C771.899780,594.838196 430.491547,594.840515 89.083328,594.809753 
	C85.100952,594.809387 81.097992,594.565308 77.139465,594.123230 
	C41.119492,590.100403 13.043158,565.820129 3.722360,530.768982 
	C2.936482,527.813660 1.913056,524.921509 0.999996,522.000000 
M349.143585,234.969559 
	C334.725891,238.186829 320.308228,241.404099 305.108185,244.748444 
	C301.508698,245.773087 297.909210,246.797745 293.904144,247.937851 
	C293.194427,244.783752 292.582520,242.084198 291.979767,239.382599 
	C287.789673,220.601746 282.560760,202.174957 273.266479,184.483078 
	C270.301697,179.692963 267.745361,174.582550 264.290344,170.176910 
	C256.163544,159.814056 246.156113,152.721741 231.282715,154.089188 
	C226.114273,156.594635 220.343903,158.321320 215.896133,161.759140 
	C204.862411,170.287430 198.024826,182.100800 192.221069,195.330841 
	C186.277267,212.198990 180.333466,229.067139 174.266205,246.285583 
	C173.347076,246.025620 171.619781,245.499435 169.872910,245.049194 
	C160.589142,242.656494 151.300476,240.282837 141.377777,237.483887 
	C127.778114,234.138687 113.982109,233.232605 99.202919,234.076324 
	C94.980560,234.949066 90.644539,235.462692 86.555611,236.756973 
	C69.271858,242.227875 61.090286,256.244415 64.800629,274.028107 
	C68.623421,292.350830 78.697495,307.309875 90.996628,321.784485 
	C95.616768,326.878571 100.236900,331.972626 105.211052,337.637756 
	C109.546288,341.678009 113.881531,345.718262 119.252174,350.723450 
	C111.268707,358.292725 104.095901,365.093414 96.354919,372.248077 
	C85.344536,383.726715 75.884445,396.293213 69.486870,410.960907 
	C58.448730,436.267975 68.095627,455.020752 95.910408,460.947723 
	C105.615051,461.234802 115.319695,461.521851 125.845924,461.824493 
	C137.897003,459.521576 149.948074,457.218658 162.775146,454.895966 
	C165.168671,454.260651 167.564087,453.632294 169.955399,452.988708 
	C176.274384,451.287994 175.956131,451.385803 177.921600,457.600403 
	C181.998596,470.491394 186.447968,483.264618 190.874420,496.823456 
	C196.468414,506.392395 201.624283,516.256287 207.801163,525.432922 
	C212.380829,532.236694 218.878647,537.346436 227.779434,540.178467 
	C236.912582,542.345215 245.596741,541.487976 253.260788,535.724304 
	C261.587219,529.462524 268.120300,521.649597 272.878876,511.485199 
	C281.680237,495.273682 286.883575,477.794739 291.005646,459.939514 
	C292.926178,451.620544 292.893616,451.624268 300.968475,453.792908 
	C301.926178,454.050110 302.935669,454.114227 304.508881,454.691223 
	C318.342682,457.322296 332.176483,459.953369 346.925629,462.804443 
	C357.312164,462.368134 367.698700,461.931824 378.890350,461.340118 
	C399.487946,457.522675 410.342072,444.132477 407.837952,424.906219 
	C407.163696,419.729431 405.395050,414.554321 403.316101,409.728607 
	C397.823395,396.978912 389.544983,386.037537 379.808258,375.342712 
	C371.295013,366.777649 362.781769,358.212555 354.309052,349.688263 
	C361.322662,342.282684 368.242157,334.976471 375.772705,327.285797 
	C378.008972,324.656097 380.291534,322.064178 382.473785,319.390411 
	C393.581604,305.780487 403.534912,291.531921 407.271118,273.903656 
	C408.324280,268.934540 409.398529,263.967773 410.322479,258.973938 
	C411.173126,254.376389 410.061676,250.414124 405.606903,247.100540 
	C403.439240,246.371399 401.271576,245.642242 398.790527,244.312546 
	C393.032593,241.521866 387.505524,237.188171 381.465302,236.284561 
	C371.148010,234.741104 360.509003,235.348404 349.143585,234.969559 
M954.305725,401.183838 
	C950.639282,394.854065 944.670227,394.126556 938.246521,394.681885 
	C930.873230,395.319275 928.372559,397.702240 928.341003,405.073029 
	C928.223267,432.552185 928.228577,460.032715 928.423706,487.511047 
	C928.442322,490.129028 929.336121,493.677765 931.155518,495.167023 
	C936.232788,499.322845 942.461548,498.629303 948.271606,496.700470 
	C953.149597,495.080994 953.246155,490.550812 953.250244,486.283691 
	C953.264160,471.960876 953.254272,457.638000 953.282959,443.315247 
	C953.285339,442.124420 953.510010,440.934052 953.730713,438.769043 
	C960.772034,448.278992 967.091248,457.022156 973.636963,465.592224 
	C979.524475,473.300629 988.759705,473.258698 994.767395,465.567444 
	C998.146545,461.241211 1001.250854,456.700592 1004.491333,452.265625 
	C1007.671143,447.913757 1010.866577,443.573303 1014.055237,439.227875 
	C1015.001648,441.161102 1015.000854,442.752686 1015.001770,444.344238 
	C1015.010010,458.667023 1014.873108,472.992645 1015.153625,487.310089 
	C1015.207581,490.064819 1016.080261,493.880676 1017.993408,495.313751 
	C1023.119385,499.153351 1029.431641,498.902252 1035.174805,496.684052 
	C1039.993164,494.822968 1040.010498,489.947357 1040.017090,485.554352 
	C1040.050903,463.070923 1040.042969,440.587433 1040.039795,418.103943 
	C1040.039185,413.274414 1040.090820,408.442078 1039.945190,403.616241 
	C1039.832642,399.885773 1038.496216,396.811768 1034.623413,395.414215 
	C1026.957031,392.647827 1018.717041,394.950989 1013.778015,401.363861 
	C1006.565491,410.728760 999.392517,420.124176 992.210754,429.512756 
	C989.616821,432.903870 987.046326,436.312988 984.076111,440.226440 
	C974.070801,427.089569 964.416199,414.413208 954.305725,401.183838 
M617.374146,209.132507 
	C615.338562,206.499054 613.561157,203.604416 611.215088,201.285034 
	C605.885315,196.015945 599.197693,196.849609 592.918030,198.577225 
	C587.436951,200.085159 587.719238,205.337341 587.693665,209.832596 
	C587.610352,224.489487 587.651245,239.147125 587.653931,253.804474 
	C587.656128,265.963379 587.481140,278.127625 587.820618,290.277313 
	C587.901794,293.183655 588.865356,297.214233 590.901001,298.692017 
	C596.077820,302.450226 602.389709,301.869476 608.099548,299.584473 
	C612.767822,297.716278 612.588013,292.968323 612.613525,288.804352 
	C612.695129,275.479980 612.640930,262.154785 612.668152,248.829971 
	C612.671387,247.266479 612.855042,245.703354 613.019531,243.132050 
	C614.810425,245.318359 615.971130,246.640457 617.028442,248.040604 
	C628.365967,263.054626 640.002014,277.858124 650.864075,293.209106 
	C655.466980,299.714264 660.912292,301.736389 668.303955,300.986481 
	C675.148132,300.292053 677.922363,297.734222 678.030212,290.896729 
	C678.166748,282.237640 678.096130,273.575073 678.093872,264.914001 
	C678.088989,246.092743 678.215759,227.269119 677.910400,208.452606 
	C677.861450,205.437408 676.726318,201.153610 674.580017,199.716736 
	C669.549255,196.348877 663.353699,196.601639 657.787292,198.878281 
	C652.909241,200.873444 653.182190,205.787766 653.156006,210.102081 
	C653.072144,223.926132 653.131470,237.751022 653.107056,251.575531 
	C653.104675,252.938126 652.907104,254.300385 652.709534,256.815521 
	C640.586975,240.444641 629.202576,225.070618 617.374146,209.132507 
M845.407593,497.567413 
	C867.227600,497.669128 889.047729,497.837830 910.867615,497.816437 
	C915.272644,497.812103 917.949219,495.034668 918.681213,490.762665 
	C919.099121,488.323608 919.110840,485.779907 919.015503,483.294464 
	C918.730225,475.855530 915.914978,473.103241 908.518982,473.015259 
	C901.686890,472.933960 894.853149,472.986786 888.020142,472.984680 
	C879.898438,472.982178 871.776794,472.984100 863.440796,472.984100 
	C863.440796,468.093201 863.440796,463.697937 863.440796,458.813599 
	C873.185791,458.813599 882.650879,458.939789 892.110901,458.775635 
	C900.425354,458.631348 903.131653,455.926392 903.619141,447.667786 
	C903.735657,445.693939 903.426697,443.687714 903.233582,441.704193 
	C902.728516,436.516327 899.674133,433.985535 894.626404,433.856079 
	C888.963562,433.710846 883.295959,433.740967 877.630371,433.718445 
	C872.873718,433.699524 868.116943,433.714569 863.441956,433.714569 
	C863.441956,428.579041 863.441956,424.301239 863.441956,419.481171 
	C865.524109,419.481171 867.318848,419.483582 869.113525,419.480835 
	C882.112671,419.460968 895.114014,419.559540 908.109192,419.321442 
	C910.796936,419.272186 914.325928,418.799500 915.972595,417.085815 
	C920.624878,412.243988 919.609680,405.965698 918.207214,400.083160 
	C916.990723,394.980804 912.528625,394.415070 908.274231,394.340851 
	C899.277283,394.183929 890.275940,394.268951 881.276428,394.269104 
	C870.943604,394.269257 860.607300,394.122437 850.278992,394.342285 
	C841.030762,394.539124 838.261230,397.437622 838.092346,406.374908 
	C838.013611,410.539948 838.070862,414.707611 838.071167,418.874084 
	C838.073059,441.206421 838.059509,463.538757 838.092102,485.871033 
	C838.099426,490.870728 838.492004,495.743500 845.407593,497.567413 
M968.918396,267.499969 
	C968.938904,275.331360 968.841675,283.165344 969.016296,290.993317 
	C969.163147,297.577209 971.878845,300.284912 978.419922,300.910889 
	C979.082214,300.974213 979.751282,300.989929 980.417175,300.990021 
	C999.912720,300.993530 1019.408508,301.045776 1038.903687,300.965393 
	C1046.661011,300.933411 1049.434570,298.170502 1049.893311,290.521027 
	C1049.972900,289.192963 1049.967651,287.853027 1049.898071,286.523956 
	C1049.496094,278.847260 1046.679199,276.056244 1039.012085,276.016693 
	C1025.682129,275.947968 1012.351562,275.996613 999.021240,275.975677 
	C997.419312,275.973145 995.817627,275.844269 994.305725,275.777893 
	C994.305725,270.911835 994.305725,266.504913 994.305725,261.832001 
	C996.454041,261.832001 998.270386,261.834747 1000.086792,261.831543 
	C1007.918213,261.817688 1015.751038,261.887695 1023.580444,261.754395 
	C1028.134644,261.676880 1032.163086,260.573669 1033.697021,255.401932 
	C1037.333130,243.142227 1032.743652,236.750275 1020.151917,236.722412 
	C1011.539551,236.703339 1002.927063,236.718750 994.276978,236.718750 
	C994.276978,231.651627 994.276978,227.228027 994.276978,222.479416 
	C996.400757,222.479416 998.219666,222.480331 1000.038574,222.479279 
	C1012.535706,222.472015 1025.036133,222.618347 1037.527710,222.349838 
	C1040.698608,222.281693 1044.894287,221.898392 1046.788696,219.913147 
	C1051.489258,214.987381 1050.651489,208.459915 1048.756958,202.467865 
	C1047.210571,197.576843 1042.592651,197.340256 1038.381104,197.321976 
	C1019.552368,197.240280 1000.722656,197.193039 981.894409,197.313583 
	C971.526794,197.379944 968.962402,200.095535 968.935242,210.512650 
	C968.886597,229.174973 968.919556,247.837494 968.918396,267.499969 
M960.774902,292.801361 
	C960.140259,289.596436 959.929626,286.230042 958.783264,283.219971 
	C956.359924,276.856750 953.295654,270.738220 950.850342,264.382324 
	C950.286682,262.917236 950.527039,260.402802 951.465271,259.214050 
	C961.065369,247.050385 962.589539,233.647903 956.768921,219.747360 
	C950.879578,205.682938 939.176270,198.596130 924.361084,197.527328 
	C913.095337,196.714600 901.716064,197.089005 890.403198,197.442917 
	C881.992798,197.706024 879.745605,200.438431 879.684021,209.074570 
	C879.597229,221.232330 879.650330,233.391129 879.651184,245.549484 
	C879.652161,259.873016 879.525879,274.198853 879.771545,288.518280 
	C879.825867,291.681946 880.201721,295.876862 882.178894,297.766388 
	C887.099731,302.469055 893.626709,301.642700 899.612122,299.737579 
	C904.472351,298.190643 904.687683,293.604034 904.768188,289.370911 
	C904.871704,283.924896 904.793335,278.475372 904.793335,272.441833 
	C911.326538,272.441833 917.295837,272.705719 923.224609,272.329987 
	C926.168701,272.143402 927.291504,273.159424 928.298706,275.656372 
	C931.034180,282.438141 934.027832,289.115906 936.934204,295.828430 
	C938.598633,299.672516 941.325195,302.482666 945.713318,301.779572 
	C951.516296,300.849854 957.047180,298.947449 960.774902,292.801361 
M815.173828,198.424149 
	C812.949890,200.576996 809.913147,202.330078 808.627502,204.944351 
	C795.502991,231.633026 782.612854,258.437653 769.780884,285.269073 
	C766.728577,291.651398 767.897644,294.995575 773.874634,298.568726 
	C775.717712,299.670502 777.704468,300.591370 779.722717,301.329102 
	C785.352661,303.387238 788.969727,302.110443 791.802856,296.813568 
	C794.386902,291.982300 796.442444,286.860626 799.163025,282.114594 
	C800.000427,280.653534 802.238647,279.164062 803.870544,279.124298 
	C814.682617,278.860657 825.507507,278.858917 836.319336,279.128082 
	C837.930420,279.168152 840.125305,280.721008 840.964844,282.193024 
	C843.676025,286.946808 845.709412,292.084412 848.364563,296.874268 
	C849.432861,298.801453 851.161255,301.108582 853.064453,301.691589 
	C859.534119,303.673553 864.651123,300.172180 869.301392,296.256439 
	C873.498291,292.722443 872.010010,288.554047 870.029541,284.460297 
	C857.293274,258.134094 844.612915,231.780685 831.819885,205.482132 
	C828.340332,198.329391 823.787720,196.376129 815.173828,198.424149 
M567.944763,263.553589 
	C558.538330,244.107239 549.131897,224.660858 539.725342,205.214569 
	C537.447327,200.505219 533.877930,197.432480 528.502991,197.391785 
	C523.051575,197.350494 518.904236,199.958130 516.510925,204.904358 
	C503.556030,231.678040 490.605255,258.454010 477.773468,285.286774 
	C474.737610,291.635101 475.926849,295.022522 481.890747,298.580261 
	C483.734985,299.680450 485.721924,300.601440 487.740906,301.337341 
	C493.364258,303.387054 496.978088,302.100952 499.812378,296.795380 
	C502.394135,291.962524 504.449921,286.840759 507.172028,282.095551 
	C508.008484,280.637512 510.246094,279.186615 511.893890,279.125397 
	C520.038513,278.822845 528.279358,279.693939 536.334778,278.794495 
	C544.925842,277.835266 550.105103,280.383850 552.419006,288.865326 
	C553.192017,291.698822 554.890015,294.301605 556.307861,296.932953 
	C559.126892,302.164734 562.720825,303.573975 568.357788,301.493469 
	C570.675537,300.638000 572.942383,299.485596 575.001587,298.120087 
	C580.222046,294.658234 581.217346,291.484436 578.625549,285.805908 
	C575.314148,278.550690 571.714172,271.427155 567.944763,263.553589 
M1081.731567,416.832397 
	C1087.650635,414.915649 1092.607910,416.280518 1097.403320,420.347565 
	C1103.854614,425.818817 1109.134644,424.855316 1114.398804,418.018433 
	C1120.364624,410.270172 1120.021118,406.447388 1112.789429,400.848328 
	C1102.754761,393.079132 1091.105591,391.930573 1079.089844,393.143402 
	C1064.660767,394.599854 1053.264893,405.743286 1051.277588,419.766876 
	C1049.217041,434.307251 1055.941040,445.893982 1070.278564,451.709167 
	C1075.645386,453.885925 1081.348633,455.234283 1086.901123,456.951599 
	C1089.120483,457.638031 1091.414307,458.136414 1093.554810,459.012299 
	C1096.969849,460.409698 1099.615112,462.440033 1099.234375,466.792267 
	C1098.856567,471.111633 1096.744629,473.873444 1092.651733,475.240509 
	C1086.099854,477.428772 1080.552246,475.548370 1075.621216,471.126312 
	C1073.638306,469.347992 1071.815918,467.375275 1069.737061,465.721802 
	C1063.872437,461.057312 1060.013428,461.260620 1054.803589,466.307526 
	C1048.331055,472.577667 1047.764282,476.399872 1052.368042,482.733582 
	C1064.638672,499.615204 1088.787476,504.484467 1108.013550,493.953735 
	C1119.767700,487.515656 1125.756470,475.514923 1124.555664,461.752808 
	C1123.365112,448.109039 1115.797119,440.338531 1102.928101,437.089355 
	C1098.736938,436.031158 1094.524780,435.055634 1090.334106,433.995728 
	C1087.597656,433.303589 1084.461060,433.139160 1082.268921,431.628204 
	C1079.760376,429.899170 1076.813599,427.109192 1076.466064,424.463745 
	C1076.173584,422.237305 1079.332764,419.557465 1081.731567,416.832397 
M492.773834,442.647552 
	C498.484772,449.902222 506.932007,452.276276 515.120239,455.007965 
	C519.839600,456.582428 524.785522,457.488617 529.477905,459.129272 
	C532.712402,460.260132 535.355896,462.345062 535.059937,466.465271 
	C534.755310,470.705719 532.830383,473.680267 528.725098,475.129578 
	C522.231018,477.422241 516.619324,475.762909 511.633789,471.342438 
	C509.640930,469.575409 507.814301,467.611298 505.751068,465.934998 
	C499.733276,461.045563 495.764038,461.210693 490.426727,466.404144 
	C483.958588,472.697968 483.467285,476.368134 488.223206,482.863403 
	C500.098450,499.081818 523.312134,504.231354 542.149658,494.825989 
	C555.366394,488.227020 561.327698,477.035370 560.127930,461.074188 
	C559.167419,448.296265 553.084717,441.514771 537.989929,436.968079 
	C531.632446,435.053162 525.038452,433.921570 518.686523,431.991058 
	C514.438599,430.700012 511.141876,427.927551 512.029846,422.825958 
	C512.898987,417.832458 516.882751,416.476196 521.270508,416.010284 
	C526.087830,415.498718 529.780701,417.617615 533.460449,420.605225 
	C539.801758,425.753815 544.958374,424.769318 550.082947,418.095795 
	C555.955627,410.448151 555.717712,406.555176 548.979004,401.163239 
	C539.675293,393.718933 528.762573,392.244202 517.368774,392.922150 
	C491.843719,394.440918 478.592926,420.511169 492.773834,442.647552 
M1089.310303,302.117981 
	C1098.328003,303.058929 1106.865234,301.556061 1114.905151,297.259094 
	C1127.514404,290.520020 1133.478882,278.872437 1131.889771,263.440643 
	C1130.530029,250.238052 1122.525757,243.041412 1110.128540,240.010101 
	C1105.931763,238.983917 1101.725464,237.995972 1097.532959,236.952988 
	C1095.116577,236.351807 1092.646729,235.866470 1090.328369,234.991470 
	C1086.128784,233.406403 1082.919556,230.831146 1083.851807,225.710373 
	C1084.775513,220.637131 1088.808105,219.468231 1093.147095,219.007751 
	C1097.969971,218.495895 1101.639526,220.707153 1105.311035,223.674362 
	C1111.580200,228.741089 1116.820068,227.696060 1121.904297,221.006409 
	C1127.760254,213.301270 1127.685913,209.333786 1120.612061,204.168732 
	C1107.331299,194.471527 1092.482422,193.022156 1077.500610,198.763657 
	C1065.436035,203.387131 1058.979980,213.146423 1058.708252,226.294312 
	C1058.437744,239.386261 1063.784546,249.244873 1076.449829,254.096634 
	C1082.328735,256.348663 1088.427490,258.028503 1094.432617,259.948608 
	C1096.644287,260.655823 1098.943604,261.139465 1101.078613,262.025024 
	C1104.271606,263.349548 1107.102051,265.232574 1106.855103,269.273438 
	C1106.588501,273.636810 1104.579590,276.786591 1100.193726,278.235046 
	C1093.633789,280.401489 1088.098022,278.572601 1083.156616,274.158295 
	C1080.923218,272.162933 1078.855225,269.957336 1076.483765,268.146362 
	C1071.176392,264.093689 1067.344116,264.474670 1062.332764,269.255768 
	C1056.125977,275.177307 1055.282837,279.156464 1059.287842,284.899628 
	C1066.370483,295.056366 1076.206299,300.627319 1089.310303,302.117981 
M677.859619,465.557953 
	C671.205322,461.052307 667.709045,461.408051 662.226501,467.148743 
	C656.406372,473.242920 656.148254,476.786133 661.049866,483.300507 
	C673.347473,499.644501 697.004578,504.278564 715.955750,494.107758 
	C728.992065,487.111359 733.678589,475.716156 732.754761,461.643524 
	C731.892212,448.504761 725.621582,441.620026 711.104431,437.081512 
	C708.254028,436.190430 705.330139,435.529968 702.430298,434.802582 
	C698.566650,433.833466 694.595764,433.183472 690.850830,431.879578 
	C686.834229,430.481049 683.713745,427.805939 684.489136,422.981964 
	C685.290894,417.994232 689.196411,416.501617 693.610352,416.022614 
	C698.398926,415.502960 702.151306,417.457794 705.827209,420.498413 
	C712.145264,425.724579 717.312256,424.821472 722.471191,418.245972 
	C728.558777,410.486877 728.317261,406.532532 721.287781,401.026917 
	C711.001770,392.970825 699.013672,391.752869 686.690063,393.239471 
	C671.925964,395.020508 660.873657,406.302887 659.524231,420.894287 
	C658.498901,431.980896 661.344910,445.610016 679.062012,451.940643 
	C684.367737,453.836517 689.830383,455.292633 695.218994,456.957306 
	C697.595459,457.691437 700.044495,458.260315 702.320923,459.231659 
	C705.364380,460.530273 707.795593,462.524292 707.568787,466.315735 
	C707.331909,470.276093 705.705505,473.431488 701.838135,474.911560 
	C696.728088,476.867340 691.633789,476.801697 687.098267,473.488220 
	C684.024902,471.242981 681.300232,468.520477 677.859619,465.557953 
M632.240540,396.680756 
	C624.336548,409.123322 616.432556,421.565887 608.271912,434.412476 
	C607.074158,432.665039 606.106628,431.353821 605.242981,429.977448 
	C598.786499,419.688660 592.575867,409.234100 585.759644,399.190216 
	C583.913269,396.469513 580.303528,393.347534 577.418274,393.261688 
	C571.363281,393.081512 566.509644,397.049805 563.092163,401.961639 
	C560.000549,406.405182 563.123230,410.216919 565.492737,413.796631 
	C574.678467,427.674255 584.037231,441.438324 593.106079,455.391174 
	C594.541199,457.599152 595.409790,460.536560 595.517090,463.178284 
	C595.834473,470.993103 595.552307,478.830048 595.667725,486.655945 
	C595.800903,495.686646 598.284973,498.058014 607.412781,498.235596 
	C608.244812,498.251801 609.078613,498.245270 609.910156,498.212677 
	C618.223083,497.886841 620.793701,495.272217 620.874146,486.816162 
	C620.950073,478.822784 620.723450,470.822174 621.001343,462.837677 
	C621.087891,460.353638 621.864807,457.572205 623.212708,455.505341 
	C632.393066,441.427582 641.852295,427.532074 651.134888,413.520386 
	C656.362305,405.629913 655.386292,401.382263 647.432434,396.214661 
	C640.711731,391.848236 637.613586,391.829620 632.240540,396.680756 
M726.500061,197.137482 
	C716.334961,197.141388 706.168518,197.048401 696.005127,197.179932 
	C687.899597,197.284836 685.931091,199.389053 685.903564,207.315002 
	C685.874817,215.587418 687.916016,217.726883 696.128845,217.854568 
	C700.793762,217.927109 705.460632,217.873566 710.126648,217.875046 
	C714.376282,217.876389 718.625977,217.875336 723.083679,217.875336 
	C723.083679,220.461182 723.083496,222.282257 723.083679,224.103348 
	C723.085754,245.933487 722.934204,267.765869 723.254578,289.591339 
	C723.302979,292.890900 724.909729,298.437134 726.902771,298.996002 
	C732.056274,300.441071 738.087219,300.746735 743.279053,299.489319 
	C748.186523,298.300781 747.732605,292.670593 747.742310,288.347778 
	C747.790955,266.684418 747.768188,245.020859 747.770508,223.357376 
	C747.770691,221.612350 747.770508,219.867325 747.770508,217.875336 
	C752.873352,217.875336 757.190369,217.877029 761.507385,217.874878 
	C766.006714,217.872635 770.562134,218.294662 774.986023,217.714874 
	C778.035278,217.315247 782.201294,216.375870 783.619934,214.207092 
	C788.988159,206.000443 783.770203,197.194870 773.993225,197.157516 
	C758.495728,197.098297 742.997864,197.139038 726.500061,197.137482 
M768.693359,422.609741 
	C768.693359,425.772675 768.692932,428.935638 768.693481,432.098572 
	C768.696899,450.243866 768.526184,468.392365 768.862610,486.531494 
	C768.924194,489.848206 770.454468,495.498138 772.337646,495.971741 
	C777.683472,497.316101 783.829834,497.605286 789.151428,496.273743 
	C793.768921,495.118347 793.088928,489.566406 793.093506,485.420197 
	C793.117249,463.779022 793.107422,442.137878 793.109192,420.496704 
	C793.109375,418.730255 793.109192,416.963776 793.109192,414.870087 
	C795.584961,414.870087 797.395935,414.872009 799.206848,414.869751 
	C806.531433,414.860626 813.885986,415.228943 821.165955,414.653900 
	C824.079529,414.423737 828.823792,412.622681 829.321960,410.667236 
	C832.099182,399.765900 830.675720,393.887268 818.797546,394.044006 
	C793.664917,394.375671 768.524780,394.140015 743.387756,394.155396 
	C741.727417,394.156403 740.043884,394.164001 738.411194,394.422089 
	C732.748169,395.317261 731.104065,397.788757 731.259277,404.912140 
	C731.405945,411.648529 733.130737,414.271484 738.726196,414.634460 
	C745.192749,415.053955 751.701538,414.828796 758.192078,414.866577 
	C761.597839,414.886414 765.003845,414.870087 768.693359,414.870087 
	C768.693359,417.687347 768.693359,419.664825 768.693359,422.609741 
z"/>
<path fill="#FFFFFF" opacity="1.000000" stroke="none" 
	d="
M1201.000000,176.531342 
	C1199.718384,171.757553 1198.654175,166.450531 1197.120239,161.283020 
	C1186.404541,125.187340 1153.424683,100.502457 1115.844238,100.500595 
	C772.617676,100.483589 429.391052,100.475937 86.164459,100.510201 
	C45.859642,100.514229 9.138637,129.009491 1.334442,172.799286 
	C1.000000,115.682869 1.000000,58.365738 1.000001,1.052340 
	C401.000000,1.056076 801.000000,1.056076 1201.000000,1.056076 
	C1201.000000,59.428993 1201.000000,117.745842 1201.000000,176.531342 
z"/>
<path fill="#FFFFFF" opacity="1.000000" stroke="none" 
	d="
M0.999996,522.468628 
	C1.913056,524.921509 2.936482,527.813660 3.722360,530.768982 
	C13.043158,565.820129 41.119492,590.100403 77.139465,594.123230 
	C81.097992,594.565308 85.100952,594.809387 89.083328,594.809753 
	C430.491547,594.840515 771.899780,594.838196 1113.307983,594.838074 
	C1158.264648,594.838013 1193.289917,564.898376 1200.674316,520.218262 
	C1201.000000,556.322083 1201.000000,592.644226 1201.000000,628.959351 
	C801.000000,628.952393 401.000000,628.952393 1.000000,628.952393 
	C1.000000,593.582275 1.000000,558.259766 0.999996,522.468628 
z"/>
<path fill="#FDFEFF" opacity="1.000000" stroke="none" 
	d="
M954.533691,401.460358 
	C964.416199,414.413208 974.070801,427.089569 984.076111,440.226440 
	C987.046326,436.312988 989.616821,432.903870 992.210754,429.512756 
	C999.392517,420.124176 1006.565491,410.728760 1013.778015,401.363861 
	C1018.717041,394.950989 1026.957031,392.647827 1034.623413,395.414215 
	C1038.496216,396.811768 1039.832642,399.885773 1039.945190,403.616241 
	C1040.090820,408.442078 1040.039185,413.274414 1040.039795,418.103943 
	C1040.042969,440.587433 1040.050903,463.070923 1040.017090,485.554352 
	C1040.010498,489.947357 1039.993164,494.822968 1035.174805,496.684052 
	C1029.431641,498.902252 1023.119385,499.153351 1017.993408,495.313751 
	C1016.080261,493.880676 1015.207581,490.064819 1015.153625,487.310089 
	C1014.873108,472.992645 1015.010010,458.667023 1015.001770,444.344238 
	C1015.000854,442.752686 1015.001648,441.161102 1014.055237,439.227875 
	C1010.866577,443.573303 1007.671143,447.913757 1004.491333,452.265625 
	C1001.250854,456.700592 998.146545,461.241211 994.767395,465.567444 
	C988.759705,473.258698 979.524475,473.300629 973.636963,465.592224 
	C967.091248,457.022156 960.772034,448.278992 953.730713,438.769043 
	C953.510010,440.934052 953.285339,442.124420 953.282959,443.315247 
	C953.254272,457.638000 953.264160,471.960876 953.250244,486.283691 
	C953.246155,490.550812 953.149597,495.080994 948.271606,496.700470 
	C942.461548,498.629303 936.232788,499.322845 931.155518,495.167023 
	C929.336121,493.677765 928.442322,490.129028 928.423706,487.511047 
	C928.228577,460.032715 928.223267,432.552185 928.341003,405.073029 
	C928.372559,397.702240 930.873230,395.319275 938.246521,394.681885 
	C944.670227,394.126556 950.639282,394.854065 954.533691,401.460358 
z"/>
<path fill="#FDFEFF" opacity="1.000000" stroke="none" 
	d="
M617.596191,209.414551 
	C629.202576,225.070618 640.586975,240.444641 652.709534,256.815521 
	C652.907104,254.300385 653.104675,252.938126 653.107056,251.575531 
	C653.131470,237.751022 653.072144,223.926132 653.156006,210.102081 
	C653.182190,205.787766 652.909241,200.873444 657.787292,198.878281 
	C663.353699,196.601639 669.549255,196.348877 674.580017,199.716736 
	C676.726318,201.153610 677.861450,205.437408 677.910400,208.452606 
	C678.215759,227.269119 678.088989,246.092743 678.093872,264.914001 
	C678.096130,273.575073 678.166748,282.237640 678.030212,290.896729 
	C677.922363,297.734222 675.148132,300.292053 668.303955,300.986481 
	C660.912292,301.736389 655.466980,299.714264 650.864075,293.209106 
	C640.002014,277.858124 628.365967,263.054626 617.028442,248.040604 
	C615.971130,246.640457 614.810425,245.318359 613.019531,243.132050 
	C612.855042,245.703354 612.671387,247.266479 612.668152,248.829971 
	C612.640930,262.154785 612.695129,275.479980 612.613525,288.804352 
	C612.588013,292.968323 612.767822,297.716278 608.099548,299.584473 
	C602.389709,301.869476 596.077820,302.450226 590.901001,298.692017 
	C588.865356,297.214233 587.901794,293.183655 587.820618,290.277313 
	C587.481140,278.127625 587.656128,265.963379 587.653931,253.804474 
	C587.651245,239.147125 587.610352,224.489487 587.693665,209.832596 
	C587.719238,205.337341 587.436951,200.085159 592.918030,198.577225 
	C599.197693,196.849609 605.885315,196.015945 611.215088,201.285034 
	C613.561157,203.604416 615.338562,206.499054 617.596191,209.414551 
z"/>
<path fill="#FDFEFF" opacity="1.000000" stroke="none" 
	d="
M845.009521,497.433777 
	C838.492004,495.743500 838.099426,490.870728 838.092102,485.871033 
	C838.059509,463.538757 838.073059,441.206421 838.071167,418.874084 
	C838.070862,414.707611 838.013611,410.539948 838.092346,406.374908 
	C838.261230,397.437622 841.030762,394.539124 850.278992,394.342285 
	C860.607300,394.122437 870.943604,394.269257 881.276428,394.269104 
	C890.275940,394.268951 899.277283,394.183929 908.274231,394.340851 
	C912.528625,394.415070 916.990723,394.980804 918.207214,400.083160 
	C919.609680,405.965698 920.624878,412.243988 915.972595,417.085815 
	C914.325928,418.799500 910.796936,419.272186 908.109192,419.321442 
	C895.114014,419.559540 882.112671,419.460968 869.113525,419.480835 
	C867.318848,419.483582 865.524109,419.481171 863.441956,419.481171 
	C863.441956,424.301239 863.441956,428.579041 863.441956,433.714569 
	C868.116943,433.714569 872.873718,433.699524 877.630371,433.718445 
	C883.295959,433.740967 888.963562,433.710846 894.626404,433.856079 
	C899.674133,433.985535 902.728516,436.516327 903.233582,441.704193 
	C903.426697,443.687714 903.735657,445.693939 903.619141,447.667786 
	C903.131653,455.926392 900.425354,458.631348 892.110901,458.775635 
	C882.650879,458.939789 873.185791,458.813599 863.440796,458.813599 
	C863.440796,463.697937 863.440796,468.093201 863.440796,472.984100 
	C871.776794,472.984100 879.898438,472.982178 888.020142,472.984680 
	C894.853149,472.986786 901.686890,472.933960 908.518982,473.015259 
	C915.914978,473.103241 918.730225,475.855530 919.015503,483.294464 
	C919.110840,485.779907 919.099121,488.323608 918.681213,490.762665 
	C917.949219,495.034668 915.272644,497.812103 910.867615,497.816437 
	C889.047729,497.837830 867.227600,497.669128 845.009521,497.433777 
z"/>
<path fill="#FDFEFF" opacity="1.000000" stroke="none" 
	d="
M968.918396,266.999939 
	C968.919556,247.837494 968.886597,229.174973 968.935242,210.512650 
	C968.962402,200.095535 971.526794,197.379944 981.894409,197.313583 
	C1000.722656,197.193039 1019.552368,197.240280 1038.381104,197.321976 
	C1042.592651,197.340256 1047.210571,197.576843 1048.756958,202.467865 
	C1050.651489,208.459915 1051.489258,214.987381 1046.788696,219.913147 
	C1044.894287,221.898392 1040.698608,222.281693 1037.527710,222.349838 
	C1025.036133,222.618347 1012.535706,222.472015 1000.038574,222.479279 
	C998.219666,222.480331 996.400757,222.479416 994.276978,222.479416 
	C994.276978,227.228027 994.276978,231.651627 994.276978,236.718750 
	C1002.927063,236.718750 1011.539551,236.703339 1020.151917,236.722412 
	C1032.743652,236.750275 1037.333130,243.142227 1033.697021,255.401932 
	C1032.163086,260.573669 1028.134644,261.676880 1023.580444,261.754395 
	C1015.751038,261.887695 1007.918213,261.817688 1000.086792,261.831543 
	C998.270386,261.834747 996.454041,261.832001 994.305725,261.832001 
	C994.305725,266.504913 994.305725,270.911835 994.305725,275.777893 
	C995.817627,275.844269 997.419312,275.973145 999.021240,275.975677 
	C1012.351562,275.996613 1025.682129,275.947968 1039.012085,276.016693 
	C1046.679199,276.056244 1049.496094,278.847260 1049.898071,286.523956 
	C1049.967651,287.853027 1049.972900,289.192963 1049.893311,290.521027 
	C1049.434570,298.170502 1046.661011,300.933411 1038.903687,300.965393 
	C1019.408508,301.045776 999.912720,300.993530 980.417175,300.990021 
	C979.751282,300.989929 979.082214,300.974213 978.419922,300.910889 
	C971.878845,300.284912 969.163147,297.577209 969.016296,290.993317 
	C968.841675,283.165344 968.938904,275.331360 968.918396,266.999939 
z"/>
<path fill="#FCFEFE" opacity="1.000000" stroke="none" 
	d="
M960.614685,293.158875 
	C957.047180,298.947449 951.516296,300.849854 945.713318,301.779572 
	C941.325195,302.482666 938.598633,299.672516 936.934204,295.828430 
	C934.027832,289.115906 931.034180,282.438141 928.298706,275.656372 
	C927.291504,273.159424 926.168701,272.143402 923.224609,272.329987 
	C917.295837,272.705719 911.326538,272.441833 904.793335,272.441833 
	C904.793335,278.475372 904.871704,283.924896 904.768188,289.370911 
	C904.687683,293.604034 904.472351,298.190643 899.612122,299.737579 
	C893.626709,301.642700 887.099731,302.469055 882.178894,297.766388 
	C880.201721,295.876862 879.825867,291.681946 879.771545,288.518280 
	C879.525879,274.198853 879.652161,259.873016 879.651184,245.549484 
	C879.650330,233.391129 879.597229,221.232330 879.684021,209.074570 
	C879.745605,200.438431 881.992798,197.706024 890.403198,197.442917 
	C901.716064,197.089005 913.095337,196.714600 924.361084,197.527328 
	C939.176270,198.596130 950.879578,205.682938 956.768921,219.747360 
	C962.589539,233.647903 961.065369,247.050385 951.465271,259.214050 
	C950.527039,260.402802 950.286682,262.917236 950.850342,264.382324 
	C953.295654,270.738220 956.359924,276.856750 958.783264,283.219971 
	C959.929626,286.230042 960.140259,289.596436 960.614685,293.158875 
M928.055969,246.025391 
	C934.044800,242.314270 936.211060,237.490265 934.591919,231.471191 
	C933.170532,226.187561 928.668457,222.784195 922.196716,222.546097 
	C916.584595,222.339615 910.958862,222.503159 905.174805,222.503159 
	C905.174805,230.997223 905.174805,239.015381 905.174805,247.748535 
	C912.824768,247.262253 920.062805,246.802139 928.055969,246.025391 
z"/>
<path fill="#FDFEFF" opacity="1.000000" stroke="none" 
	d="
M815.526733,198.274246 
	C823.787720,196.376129 828.340332,198.329391 831.819885,205.482132 
	C844.612915,231.780685 857.293274,258.134094 870.029541,284.460297 
	C872.010010,288.554047 873.498291,292.722443 869.301392,296.256439 
	C864.651123,300.172180 859.534119,303.673553 853.064453,301.691589 
	C851.161255,301.108582 849.432861,298.801453 848.364563,296.874268 
	C845.709412,292.084412 843.676025,286.946808 840.964844,282.193024 
	C840.125305,280.721008 837.930420,279.168152 836.319336,279.128082 
	C825.507507,278.858917 814.682617,278.860657 803.870544,279.124298 
	C802.238647,279.164062 800.000427,280.653534 799.163025,282.114594 
	C796.442444,286.860626 794.386902,291.982300 791.802856,296.813568 
	C788.969727,302.110443 785.352661,303.387238 779.722717,301.329102 
	C777.704468,300.591370 775.717712,299.670502 773.874634,298.568726 
	C767.897644,294.995575 766.728577,291.651398 769.780884,285.269073 
	C782.612854,258.437653 795.502991,231.633026 808.627502,204.944351 
	C809.913147,202.330078 812.949890,200.576996 815.526733,198.274246 
M820.875916,240.610092 
	C820.347290,240.547226 819.427551,240.288376 819.346680,240.449844 
	C816.503296,246.124954 813.738708,251.839539 810.882996,257.713257 
	C817.302002,257.713257 822.998657,257.713257 829.238586,257.713257 
	C826.405090,251.935349 823.796448,246.615814 820.875916,240.610092 
z"/>
<path fill="#FDFEFF" opacity="1.000000" stroke="none" 
	d="
M568.091675,263.900208 
	C571.714172,271.427155 575.314148,278.550690 578.625549,285.805908 
	C581.217346,291.484436 580.222046,294.658234 575.001587,298.120087 
	C572.942383,299.485596 570.675537,300.638000 568.357788,301.493469 
	C562.720825,303.573975 559.126892,302.164734 556.307861,296.932953 
	C554.890015,294.301605 553.192017,291.698822 552.419006,288.865326 
	C550.105103,280.383850 544.925842,277.835266 536.334778,278.794495 
	C528.279358,279.693939 520.038513,278.822845 511.893890,279.125397 
	C510.246094,279.186615 508.008484,280.637512 507.172028,282.095551 
	C504.449921,286.840759 502.394135,291.962524 499.812378,296.795380 
	C496.978088,302.100952 493.364258,303.387054 487.740906,301.337341 
	C485.721924,300.601440 483.734985,299.680450 481.890747,298.580261 
	C475.926849,295.022522 474.737610,291.635101 477.773468,285.286774 
	C490.605255,258.454010 503.556030,231.678040 516.510925,204.904358 
	C518.904236,199.958130 523.051575,197.350494 528.502991,197.391785 
	C533.877930,197.432480 537.447327,200.505219 539.725342,205.214569 
	C549.131897,224.660858 558.538330,244.107239 568.091675,263.900208 
M520.313538,257.981934 
	C525.742310,257.981934 531.171082,257.981934 537.365112,257.981934 
	C534.211121,251.526535 531.322815,245.615082 527.786865,238.377930 
	C524.611511,245.825455 522.055115,251.821289 520.313538,257.981934 
z"/>
<path fill="#55C793" opacity="1.000000" stroke="none" 
	d="
M142.013504,237.902588 
	C151.300476,240.282837 160.589142,242.656494 169.872910,245.049194 
	C171.619781,245.499435 173.347076,246.025620 174.266205,246.285583 
	C180.333466,229.067139 186.277267,212.198990 192.699524,195.373520 
	C193.785263,201.590805 194.348801,207.770172 195.019943,213.937836 
	C195.316284,216.661133 195.830963,219.360687 196.201141,222.309921 
	C196.155762,222.548828 195.980438,223.002533 195.895294,223.108002 
	C195.683914,223.474091 195.708420,223.724976 195.857544,224.353027 
	C194.367447,230.660568 192.829010,236.563965 191.456924,242.505753 
	C189.377762,251.509583 189.426895,251.520935 198.009644,255.703827 
	C198.009781,258.330597 198.011383,260.545074 197.662415,262.681458 
	C194.540955,261.675812 191.770065,260.748230 187.943069,259.467102 
	C186.175858,273.862854 184.505768,287.467407 182.698120,302.192474 
	C188.138336,299.216400 192.291550,296.944397 196.736237,294.927063 
	C197.687119,296.744781 198.346512,298.307800 198.740021,300.091309 
	C193.992783,303.162811 189.421371,305.886047 185.084427,308.942047 
	C183.766342,309.870819 182.267105,311.709412 182.252457,313.145599 
	C182.040985,333.876953 182.013184,354.611176 182.159943,375.343140 
	C182.170090,376.778931 183.608215,378.607697 184.895996,379.556427 
	C188.893661,382.501526 193.139130,385.110229 196.921371,388.037964 
	C196.036194,390.991119 195.526138,393.757355 194.997849,396.520081 
	C194.434998,399.463409 193.854843,402.403473 192.989441,405.229797 
	C190.027771,403.621429 187.358887,402.128235 183.449417,399.940887 
	C184.797394,410.637329 185.905426,420.075317 187.316437,429.467773 
	C187.436356,430.266083 189.554062,431.211090 190.786743,431.276581 
	C192.167267,431.349854 193.596863,430.498993 195.003998,430.510193 
	C195.363480,435.334106 195.724091,439.698151 195.815750,444.283813 
	C193.910919,445.214813 192.275040,445.924225 190.186966,446.829712 
	C192.112595,455.019440 193.995483,463.027374 195.813171,471.151398 
	C195.677887,471.542145 195.747086,471.782349 196.003021,472.239197 
	C196.036118,472.660065 196.021713,472.829865 195.666138,473.182037 
	C194.883942,475.024170 194.131760,476.671021 194.062241,478.346161 
	C193.879456,482.750854 194.276230,487.196045 193.841019,491.565216 
	C193.682236,493.159241 191.826035,494.584167 190.744232,496.086243 
	C186.447968,483.264618 181.998596,470.491394 177.921600,457.600403 
	C175.956131,451.385803 176.274384,451.287994 169.955399,452.988708 
	C167.564087,453.632294 165.168671,454.260651 162.387314,454.459961 
	C161.664352,450.004669 161.329239,445.985443 161.291519,441.758148 
	C163.330597,440.998474 165.072037,440.446167 166.813934,439.895264 
	C173.476807,437.787994 173.254379,437.820526 172.244003,430.864685 
	C170.643463,419.846130 169.215179,408.796387 168.032455,397.725830 
	C167.430832,392.094452 166.342438,387.007629 161.066742,383.755737 
	C161.537460,379.483459 161.581161,375.538422 162.083282,371.652618 
	C162.336700,369.691467 163.420441,367.837585 164.496063,365.823303 
	C165.187317,364.010345 165.771469,362.312317 165.791428,360.607697 
	C165.893967,351.841797 165.844742,343.074188 165.863647,334.307190 
	C165.870071,331.325012 165.846985,328.339752 165.974518,325.361755 
	C166.074875,323.018097 165.273270,322.274597 162.944870,322.975403 
	C162.502899,320.658752 162.210327,318.730072 162.132660,316.534668 
	C165.969818,314.347321 167.127747,311.430573 167.116913,307.288208 
	C167.102188,301.664032 167.818100,296.013123 168.550964,290.416931 
	C170.100708,278.583008 171.864624,266.777130 173.649368,254.193497 
	C163.033951,251.631836 152.421402,249.070862 141.844910,246.030304 
	C141.925156,243.001343 141.969330,240.451965 142.013504,237.902588 
z"/>
<path fill="#FCFEFE" opacity="1.000000" stroke="none" 
	d="
M1081.347900,416.955353 
	C1079.332764,419.557465 1076.173584,422.237305 1076.466064,424.463745 
	C1076.813599,427.109192 1079.760376,429.899170 1082.268921,431.628204 
	C1084.461060,433.139160 1087.597656,433.303589 1090.334106,433.995728 
	C1094.524780,435.055634 1098.736938,436.031158 1102.928101,437.089355 
	C1115.797119,440.338531 1123.365112,448.109039 1124.555664,461.752808 
	C1125.756470,475.514923 1119.767700,487.515656 1108.013550,493.953735 
	C1088.787476,504.484467 1064.638672,499.615204 1052.368042,482.733582 
	C1047.764282,476.399872 1048.331055,472.577667 1054.803589,466.307526 
	C1060.013428,461.260620 1063.872437,461.057312 1069.737061,465.721802 
	C1071.815918,467.375275 1073.638306,469.347992 1075.621216,471.126312 
	C1080.552246,475.548370 1086.099854,477.428772 1092.651733,475.240509 
	C1096.744629,473.873444 1098.856567,471.111633 1099.234375,466.792267 
	C1099.615112,462.440033 1096.969849,460.409698 1093.554810,459.012299 
	C1091.414307,458.136414 1089.120483,457.638031 1086.901123,456.951599 
	C1081.348633,455.234283 1075.645386,453.885925 1070.278564,451.709167 
	C1055.941040,445.893982 1049.217041,434.307251 1051.277588,419.766876 
	C1053.264893,405.743286 1064.660767,394.599854 1079.089844,393.143402 
	C1091.105591,391.930573 1102.754761,393.079132 1112.789429,400.848328 
	C1120.021118,406.447388 1120.364624,410.270172 1114.398804,418.018433 
	C1109.134644,424.855316 1103.854614,425.818817 1097.403320,420.347565 
	C1092.607910,416.280518 1087.650635,414.915649 1081.347900,416.955353 
z"/>
<path fill="#FCFEFE" opacity="1.000000" stroke="none" 
	d="
M492.545837,442.366394 
	C478.592926,420.511169 491.843719,394.440918 517.368774,392.922150 
	C528.762573,392.244202 539.675293,393.718933 548.979004,401.163239 
	C555.717712,406.555176 555.955627,410.448151 550.082947,418.095795 
	C544.958374,424.769318 539.801758,425.753815 533.460449,420.605225 
	C529.780701,417.617615 526.087830,415.498718 521.270508,416.010284 
	C516.882751,416.476196 512.898987,417.832458 512.029846,422.825958 
	C511.141876,427.927551 514.438599,430.700012 518.686523,431.991058 
	C525.038452,433.921570 531.632446,435.053162 537.989929,436.968079 
	C553.084717,441.514771 559.167419,448.296265 560.127930,461.074188 
	C561.327698,477.035370 555.366394,488.227020 542.149658,494.825989 
	C523.312134,504.231354 500.098450,499.081818 488.223206,482.863403 
	C483.467285,476.368134 483.958588,472.697968 490.426727,466.404144 
	C495.764038,461.210693 499.733276,461.045563 505.751068,465.934998 
	C507.814301,467.611298 509.640930,469.575409 511.633789,471.342438 
	C516.619324,475.762909 522.231018,477.422241 528.725098,475.129578 
	C532.830383,473.680267 534.755310,470.705719 535.059937,466.465271 
	C535.355896,462.345062 532.712402,460.260132 529.477905,459.129272 
	C524.785522,457.488617 519.839600,456.582428 515.120239,455.007965 
	C506.932007,452.276276 498.484772,449.902222 492.545837,442.366394 
z"/>
<path fill="#FCFEFE" opacity="1.000000" stroke="none" 
	d="
M1088.881958,302.083588 
	C1076.206299,300.627319 1066.370483,295.056366 1059.287842,284.899628 
	C1055.282837,279.156464 1056.125977,275.177307 1062.332764,269.255768 
	C1067.344116,264.474670 1071.176392,264.093689 1076.483765,268.146362 
	C1078.855225,269.957336 1080.923218,272.162933 1083.156616,274.158295 
	C1088.098022,278.572601 1093.633789,280.401489 1100.193726,278.235046 
	C1104.579590,276.786591 1106.588501,273.636810 1106.855103,269.273438 
	C1107.102051,265.232574 1104.271606,263.349548 1101.078613,262.025024 
	C1098.943604,261.139465 1096.644287,260.655823 1094.432617,259.948608 
	C1088.427490,258.028503 1082.328735,256.348663 1076.449829,254.096634 
	C1063.784546,249.244873 1058.437744,239.386261 1058.708252,226.294312 
	C1058.979980,213.146423 1065.436035,203.387131 1077.500610,198.763657 
	C1092.482422,193.022156 1107.331299,194.471527 1120.612061,204.168732 
	C1127.685913,209.333786 1127.760254,213.301270 1121.904297,221.006409 
	C1116.820068,227.696060 1111.580200,228.741089 1105.311035,223.674362 
	C1101.639526,220.707153 1097.969971,218.495895 1093.147095,219.007751 
	C1088.808105,219.468231 1084.775513,220.637131 1083.851807,225.710373 
	C1082.919556,230.831146 1086.128784,233.406403 1090.328369,234.991470 
	C1092.646729,235.866470 1095.116577,236.351807 1097.532959,236.952988 
	C1101.725464,237.995972 1105.931763,238.983917 1110.128540,240.010101 
	C1122.525757,243.041412 1130.530029,250.238052 1131.889771,263.440643 
	C1133.478882,278.872437 1127.514404,290.520020 1114.905151,297.259094 
	C1106.865234,301.556061 1098.328003,303.058929 1088.881958,302.083588 
z"/>
<path fill="#FCFEFE" opacity="1.000000" stroke="none" 
	d="
M678.139587,465.784698 
	C681.300232,468.520477 684.024902,471.242981 687.098267,473.488220 
	C691.633789,476.801697 696.728088,476.867340 701.838135,474.911560 
	C705.705505,473.431488 707.331909,470.276093 707.568787,466.315735 
	C707.795593,462.524292 705.364380,460.530273 702.320923,459.231659 
	C700.044495,458.260315 697.595459,457.691437 695.218994,456.957306 
	C689.830383,455.292633 684.367737,453.836517 679.062012,451.940643 
	C661.344910,445.610016 658.498901,431.980896 659.524231,420.894287 
	C660.873657,406.302887 671.925964,395.020508 686.690063,393.239471 
	C699.013672,391.752869 711.001770,392.970825 721.287781,401.026917 
	C728.317261,406.532532 728.558777,410.486877 722.471191,418.245972 
	C717.312256,424.821472 712.145264,425.724579 705.827209,420.498413 
	C702.151306,417.457794 698.398926,415.502960 693.610352,416.022614 
	C689.196411,416.501617 685.290894,417.994232 684.489136,422.981964 
	C683.713745,427.805939 686.834229,430.481049 690.850830,431.879578 
	C694.595764,433.183472 698.566650,433.833466 702.430298,434.802582 
	C705.330139,435.529968 708.254028,436.190430 711.104431,437.081512 
	C725.621582,441.620026 731.892212,448.504761 732.754761,461.643524 
	C733.678589,475.716156 728.992065,487.111359 715.955750,494.107758 
	C697.004578,504.278564 673.347473,499.644501 661.049866,483.300507 
	C656.148254,476.786133 656.406372,473.242920 662.226501,467.148743 
	C667.709045,461.408051 671.205322,461.052307 678.139587,465.784698 
z"/>
<path fill="#FDFEFF" opacity="1.000000" stroke="none" 
	d="
M632.486145,396.403564 
	C637.613586,391.829620 640.711731,391.848236 647.432434,396.214661 
	C655.386292,401.382263 656.362305,405.629913 651.134888,413.520386 
	C641.852295,427.532074 632.393066,441.427582 623.212708,455.505341 
	C621.864807,457.572205 621.087891,460.353638 621.001343,462.837677 
	C620.723450,470.822174 620.950073,478.822784 620.874146,486.816162 
	C620.793701,495.272217 618.223083,497.886841 609.910156,498.212677 
	C609.078613,498.245270 608.244812,498.251801 607.412781,498.235596 
	C598.284973,498.058014 595.800903,495.686646 595.667725,486.655945 
	C595.552307,478.830048 595.834473,470.993103 595.517090,463.178284 
	C595.409790,460.536560 594.541199,457.599152 593.106079,455.391174 
	C584.037231,441.438324 574.678467,427.674255 565.492737,413.796631 
	C563.123230,410.216919 560.000549,406.405182 563.092163,401.961639 
	C566.509644,397.049805 571.363281,393.081512 577.418274,393.261688 
	C580.303528,393.347534 583.913269,396.469513 585.759644,399.190216 
	C592.575867,409.234100 598.786499,419.688660 605.242981,429.977448 
	C606.106628,431.353821 607.074158,432.665039 608.271912,434.412476 
	C616.432556,421.565887 624.336548,409.123322 632.486145,396.403564 
z"/>
<path fill="#FAFDFE" opacity="1.000000" stroke="none" 
	d="
M727.000122,197.137482 
	C742.997864,197.139038 758.495728,197.098297 773.993225,197.157516 
	C783.770203,197.194870 788.988159,206.000443 783.619934,214.207092 
	C782.201294,216.375870 778.035278,217.315247 774.986023,217.714874 
	C770.562134,218.294662 766.006714,217.872635 761.507385,217.874878 
	C757.190369,217.877029 752.873352,217.875336 747.770508,217.875336 
	C747.770508,219.867325 747.770691,221.612350 747.770508,223.357376 
	C747.768188,245.020859 747.790955,266.684418 747.742310,288.347778 
	C747.732605,292.670593 748.186523,298.300781 743.279053,299.489319 
	C738.087219,300.746735 732.056274,300.441071 726.902771,298.996002 
	C724.909729,298.437134 723.302979,292.890900 723.254578,289.591339 
	C722.934204,267.765869 723.085754,245.933487 723.083679,224.103348 
	C723.083496,222.282257 723.083679,220.461182 723.083679,217.875336 
	C718.625977,217.875336 714.376282,217.876389 710.126648,217.875046 
	C705.460632,217.873566 700.793762,217.927109 696.128845,217.854568 
	C687.916016,217.726883 685.874817,215.587418 685.903564,207.315002 
	C685.931091,199.389053 687.899597,197.284836 696.005127,197.179932 
	C706.168518,197.048401 716.334961,197.141388 727.000122,197.137482 
z"/>
<path fill="#FCFEFE" opacity="1.000000" stroke="none" 
	d="
M768.693359,422.126007 
	C768.693359,419.664825 768.693359,417.687347 768.693359,414.870087 
	C765.003845,414.870087 761.597839,414.886414 758.192078,414.866577 
	C751.701538,414.828796 745.192749,415.053955 738.726196,414.634460 
	C733.130737,414.271484 731.405945,411.648529 731.259277,404.912140 
	C731.104065,397.788757 732.748169,395.317261 738.411194,394.422089 
	C740.043884,394.164001 741.727417,394.156403 743.387756,394.155396 
	C768.524780,394.140015 793.664917,394.375671 818.797546,394.044006 
	C830.675720,393.887268 832.099182,399.765900 829.321960,410.667236 
	C828.823792,412.622681 824.079529,414.423737 821.165955,414.653900 
	C813.885986,415.228943 806.531433,414.860626 799.206848,414.869751 
	C797.395935,414.872009 795.584961,414.870087 793.109192,414.870087 
	C793.109192,416.963776 793.109375,418.730255 793.109192,420.496704 
	C793.107422,442.137878 793.117249,463.779022 793.093506,485.420197 
	C793.088928,489.566406 793.768921,495.118347 789.151428,496.273743 
	C783.829834,497.605286 777.683472,497.316101 772.337646,495.971741 
	C770.454468,495.498138 768.924194,489.848206 768.862610,486.531494 
	C768.526184,468.392365 768.696899,450.243866 768.693481,432.098572 
	C768.692932,428.935638 768.693359,425.772675 768.693359,422.126007 
z"/>
<path fill="#6FCFA1" opacity="1.000000" stroke="none" 
	d="
M303.921173,454.267853 
	C302.935669,454.114227 301.926178,454.050110 300.968475,453.792908 
	C292.893616,451.624268 292.926178,451.620544 291.005646,459.939514 
	C286.883575,477.794739 281.680237,495.273682 272.557465,511.242157 
	C271.375977,506.640106 270.515930,502.281097 269.762024,497.561401 
	C274.759766,482.758118 279.630615,468.308441 284.557800,453.878021 
	C285.765808,450.340179 284.782684,448.301514 281.075989,447.211151 
	C277.595093,446.187286 274.267426,444.642365 270.900513,442.833557 
	C270.964569,436.843201 271.000427,431.346039 271.405090,425.913452 
	C277.276093,428.070007 282.778351,430.161987 289.278687,432.633392 
	C291.025970,419.767944 292.634827,407.921753 294.392853,394.977264 
	C285.807007,400.040649 278.403320,404.406891 271.000305,408.319885 
	C271.002075,402.621246 271.003143,397.375885 271.274719,391.916809 
	C278.423218,387.335449 285.420898,383.139404 292.097626,378.483124 
	C293.834320,377.272034 295.592834,374.630005 295.604248,372.635284 
	C295.709167,354.346252 295.365875,336.055206 295.324432,317.764343 
	C295.316925,314.454803 293.808624,312.637909 291.201843,311.049500 
	C280.991974,304.828247 270.850311,298.494965 260.922729,291.917847 
	C261.810852,290.072052 262.459595,288.511719 263.442932,287.030640 
	C273.563873,292.803345 283.350250,298.496796 293.136597,304.190247 
	C293.668396,303.915466 294.200165,303.640686 294.731964,303.365906 
	C292.693237,288.379028 290.654510,273.392151 288.519165,257.695007 
	C279.261505,261.117218 271.207520,264.094452 262.936493,266.799011 
	C262.157043,264.754425 261.594666,262.982513 261.350677,261.036865 
	C268.398254,258.097900 275.041565,255.090439 281.890228,252.662247 
	C285.737030,251.298370 286.718231,249.341263 285.496979,245.623306 
	C280.287384,229.763260 275.168671,213.873367 270.352112,197.814392 
	C271.124420,195.974884 271.620972,194.328278 271.984344,192.652817 
	C272.530914,190.132782 272.984283,187.592560 273.477295,185.060928 
	C282.560760,202.174957 287.789673,220.601746 291.979767,239.382599 
	C292.582520,242.084198 293.194427,244.783752 293.904144,247.937851 
	C297.909210,246.797745 301.508698,245.773087 305.520935,245.149628 
	C305.957825,247.673721 305.981934,249.796600 305.693237,252.122482 
	C304.598480,252.590836 303.822968,252.877319 303.033569,253.118317 
	C295.184570,255.514648 295.469940,255.475723 296.534149,263.745453 
	C298.272156,277.251221 299.786133,290.793823 300.965179,304.358215 
	C301.278748,307.965729 301.998016,310.767975 305.043060,313.139740 
	C304.616852,315.496552 304.238800,317.430634 303.480774,319.395050 
	C302.786072,321.094116 302.203735,322.762054 302.198608,324.431732 
	C302.156036,338.314209 302.193756,352.197205 302.284424,366.079498 
	C302.295959,367.842316 302.753082,369.602203 303.179810,371.710999 
	C303.928223,377.116547 304.500610,382.174591 304.852173,387.502625 
	C303.405334,389.912903 301.407135,391.943848 301.086090,394.212158 
	C299.642456,404.412048 298.931641,414.716370 297.463318,424.911987 
	C296.010223,435.001892 295.750916,434.964539 304.974426,438.837891 
	C304.523682,444.266174 304.222412,449.267029 303.921173,454.267853 
z"/>
<path fill="#2FB78D" opacity="1.000000" stroke="none" 
	d="
M90.710205,321.168762 
	C78.697495,307.309875 68.623421,292.350830 64.800629,274.028107 
	C61.090286,256.244415 69.271858,242.227875 86.555611,236.756973 
	C90.644539,235.462692 94.980560,234.949066 99.611282,234.574966 
	C100.011292,238.248611 100.002930,241.423615 99.663872,244.700989 
	C94.781609,246.295731 89.974716,247.276855 85.735245,249.394150 
	C78.433525,253.040787 75.145012,260.027832 76.822929,268.101501 
	C77.890869,273.240112 79.361458,278.471375 81.713058,283.124634 
	C85.067078,289.761414 89.394150,295.906403 93.248901,302.772003 
	C93.127716,306.046021 93.327171,308.848083 92.930504,311.563019 
	C92.457008,314.803894 91.473045,317.970184 90.710205,321.168762 
z"/>
<path fill="#91DAB7" opacity="1.000000" stroke="none" 
	d="
M380.101196,375.947174 
	C389.544983,386.037537 397.823395,396.978912 403.316101,409.728607 
	C405.395050,414.554321 407.163696,419.729431 407.837952,424.906219 
	C410.342072,444.132477 399.487946,457.522675 378.406128,460.980591 
	C377.283661,456.768738 376.645416,452.916412 376.348755,448.909180 
	C377.976501,448.443237 379.270660,448.161804 380.547607,447.816589 
	C393.613892,444.284302 399.071808,436.127289 395.907410,422.965057 
	C394.229401,415.985504 391.268738,409.158691 387.900513,402.784241 
	C384.434937,396.225555 379.769226,390.301025 375.916626,383.849426 
	C377.503448,381.048950 378.802307,378.498047 380.101196,375.947174 
z"/>
<path fill="#2FB78D" opacity="1.000000" stroke="none" 
	d="
M95.076500,460.822388 
	C68.095627,455.020752 58.448730,436.267975 69.486870,410.960907 
	C75.884445,396.293213 85.344536,383.726715 96.799416,372.435059 
	C97.838867,375.479370 98.433823,378.336731 98.892838,381.489716 
	C97.759438,383.114868 96.767242,384.448364 95.763695,385.773254 
	C86.674316,397.772858 78.121292,410.023529 75.608047,425.393036 
	C73.974457,435.383057 78.178955,443.240601 87.528076,446.962372 
	C90.299339,448.065613 93.185326,448.880676 95.942543,450.216064 
	C95.603065,454.010345 95.339783,457.416382 95.076500,460.822388 
z"/>
<path fill="#88D7B0" opacity="1.000000" stroke="none" 
	d="
M379.954712,375.644958 
	C378.802307,378.498047 377.503448,381.048950 375.657562,383.664490 
	C370.955872,378.980225 367.012512,374.023010 362.590363,369.537781 
	C357.624420,364.500977 352.226044,359.890503 346.929810,354.681824 
	C346.251312,349.238159 345.658752,344.207245 345.268799,338.908630 
	C354.541199,329.728577 363.610992,320.816284 373.013428,312.134888 
	C373.951233,317.467255 374.556458,322.568726 375.161682,327.670227 
	C368.242157,334.976471 361.322662,342.282684 354.309052,349.688263 
	C362.781769,358.212555 371.295013,366.777649 379.954712,375.644958 
z"/>
<path fill="#5CCA96" opacity="1.000000" stroke="none" 
	d="
M196.246536,222.071014 
	C195.830963,219.360687 195.316284,216.661133 195.019943,213.937836 
	C194.348801,207.770172 193.785263,201.590805 192.913849,195.102432 
	C198.024826,182.100800 204.862411,170.287430 215.896133,161.759140 
	C220.343903,158.321320 226.114273,156.594635 231.908081,154.326965 
	C234.692551,157.969879 236.851639,161.375015 238.580688,164.822937 
	C231.543350,164.580353 225.823654,167.039566 221.840927,172.012009 
	C216.790237,178.317825 211.712601,184.861481 208.171799,192.053467 
	C203.431168,201.682434 200.152802,212.031281 196.246536,222.071014 
z"/>
<path fill="#5CCA96" opacity="1.000000" stroke="none" 
	d="
M190.809326,496.454834 
	C191.826035,494.584167 193.682236,493.159241 193.841019,491.565216 
	C194.276230,487.196045 193.879456,482.750854 194.062241,478.346161 
	C194.131760,476.671021 194.883942,475.024170 195.849579,473.512177 
	C202.121292,486.816193 207.462357,500.171234 213.767960,513.054138 
	C217.543808,520.768555 223.953827,526.525452 232.153168,530.446045 
	C233.140015,534.121033 234.308243,537.564697 228.723419,537.674988 
	C228.141693,537.686401 227.587173,539.076843 227.020050,539.827515 
	C218.878647,537.346436 212.380829,532.236694 207.801163,525.432922 
	C201.624283,516.256287 196.468414,506.392395 190.809326,496.454834 
z"/>
<path fill="#8FD9B6" opacity="1.000000" stroke="none" 
	d="
M375.467194,327.478027 
	C374.556458,322.568726 373.951233,317.467255 373.177368,311.829834 
	C375.594482,308.070557 378.317963,304.946960 380.740356,301.605072 
	C388.128021,291.413177 395.175995,281.029816 397.135559,268.048645 
	C397.589539,267.990997 397.771301,267.969330 398.363892,267.973846 
	C405.149811,267.474487 405.925598,266.682312 405.981293,260.529968 
	C406.020294,256.219299 406.023895,251.908310 406.043304,247.597458 
	C410.061676,250.414124 411.173126,254.376389 410.322479,258.973938 
	C409.398529,263.967773 408.324280,268.934540 407.271118,273.903656 
	C403.534912,291.531921 393.581604,305.780487 382.473785,319.390411 
	C380.291534,322.064178 378.008972,324.656097 375.467194,327.478027 
z"/>
<path fill="#43BF8E" opacity="1.000000" stroke="none" 
	d="
M99.028778,381.194061 
	C98.433823,378.336731 97.838867,375.479370 97.083496,372.258057 
	C104.095901,365.093414 111.268707,358.292725 119.252174,350.723450 
	C113.881531,345.718262 109.546288,341.678009 105.350517,337.108734 
	C105.993172,334.395294 106.628448,332.231293 106.969490,330.021851 
	C107.520691,326.450867 107.878365,322.850006 108.597763,319.478943 
	C115.638527,326.084076 122.399292,332.472015 128.928009,339.179932 
	C128.158600,342.883423 127.464249,346.251617 127.133469,349.655182 
	C126.867867,352.388031 127.042892,355.163757 126.724915,357.789368 
	C124.341347,355.510193 122.717125,356.523254 121.021294,358.302246 
	C113.720375,365.961365 106.364586,373.568207 99.028778,381.194061 
z"/>
<path fill="#7BD2A7" opacity="1.000000" stroke="none" 
	d="
M304.215027,454.479553 
	C304.222412,449.267029 304.523682,444.266174 305.357727,438.964020 
	C319.298706,441.896484 332.706970,445.130310 346.094025,448.866028 
	C346.051971,453.773438 346.031128,458.178955 346.010284,462.584442 
	C332.176483,459.953369 318.342682,457.322296 304.215027,454.479553 
z"/>
<path fill="#66CD9B" opacity="1.000000" stroke="none" 
	d="
M227.399750,540.002991 
	C227.587173,539.076843 228.141693,537.686401 228.723419,537.674988 
	C234.308243,537.564697 233.140015,534.121033 232.605896,530.423218 
	C243.510574,531.675293 250.775024,525.979248 256.563263,518.362427 
	C261.443207,511.940918 265.329651,504.764404 269.655884,497.922089 
	C270.515930,502.281097 271.375977,506.640106 272.304321,511.523438 
	C268.120300,521.649597 261.587219,529.462524 253.260788,535.724304 
	C245.596741,541.487976 236.912582,542.345215 227.399750,540.002991 
z"/>
<path fill="#66CD9B" opacity="1.000000" stroke="none" 
	d="
M239.010727,164.780136 
	C236.851639,161.375015 234.692551,157.969879 232.293076,154.344177 
	C246.156113,152.721741 256.163544,159.814056 264.290344,170.176910 
	C267.745361,174.582550 270.301697,179.692963 273.371887,184.772003 
	C272.984283,187.592560 272.530914,190.132782 271.984344,192.652817 
	C271.620972,194.328278 271.124420,195.974884 270.128906,197.557281 
	C266.209656,191.776978 263.141632,185.873962 259.416718,180.419525 
	C254.383682,173.049591 248.174255,166.906525 239.010727,164.780136 
z"/>
<path fill="#4FC48F" opacity="1.000000" stroke="none" 
	d="
M160.994110,441.966187 
	C161.329239,445.985443 161.664352,450.004669 161.999329,454.469849 
	C149.948074,457.218658 137.897003,459.521576 125.390526,461.418152 
	C124.623932,457.342224 124.312729,453.672638 124.387543,449.894897 
	C136.847076,447.179901 148.920593,444.573059 160.994110,441.966187 
z"/>
<path fill="#8BD8B3" opacity="1.000000" stroke="none" 
	d="
M350.005127,235.052353 
	C360.509003,235.348404 371.148010,234.741104 381.465302,236.284561 
	C387.505524,237.188171 393.032593,241.521866 398.905762,244.619659 
	C399.020996,244.926758 398.967316,244.991531 398.598083,245.041138 
	C395.217346,246.705856 392.205811,248.320969 388.925110,249.702026 
	C384.494141,247.941467 380.431366,245.565979 376.149811,245.066910 
	C367.500580,244.058716 358.732574,244.069565 350.012390,243.233368 
	C350.009186,240.221832 350.007172,237.637085 350.005127,235.052353 
z"/>
<path fill="#88D7B0" opacity="1.000000" stroke="none" 
	d="
M346.467957,462.694458 
	C346.031128,458.178955 346.051971,453.773438 346.551636,448.912506 
	C356.689362,448.659393 366.348267,448.861725 376.007172,449.064026 
	C376.645416,452.916412 377.283661,456.768738 378.003571,461.058289 
	C367.698700,461.931824 357.312164,462.368134 346.467957,462.694458 
z"/>
<path fill="#47C18F" opacity="1.000000" stroke="none" 
	d="
M99.994576,244.598602 
	C100.002930,241.423615 100.011292,238.248611 100.029236,234.614868 
	C113.982109,233.232605 127.778114,234.138687 141.695648,237.693237 
	C141.969330,240.451965 141.925156,243.001343 141.418182,245.949188 
	C138.666046,246.040039 136.382965,245.529846 134.086304,245.458984 
	C122.724365,245.108429 111.358833,244.873993 99.994576,244.598602 
z"/>
<path fill="#7BD2A7" opacity="1.000000" stroke="none" 
	d="
M349.574371,235.010956 
	C350.007172,237.637085 350.009186,240.221832 349.580109,243.330658 
	C347.020050,244.078949 344.859558,244.142517 342.767395,244.553726 
	C330.504761,246.963959 318.258087,249.455429 306.006042,251.919495 
	C305.981934,249.796600 305.957825,247.673721 305.912109,245.086105 
	C320.308228,241.404099 334.725891,238.186829 349.574371,235.010956 
z"/>
<path fill="#40BE8E" opacity="1.000000" stroke="none" 
	d="
M124.001526,450.003052 
	C124.312729,453.672638 124.623932,457.342224 124.979736,461.410339 
	C115.319695,461.521851 105.615051,461.234802 95.493454,460.885071 
	C95.339783,457.416382 95.603065,454.010345 96.392822,450.237732 
	C105.946709,449.915070 114.974121,449.959045 124.001526,450.003052 
z"/>
<path fill="#3ABC8D" opacity="1.000000" stroke="none" 
	d="
M108.317780,319.261780 
	C107.878365,322.850006 107.520691,326.450867 106.969490,330.021851 
	C106.628448,332.231293 105.993172,334.395294 105.173508,336.823212 
	C100.236900,331.972626 95.616768,326.878571 90.853416,321.476624 
	C91.473045,317.970184 92.457008,314.803894 92.930504,311.563019 
	C93.327171,308.848083 93.127716,306.046021 93.454712,303.078674 
	C98.584068,308.337128 103.450920,313.799469 108.317780,319.261780 
z"/>
<path fill="#6FCFA1" opacity="1.000000" stroke="none" 
	d="
M405.825104,247.348999 
	C406.023895,251.908310 406.020294,256.219299 405.981293,260.529968 
	C405.925598,266.682312 405.149811,267.474487 398.375488,267.510864 
	C398.306580,259.678314 398.636932,252.334915 398.967316,244.991531 
	C398.967316,244.991531 399.020996,244.926758 399.062439,244.919922 
	C401.271576,245.642242 403.439240,246.371399 405.825104,247.348999 
z"/>
<path fill="#0583CD" opacity="1.000000" stroke="none" 
	d="
M927.678467,246.183716 
	C920.062805,246.802139 912.824768,247.262253 905.174805,247.748535 
	C905.174805,239.015381 905.174805,230.997223 905.174805,222.503159 
	C910.958862,222.503159 916.584595,222.339615 922.196716,222.546097 
	C928.668457,222.784195 933.170532,226.187561 934.591919,231.471191 
	C936.211060,237.490265 934.044800,242.314270 927.678467,246.183716 
z"/>
<path fill="#0785CD" opacity="1.000000" stroke="none" 
	d="
M821.031860,240.953186 
	C823.796448,246.615814 826.405090,251.935349 829.238586,257.713257 
	C822.998657,257.713257 817.302002,257.713257 810.882996,257.713257 
	C813.738708,251.839539 816.503296,246.124954 819.346680,240.449844 
	C819.427551,240.288376 820.347290,240.547226 821.031860,240.953186 
z"/>
<path fill="#0785CD" opacity="1.000000" stroke="none" 
	d="
M519.906128,257.899536 
	C522.055115,251.821289 524.611511,245.825455 527.786865,238.377930 
	C531.322815,245.615082 534.211121,251.526535 537.365112,257.981934 
	C531.171082,257.981934 525.742310,257.981934 519.906128,257.899536 
z"/>
<path fill="#0181CC" opacity="1.000000" stroke="none" 
	d="
M260.683319,292.203308 
	C270.850311,298.494965 280.991974,304.828247 291.201843,311.049500 
	C293.808624,312.637909 295.316925,314.454803 295.324432,317.764343 
	C295.365875,336.055206 295.709167,354.346252 295.604248,372.635284 
	C295.592834,374.630005 293.834320,377.272034 292.097626,378.483124 
	C285.420898,383.139404 278.423218,387.335449 270.944489,392.007172 
	C261.099030,397.434326 251.787018,402.441376 242.644760,407.741241 
	C239.286240,409.688171 236.276337,410.075317 232.793610,407.660522 
	C220.800400,400.893890 209.044418,394.371674 197.288452,387.849457 
	C193.139130,385.110229 188.893661,382.501526 184.895996,379.556427 
	C183.608215,378.607697 182.170090,376.778931 182.159943,375.343140 
	C182.013184,354.611176 182.040985,333.876953 182.252457,313.145599 
	C182.267105,311.709412 183.766342,309.870819 185.084427,308.942047 
	C189.421371,305.886047 193.992783,303.162811 199.063232,299.988556 
	C210.744125,293.605560 221.768326,287.414856 232.995834,281.617889 
	C234.816223,280.678009 237.876343,280.744781 239.783386,281.615936 
	C246.881058,284.858276 253.736771,288.630188 260.683319,292.203308 
M251.650055,367.839508 
	C265.250916,356.692657 265.467438,338.761871 251.736023,327.322632 
	C248.162231,325.860931 244.588440,324.399200 240.342499,322.517029 
	C236.897934,322.741486 233.453369,322.965912 229.295486,323.201691 
	C225.785461,325.365875 222.275421,327.530090 218.181458,330.036072 
	C208.287094,340.978699 208.630341,356.154175 219.351883,366.572571 
	C222.591873,368.322021 225.831879,370.071442 229.849213,372.060913 
	C233.591736,372.146698 237.334244,372.232452 241.852081,372.240967 
	C244.909683,370.861450 247.967270,369.481934 251.650055,367.839508 
z"/>
<path fill="#0181CC" opacity="1.000000" stroke="none" 
	d="
M238.580688,164.822937 
	C248.174255,166.906525 254.383682,173.049591 259.416718,180.419525 
	C263.141632,185.873962 266.209656,191.776978 269.793549,197.737259 
	C275.168671,213.873367 280.287384,229.763260 285.496979,245.623306 
	C286.718231,249.341263 285.737030,251.298370 281.890228,252.662247 
	C275.041565,255.090439 268.398254,258.097900 261.002838,261.104919 
	C253.852158,264.301361 247.278671,267.079407 240.921295,270.285950 
	C237.803009,271.858734 235.298981,271.843292 232.102692,270.362671 
	C220.830490,265.141083 209.388611,260.285767 198.011108,255.291534 
	C189.426895,251.520935 189.377762,251.509583 191.456924,242.505753 
	C192.829010,236.563965 194.367447,230.660568 195.908478,224.114853 
	C195.985565,223.489716 195.980438,223.002533 195.980438,223.002533 
	C195.980438,223.002533 196.155762,222.548828 196.201157,222.309921 
	C200.152802,212.031281 203.431168,201.682434 208.171799,192.053467 
	C211.712601,184.861481 216.790237,178.317825 221.840927,172.012009 
	C225.823654,167.039566 231.543350,164.580353 238.580688,164.822937 
z"/>
<path fill="#0081CC" opacity="1.000000" stroke="none" 
	d="
M108.597763,319.478943 
	C103.450920,313.799469 98.584068,308.337128 93.511414,302.568146 
	C89.394150,295.906403 85.067078,289.761414 81.713058,283.124634 
	C79.361458,278.471375 77.890869,273.240112 76.822929,268.101501 
	C75.145012,260.027832 78.433525,253.040787 85.735245,249.394150 
	C89.974716,247.276855 94.781609,246.295731 99.663872,244.700974 
	C111.358833,244.873993 122.724365,245.108429 134.086304,245.458984 
	C136.382965,245.529846 138.666046,246.040039 141.382126,246.428772 
	C152.421402,249.070862 163.033951,251.631836 173.649368,254.193497 
	C171.864624,266.777130 170.100708,278.583008 168.550964,290.416931 
	C167.818100,296.013123 167.102188,301.664032 167.116913,307.288208 
	C167.127747,311.430573 165.969818,314.347321 161.807068,316.651794 
	C152.474945,323.556030 143.729355,330.140381 134.849640,336.538574 
	C133.234238,337.702515 131.070618,338.105621 129.160065,338.859955 
	C122.399292,332.472015 115.638527,326.084076 108.597763,319.478943 
z"/>
<path fill="#0081CC" opacity="1.000000" stroke="none" 
	d="
M124.387543,449.894897 
	C114.974121,449.959045 105.946709,449.915070 96.469025,449.849457 
	C93.185326,448.880676 90.299339,448.065613 87.528076,446.962372 
	C78.178955,443.240601 73.974457,435.383057 75.608047,425.393036 
	C78.121292,410.023529 86.674316,397.772858 95.763695,385.773254 
	C96.767242,384.448364 97.759438,383.114868 98.892838,381.489716 
	C106.364586,373.568207 113.720375,365.961365 121.021294,358.302246 
	C122.717125,356.523254 124.341347,355.510193 126.934639,358.049835 
	C138.570953,366.996765 149.700073,375.552155 160.829208,384.107513 
	C166.342438,387.007629 167.430832,392.094452 168.032455,397.725830 
	C169.215179,408.796387 170.643463,419.846130 172.244003,430.864685 
	C173.254379,437.820526 173.476807,437.787994 166.813934,439.895264 
	C165.072037,440.446167 163.330597,440.998474 161.291519,441.758179 
	C148.920593,444.573059 136.847076,447.179901 124.387543,449.894897 
z"/>
<path fill="#0181CC" opacity="1.000000" stroke="none" 
	d="
M269.762024,497.561401 
	C265.329651,504.764404 261.443207,511.940918 256.563263,518.362427 
	C250.775024,525.979248 243.510574,531.675293 232.455032,530.082520 
	C223.953827,526.525452 217.543808,520.768555 213.767960,513.054138 
	C207.462357,500.171234 202.121292,486.816193 196.190750,473.329773 
	C196.021713,472.829865 196.036118,472.660065 196.011322,471.998779 
	C195.972092,471.507263 195.878372,471.035309 195.878372,471.035309 
	C193.995483,463.027374 192.112595,455.019440 190.186966,446.829712 
	C192.275040,445.924225 193.910919,445.214813 196.187103,444.244263 
	C208.919937,438.838715 221.012482,433.694366 233.464355,428.461182 
	C235.673172,428.965088 237.574844,429.431610 239.363525,430.171387 
	C249.881073,434.521179 260.372284,438.934662 270.872345,443.326691 
	C274.267426,444.642365 277.595093,446.187286 281.075989,447.211151 
	C284.782684,448.301514 285.765808,450.340179 284.557800,453.878021 
	C279.630615,468.308441 274.759766,482.758118 269.762024,497.561401 
z"/>
<path fill="#5DCA96" opacity="1.000000" stroke="none" 
	d="
M233.105026,428.550018 
	C221.012482,433.694366 208.919937,438.838715 196.456055,444.022614 
	C195.724091,439.698151 195.363480,435.334106 195.302917,430.319031 
	C202.825256,426.471771 210.047546,423.275574 217.843826,419.825348 
	C209.175964,414.715149 201.229111,410.030029 193.282257,405.344940 
	C193.854843,402.403473 194.434998,399.463409 194.997849,396.520081 
	C195.526138,393.757355 196.036194,390.991119 196.921371,388.037964 
	C209.044418,394.371674 220.800400,400.893890 232.821228,408.086884 
	C233.092392,415.355103 233.098709,421.952576 233.105026,428.550018 
z"/>
<path fill="#4FC48F" opacity="1.000000" stroke="none" 
	d="
M161.066742,383.755737 
	C149.700073,375.552155 138.570953,366.996765 127.232101,358.180908 
	C127.042892,355.163757 126.867867,352.388031 127.133469,349.655182 
	C127.464249,346.251617 128.158600,342.883423 128.928009,339.179932 
	C131.070618,338.105621 133.234238,337.702515 134.849640,336.538574 
	C143.729355,330.140381 152.474945,323.556030 161.592163,316.918457 
	C162.210327,318.730072 162.502899,320.658752 162.745331,323.221619 
	C154.097595,330.522675 145.500000,337.189636 136.053528,344.514832 
	C146.025787,352.123291 155.077255,359.029236 164.128723,365.935211 
	C163.420441,367.837585 162.336700,369.691467 162.083282,371.652618 
	C161.581161,375.538422 161.537460,379.483459 161.066742,383.755737 
z"/>
<path fill="#0282CB" opacity="1.000000" stroke="none" 
	d="
M196.444748,294.672394 
	C192.291550,296.944397 188.138336,299.216400 182.698120,302.192474 
	C184.505768,287.467407 186.175858,273.862854 187.943069,259.467102 
	C191.770065,260.748230 194.540955,261.675812 197.990433,262.852081 
	C208.358490,267.189209 218.047958,271.277649 228.659531,275.755188 
	C217.153702,282.511658 206.799225,288.592010 196.444748,294.672394 
z"/>
<path fill="#5FCA99" opacity="1.000000" stroke="none" 
	d="
M196.736237,294.927063 
	C206.799225,288.592010 217.153702,282.511658 228.659531,275.755188 
	C218.047958,271.277649 208.358490,267.189209 198.341003,262.930145 
	C198.011383,260.545074 198.009781,258.330597 198.009644,255.703842 
	C209.388611,260.285767 220.830490,265.141083 232.102692,270.362671 
	C235.298981,271.843292 237.803009,271.858734 240.921295,270.285950 
	C247.278671,267.079407 253.852158,264.301361 260.684448,261.278687 
	C261.594666,262.982513 262.157043,264.754425 262.684937,267.050659 
	C256.825348,270.243347 251.000275,272.911743 244.318939,275.972351 
	C251.206512,279.996887 257.157440,283.474152 263.108368,286.951385 
	C262.459595,288.511719 261.810852,290.072052 260.922729,291.917847 
	C253.736771,288.630188 246.881058,284.858276 239.783386,281.615936 
	C237.876343,280.744781 234.816223,280.678009 232.995834,281.617889 
	C221.768326,287.414856 210.744125,293.605560 199.329117,299.768097 
	C198.346512,298.307800 197.687119,296.744781 196.736237,294.927063 
z"/>
<path fill="#0282CB" opacity="1.000000" stroke="none" 
	d="
M164.496063,365.823303 
	C155.077255,359.029236 146.025787,352.123291 136.053528,344.514832 
	C145.500000,337.189636 154.097595,330.522675 162.894714,323.609528 
	C165.273270,322.274597 166.074875,323.018097 165.974518,325.361755 
	C165.846985,328.339752 165.870071,331.325012 165.863647,334.307190 
	C165.844742,343.074188 165.893967,351.841797 165.791428,360.607697 
	C165.771469,362.312317 165.187317,364.010345 164.496063,365.823303 
z"/>
<path fill="#0282CB" opacity="1.000000" stroke="none" 
	d="
M192.989441,405.229797 
	C201.229111,410.030029 209.175964,414.715149 217.843826,419.825348 
	C210.047546,423.275574 202.825256,426.471771 195.304047,429.859131 
	C193.596863,430.498993 192.167267,431.349854 190.786743,431.276581 
	C189.554062,431.211090 187.436356,430.266083 187.316437,429.467773 
	C185.905426,420.075317 184.797394,410.637329 183.449417,399.940887 
	C187.358887,402.128235 190.027771,403.621429 192.989441,405.229797 
z"/>
<path fill="#5CCA96" opacity="1.000000" stroke="none" 
	d="
M195.895294,223.108002 
	C195.980438,223.002533 195.985565,223.489716 195.934631,223.727905 
	C195.708420,223.724976 195.683914,223.474091 195.895294,223.108002 
z"/>
<path fill="#5CCA96" opacity="1.000000" stroke="none" 
	d="
M195.813171,471.151398 
	C195.878372,471.035309 195.972092,471.507263 195.963806,471.747681 
	C195.747086,471.782349 195.677887,471.542145 195.813171,471.151398 
z"/>
<path fill="#0181CC" opacity="1.000000" stroke="none" 
	d="
M305.693237,252.122467 
	C318.258087,249.455429 330.504761,246.963959 342.767395,244.553726 
	C344.859558,244.142517 347.020050,244.078949 349.581268,243.757446 
	C358.732574,244.069565 367.500580,244.058716 376.149811,245.066910 
	C380.431366,245.565979 384.494141,247.941467 388.831116,250.110443 
	C386.164581,260.079010 388.588898,265.426697 396.863373,268.084656 
	C395.175995,281.029816 388.128021,291.413177 380.740356,301.605072 
	C378.317963,304.946960 375.594482,308.070557 372.844727,311.598999 
	C363.610992,320.816284 354.541199,329.728577 344.951569,339.030670 
	C342.729187,338.784729 340.791443,338.479279 339.361298,337.460968 
	C327.883850,329.288940 316.502167,320.982422 305.091217,312.717010 
	C301.998016,310.767975 301.278748,307.965729 300.965179,304.358215 
	C299.786133,290.793823 298.272156,277.251221 296.534149,263.745453 
	C295.469940,255.475723 295.184570,255.514648 303.033569,253.118317 
	C303.822968,252.877319 304.598480,252.590836 305.693237,252.122467 
z"/>
<path fill="#0181CC" opacity="1.000000" stroke="none" 
	d="
M376.348755,448.909149 
	C366.348267,448.861725 356.689362,448.659393 346.572815,448.410583 
	C332.706970,445.130310 319.298706,441.896484 305.507202,438.536560 
	C295.750916,434.964539 296.010223,435.001892 297.463318,424.911987 
	C298.931641,414.716370 299.642456,404.412048 301.086090,394.212158 
	C301.407135,391.943848 303.405334,389.912903 305.178253,387.376648 
	C319.488708,376.351898 333.252228,365.723236 347.015778,355.094574 
	C352.226044,359.890503 357.624420,364.500977 362.590363,369.537781 
	C367.012512,374.023010 370.955872,378.980225 375.369598,383.914062 
	C379.769226,390.301025 384.434937,396.225555 387.900513,402.784241 
	C391.268738,409.158691 394.229401,415.985504 395.907410,422.965057 
	C399.071808,436.127289 393.613892,444.284302 380.547607,447.816589 
	C379.270660,448.161804 377.976501,448.443237 376.348755,448.909149 
z"/>
<path fill="#0282CB" opacity="1.000000" stroke="none" 
	d="
M263.442932,287.030640 
	C257.157440,283.474152 251.206512,279.996887 244.318939,275.972351 
	C251.000275,272.911743 256.825348,270.243347 262.901978,267.323334 
	C271.207520,264.094452 279.261505,261.117218 288.519165,257.695007 
	C290.654510,273.392151 292.693237,288.379028 294.731964,303.365906 
	C294.200165,303.640686 293.668396,303.915466 293.136597,304.190247 
	C283.350250,298.496796 273.563873,292.803345 263.442932,287.030640 
z"/>
<path fill="#66CD9B" opacity="1.000000" stroke="none" 
	d="
M233.464355,428.461182 
	C233.098709,421.952576 233.092392,415.355103 233.058441,408.331299 
	C236.276337,410.075317 239.286240,409.688171 242.644760,407.741241 
	C251.787018,402.441376 261.099030,397.434326 270.673981,392.220886 
	C271.003143,397.375885 271.002075,402.621246 270.722534,408.537903 
	C265.616302,411.980133 260.788483,414.751129 255.053894,418.042603 
	C261.035889,420.964355 266.036102,423.406586 271.036316,425.848816 
	C271.000427,431.346039 270.964569,436.843201 270.900513,442.833557 
	C260.372284,438.934662 249.881073,434.521179 239.363525,430.171387 
	C237.574844,429.431610 235.673172,428.965088 233.464355,428.461182 
z"/>
<path fill="#7BD2A7" opacity="1.000000" stroke="none" 
	d="
M346.929810,354.681824 
	C333.252228,365.723236 319.488708,376.351898 305.399109,387.106598 
	C304.500610,382.174591 303.928223,377.116547 303.468994,371.505920 
	C314.752472,362.699127 325.922821,354.444946 338.019470,345.506317 
	C325.962769,336.279358 314.911743,327.822021 303.860718,319.364716 
	C304.238800,317.430634 304.616852,315.496552 305.043060,313.139740 
	C316.502167,320.982422 327.883850,329.288940 339.361298,337.460968 
	C340.791443,338.479279 342.729187,338.784729 344.748962,339.298401 
	C345.658752,344.207245 346.251312,349.238159 346.929810,354.681824 
z"/>
<path fill="#0283CB" opacity="1.000000" stroke="none" 
	d="
M303.480774,319.395050 
	C314.911743,327.822021 325.962769,336.279358 338.019470,345.506317 
	C325.922821,354.444946 314.752472,362.699127 303.292969,371.158386 
	C302.753082,369.602203 302.295959,367.842316 302.284424,366.079498 
	C302.193756,352.197205 302.156036,338.314209 302.198608,324.431732 
	C302.203735,322.762054 302.786072,321.094116 303.480774,319.395050 
z"/>
<path fill="#0283CB" opacity="1.000000" stroke="none" 
	d="
M271.405090,425.913452 
	C266.036102,423.406586 261.035889,420.964355 255.053894,418.042603 
	C260.788483,414.751129 265.616302,411.980133 270.721863,408.991150 
	C278.403320,404.406891 285.807007,400.040649 294.392853,394.977264 
	C292.634827,407.921753 291.025970,419.767944 289.278687,432.633392 
	C282.778351,430.161987 277.276093,428.070007 271.405090,425.913452 
z"/>
<path fill="#4FC48F" opacity="1.000000" stroke="none" 
	d="
M397.135559,268.048645 
	C388.588898,265.426697 386.164581,260.079010 389.100311,250.344467 
	C392.205811,248.320969 395.217346,246.705856 398.598083,245.041138 
	C398.636932,252.334915 398.306580,259.678314 397.964661,267.484680 
	C397.771301,267.969330 397.589539,267.990997 397.135559,268.048645 
z"/>
<path fill="#63CC98" opacity="1.000000" stroke="none" 
	d="
M230.008804,323.190369 
	C233.453369,322.965912 236.897934,322.741486 240.675003,323.200470 
	C241.030594,340.028687 241.053680,356.173462 241.076767,372.318237 
	C237.334244,372.232452 233.591736,372.146698 229.611603,371.568481 
	C229.582626,368.936005 229.963120,366.796692 229.972031,364.655823 
	C230.029510,350.834198 230.005844,337.012238 230.008804,323.190369 
z"/>
<path fill="#53C690" opacity="1.000000" stroke="none" 
	d="
M229.652145,323.196045 
	C230.005844,337.012238 230.029510,350.834198 229.972031,364.655823 
	C229.963120,366.796692 229.582626,368.936005 229.222931,371.448456 
	C225.831879,370.071442 222.591873,368.322021 219.264069,365.878967 
	C219.448975,356.103333 219.833481,347.022491 219.926666,337.938629 
	C219.954819,335.194763 219.175079,332.442627 218.765396,329.694275 
	C222.275421,327.530090 225.785461,325.365875 229.652145,323.196045 
z"/>
<path fill="#76D1A3" opacity="1.000000" stroke="none" 
	d="
M241.464417,372.279602 
	C241.053680,356.173462 241.030594,340.028687 241.011078,323.410706 
	C244.588440,324.399200 248.162231,325.860931 251.625916,327.857544 
	C251.060226,329.249573 250.196548,330.113312 250.210449,330.962708 
	C250.413025,343.343750 250.732941,355.722839 251.024857,368.102417 
	C247.967270,369.481934 244.909683,370.861450 241.464417,372.279602 
z"/>
<path fill="#8BD8B3" opacity="1.000000" stroke="none" 
	d="
M251.337463,367.970947 
	C250.732941,355.722839 250.413025,343.343750 250.210449,330.962708 
	C250.196548,330.113312 251.060226,329.249573 251.824188,328.138855 
	C265.467438,338.761871 265.250916,356.692657 251.337463,367.970947 
z"/>
<path fill="#3ABC8D" opacity="1.000000" stroke="none" 
	d="
M218.473419,329.865173 
	C219.175079,332.442627 219.954819,335.194763 219.926666,337.938629 
	C219.833481,347.022491 219.448975,356.103333 219.085571,365.593201 
	C208.630341,356.154175 208.287094,340.978699 218.473419,329.865173 
z"/>
</svg>