<svg version="1.1" id="Layer_1" xmlns="http://www.w3.org/2000/svg" xmlns:xlink="http://www.w3.org/1999/xlink" x="0px" y="0px"
	 width="100%" viewBox="0 0 1200 628" enable-background="new 0 0 1200 628" xml:space="preserve">
<path fill="#FFFFFF" opacity="1.000000" stroke="none" 
	d="
M1116.000000,629.000000 
	C744.000000,629.000000 372.500031,629.000000 1.000050,629.000000 
	C1.000033,419.666687 1.000033,210.333405 1.000017,1.000078 
	C400.999969,1.000052 800.999939,1.000052 1201.000000,1.000026 
	C1201.000000,210.333267 1201.000000,419.666534 1201.000000,628.999878 
	C1172.833374,629.000000 1144.666626,629.000000 1116.000000,629.000000 
M313.059509,263.983063 
	C305.406494,258.221741 296.868469,258.345673 287.247803,260.161804 
	C279.127625,261.967773 271.007446,263.773773 262.547089,265.655396 
	C261.951630,262.890381 261.541412,260.125702 260.752289,257.473816 
	C257.747040,247.374908 255.513519,236.919464 247.934967,228.098511 
	C238.703171,217.129837 227.848785,217.276947 219.484375,228.931168 
	C216.134583,233.598450 213.383972,238.835541 211.185745,244.154312 
	C208.420471,250.845123 206.501038,257.885498 204.275223,264.598267 
	C196.097580,263.055481 188.049835,261.537201 179.086868,259.822601 
	C175.774261,259.873901 172.434052,260.226105 169.153763,259.925140 
	C153.675705,258.505188 145.546158,270.580139 152.207123,285.580750 
	C156.500412,295.249268 162.956406,303.430511 170.991364,311.131958 
	C172.925827,312.593567 174.860275,314.055176 176.812317,315.530060 
	C174.512390,318.127167 173.130707,319.687378 171.141266,321.610077 
	C169.831039,322.883331 168.277283,323.986816 167.251465,325.458313 
	C161.973465,333.029480 155.736282,340.189789 151.920151,348.456543 
	C147.217026,358.644745 151.876343,367.136505 162.747559,369.817596 
	C168.224274,371.168243 174.202377,370.485901 180.818069,370.881866 
	C188.765045,369.463470 196.712021,368.045044 204.925583,366.579041 
	C205.746109,369.573730 206.449921,372.648315 207.430496,375.631989 
	C211.276871,387.335480 214.962708,399.155792 226.072418,407.335236 
	C233.026657,411.376526 237.761597,410.938446 243.578125,405.934937 
	C248.946289,401.317108 252.881073,395.784485 255.530121,388.543884 
	C257.924530,381.198822 260.318970,373.853790 262.689972,366.580505 
	C268.073029,367.654175 273.558563,368.748322 279.664734,370.365784 
	C287.429565,370.504669 295.194427,370.643585 303.733521,370.886536 
	C313.442780,369.316956 319.752045,362.689667 318.755676,354.426483 
	C317.564148,344.545074 312.506134,336.568512 305.056152,329.222778 
	C301.636505,325.906616 298.306274,322.491089 294.767944,319.306793 
	C292.103699,316.909119 292.511780,315.230560 294.994904,312.868073 
	C298.437408,309.592804 301.407837,305.821381 305.141449,302.011749 
	C313.710693,293.482147 318.234436,282.979767 319.668457,271.154816 
	C319.862274,269.556427 317.954681,267.703217 316.570679,265.472168 
	C315.502563,265.181213 314.434448,264.890259 313.059509,263.983063 
M979.748169,312.859375 
	C980.294006,313.517822 981.301392,314.167450 981.314148,314.836029 
	C981.437683,321.327423 981.490234,327.823853 981.366272,334.315094 
	C981.278320,338.919708 983.283569,340.950897 987.922546,341.018036 
	C992.828003,341.089020 994.286438,338.565796 994.261536,334.166931 
	C994.187073,321.013519 994.286072,307.859070 994.206482,294.705688 
	C994.175171,289.527588 992.158081,287.532776 987.112061,288.398895 
	C984.774109,288.800232 982.179077,290.399933 980.635620,292.240479 
	C975.527344,298.332123 970.844604,304.780609 965.702332,311.478088 
	C960.388855,304.510437 955.366394,297.935638 950.356995,291.350922 
	C947.731995,287.900360 943.912598,287.168732 940.600830,288.988037 
	C938.782043,289.987274 937.442871,293.428711 937.386047,295.804779 
	C937.079590,308.618317 937.191528,321.443359 937.268738,334.263794 
	C937.300110,339.472473 938.896729,340.935760 943.762268,340.970367 
	C948.057739,341.000946 950.185669,339.206207 950.079285,334.657379 
	C949.903870,327.151001 950.031738,319.637512 950.031738,312.127045 
	C954.053772,316.004456 956.934998,320.066711 960.011902,323.974945 
	C963.632263,328.573425 967.940674,328.566284 971.585144,323.935059 
	C974.258301,320.538300 976.683228,316.946259 979.748169,312.859375 
M441.767792,313.359619 
	C436.414459,306.138855 431.028656,298.941833 425.721954,291.686951 
	C423.183319,288.216370 419.771820,287.678009 415.951691,288.592316 
	C412.007050,289.536407 412.270599,292.841675 412.261658,295.827728 
	C412.223297,308.653473 412.292542,321.479614 412.224487,334.305115 
	C412.200623,338.799286 413.953003,341.184113 418.729736,341.030701 
	C423.657227,340.872437 424.984344,339.617493 425.019531,334.257416 
	C425.067047,327.017975 425.031342,319.777985 425.031342,311.391541 
	C426.805786,313.545471 427.861816,314.740112 428.822144,316.007294 
	C434.452911,323.437653 440.124664,330.838348 445.648315,338.347839 
	C448.105347,341.688171 451.540009,341.502655 454.658234,340.621338 
	C456.214142,340.181580 458.241852,337.723846 458.271301,336.145630 
	C458.538330,321.828918 458.456451,307.504578 458.371246,293.183075 
	C458.345367,288.832184 455.131592,288.227600 451.751740,288.248230 
	C448.390106,288.268707 445.851044,289.407745 445.848816,293.395752 
	C445.845520,299.225342 445.847290,305.055359 445.775543,310.884308 
	C445.754913,312.561005 445.488861,314.234680 445.250458,316.835754 
	C443.659454,315.366302 442.964264,314.724243 441.767792,313.359619 
M892.871094,339.734161 
	C894.945251,340.160095 897.013855,340.919403 899.094482,340.953674 
	C907.589905,341.093689 916.088928,341.021088 924.586670,341.009247 
	C931.156433,341.000092 932.804993,339.664551 932.720032,334.480774 
	C932.636841,329.403564 931.000977,328.161438 924.297241,328.146667 
	C917.689209,328.132111 911.081238,328.143494 904.386719,328.143494 
	C904.386719,325.484009 904.386719,323.424927 904.386719,321.009155 
	C909.146790,321.009155 913.618896,321.057495 918.089478,320.996399 
	C923.205078,320.926483 924.845947,319.299072 924.800110,314.528534 
	C924.754456,309.774536 923.148132,308.228485 917.939453,308.149506 
	C913.357239,308.079987 908.773010,308.134979 904.337769,308.134979 
	C904.337769,305.337585 904.337769,303.394470 904.337769,301.009125 
	C911.703125,301.009125 918.830017,301.053223 925.955994,300.994385 
	C931.140747,300.951599 932.743103,299.371826 932.723511,294.595245 
	C932.703918,289.807892 931.089905,288.183136 925.934204,288.143860 
	C916.937134,288.075317 907.938904,288.077271 898.941772,288.139984 
	C892.652710,288.183807 891.292908,289.511688 891.259949,295.801392 
	C891.193604,308.464294 891.201050,321.128082 891.289368,333.790710 
	C891.301758,335.569000 891.941711,337.342896 892.871094,339.734161 
M629.518982,328.142059 
	C626.102722,328.142059 622.686462,328.142059 619.301636,328.142059 
	C619.301636,325.406525 619.301636,323.462646 619.301636,321.007233 
	C624.116211,321.007233 628.740173,320.871582 633.352356,321.045868 
	C637.856018,321.216034 639.747803,319.022156 639.799988,314.769958 
	C639.859131,309.950226 638.232971,308.250031 633.186707,308.154633 
	C628.590210,308.067688 623.990723,308.136200 619.427734,308.136200 
	C619.427734,305.402130 619.427734,303.345978 619.427734,301.001343 
	C627.070251,301.001343 634.379578,300.902344 641.684509,301.038483 
	C646.063782,301.120117 647.643982,298.768829 647.706726,294.871033 
	C647.771606,290.842224 646.388550,288.082855 641.715881,288.112091 
	C632.057495,288.172577 622.398438,288.153351 612.739746,288.126556 
	C608.432861,288.114624 606.257507,290.169098 606.257874,294.498505 
	C606.259033,307.987396 606.245361,321.476257 606.258179,334.965149 
	C606.262085,339.034698 608.234070,341.054840 612.417725,341.026031 
	C622.242615,340.958496 632.068848,340.936676 641.893188,341.036407 
	C646.373169,341.081879 647.675964,338.479492 647.703613,334.678528 
	C647.731323,330.876831 646.402588,328.148834 641.999878,328.155029 
	C638.169678,328.160400 634.339539,328.147125 629.518982,328.142059 
M561.053162,329.419189 
	C561.056274,331.248322 561.109375,333.079041 561.052673,334.906311 
	C560.910339,339.491547 563.437622,341.005310 567.635742,340.984650 
	C571.965271,340.963318 574.140259,339.093079 573.960205,334.637482 
	C573.854980,332.032837 573.941101,329.420471 573.941101,326.879425 
	C584.904785,325.875458 584.905090,325.875305 588.804993,334.912903 
	C589.199524,335.827148 589.612610,336.734558 589.972107,337.662567 
	C591.567505,341.781921 594.482727,341.999054 598.061829,340.482605 
	C601.574768,338.994110 603.642578,336.851532 601.853577,332.778870 
	C600.585571,329.892334 598.999329,327.091827 598.179626,324.082825 
	C597.710144,322.359436 597.907471,319.947876 598.806519,318.445831 
	C602.722961,311.901978 603.293640,305.238831 599.880005,298.509277 
	C596.512085,291.869904 590.610474,288.646423 583.342590,288.202728 
	C578.206665,287.889221 573.034668,288.046082 567.882263,288.156158 
	C562.443787,288.272369 561.098206,289.639923 561.072388,295.019348 
	C561.018799,306.160309 561.054260,317.301727 561.053162,329.419189 
M368.479279,307.851257 
	C364.596191,315.923584 360.799469,324.039124 356.791656,332.049042 
	C354.933746,335.762177 355.583099,338.289124 359.305847,340.219940 
	C364.075714,342.693939 366.655304,342.252136 368.554932,336.839630 
	C370.635376,330.912018 374.109436,328.761810 380.042664,329.854828 
	C380.846497,330.002930 381.724060,330.001373 382.528656,329.855347 
	C389.277802,328.630402 393.865631,330.693909 395.921387,337.742615 
	C397.192963,342.102661 400.416168,342.549957 404.236176,340.590393 
	C407.892212,338.714966 409.420776,336.366608 407.348480,332.187164 
	C400.863861,319.108887 394.711609,305.864044 388.088806,292.857819 
	C387.058502,290.834503 384.175415,288.429626 382.265289,288.525085 
	C380.032745,288.636658 377.215149,290.852936 375.914124,292.942383 
	C373.123901,297.423370 371.144958,302.409546 368.479279,307.851257 
M518.577881,334.024292 
	C519.514465,329.154510 523.269226,329.984192 526.717224,329.837830 
	C534.665222,329.500549 542.561768,328.461792 545.263428,339.191315 
	C546.198181,342.903259 549.971802,342.009918 552.851929,340.465027 
	C555.645813,338.966400 558.157898,337.234558 556.345520,333.467010 
	C549.724060,319.702240 543.204285,305.885773 536.358276,292.233154 
	C533.579529,286.691711 527.493530,286.643860 524.711243,292.176178 
	C517.849609,305.819824 511.256256,319.603363 504.896149,333.486938 
	C504.240417,334.918304 505.251495,338.144104 506.570557,339.267181 
	C511.716553,343.648590 514.541382,342.393829 518.577881,334.024292 
M834.544922,296.320496 
	C833.555664,294.695831 832.896667,292.681732 831.519714,291.514252 
	C825.705688,286.584564 814.426941,285.832703 807.931030,289.820831 
	C802.696960,293.034332 799.934692,297.806152 800.202209,303.989990 
	C800.469360,310.163605 803.259216,314.855743 809.267395,317.087097 
	C812.684875,318.356323 816.237915,319.255432 819.690979,320.435425 
	C822.342468,321.341583 825.492798,322.002930 824.550903,326.017731 
	C823.831726,329.083496 819.770508,330.955750 816.391846,329.417175 
	C814.186157,328.412750 812.274414,326.668182 810.395691,325.062469 
	C807.601379,322.674042 804.988281,322.063568 802.056824,324.878845 
	C799.031921,327.783752 798.634094,330.532501 801.384766,333.975006 
	C807.667297,341.837708 819.527405,344.077118 829.033203,339.015533 
	C835.550415,335.545227 838.047668,329.872009 837.674683,322.858795 
	C837.303955,315.887665 834.051758,312.277374 826.531189,309.977997 
	C823.199402,308.959320 819.653992,308.516907 816.475098,307.174683 
	C814.999512,306.551666 812.955139,303.906403 813.304749,303.054871 
	C813.964783,301.447083 816.008850,299.975677 817.786072,299.400726 
	C819.107239,298.973328 821.088013,299.738068 822.476562,300.509125 
	C829.288208,304.291412 830.570190,303.966949 834.544922,296.320496 
M661.617249,288.934998 
	C655.133301,292.132202 651.806580,297.328156 652.232849,304.568268 
	C652.658264,311.795105 656.966248,316.013336 663.632385,318.087799 
	C666.326538,318.926208 669.082275,319.572693 671.758057,320.462616 
	C674.433655,321.352417 677.534546,322.084045 676.532349,326.084564 
	C675.767944,329.135620 671.716003,330.927063 668.327209,329.397339 
	C666.267151,328.467407 664.463684,326.857574 662.729919,325.341614 
	C659.872559,322.843048 657.194885,321.876648 654.004639,324.913696 
	C650.653198,328.104218 650.887573,331.010895 653.752563,334.397430 
	C660.167480,341.980103 671.753784,343.989502 681.078186,338.993317 
	C687.582703,335.508087 690.062256,329.822998 689.671875,322.814392 
	C689.284058,315.851898 686.034424,312.269867 678.493286,309.967712 
	C675.162048,308.950745 671.617981,308.505402 668.442627,307.158936 
	C666.974426,306.536346 664.948792,303.862671 665.305359,303.023285 
	C665.986694,301.418793 668.095886,299.655884 669.791626,299.452454 
	C671.655090,299.228912 673.878601,300.419098 675.665955,301.468903 
	C679.863892,303.934570 682.059753,303.513580 684.957825,299.629913 
	C687.810242,295.807373 686.355286,293.127747 682.915588,290.982330 
	C676.455139,286.952759 669.561340,286.247162 661.617249,288.934998 
M1022.551941,287.892334 
	C1019.094666,287.909943 1015.554382,287.454773 1012.197632,288.044556 
	C1005.414856,289.236298 1000.521179,294.844666 999.894714,301.324982 
	C999.144287,309.087463 1001.951721,314.177490 1009.064392,317.176514 
	C1012.407166,318.585968 1015.984985,319.440887 1019.462769,320.526459 
	C1022.331482,321.421936 1025.595581,322.878662 1023.714661,326.207031 
	C1022.630005,328.126312 1018.966675,329.494263 1016.497253,329.444916 
	C1014.435547,329.403717 1012.271790,327.113098 1010.421692,325.509094 
	C1007.415039,322.902344 1004.694824,321.776459 1001.340759,325.085815 
	C997.933594,328.447662 998.638489,331.358490 1001.422363,334.612854 
	C1008.903015,343.357880 1024.138062,344.226837 1032.414307,336.280548 
	C1040.939453,328.095306 1037.892456,313.842712 1026.751953,310.181641 
	C1023.608643,309.148651 1020.264221,308.737854 1017.094604,307.771149 
	C1014.488220,306.976135 1011.380310,305.494781 1013.032898,302.342957 
	C1013.894653,300.699341 1017.206909,300.083618 1019.536621,299.587372 
	C1020.530945,299.375610 1021.897217,300.569794 1023.000916,301.272095 
	C1027.382935,304.060425 1029.660034,303.544952 1032.591797,299.441345 
	C1035.439941,295.454956 1033.530518,292.868286 1030.196045,290.879181 
	C1028.095947,289.626434 1025.656006,288.943451 1022.551941,287.892334 
M749.953979,324.450562 
	C749.486938,315.845703 746.984863,312.501038 738.885925,310.013306 
	C735.558411,308.991211 731.979126,308.619934 728.841675,307.219421 
	C727.290710,306.527130 726.482361,304.171112 725.337952,302.567871 
	C727.024963,301.450439 728.740417,299.394043 730.391968,299.444214 
	C732.649109,299.512665 734.937439,301.037506 737.069031,302.200806 
	C740.693848,304.179108 742.979919,302.536621 745.109741,299.732544 
	C747.264771,296.895233 747.389709,294.503540 744.511230,291.958405 
	C738.448364,286.597778 725.826599,285.665222 719.229065,290.413727 
	C714.420654,293.874542 712.062561,298.632355 712.521423,304.609680 
	C712.982971,310.621490 715.837952,315.026062 721.627075,317.123077 
	C725.678406,318.590637 729.921631,319.563721 733.882141,321.226868 
	C735.225220,321.790924 736.789429,323.812073 736.755737,325.129150 
	C736.720032,326.527710 735.063293,328.849884 733.836792,329.047760 
	C731.441833,329.434143 728.707520,329.021393 726.392822,328.175568 
	C724.639404,327.534821 723.346069,325.675720 721.799988,324.417847 
	C719.151001,322.262695 716.674622,322.545410 714.284363,324.943207 
	C711.968140,327.266724 710.699768,329.563354 712.812805,332.834137 
	C717.022888,339.350830 726.264465,343.004120 734.786682,341.269287 
	C744.162842,339.360596 748.585815,334.698608 749.953979,324.450562 
M767.552734,321.116516 
	C767.636780,325.603210 767.881226,330.094269 767.760437,334.575439 
	C767.635498,339.213409 769.519592,341.165863 774.269592,341.165283 
	C779.121521,341.164734 781.266418,338.819763 780.639099,334.441345 
	C779.185059,324.293579 782.773132,316.013916 789.031372,308.388824 
	C791.552246,305.317413 793.569702,301.825531 795.740479,298.475891 
	C798.689880,293.924835 798.260620,291.806885 793.959595,289.042816 
	C789.916870,286.444763 787.943909,286.920593 785.033997,291.436737 
	C781.479980,296.952576 778.030823,302.535950 774.187256,308.644867 
	C770.275574,302.441986 766.808044,296.807312 763.199646,291.264313 
	C760.319031,286.839294 758.387634,286.469482 754.232300,289.220490 
	C750.133667,291.933960 749.699768,293.961395 752.547852,298.312714 
	C757.374084,305.686279 762.289062,313.001770 767.552734,321.116516 
M475.477325,298.742401 
	C477.241730,298.742401 479.006104,298.742401 481.189484,298.742401 
	C481.189484,310.972229 481.246765,322.574646 481.160095,334.175964 
	C481.127411,338.548096 482.505127,341.187653 487.427460,341.051666 
	C492.420197,340.913757 493.849365,339.693573 493.876892,334.428680 
	C493.938354,322.677368 493.896057,310.925537 493.896057,298.728973 
	C498.741425,298.728973 503.026184,298.722626 507.310913,298.730927 
	C510.862579,298.737823 512.960571,297.352081 512.918457,293.431549 
	C512.878113,289.665039 511.138336,288.026337 507.403229,288.042603 
	C494.104126,288.100433 480.804565,288.088013 467.505280,288.057892 
	C464.035278,288.050049 462.274963,289.605621 462.206543,293.134796 
	C462.135223,296.814331 463.751434,298.757141 467.529297,298.729156 
	C469.856445,298.711884 472.183960,298.736450 475.477325,298.742401 
M849.536804,288.068390 
	C847.037842,288.071533 844.538696,288.096222 842.039978,288.072632 
	C838.596985,288.040100 836.892822,289.480560 836.837219,293.161591 
	C836.779297,296.995667 838.395264,298.726013 842.126526,298.716736 
	C846.567261,298.705658 851.007996,298.714081 855.883850,298.714081 
	C855.883850,311.136139 855.842773,322.928284 855.902893,334.719879 
	C855.929016,339.847656 857.438293,341.056122 862.549377,341.036469 
	C866.927002,341.019653 868.328857,338.764191 868.299316,334.730530 
	C868.213013,322.935760 868.268616,311.139984 868.268616,298.721924 
	C872.832214,298.721924 876.954590,298.667725 881.074890,298.737610 
	C884.964233,298.803558 887.452820,297.729858 887.306091,293.101807 
	C887.165161,288.655548 884.593994,288.019836 881.011658,288.045197 
	C870.849731,288.117126 860.687073,288.069153 849.536804,288.068390 
z"/>
<path fill="#5DCB96" opacity="1.000000" stroke="none" 
	d="
M180.002090,260.018921 
	C188.049835,261.537201 196.097580,263.055481 204.275223,264.598267 
	C206.501038,257.885498 208.420471,250.845123 211.185745,244.154312 
	C213.383972,238.835541 216.134583,233.598450 219.484375,228.931168 
	C227.848785,217.276947 238.703171,217.129837 247.990967,228.778931 
	C247.363724,230.644058 246.680466,231.828766 245.730621,232.811249 
	C242.485718,228.949432 239.238419,224.554260 234.134689,225.980835 
	C230.361649,227.035461 226.386261,229.889923 224.047531,233.077271 
	C217.130859,242.503708 214.527557,253.824692 212.209641,265.069031 
	C211.930862,266.421295 213.690170,268.978027 215.154205,269.758728 
	C219.609756,272.134521 224.383331,273.913910 229.033661,276.387390 
	C229.126556,277.464020 229.218857,278.078735 228.890747,278.662262 
	C222.804443,276.461578 217.138535,274.292053 210.686829,271.821625 
	C209.808563,278.840485 209.006912,285.247192 208.069839,292.736084 
	C215.815384,288.417816 222.411713,284.776886 228.941559,281.020355 
	C229.394882,280.759552 229.353500,279.638794 229.968033,278.916504 
	C230.983475,278.396301 231.573074,277.877472 232.529419,277.498352 
	C233.922043,277.701691 234.947906,277.765320 235.981384,278.189819 
	C235.665176,279.678375 235.341339,280.806061 234.654144,281.989380 
	C227.156662,285.755646 220.003052,289.429443 212.896469,293.192047 
	C209.251083,295.122070 207.524185,297.986694 207.701767,302.387482 
	C208.008926,309.999939 207.922913,317.640137 207.673767,325.257935 
	C207.554001,328.920685 208.978485,330.999054 212.113419,332.690552 
	C216.863495,335.253448 221.379654,338.249908 225.996124,341.489624 
	C225.653732,344.636688 225.310440,347.356232 224.663193,349.916870 
	C219.383072,346.950592 214.406891,344.143311 208.542053,340.834656 
	C209.218353,346.647491 209.795166,351.605225 210.432983,357.087219 
	C215.111084,355.146729 219.291626,353.412628 223.868561,351.796021 
	C224.835190,353.839294 225.405441,355.765015 225.665649,357.896057 
	C221.805573,359.417206 218.147476,360.512177 214.763809,362.167938 
	C213.568344,362.752930 212.088577,364.952576 212.357391,365.999329 
	C215.541367,378.397095 217.459946,391.376373 226.961456,401.563385 
	C226.546783,403.584625 226.132568,405.200073 225.718353,406.815521 
	C214.962708,399.155792 211.276871,387.335480 207.430496,375.631989 
	C206.449921,372.648315 205.746109,369.573730 204.925583,366.579041 
	C196.712021,368.045044 188.765045,369.463470 180.395630,370.408386 
	C179.971954,368.348541 179.970749,366.762146 180.350128,365.050049 
	C184.939163,364.002167 189.165161,363.152771 193.352600,362.143402 
	C203.325333,359.739410 202.748642,359.743652 202.133118,349.665802 
	C201.543457,340.011719 199.137695,331.996521 190.016022,327.041687 
	C190.763199,324.133362 191.371399,321.602417 192.297119,319.185181 
	C194.816162,320.831787 197.017700,322.364716 199.511627,324.101257 
	C199.511627,316.587921 199.511627,309.945831 199.511627,302.925751 
	C196.014664,305.152771 193.006363,307.068542 189.999542,308.588318 
	C189.985092,307.400452 189.969162,306.608643 190.136322,305.545380 
	C192.726135,303.516174 195.240921,301.884216 197.494324,299.948029 
	C198.637344,298.965912 199.884720,297.523804 200.098083,296.137756 
	C201.279907,288.459991 202.012634,280.712738 203.212494,273.038269 
	C203.690308,269.982147 202.558380,268.818207 199.836334,268.283997 
	C192.879105,266.918610 185.939133,265.465393 179.131897,263.724121 
	C179.515060,262.273590 179.758575,261.146240 180.002090,260.018921 
z"/>
<path fill="#0684CD" opacity="1.000000" stroke="none" 
	d="
M979.483521,313.150330 
	C976.683228,316.946259 974.258301,320.538300 971.585144,323.935059 
	C967.940674,328.566284 963.632263,328.573425 960.011902,323.974945 
	C956.934998,320.066711 954.053772,316.004456 950.031738,312.127045 
	C950.031738,319.637512 949.903870,327.151001 950.079285,334.657379 
	C950.185669,339.206207 948.057739,341.000946 943.762268,340.970367 
	C938.896729,340.935760 937.300110,339.472473 937.268738,334.263794 
	C937.191528,321.443359 937.079590,308.618317 937.386047,295.804779 
	C937.442871,293.428711 938.782043,289.987274 940.600830,288.988037 
	C943.912598,287.168732 947.731995,287.900360 950.356995,291.350922 
	C955.366394,297.935638 960.388855,304.510437 965.702332,311.478088 
	C970.844604,304.780609 975.527344,298.332123 980.635620,292.240479 
	C982.179077,290.399933 984.774109,288.800232 987.112061,288.398895 
	C992.158081,287.532776 994.175171,289.527588 994.206482,294.705688 
	C994.286072,307.859070 994.187073,321.013519 994.261536,334.166931 
	C994.286438,338.565796 992.828003,341.089020 987.922546,341.018036 
	C983.283569,340.950897 981.278320,338.919708 981.366272,334.315094 
	C981.490234,327.823853 981.437683,321.327423 981.314148,314.836029 
	C981.301392,314.167450 980.294006,313.517822 979.483521,313.150330 
z"/>
<path fill="#0583CD" opacity="1.000000" stroke="none" 
	d="
M442.018433,313.720886 
	C442.964264,314.724243 443.659454,315.366302 445.250458,316.835754 
	C445.488861,314.234680 445.754913,312.561005 445.775543,310.884308 
	C445.847290,305.055359 445.845520,299.225342 445.848816,293.395752 
	C445.851044,289.407745 448.390106,288.268707 451.751740,288.248230 
	C455.131592,288.227600 458.345367,288.832184 458.371246,293.183075 
	C458.456451,307.504578 458.538330,321.828918 458.271301,336.145630 
	C458.241852,337.723846 456.214142,340.181580 454.658234,340.621338 
	C451.540009,341.502655 448.105347,341.688171 445.648315,338.347839 
	C440.124664,330.838348 434.452911,323.437653 428.822144,316.007294 
	C427.861816,314.740112 426.805786,313.545471 425.031342,311.391541 
	C425.031342,319.777985 425.067047,327.017975 425.019531,334.257416 
	C424.984344,339.617493 423.657227,340.872437 418.729736,341.030701 
	C413.953003,341.184113 412.200623,338.799286 412.224487,334.305115 
	C412.292542,321.479614 412.223297,308.653473 412.261658,295.827728 
	C412.270599,292.841675 412.007050,289.536407 415.951691,288.592316 
	C419.771820,287.678009 423.183319,288.216370 425.721954,291.686951 
	C431.028656,298.941833 436.414459,306.138855 442.018433,313.720886 
z"/>
<path fill="#0684CD" opacity="1.000000" stroke="none" 
	d="
M892.581177,339.426483 
	C891.941711,337.342896 891.301758,335.569000 891.289368,333.790710 
	C891.201050,321.128082 891.193604,308.464294 891.259949,295.801392 
	C891.292908,289.511688 892.652710,288.183807 898.941772,288.139984 
	C907.938904,288.077271 916.937134,288.075317 925.934204,288.143860 
	C931.089905,288.183136 932.703918,289.807892 932.723511,294.595245 
	C932.743103,299.371826 931.140747,300.951599 925.955994,300.994385 
	C918.830017,301.053223 911.703125,301.009125 904.337769,301.009125 
	C904.337769,303.394470 904.337769,305.337585 904.337769,308.134979 
	C908.773010,308.134979 913.357239,308.079987 917.939453,308.149506 
	C923.148132,308.228485 924.754456,309.774536 924.800110,314.528534 
	C924.845947,319.299072 923.205078,320.926483 918.089478,320.996399 
	C913.618896,321.057495 909.146790,321.009155 904.386719,321.009155 
	C904.386719,323.424927 904.386719,325.484009 904.386719,328.143494 
	C911.081238,328.143494 917.689209,328.132111 924.297241,328.146667 
	C931.000977,328.161438 932.636841,329.403564 932.720032,334.480774 
	C932.804993,339.664551 931.156433,341.000092 924.586670,341.009247 
	C916.088928,341.021088 907.589905,341.093689 899.094482,340.953674 
	C897.013855,340.919403 894.945251,340.160095 892.581177,339.426483 
z"/>
<path fill="#0684CD" opacity="1.000000" stroke="none" 
	d="
M630.014160,328.142090 
	C634.339539,328.147125 638.169678,328.160400 641.999878,328.155029 
	C646.402588,328.148834 647.731323,330.876831 647.703613,334.678528 
	C647.675964,338.479492 646.373169,341.081879 641.893188,341.036407 
	C632.068848,340.936676 622.242615,340.958496 612.417725,341.026031 
	C608.234070,341.054840 606.262085,339.034698 606.258179,334.965149 
	C606.245361,321.476257 606.259033,307.987396 606.257874,294.498505 
	C606.257507,290.169098 608.432861,288.114624 612.739746,288.126556 
	C622.398438,288.153351 632.057495,288.172577 641.715881,288.112091 
	C646.388550,288.082855 647.771606,290.842224 647.706726,294.871033 
	C647.643982,298.768829 646.063782,301.120117 641.684509,301.038483 
	C634.379578,300.902344 627.070251,301.001343 619.427734,301.001343 
	C619.427734,303.345978 619.427734,305.402130 619.427734,308.136200 
	C623.990723,308.136200 628.590210,308.067688 633.186707,308.154633 
	C638.232971,308.250031 639.859131,309.950226 639.799988,314.769958 
	C639.747803,319.022156 637.856018,321.216034 633.352356,321.045868 
	C628.740173,320.871582 624.116211,321.007233 619.301636,321.007233 
	C619.301636,323.462646 619.301636,325.406525 619.301636,328.142059 
	C622.686462,328.142059 626.102722,328.142059 630.014160,328.142090 
z"/>
<path fill="#0583CD" opacity="1.000000" stroke="none" 
	d="
M561.053162,328.931061 
	C561.054260,317.301727 561.018799,306.160309 561.072388,295.019348 
	C561.098206,289.639923 562.443787,288.272369 567.882263,288.156158 
	C573.034668,288.046082 578.206665,287.889221 583.342590,288.202728 
	C590.610474,288.646423 596.512085,291.869904 599.880005,298.509277 
	C603.293640,305.238831 602.722961,311.901978 598.806519,318.445831 
	C597.907471,319.947876 597.710144,322.359436 598.179626,324.082825 
	C598.999329,327.091827 600.585571,329.892334 601.853577,332.778870 
	C603.642578,336.851532 601.574768,338.994110 598.061829,340.482605 
	C594.482727,341.999054 591.567505,341.781921 589.972107,337.662567 
	C589.612610,336.734558 589.199524,335.827148 588.804993,334.912903 
	C584.905090,325.875305 584.904785,325.875458 573.941101,326.879425 
	C573.941101,329.420471 573.854980,332.032837 573.960205,334.637482 
	C574.140259,339.093079 571.965271,340.963318 567.635742,340.984650 
	C563.437622,341.005310 560.910339,339.491547 561.052673,334.906311 
	C561.109375,333.079041 561.056274,331.248322 561.053162,328.931061 
M575.670532,301.011566 
	C574.897156,305.144806 574.123779,309.278046 573.281433,313.779938 
	C577.437134,313.779938 580.110657,313.978180 582.742981,313.733398 
	C586.677124,313.367584 589.374023,311.516510 589.168762,307.055542 
	C588.977417,302.893982 586.339539,301.287079 582.600952,301.028076 
	C580.610718,300.890228 578.603394,300.998657 575.670532,301.011566 
z"/>
<path fill="#0583CD" opacity="1.000000" stroke="none" 
	d="
M368.656555,307.520081 
	C371.144958,302.409546 373.123901,297.423370 375.914124,292.942383 
	C377.215149,290.852936 380.032745,288.636658 382.265289,288.525085 
	C384.175415,288.429626 387.058502,290.834503 388.088806,292.857819 
	C394.711609,305.864044 400.863861,319.108887 407.348480,332.187164 
	C409.420776,336.366608 407.892212,338.714966 404.236176,340.590393 
	C400.416168,342.549957 397.192963,342.102661 395.921387,337.742615 
	C393.865631,330.693909 389.277802,328.630402 382.528656,329.855347 
	C381.724060,330.001373 380.846497,330.002930 380.042664,329.854828 
	C374.109436,328.761810 370.635376,330.912018 368.554932,336.839630 
	C366.655304,342.252136 364.075714,342.693939 359.305847,340.219940 
	C355.583099,338.289124 354.933746,335.762177 356.791656,332.049042 
	C360.799469,324.039124 364.596191,315.923584 368.656555,307.520081 
M382.372284,310.461731 
	C380.717621,313.055542 379.062988,315.649384 377.020447,318.851227 
	C380.744202,318.851227 383.311157,318.851227 386.565399,318.851227 
	C385.192291,315.935638 384.023346,313.453613 382.372284,310.461731 
z"/>
<path fill="#0583CD" opacity="1.000000" stroke="none" 
	d="
M518.389404,334.364014 
	C514.541382,342.393829 511.716553,343.648590 506.570557,339.267181 
	C505.251495,338.144104 504.240417,334.918304 504.896149,333.486938 
	C511.256256,319.603363 517.849609,305.819824 524.711243,292.176178 
	C527.493530,286.643860 533.579529,286.691711 536.358276,292.233154 
	C543.204285,305.885773 549.724060,319.702240 556.345520,333.467010 
	C558.157898,337.234558 555.645813,338.966400 552.851929,340.465027 
	C549.971802,342.009918 546.198181,342.903259 545.263428,339.191315 
	C542.561768,328.461792 534.665222,329.500549 526.717224,329.837830 
	C523.269226,329.984192 519.514465,329.154510 518.389404,334.364014 
M533.076111,314.504333 
	C532.310303,313.007965 531.544495,311.511597 530.439331,309.352264 
	C528.741577,312.917786 527.424744,315.683289 525.924988,318.833008 
	C529.129822,318.833008 531.843933,318.833008 534.900024,318.833008 
	C534.355347,317.518799 533.873657,316.356445 533.076111,314.504333 
z"/>
<path fill="#0684CD" opacity="1.000000" stroke="none" 
	d="
M834.416260,296.653229 
	C830.570190,303.966949 829.288208,304.291412 822.476562,300.509125 
	C821.088013,299.738068 819.107239,298.973328 817.786072,299.400726 
	C816.008850,299.975677 813.964783,301.447083 813.304749,303.054871 
	C812.955139,303.906403 814.999512,306.551666 816.475098,307.174683 
	C819.653992,308.516907 823.199402,308.959320 826.531189,309.977997 
	C834.051758,312.277374 837.303955,315.887665 837.674683,322.858795 
	C838.047668,329.872009 835.550415,335.545227 829.033203,339.015533 
	C819.527405,344.077118 807.667297,341.837708 801.384766,333.975006 
	C798.634094,330.532501 799.031921,327.783752 802.056824,324.878845 
	C804.988281,322.063568 807.601379,322.674042 810.395691,325.062469 
	C812.274414,326.668182 814.186157,328.412750 816.391846,329.417175 
	C819.770508,330.955750 823.831726,329.083496 824.550903,326.017731 
	C825.492798,322.002930 822.342468,321.341583 819.690979,320.435425 
	C816.237915,319.255432 812.684875,318.356323 809.267395,317.087097 
	C803.259216,314.855743 800.469360,310.163605 800.202209,303.989990 
	C799.934692,297.806152 802.696960,293.034332 807.931030,289.820831 
	C814.426941,285.832703 825.705688,286.584564 831.519714,291.514252 
	C832.896667,292.681732 833.555664,294.695831 834.416260,296.653229 
z"/>
<path fill="#0684CD" opacity="1.000000" stroke="none" 
	d="
M661.980164,288.791931 
	C669.561340,286.247162 676.455139,286.952759 682.915588,290.982330 
	C686.355286,293.127747 687.810242,295.807373 684.957825,299.629913 
	C682.059753,303.513580 679.863892,303.934570 675.665955,301.468903 
	C673.878601,300.419098 671.655090,299.228912 669.791626,299.452454 
	C668.095886,299.655884 665.986694,301.418793 665.305359,303.023285 
	C664.948792,303.862671 666.974426,306.536346 668.442627,307.158936 
	C671.617981,308.505402 675.162048,308.950745 678.493286,309.967712 
	C686.034424,312.269867 689.284058,315.851898 689.671875,322.814392 
	C690.062256,329.822998 687.582703,335.508087 681.078186,338.993317 
	C671.753784,343.989502 660.167480,341.980103 653.752563,334.397430 
	C650.887573,331.010895 650.653198,328.104218 654.004639,324.913696 
	C657.194885,321.876648 659.872559,322.843048 662.729919,325.341614 
	C664.463684,326.857574 666.267151,328.467407 668.327209,329.397339 
	C671.716003,330.927063 675.767944,329.135620 676.532349,326.084564 
	C677.534546,322.084045 674.433655,321.352417 671.758057,320.462616 
	C669.082275,319.572693 666.326538,318.926208 663.632385,318.087799 
	C656.966248,316.013336 652.658264,311.795105 652.232849,304.568268 
	C651.806580,297.328156 655.133301,292.132202 661.980164,288.791931 
z"/>
<path fill="#0684CD" opacity="1.000000" stroke="none" 
	d="
M1022.960205,287.948608 
	C1025.656006,288.943451 1028.095947,289.626434 1030.196045,290.879181 
	C1033.530518,292.868286 1035.439941,295.454956 1032.591797,299.441345 
	C1029.660034,303.544952 1027.382935,304.060425 1023.000916,301.272095 
	C1021.897217,300.569794 1020.530945,299.375610 1019.536621,299.587372 
	C1017.206909,300.083618 1013.894653,300.699341 1013.032898,302.342957 
	C1011.380310,305.494781 1014.488220,306.976135 1017.094604,307.771149 
	C1020.264221,308.737854 1023.608643,309.148651 1026.751953,310.181641 
	C1037.892456,313.842712 1040.939453,328.095306 1032.414307,336.280548 
	C1024.138062,344.226837 1008.903015,343.357880 1001.422363,334.612854 
	C998.638489,331.358490 997.933594,328.447662 1001.340759,325.085815 
	C1004.694824,321.776459 1007.415039,322.902344 1010.421692,325.509094 
	C1012.271790,327.113098 1014.435547,329.403717 1016.497253,329.444916 
	C1018.966675,329.494263 1022.630005,328.126312 1023.714661,326.207031 
	C1025.595581,322.878662 1022.331482,321.421936 1019.462769,320.526459 
	C1015.984985,319.440887 1012.407166,318.585968 1009.064392,317.176514 
	C1001.951721,314.177490 999.144287,309.087463 999.894714,301.324982 
	C1000.521179,294.844666 1005.414856,289.236298 1012.197632,288.044556 
	C1015.554382,287.454773 1019.094666,287.909943 1022.960205,287.948608 
z"/>
<path fill="#0684CD" opacity="1.000000" stroke="none" 
	d="
M749.943726,324.877350 
	C748.585815,334.698608 744.162842,339.360596 734.786682,341.269287 
	C726.264465,343.004120 717.022888,339.350830 712.812805,332.834137 
	C710.699768,329.563354 711.968140,327.266724 714.284363,324.943207 
	C716.674622,322.545410 719.151001,322.262695 721.799988,324.417847 
	C723.346069,325.675720 724.639404,327.534821 726.392822,328.175568 
	C728.707520,329.021393 731.441833,329.434143 733.836792,329.047760 
	C735.063293,328.849884 736.720032,326.527710 736.755737,325.129150 
	C736.789429,323.812073 735.225220,321.790924 733.882141,321.226868 
	C729.921631,319.563721 725.678406,318.590637 721.627075,317.123077 
	C715.837952,315.026062 712.982971,310.621490 712.521423,304.609680 
	C712.062561,298.632355 714.420654,293.874542 719.229065,290.413727 
	C725.826599,285.665222 738.448364,286.597778 744.511230,291.958405 
	C747.389709,294.503540 747.264771,296.895233 745.109741,299.732544 
	C742.979919,302.536621 740.693848,304.179108 737.069031,302.200806 
	C734.937439,301.037506 732.649109,299.512665 730.391968,299.444214 
	C728.740417,299.394043 727.024963,301.450439 725.337952,302.567871 
	C726.482361,304.171112 727.290710,306.527130 728.841675,307.219421 
	C731.979126,308.619934 735.558411,308.991211 738.885925,310.013306 
	C746.984863,312.501038 749.486938,315.845703 749.943726,324.877350 
z"/>
<path fill="#7AD4A5" opacity="1.000000" stroke="none" 
	d="
M245.997192,233.013474 
	C246.680466,231.828766 247.363724,230.644058 248.099396,229.091827 
	C255.513519,236.919464 257.747040,247.374908 260.752289,257.473816 
	C261.541412,260.125702 261.951630,262.890381 262.547089,265.655396 
	C271.007446,263.773773 279.127625,261.967773 287.857239,260.429260 
	C288.966644,261.744507 289.466614,262.792267 289.560425,263.916992 
	C282.344574,265.404755 275.566498,267.002716 268.714203,268.161469 
	C264.034424,268.952850 263.393860,271.562073 264.061554,275.601624 
	C264.872803,280.509491 265.738403,285.479675 265.762817,290.426941 
	C265.789154,295.762634 268.057251,298.863464 272.602814,301.344757 
	C276.332306,303.380585 279.515594,306.417023 282.633789,309.146729 
	C281.482330,309.552246 280.638123,309.821045 279.493835,309.952820 
	C275.356628,307.128021 271.519470,304.440186 267.268219,301.462280 
	C267.268219,310.177460 267.268219,317.842896 267.268219,326.329498 
	C272.515350,322.666992 277.102264,319.465302 281.767609,316.698700 
	C282.243591,319.123688 282.641144,321.113586 282.865265,323.385712 
	C279.968506,325.536346 277.174347,327.310577 274.537628,329.294098 
	C269.987671,332.716858 264.798401,335.527863 265.492859,342.801422 
	C265.847534,346.516022 264.906708,350.405640 264.215271,354.154114 
	C263.540619,357.811493 265.247070,359.261749 268.465485,360.003418 
	C272.661102,360.970276 276.809692,362.141357 280.982849,363.596985 
	C280.339478,365.927063 279.691772,367.884766 279.044098,369.842468 
	C273.558563,368.748322 268.073029,367.654175 262.689972,366.580505 
	C260.318970,373.853790 257.924530,381.198822 254.948090,388.634705 
	C253.275925,388.492981 252.185760,388.260468 251.121307,387.660339 
	C253.296509,380.887939 255.391205,374.464050 257.621826,368.087646 
	C258.545471,365.447235 257.760040,364.056488 255.093384,363.405762 
	C254.012772,363.142059 253.030746,362.474304 252.160858,361.630859 
	C252.535873,358.902222 252.753876,356.533081 253.334564,354.219849 
	C255.671509,354.910950 257.645752,355.546204 260.396790,356.431396 
	C261.105042,350.371124 261.730652,345.018097 262.457977,338.794556 
	C258.932983,340.588013 256.481628,341.835205 253.986282,342.714386 
	C253.260559,340.475647 252.578827,338.604889 252.097153,336.469910 
	C262.337280,332.378723 265.517395,324.850983 263.921753,314.719604 
	C263.794678,313.912781 263.822571,313.062561 263.903351,312.244904 
	C264.771240,303.461670 263.144836,295.932800 254.040573,291.883728 
	C254.448318,291.035828 254.735901,290.479218 255.369553,289.985229 
	C257.927460,291.316071 260.139313,292.584320 263.095490,294.279358 
	C262.136810,287.211304 261.237732,281.056946 260.492706,274.884033 
	C260.136108,271.929382 258.399628,271.570618 256.004822,271.669220 
	C255.999878,270.514557 255.996109,269.744720 256.234436,268.736755 
	C257.026550,267.125946 258.379852,265.460327 258.002594,264.425812 
	C254.162399,253.896103 250.040329,243.469177 245.997192,233.013474 
z"/>
<path fill="#0684CD" opacity="1.000000" stroke="none" 
	d="
M767.359741,320.729095 
	C762.289062,313.001770 757.374084,305.686279 752.547852,298.312714 
	C749.699768,293.961395 750.133667,291.933960 754.232300,289.220490 
	C758.387634,286.469482 760.319031,286.839294 763.199646,291.264313 
	C766.808044,296.807312 770.275574,302.441986 774.187256,308.644867 
	C778.030823,302.535950 781.479980,296.952576 785.033997,291.436737 
	C787.943909,286.920593 789.916870,286.444763 793.959595,289.042816 
	C798.260620,291.806885 798.689880,293.924835 795.740479,298.475891 
	C793.569702,301.825531 791.552246,305.317413 789.031372,308.388824 
	C782.773132,316.013916 779.185059,324.293579 780.639099,334.441345 
	C781.266418,338.819763 779.121521,341.164734 774.269592,341.165283 
	C769.519592,341.165863 767.635498,339.213409 767.760437,334.575439 
	C767.881226,330.094269 767.636780,325.603210 767.359741,320.729095 
z"/>
<path fill="#0B86CE" opacity="1.000000" stroke="none" 
	d="
M474.994324,298.742310 
	C472.183960,298.736450 469.856445,298.711884 467.529297,298.729156 
	C463.751434,298.757141 462.135223,296.814331 462.206543,293.134796 
	C462.274963,289.605621 464.035278,288.050049 467.505280,288.057892 
	C480.804565,288.088013 494.104126,288.100433 507.403229,288.042603 
	C511.138336,288.026337 512.878113,289.665039 512.918457,293.431549 
	C512.960571,297.352081 510.862579,298.737823 507.310913,298.730927 
	C503.026184,298.722626 498.741425,298.728973 493.896057,298.728973 
	C493.896057,310.925537 493.938354,322.677368 493.876892,334.428680 
	C493.849365,339.693573 492.420197,340.913757 487.427460,341.051666 
	C482.505127,341.187653 481.127411,338.548096 481.160095,334.175964 
	C481.246765,322.574646 481.189484,310.972229 481.189484,298.742401 
	C479.006104,298.742401 477.241730,298.742401 474.994324,298.742310 
z"/>
<path fill="#0684CD" opacity="1.000000" stroke="none" 
	d="
M850.030762,288.068420 
	C860.687073,288.069153 870.849731,288.117126 881.011658,288.045197 
	C884.593994,288.019836 887.165161,288.655548 887.306091,293.101807 
	C887.452820,297.729858 884.964233,298.803558 881.074890,298.737610 
	C876.954590,298.667725 872.832214,298.721924 868.268616,298.721924 
	C868.268616,311.139984 868.213013,322.935760 868.299316,334.730530 
	C868.328857,338.764191 866.927002,341.019653 862.549377,341.036469 
	C857.438293,341.056122 855.929016,339.847656 855.902893,334.719879 
	C855.842773,322.928284 855.883850,311.136139 855.883850,298.714081 
	C851.007996,298.714081 846.567261,298.705658 842.126526,298.716736 
	C838.395264,298.726013 836.779297,296.995667 836.837219,293.161591 
	C836.892822,289.480560 838.596985,288.040100 842.039978,288.072632 
	C844.538696,288.096222 847.037842,288.071533 850.030762,288.068420 
z"/>
<path fill="#3CBD91" opacity="1.000000" stroke="none" 
	d="
M179.544479,259.920776 
	C179.758575,261.146240 179.515060,262.273590 178.678757,263.759155 
	C174.441299,264.325775 170.742203,264.207611 167.162247,264.804199 
	C156.766510,266.536713 153.135208,272.558685 158.115341,281.804535 
	C162.156998,289.308014 168.034515,295.822601 172.943558,303.145905 
	C172.110840,305.863068 171.432358,308.210114 170.753891,310.557159 
	C162.956406,303.430511 156.500412,295.249268 152.207123,285.580750 
	C145.546158,270.580139 153.675705,258.505188 169.153763,259.925140 
	C172.434052,260.226105 175.774261,259.873901 179.544479,259.920776 
z"/>
<path fill="#3CBD91" opacity="1.000000" stroke="none" 
	d="
M179.969543,365.175781 
	C179.970749,366.762146 179.971954,368.348541 179.963470,370.328888 
	C174.202377,370.485901 168.224274,371.168243 162.747559,369.817596 
	C151.876343,367.136505 147.217026,358.644745 151.920151,348.456543 
	C155.736282,340.189789 161.973465,333.029480 167.251465,325.458313 
	C168.277283,323.986816 169.831039,322.883331 171.509384,321.804993 
	C172.233124,322.928772 172.588730,323.857574 172.787140,325.089478 
	C171.301880,326.880402 169.759933,328.228943 168.683807,329.880859 
	C164.625549,336.110626 159.997711,342.109406 156.933670,348.812073 
	C152.902176,357.631042 156.887711,363.835083 166.580231,364.999237 
	C170.986816,365.528534 175.503052,365.145142 179.969543,365.175781 
z"/>
<path fill="#86D7AC" opacity="1.000000" stroke="none" 
	d="
M279.793884,310.089813 
	C280.638123,309.821045 281.482330,309.552246 282.961975,309.262878 
	C285.887146,311.232513 287.695129,311.051971 289.879669,308.687103 
	C293.363403,304.915894 297.281860,301.546295 301.376740,298.074707 
	C302.684784,299.515808 303.632568,300.889099 304.580383,302.262390 
	C301.407837,305.821381 298.437408,309.592804 294.994904,312.868073 
	C292.511780,315.230560 292.103699,316.909119 294.767944,319.306793 
	C298.306274,322.491089 301.636505,325.906616 304.886169,329.701721 
	C303.830383,330.779938 302.944611,331.379211 301.784973,331.790649 
	C297.436218,327.308380 293.361359,323.014008 289.363678,318.800934 
	C286.848969,320.511597 284.943848,321.807556 283.038757,323.103516 
	C282.641144,321.113586 282.243591,319.123688 281.917236,316.443909 
	C284.581909,312.577698 280.331207,312.053131 279.793884,310.089813 
z"/>
<path fill="#99DEBA" opacity="1.000000" stroke="none" 
	d="
M302.058838,331.978516 
	C302.944611,331.379211 303.830383,330.779938 305.020386,330.017487 
	C312.506134,336.568512 317.564148,344.545074 318.755676,354.426483 
	C319.752045,362.689667 313.442780,369.316956 303.356873,370.464783 
	C302.654266,368.371826 302.328278,366.700562 302.262787,364.786743 
	C313.119263,361.708801 315.672943,356.617554 310.859680,346.764954 
	C308.350525,341.628784 305.018951,336.894379 302.058838,331.978516 
z"/>
<path fill="#52C593" opacity="1.000000" stroke="none" 
	d="
M172.944351,324.786407 
	C172.588730,323.857574 172.233124,322.928772 171.813263,321.623779 
	C173.130707,319.687378 174.512390,318.127167 176.812317,315.530060 
	C174.860275,314.055176 172.925827,312.593567 170.872620,310.844543 
	C171.432358,308.210114 172.110840,305.863068 173.248596,303.299561 
	C176.608795,305.667694 179.509689,308.252258 182.431702,310.855621 
	C185.135986,309.043976 187.544601,307.430420 189.953217,305.816833 
	C189.969162,306.608643 189.985092,307.400452 189.705963,308.736816 
	C187.869217,310.574493 186.327499,311.867645 184.749832,313.190918 
	C187.722183,315.608582 189.850891,317.340027 191.979584,319.071472 
	C191.371399,321.602417 190.763199,324.133362 189.705276,326.877625 
	C185.959885,324.474274 182.664215,321.857635 179.321838,319.203918 
	C177.090286,321.157288 175.017319,322.971832 172.944351,324.786407 
z"/>
<path fill="#99DEBA" opacity="1.000000" stroke="none" 
	d="
M304.860901,302.137085 
	C303.632568,300.889099 302.684784,299.515808 301.498199,297.758545 
	C302.244385,296.066284 303.435791,294.864899 304.178070,293.430969 
	C307.144318,287.700592 309.970978,281.897919 313.260468,276.077515 
	C314.781830,274.774475 316.445435,273.675568 316.865845,272.218048 
	C317.424561,270.281036 317.014130,268.064453 317.020111,265.967987 
	C317.954681,267.703217 319.862274,269.556427 319.668457,271.154816 
	C318.234436,282.979767 313.710693,293.482147 304.860901,302.137085 
z"/>
<path fill="#67CD9A" opacity="1.000000" stroke="none" 
	d="
M251.095612,388.027954 
	C252.185760,388.260468 253.275925,388.492981 254.678833,388.861145 
	C252.881073,395.784485 248.946289,401.317108 243.578125,405.934937 
	C237.761597,410.938446 233.026657,411.376526 225.895386,407.075378 
	C226.132568,405.200073 226.546783,403.584625 227.280548,401.690491 
	C234.266525,406.476532 237.215332,406.447937 243.098633,399.929138 
	C246.268387,396.417023 248.461731,392.023712 251.095612,388.027954 
z"/>
<path fill="#86D7AC" opacity="1.000000" stroke="none" 
	d="
M302.002319,365.029327 
	C302.328278,366.700562 302.654266,368.371826 302.969757,370.412781 
	C295.194427,370.643585 287.429565,370.504669 279.354431,370.104126 
	C279.691772,367.884766 280.339478,365.927063 281.390686,363.549316 
	C288.530243,363.762634 295.266296,364.395996 302.002319,365.029327 
z"/>
<path fill="#91DBB4" opacity="1.000000" stroke="none" 
	d="
M289.966614,263.840027 
	C289.466614,262.792267 288.966644,261.744507 288.266602,260.460693 
	C296.868469,258.345673 305.406494,258.221741 312.871460,264.425171 
	C311.475433,265.577301 310.267487,266.287354 308.715393,266.841553 
	C302.236389,265.737152 296.101501,264.788605 289.966614,263.840027 
z"/>
<path fill="#67CD9A" opacity="1.000000" stroke="none" 
	d="
M309.059509,266.997375 
	C310.267487,266.287354 311.475433,265.577301 313.024872,264.733276 
	C314.434448,264.890259 315.502563,265.181213 316.795410,265.720093 
	C317.014130,268.064453 317.424561,270.281036 316.865845,272.218048 
	C316.445435,273.675568 314.781830,274.774475 312.928314,275.982361 
	C308.013153,274.048553 307.708038,270.812714 309.059509,266.997375 
z"/>
<path fill="#FCFEFD" opacity="1.000000" stroke="none" 
	d="
M253.920410,292.175018 
	C263.144836,295.932800 264.771240,303.461670 263.903351,312.244904 
	C263.822571,313.062561 263.794678,313.912781 263.921753,314.719604 
	C265.517395,324.850983 262.337280,332.378723 251.754898,336.568481 
	C249.179840,338.040222 246.876389,338.835571 245.162857,340.314423 
	C238.889725,345.728394 232.581406,345.863098 225.995209,341.062164 
	C221.379654,338.249908 216.863495,335.253448 212.113419,332.690552 
	C208.978485,330.999054 207.554001,328.920685 207.673767,325.257935 
	C207.922913,317.640137 208.008926,309.999939 207.701767,302.387482 
	C207.524185,297.986694 209.251083,295.122070 212.896469,293.192047 
	C220.003052,289.429443 227.156662,285.755646 234.890106,282.244202 
	C241.633087,285.687256 247.776749,288.931152 253.920410,292.175018 
M242.546936,324.498718 
	C248.170547,319.046295 248.090408,309.925568 241.717041,305.255981 
	C238.805817,304.483673 235.894608,303.711365 232.221954,302.906006 
	C224.990829,304.842743 221.316055,309.710144 221.997818,316.448364 
	C222.623123,322.628601 227.356140,326.848114 234.484131,327.514526 
	C236.954025,326.562775 239.423904,325.610992 242.546936,324.498718 
z"/>
<path fill="#FCFEFD" opacity="1.000000" stroke="none" 
	d="
M245.730606,232.811249 
	C250.040329,243.469177 254.162399,253.896103 258.002594,264.425812 
	C258.379852,265.460327 257.026550,267.125946 255.867706,268.768677 
	C248.830521,271.968781 242.402161,274.898865 235.973785,277.828918 
	C234.947906,277.765320 233.922043,277.701691 232.313019,277.307312 
	C230.830948,276.626221 229.932022,276.275848 229.033081,275.925476 
	C224.383331,273.913910 219.609756,272.134521 215.154205,269.758728 
	C213.690170,268.978027 211.930862,266.421295 212.209641,265.069031 
	C214.527557,253.824692 217.130859,242.503708 224.047531,233.077271 
	C226.386261,229.889923 230.361649,227.035461 234.134689,225.980835 
	C239.238419,224.554260 242.485718,228.949432 245.730606,232.811249 
z"/>
<path fill="#FCFEFD" opacity="1.000000" stroke="none" 
	d="
M190.136322,305.545380 
	C187.544601,307.430420 185.135986,309.043976 182.431702,310.855621 
	C179.509689,308.252258 176.608795,305.667694 173.402863,302.929443 
	C168.034515,295.822601 162.156998,289.308014 158.115341,281.804535 
	C153.135208,272.558685 156.766510,266.536713 167.162247,264.804199 
	C170.742203,264.207611 174.441299,264.325775 178.539124,264.082367 
	C185.939133,265.465393 192.879105,266.918610 199.836334,268.283997 
	C202.558380,268.818207 203.690308,269.982147 203.212494,273.038269 
	C202.012634,280.712738 201.279907,288.459991 200.098083,296.137756 
	C199.884720,297.523804 198.637344,298.965912 197.494324,299.948029 
	C195.240921,301.884216 192.726135,303.516174 190.136322,305.545380 
z"/>
<path fill="#FCFEFD" opacity="1.000000" stroke="none" 
	d="
M251.121307,387.660339 
	C248.461731,392.023712 246.268387,396.417023 243.098633,399.929138 
	C237.215332,406.447937 234.266525,406.476532 227.281021,401.284668 
	C217.459946,391.376373 215.541367,378.397095 212.357391,365.999329 
	C212.088577,364.952576 213.568344,362.752930 214.763809,362.167938 
	C218.147476,360.512177 221.805573,359.417206 226.014038,357.846924 
	C231.301590,354.324158 235.674469,354.950073 240.476379,357.680939 
	C243.997131,359.683167 248.138885,360.593414 252.003860,361.990387 
	C253.030746,362.474304 254.012772,363.142059 255.093384,363.405762 
	C257.760040,364.056488 258.545471,365.447235 257.621826,368.087646 
	C255.391205,374.464050 253.296509,380.887939 251.121307,387.660339 
z"/>
<path fill="#FCFEFD" opacity="1.000000" stroke="none" 
	d="
M172.787140,325.089478 
	C175.017319,322.971832 177.090286,321.157288 179.321838,319.203918 
	C182.664215,321.857635 185.959885,324.474274 189.566299,327.254974 
	C199.137695,331.996521 201.543457,340.011719 202.133118,349.665802 
	C202.748642,359.743652 203.325333,359.739410 193.352600,362.143402 
	C189.165161,363.152771 184.939163,364.002167 180.350128,365.050049 
	C175.503052,365.145142 170.986816,365.528534 166.580231,364.999237 
	C156.887711,363.835083 152.902176,357.631042 156.933670,348.812073 
	C159.997711,342.109406 164.625549,336.110626 168.683807,329.880859 
	C169.759933,328.228943 171.301880,326.880402 172.787140,325.089478 
z"/>
<path fill="#67CD9A" opacity="1.000000" stroke="none" 
	d="
M252.160858,361.630859 
	C248.138885,360.593414 243.997131,359.683167 240.476379,357.680939 
	C235.674469,354.950073 231.301590,354.324158 226.324097,357.641663 
	C225.405441,355.765015 224.835190,353.839294 224.071259,351.600372 
	C224.240753,350.883392 224.603943,350.479614 224.967133,350.075806 
	C225.310440,347.356232 225.653732,344.636688 225.996124,341.489624 
	C232.581406,345.863098 238.889725,345.728394 245.162857,340.314423 
	C246.876389,338.835571 249.179840,338.040222 251.554840,336.832703 
	C252.578827,338.604889 253.260559,340.475647 253.767670,342.970825 
	C250.134872,345.487640 246.676666,347.380035 242.533051,349.647491 
	C246.515121,351.370361 249.743500,352.767151 252.971893,354.163971 
	C252.753876,356.533081 252.535873,358.902222 252.160858,361.630859 
z"/>
<path fill="#F8FDFA" opacity="1.000000" stroke="none" 
	d="
M229.542175,278.917938 
	C229.353500,279.638794 229.394882,280.759552 228.941559,281.020355 
	C222.411713,284.776886 215.815384,288.417816 208.069839,292.736084 
	C209.006912,285.247192 209.808563,278.840485 210.686829,271.821625 
	C217.138535,274.292053 222.804443,276.461578 228.941101,278.673889 
	C229.411835,278.716644 229.542160,278.917938 229.542175,278.917938 
z"/>
<path fill="#F3FBF7" opacity="1.000000" stroke="none" 
	d="
M192.297119,319.185181 
	C189.850891,317.340027 187.722183,315.608582 184.749832,313.190918 
	C186.327499,311.867645 187.869217,310.574493 189.704498,309.132874 
	C193.006363,307.068542 196.014664,305.152771 199.511627,302.925751 
	C199.511627,309.945831 199.511627,316.587921 199.511627,324.101257 
	C197.017700,322.364716 194.816162,320.831787 192.297119,319.185181 
z"/>
<path fill="#F3FBF7" opacity="1.000000" stroke="none" 
	d="
M224.663177,349.916870 
	C224.603943,350.479614 224.240753,350.883392 223.674866,351.482849 
	C219.291626,353.412628 215.111084,355.146729 210.432983,357.087219 
	C209.795166,351.605225 209.218353,346.647491 208.542053,340.834656 
	C214.406891,344.143311 219.383072,346.950592 224.663177,349.916870 
z"/>
<path fill="#72D1A0" opacity="1.000000" stroke="none" 
	d="
M235.981384,278.189819 
	C242.402161,274.898865 248.830521,271.968781 255.625610,269.006805 
	C255.996109,269.744720 255.999878,270.514557 255.705322,271.860809 
	C249.703781,274.794037 244.000610,277.150848 237.279785,279.928162 
	C243.806793,283.604614 249.415146,286.763641 255.023499,289.922638 
	C254.735901,290.479218 254.448318,291.035828 254.040573,291.883728 
	C247.776749,288.931152 241.633087,285.687256 235.253479,282.188538 
	C235.341339,280.806061 235.665176,279.678375 235.981384,278.189819 
z"/>
<path fill="#72D1A0" opacity="1.000000" stroke="none" 
	d="
M229.968018,278.916504 
	C229.542160,278.917938 229.411835,278.716644 229.361481,278.705017 
	C229.218857,278.078735 229.126556,277.464020 229.033661,276.387390 
	C229.932022,276.275848 230.830948,276.626221 231.946259,277.167633 
	C231.573074,277.877472 230.983475,278.396301 229.968018,278.916504 
z"/>
<path fill="#F8FDFA" opacity="1.000000" stroke="none" 
	d="
M576.137207,301.003754 
	C578.603394,300.998657 580.610718,300.890228 582.600952,301.028076 
	C586.339539,301.287079 588.977417,302.893982 589.168762,307.055542 
	C589.374023,311.516510 586.677124,313.367584 582.742981,313.733398 
	C580.110657,313.978180 577.437134,313.779938 573.281433,313.779938 
	C574.123779,309.278046 574.897156,305.144806 576.137207,301.003754 
z"/>
<path fill="#F3FBF7" opacity="1.000000" stroke="none" 
	d="
M382.613342,310.716675 
	C384.023346,313.453613 385.192291,315.935638 386.565399,318.851227 
	C383.311157,318.851227 380.744202,318.851227 377.020447,318.851227 
	C379.062988,315.649384 380.717621,313.055542 382.613342,310.716675 
z"/>
<path fill="#F3FBF7" opacity="1.000000" stroke="none" 
	d="
M533.234009,314.849243 
	C533.873657,316.356445 534.355347,317.518799 534.900024,318.833008 
	C531.843933,318.833008 529.129822,318.833008 525.924988,318.833008 
	C527.424744,315.683289 528.741577,312.917786 530.439331,309.352264 
	C531.544495,311.511597 532.310303,313.007965 533.234009,314.849243 
z"/>
<path fill="#FDFEFE" opacity="1.000000" stroke="none" 
	d="
M308.715393,266.841553 
	C307.708038,270.812714 308.013153,274.048553 312.517120,276.026855 
	C309.970978,281.897919 307.144318,287.700592 304.178070,293.430969 
	C303.435791,294.864899 302.244385,296.066284 301.137970,297.690704 
	C297.281860,301.546295 293.363403,304.915894 289.879669,308.687103 
	C287.695129,311.051971 285.887146,311.232513 283.269165,309.126099 
	C279.515594,306.417023 276.332306,303.380585 272.602814,301.344757 
	C268.057251,298.863464 265.789154,295.762634 265.762817,290.426941 
	C265.738403,285.479675 264.872803,280.509491 264.061554,275.601624 
	C263.393860,271.562073 264.034424,268.952850 268.714203,268.161469 
	C275.566498,267.002716 282.344574,265.404755 289.560425,263.916992 
	C296.101501,264.788605 302.236389,265.737152 308.715393,266.841553 
z"/>
<path fill="#FDFEFE" opacity="1.000000" stroke="none" 
	d="
M302.262787,364.786743 
	C295.266296,364.395996 288.530243,363.762634 281.386353,363.176941 
	C276.809692,362.141357 272.661102,360.970276 268.465485,360.003418 
	C265.247070,359.261749 263.540619,357.811493 264.215271,354.154114 
	C264.906708,350.405640 265.847534,346.516022 265.492859,342.801422 
	C264.798401,335.527863 269.987671,332.716858 274.537628,329.294098 
	C277.174347,327.310577 279.968506,325.536346 282.865295,323.385742 
	C284.943848,321.807556 286.848969,320.511597 289.363678,318.800934 
	C293.361359,323.014008 297.436218,327.308380 301.784973,331.790649 
	C305.018951,336.894379 308.350525,341.628784 310.859680,346.764954 
	C315.672943,356.617554 313.119263,361.708801 302.262787,364.786743 
z"/>
<path fill="#F8FDFA" opacity="1.000000" stroke="none" 
	d="
M255.369553,289.985229 
	C249.415146,286.763641 243.806793,283.604614 237.279785,279.928162 
	C244.000610,277.150848 249.703781,274.794037 255.706451,272.245667 
	C258.399628,271.570618 260.136108,271.929382 260.492706,274.884033 
	C261.237732,281.056946 262.136810,287.211304 263.095490,294.279358 
	C260.139313,292.584320 257.927460,291.316071 255.369553,289.985229 
z"/>
<path fill="#FCFEFD" opacity="1.000000" stroke="none" 
	d="
M279.493835,309.952820 
	C280.331207,312.053131 284.581909,312.577698 281.838867,316.008820 
	C277.102264,319.465302 272.515350,322.666992 267.268219,326.329498 
	C267.268219,317.842896 267.268219,310.177460 267.268219,301.462280 
	C271.519470,304.440186 275.356628,307.128021 279.493835,309.952820 
z"/>
<path fill="#F8FDFA" opacity="1.000000" stroke="none" 
	d="
M253.334579,354.219849 
	C249.743500,352.767151 246.515121,351.370361 242.533051,349.647491 
	C246.676666,347.380035 250.134872,345.487640 253.811676,343.338806 
	C256.481628,341.835205 258.932983,340.588013 262.457977,338.794556 
	C261.730652,345.018097 261.105042,350.371124 260.396790,356.431396 
	C257.645752,355.546204 255.671509,354.910950 253.334579,354.219849 
z"/>
<path fill="#52C593" opacity="1.000000" stroke="none" 
	d="
M233.985870,327.135773 
	C227.356140,326.848114 222.623123,322.628601 221.997818,316.448364 
	C221.316055,309.710144 224.990829,304.842743 232.767303,303.312195 
	C233.537079,311.524200 233.761475,319.329987 233.985870,327.135773 
z"/>
<path fill="#72D1A0" opacity="1.000000" stroke="none" 
	d="
M234.235001,327.325134 
	C233.761475,319.329987 233.537079,311.524200 233.148026,303.328735 
	C235.894608,303.711365 238.805817,304.483673 241.832001,305.966553 
	C241.929230,312.671143 241.911514,318.665192 241.893799,324.659241 
	C239.423904,325.610992 236.954025,326.562775 234.235001,327.325134 
z"/>
<path fill="#91DBB4" opacity="1.000000" stroke="none" 
	d="
M242.220367,324.578979 
	C241.911514,318.665192 241.929230,312.671143 242.034882,306.249542 
	C248.090408,309.925568 248.170547,319.046295 242.220367,324.578979 
z"/>
</svg>