<svg version="1.1" id="Layer_1" xmlns="http://www.w3.org/2000/svg" xmlns:xlink="http://www.w3.org/1999/xlink" x="0px" y="0px"
	 width="100%" viewBox="0 0 627 628" enable-background="new 0 0 627 628" xml:space="preserve">
<path fill="#014BAD" opacity="1.000000" stroke="none" 
	d="
M294.000000,1.000000 
	C307.354218,1.000000 320.708466,1.000000 334.724274,1.371706 
	C360.230377,3.402121 384.635956,7.667218 408.340576,15.246210 
	C472.559998,35.778847 525.363770,72.714882 565.983032,126.621376 
	C573.436157,136.512512 579.495789,147.453705 585.891968,158.123444 
	C585.110168,158.190903 584.635010,158.045105 584.000061,157.600296 
	C581.907593,156.170532 579.974976,155.039795 577.754028,153.659286 
	C575.679199,153.078812 573.892822,152.748093 572.029907,152.275146 
	C571.789917,151.968521 571.593262,151.900864 571.170776,151.638306 
	C569.564819,150.212204 568.205933,149.001022 566.729675,147.955429 
	C554.237549,139.107224 539.694092,137.034515 524.566772,135.276581 
	C510.744995,135.909042 497.381805,136.655624 483.625031,137.356506 
	C479.792267,137.883896 476.290436,138.211563 472.924408,139.071075 
	C454.933075,143.665054 436.975677,148.391800 418.617981,153.064255 
	C413.705963,154.410904 409.182434,155.765930 404.456665,157.181564 
	C403.319427,151.894867 402.247101,147.216980 401.312225,142.511780 
	C396.951569,120.564140 390.075256,99.338425 381.985352,78.558205 
	C377.873047,67.995277 372.087494,58.083752 366.998779,47.540169 
	C361.110718,36.810619 353.563721,27.791960 344.541687,20.083302 
	C332.208313,9.545403 318.133087,5.221101 301.634094,9.102446 
	C295.357086,12.022170 288.839325,14.135712 283.661346,18.030466 
	C262.654846,33.831039 250.610123,56.071003 240.619843,80.055016 
	C229.961441,104.325554 222.980225,129.447205 217.076080,154.987045 
	C209.627869,152.866470 202.813782,150.926453 195.675842,148.802948 
	C176.571075,144.451294 157.790192,140.283112 138.582245,136.040253 
	C123.464203,134.300644 108.769905,132.834549 93.609756,135.182831 
	C85.687386,137.085953 77.974396,138.495209 70.681870,141.087357 
	C49.478298,148.624237 37.364750,170.531631 40.479401,192.615479 
	C42.804909,209.104019 48.795185,224.067657 57.265339,237.985611 
	C64.047157,249.129379 72.272354,259.394714 80.005051,270.358368 
	C89.394958,280.871948 98.636795,291.077026 108.043228,301.563721 
	C114.028641,307.741852 119.849442,313.638397 126.093246,319.963470 
	C124.385086,321.470642 122.703522,322.824890 121.170341,324.330261 
	C115.619736,329.780182 110.118965,335.280853 104.297165,340.866760 
	C95.269264,350.617981 86.543587,360.264771 77.570763,370.049530 
	C76.899353,370.797791 76.475098,371.408112 75.774490,372.203796 
	C73.235344,375.559235 70.972534,378.729370 68.435226,382.081726 
	C57.851154,396.221741 49.123886,411.016693 44.560658,427.923676 
	C41.302769,439.994385 40.337143,452.128998 45.501274,463.952026 
	C52.859413,480.798187 66.836563,489.035706 84.358612,493.115417 
	C96.811584,494.458252 108.913803,495.627411 121.460541,496.849701 
	C133.288925,495.707092 144.672806,494.511383 156.487823,493.290405 
	C171.002228,490.220032 185.085495,487.174988 199.559021,484.109589 
	C204.424698,482.856506 208.917816,481.683716 213.369507,480.370575 
	C216.493881,479.448975 218.376312,479.361481 219.256531,483.584076 
	C221.047379,492.175171 223.236694,500.737427 226.032059,509.052643 
	C230.672104,522.855225 235.919693,536.453613 240.959808,550.474487 
	C241.680222,552.204529 242.352219,553.598145 243.036774,555.285461 
	C243.340271,556.064392 243.631241,556.549683 243.967468,557.394287 
	C252.470901,575.870850 262.262177,593.101746 277.253540,606.767883 
	C284.416901,613.298035 292.318207,618.647278 302.410767,620.897827 
	C304.758209,621.363342 306.691467,621.914978 308.647552,622.013123 
	C333.813049,623.276001 349.336151,608.621826 362.414093,589.273621 
	C363.646027,587.698608 364.830139,586.459595 365.507080,584.987305 
	C372.391205,570.016174 379.192657,555.006958 386.201416,539.689453 
	C392.278595,519.661072 398.171600,499.951569 404.161743,479.917267 
	C407.504944,480.827454 411.257416,481.849091 415.378387,482.980957 
	C428.803528,486.162903 441.860199,489.234650 455.228394,492.513092 
	C468.363831,494.386261 481.187805,496.052704 494.472534,497.803589 
	C499.061951,497.989838 503.205566,498.363831 507.316040,498.137146 
	C515.997375,497.658325 524.661499,496.865387 533.733459,496.199432 
	C537.544434,495.489563 540.990417,494.920227 544.358276,494.048981 
	C557.036926,490.768860 568.433044,485.187469 576.593628,474.549286 
	C588.283813,459.309875 588.062622,442.314728 582.485352,425.132172 
	C572.340759,393.878204 551.579163,369.675720 528.971191,346.422058 
	C518.960876,336.675751 509.097626,327.217590 499.256989,317.781128 
	C504.450745,312.852753 509.660889,307.908813 515.181702,302.831512 
	C522.706421,294.897125 529.920410,287.096130 537.434204,279.110962 
	C542.724854,272.846741 547.959900,266.948853 552.661133,260.652405 
	C566.872620,241.618530 579.683716,221.778656 584.261780,197.932312 
	C585.810669,189.864548 586.012939,181.566772 589.376404,173.837082 
	C590.150208,172.058899 589.324097,169.616837 589.388306,167.484924 
	C589.423889,166.300079 589.777771,165.124802 590.226257,164.208557 
	C606.932617,194.737030 618.355042,226.764069 624.120483,260.771362 
	C625.377747,268.187012 626.704956,275.590790 628.000000,283.000000 
	C628.000000,304.354218 628.000000,325.708466 627.643433,347.707336 
	C623.260742,367.866455 620.677307,387.816162 614.944946,406.815796 
	C595.773132,470.359985 559.484009,522.591125 507.000366,563.260803 
	C462.379517,597.837585 411.882599,618.715454 355.904877,626.261536 
	C349.594849,627.112183 343.301239,628.084290 337.000000,629.000000 
	C322.312439,629.000000 307.624878,629.000000 292.294678,628.634277 
	C252.484909,625.075256 214.997269,615.315613 179.635559,598.234619 
	C123.361794,571.052246 78.695572,530.786804 46.269890,477.254700 
	C23.584597,439.803223 9.431014,399.294403 3.803355,355.831207 
	C3.031036,349.866486 1.942263,343.942719 1.000001,338.000000 
	C1.000000,323.645782 1.000000,309.291534 1.361556,294.269775 
	C4.636270,275.222137 6.169924,256.493774 10.706505,238.523560 
	C28.331600,168.707245 65.751053,111.362465 122.610260,67.076981 
	C167.431030,32.167767 218.189133,11.105003 274.604340,3.831725 
	C281.083557,2.996395 287.535431,1.949045 294.000000,1.000000 
z"/>
<path fill="#000000" opacity="1.000000" stroke="none" 
	d="
M1.000000,247.000000 
	C1.000000,165.070541 1.000000,83.141075 1.000000,1.000000 
	C88.354111,1.000000 175.708405,1.000000 263.833801,1.363320 
	C260.057678,2.644398 255.465988,3.385428 250.972504,4.516567 
	C241.504868,6.899836 232.112396,9.581397 222.646255,11.970892 
	C205.325821,16.343012 188.729996,22.841736 173.072556,31.187254 
	C157.204605,39.644974 141.682007,48.965057 126.923492,59.224213 
	C114.348076,67.965813 102.233597,77.742455 91.443626,88.582558 
	C79.105888,100.977638 68.161804,114.817123 57.194405,128.495834 
	C51.364819,135.766586 46.578934,143.909180 41.676868,151.876602 
	C38.255627,157.437241 35.288628,163.294891 32.380436,169.149857 
	C26.917938,180.147324 21.014111,190.987640 16.482021,202.366562 
	C12.474396,212.428757 10.016591,223.115509 7.016455,233.567261 
	C6.097498,236.768707 5.961838,240.217468 4.846011,243.330200 
	C4.311450,244.821396 2.327513,245.793045 1.000000,247.000000 
z"/>
<path fill="#000000" opacity="1.000000" stroke="none" 
	d="
M260.000000,629.000000 
	C173.741653,629.000000 87.483292,629.000000 1.000000,629.000000 
	C1.000000,547.645935 1.000000,466.291626 1.336866,384.174316 
	C4.273718,385.582458 5.103130,388.222626 5.158882,391.712677 
	C5.218846,395.466400 6.288115,399.302612 7.479847,402.917267 
	C9.400815,408.743835 11.753430,414.429871 13.977095,420.154510 
	C18.052279,430.645752 21.717552,441.327515 26.397678,451.543213 
	C30.602909,460.722351 35.695015,469.528870 40.868515,478.218414 
	C44.106441,483.656921 48.223930,488.571136 51.937817,493.727020 
	C57.819263,501.892090 63.050453,510.636505 69.716034,518.100525 
	C80.621040,530.311829 92.166977,541.995850 104.016045,553.301208 
	C110.552864,559.538086 118.133316,564.722046 125.477234,570.058716 
	C131.049530,574.108032 136.991928,577.647949 142.768585,581.416199 
	C149.715714,585.947876 156.460129,590.838684 163.669189,594.906006 
	C169.918808,598.432129 176.560272,601.373962 183.265778,603.958679 
	C196.843475,609.192322 210.422455,614.522156 224.304230,618.836243 
	C235.482574,622.310242 247.112915,624.324524 258.517731,627.089539 
	C259.130188,627.238037 259.511230,628.341248 260.000000,629.000000 
z"/>
<path fill="#000000" opacity="1.000000" stroke="none" 
	d="
M368.000000,0.999997 
	C454.590942,1.000000 541.181885,1.000000 628.000000,1.000000 
	C628.000000,81.020752 628.000000,161.041718 627.656311,241.830429 
	C626.544983,240.917145 625.548157,239.296738 625.082397,237.535858 
	C624.711304,236.132828 625.380127,234.420624 624.910217,233.083649 
	C622.748901,226.934692 620.207153,220.918747 618.073303,214.761017 
	C615.539490,207.448792 613.758362,199.842636 610.793884,192.720688 
	C606.517212,182.446609 601.804260,172.318268 596.644836,162.458801 
	C592.438721,154.421204 587.871704,146.445648 582.456055,139.196091 
	C573.171753,126.767845 563.399902,114.668556 553.252319,102.933022 
	C546.579590,95.216049 539.217957,88.008842 531.584717,81.226128 
	C515.224548,66.688927 497.943695,53.421116 478.641571,42.791794 
	C458.536194,31.720097 438.372803,20.753721 416.319336,14.208746 
	C400.944000,9.645697 385.095215,6.681297 369.480164,2.910523 
	C368.868683,2.762859 368.488159,1.658550 368.000000,0.999997 
z"/>
<path fill="#000000" opacity="1.000000" stroke="none" 
	d="
M628.000000,389.000000 
	C628.000000,468.929260 628.000000,548.858521 628.000000,629.000000 
	C543.312561,629.000000 458.624939,629.000000 373.168976,628.651672 
	C373.227905,627.872192 374.009521,627.250183 374.889587,627.039673 
	C383.007172,625.098267 391.289062,623.701538 399.238007,621.229553 
	C412.214264,617.194275 425.133270,612.871277 437.781952,607.917725 
	C448.780090,603.610596 459.626404,598.746521 470.063568,593.227844 
	C479.032990,588.485229 487.646973,582.904968 495.850555,576.917358 
	C508.814178,567.455383 521.905701,558.013123 533.813538,547.306274 
	C544.490967,537.705750 553.699097,526.460632 563.442871,515.837891 
	C567.068542,511.885223 570.655029,507.839355 573.760864,503.480774 
	C578.322693,497.078979 582.437256,490.358490 586.742188,483.773590 
	C589.469971,479.601013 592.580322,475.623993 594.836853,471.210388 
	C598.382446,464.275452 601.427002,457.078766 604.547302,449.933350 
	C608.448730,440.999054 612.305603,432.042450 615.978760,423.012909 
	C617.104675,420.245056 616.930359,416.812561 618.449707,414.366638 
	C622.552917,407.761017 623.898926,400.489410 625.117554,393.050964 
	C625.358154,391.582642 627.002808,390.344360 628.000000,389.000000 
z"/>
<path fill="#F9FAFD" opacity="1.000000" stroke="none" 
	d="
M628.000000,388.531311 
	C627.002808,390.344360 625.358154,391.582642 625.117554,393.050964 
	C623.898926,400.489410 622.552917,407.761017 618.449707,414.366638 
	C616.930359,416.812561 617.104675,420.245056 615.978760,423.012909 
	C612.305603,432.042450 608.448730,440.999054 604.547302,449.933350 
	C601.427002,457.078766 598.382446,464.275452 594.836853,471.210388 
	C592.580322,475.623993 589.469971,479.601013 586.742188,483.773590 
	C582.437256,490.358490 578.322693,497.078979 573.760864,503.480774 
	C570.655029,507.839355 567.068542,511.885223 563.442871,515.837891 
	C553.699097,526.460632 544.490967,537.705750 533.813538,547.306274 
	C521.905701,558.013123 508.814178,567.455383 495.850555,576.917358 
	C487.646973,582.904968 479.032990,588.485229 470.063568,593.227844 
	C459.626404,598.746521 448.780090,603.610596 437.781952,607.917725 
	C425.133270,612.871277 412.214264,617.194275 399.238007,621.229553 
	C391.289062,623.701538 383.007172,625.098267 374.889587,627.039673 
	C374.009521,627.250183 373.227905,627.872192 372.700317,628.651672 
	C361.312439,629.000000 349.624878,629.000000 337.468658,629.000000 
	C343.301239,628.084290 349.594849,627.112183 355.904877,626.261536 
	C411.882599,618.715454 462.379517,597.837585 507.000366,563.260803 
	C559.484009,522.591125 595.773132,470.359985 614.944946,406.815796 
	C620.677307,387.816162 623.260742,367.866455 627.643433,348.176025 
	C628.000000,361.354218 628.000000,374.708466 628.000000,388.531311 
z"/>
<path fill="#F8FAFD" opacity="1.000000" stroke="none" 
	d="
M367.531342,0.999997 
	C368.488159,1.658550 368.868683,2.762859 369.480164,2.910523 
	C385.095215,6.681297 400.944000,9.645697 416.319336,14.208746 
	C438.372803,20.753721 458.536194,31.720097 478.641571,42.791794 
	C497.943695,53.421116 515.224548,66.688927 531.584717,81.226128 
	C539.217957,88.008842 546.579590,95.216049 553.252319,102.933022 
	C563.399902,114.668556 573.171753,126.767845 582.456055,139.196091 
	C587.871704,146.445648 592.438721,154.421204 596.644836,162.458801 
	C601.804260,172.318268 606.517212,182.446609 610.793884,192.720688 
	C613.758362,199.842636 615.539490,207.448792 618.073303,214.761017 
	C620.207153,220.918747 622.748901,226.934692 624.910217,233.083649 
	C625.380127,234.420624 624.711304,236.132828 625.082397,237.535858 
	C625.548157,239.296738 626.544983,240.917145 627.656311,242.299088 
	C628.000000,255.354233 628.000000,268.708466 628.000000,282.531342 
	C626.704956,275.590790 625.377747,268.187012 624.120483,260.771362 
	C618.355042,226.764069 606.932617,194.737030 590.206421,163.894440 
	C589.054138,162.217606 588.159851,161.118256 587.181274,159.682510 
	C586.752991,158.874084 586.409058,158.402054 586.103027,157.955536 
	C586.140869,157.981079 586.198608,157.910217 586.198608,157.910217 
	C579.495789,147.453705 573.436157,136.512512 565.983032,126.621376 
	C525.363770,72.714882 472.559998,35.778847 408.340576,15.246210 
	C384.635956,7.667218 360.230377,3.402121 335.192932,1.371706 
	C345.687561,1.000000 356.375122,1.000000 367.531342,0.999997 
z"/>
<path fill="#F8FAFD" opacity="1.000000" stroke="none" 
	d="
M260.468658,629.000000 
	C259.511230,628.341248 259.130188,627.238037 258.517731,627.089539 
	C247.112915,624.324524 235.482574,622.310242 224.304230,618.836243 
	C210.422455,614.522156 196.843475,609.192322 183.265778,603.958679 
	C176.560272,601.373962 169.918808,598.432129 163.669189,594.906006 
	C156.460129,590.838684 149.715714,585.947876 142.768585,581.416199 
	C136.991928,577.647949 131.049530,574.108032 125.477234,570.058716 
	C118.133316,564.722046 110.552864,559.538086 104.016045,553.301208 
	C92.166977,541.995850 80.621040,530.311829 69.716034,518.100525 
	C63.050453,510.636505 57.819263,501.892090 51.937817,493.727020 
	C48.223930,488.571136 44.106441,483.656921 40.868515,478.218414 
	C35.695015,469.528870 30.602909,460.722351 26.397678,451.543213 
	C21.717552,441.327515 18.052279,430.645752 13.977095,420.154510 
	C11.753430,414.429871 9.400815,408.743835 7.479847,402.917267 
	C6.288115,399.302612 5.218846,395.466400 5.158882,391.712677 
	C5.103130,388.222626 4.273718,385.582458 1.336866,383.705688 
	C1.000000,368.979095 1.000000,353.958221 1.000001,338.468658 
	C1.942263,343.942719 3.031036,349.866486 3.803355,355.831207 
	C9.431014,399.294403 23.584597,439.803223 46.269890,477.254700 
	C78.695572,530.786804 123.361794,571.052246 179.635559,598.234619 
	C214.997269,615.315613 252.484909,625.075256 291.826050,628.634277 
	C281.645782,629.000000 271.291534,629.000000 260.468658,629.000000 
z"/>
<path fill="#F7F9FC" opacity="1.000000" stroke="none" 
	d="
M1.000000,247.468658 
	C2.327513,245.793045 4.311450,244.821396 4.846011,243.330200 
	C5.961838,240.217468 6.097498,236.768707 7.016455,233.567261 
	C10.016591,223.115509 12.474396,212.428757 16.482021,202.366562 
	C21.014111,190.987640 26.917938,180.147324 32.380436,169.149857 
	C35.288628,163.294891 38.255627,157.437241 41.676868,151.876602 
	C46.578934,143.909180 51.364819,135.766586 57.194405,128.495834 
	C68.161804,114.817123 79.105888,100.977638 91.443626,88.582558 
	C102.233597,77.742455 114.348076,67.965813 126.923492,59.224213 
	C141.682007,48.965057 157.204605,39.644974 173.072556,31.187254 
	C188.729996,22.841736 205.325821,16.343012 222.646255,11.970892 
	C232.112396,9.581397 241.504868,6.899836 250.972504,4.516567 
	C255.465988,3.385428 260.057678,2.644398 264.302429,1.363320 
	C273.687561,1.000000 283.375122,1.000000 293.531342,1.000000 
	C287.535431,1.949045 281.083557,2.996395 274.604340,3.831725 
	C218.189133,11.105003 167.431030,32.167767 122.610260,67.076981 
	C65.751053,111.362465 28.331600,168.707245 10.706505,238.523560 
	C6.169924,256.493774 4.636270,275.222137 1.361556,293.801086 
	C1.000000,278.645782 1.000000,263.291534 1.000000,247.468658 
z"/>
<path fill="#56BEC2" opacity="1.000000" stroke="none" 
	d="
M240.911407,550.138000 
	C235.919693,536.453613 230.672104,522.855225 226.032059,509.052643 
	C223.236694,500.737427 221.047379,492.175171 219.256531,483.584076 
	C218.376312,479.361481 216.493881,479.448975 213.369507,480.370575 
	C208.917816,481.683716 204.424698,482.856506 199.237823,483.813538 
	C198.351913,476.705139 198.177460,469.872406 198.322144,462.853271 
	C201.790848,461.625214 204.880524,460.307587 208.104309,459.607849 
	C212.724213,458.605072 213.479279,456.093414 212.814682,451.720215 
	C210.001404,433.208466 207.582245,414.637268 204.904022,396.104370 
	C203.774765,388.290100 206.014771,378.984314 196.073456,374.447754 
	C196.421112,371.933380 196.852554,369.827484 196.974762,367.703766 
	C197.439880,359.620789 197.805176,351.532074 198.607697,343.580139 
	C199.709488,342.288940 200.994797,340.875366 201.025009,339.435455 
	C201.421860,320.527649 201.645996,301.616119 201.900681,282.705383 
	C201.936905,280.016266 201.905685,277.326233 201.905685,273.403687 
	C196.617096,277.207153 192.380997,280.253662 187.906235,282.972534 
	C182.106644,281.594147 184.503281,277.167603 184.178467,273.701141 
	C189.391159,269.871918 194.338104,266.200165 199.472870,262.813171 
	C201.931885,261.191162 203.035080,259.381561 203.088669,256.343048 
	C203.188141,250.701889 203.525284,245.029663 204.286545,239.441620 
	C207.377960,216.749039 210.629318,194.077850 213.933990,171.415161 
	C214.345383,168.593948 213.690353,167.068268 210.833282,166.327927 
	C205.528442,164.953278 200.280533,163.359009 195.189087,161.492386 
	C195.579407,157.081192 195.789551,153.033813 195.999695,148.986420 
	C202.813782,150.926453 209.627869,152.866470 217.076080,154.987045 
	C222.980225,129.447205 229.961441,104.325554 240.806488,80.402008 
	C242.168549,82.125664 243.876297,83.749161 243.874100,85.370338 
	C243.854156,100.079987 243.494064,114.788994 243.414169,129.499176 
	C243.409683,130.325790 244.992722,131.161041 245.858154,132.310226 
	C245.585327,133.419159 245.291245,134.210114 244.835464,135.083420 
	C244.606155,135.264297 244.459198,135.412750 244.484436,135.452881 
	C244.604919,135.644348 244.772095,135.806412 244.937805,136.377914 
	C243.391891,143.477524 241.644196,150.142807 240.364395,156.896729 
	C239.872787,159.491074 238.195053,162.828491 242.089569,165.051590 
	C242.001114,169.116669 241.949692,172.740097 241.527420,176.312256 
	C239.925964,175.984375 238.695374,175.707794 236.529907,175.221085 
	C233.824570,197.789261 231.167419,219.955399 228.377747,243.227173 
	C233.237106,240.556793 236.551590,238.735382 240.179398,237.198792 
	C240.702377,240.774292 240.912018,244.064957 240.912933,247.609024 
	C237.628891,249.838333 234.332123,251.551575 231.560913,253.888138 
	C229.883377,255.302582 228.101593,257.611053 227.942902,259.641052 
	C227.037903,271.218628 226.120346,282.833252 226.119949,294.435333 
	C226.119186,316.035980 226.671066,337.638641 227.243652,359.233826 
	C227.293671,361.119904 228.749054,363.585297 230.319336,364.705383 
	C236.387985,369.034180 242.767990,372.926544 248.726776,377.223358 
	C247.947723,379.655212 247.187836,381.827576 247.051834,384.038361 
	C246.580719,391.696899 246.326584,399.368774 245.657181,406.932068 
	C240.404129,403.931732 235.483765,401.034821 229.497498,397.510376 
	C231.709213,415.439270 233.776443,432.196869 235.906036,449.460083 
	C240.401596,447.946472 243.660675,446.849152 246.943329,446.235413 
	C246.977966,452.177155 246.817627,457.644196 247.100861,463.088196 
	C247.189972,464.801117 248.469498,466.452057 248.935120,468.381226 
	C240.375412,471.600098 240.242554,471.627808 242.063309,480.360352 
	C243.920959,489.269775 246.076019,498.117157 247.672638,506.996307 
	C244.000504,506.697937 243.972839,508.820374 243.982162,511.156433 
	C244.024414,521.751526 244.186920,532.352722 243.859329,542.937866 
	C243.784180,545.366028 241.940948,547.739380 240.911407,550.138000 
z"/>
<path fill="#70C7CC" opacity="1.000000" stroke="none" 
	d="
M415.009918,482.870728 
	C411.257416,481.849091 407.504944,480.827454 404.161743,479.917267 
	C398.171600,499.951569 392.278595,519.661072 385.933105,539.470459 
	C385.150024,530.737366 384.870880,521.901611 384.393738,513.076538 
	C384.354279,512.346985 382.972748,511.689911 382.252075,510.636078 
	C384.762146,501.325256 387.324493,492.400970 389.679596,483.422333 
	C391.588196,476.145905 391.477692,476.116913 385.000854,472.452759 
	C385.029053,463.203247 385.057770,454.415192 385.467957,445.693604 
	C389.276917,446.912811 392.704407,448.065613 397.371002,449.635162 
	C400.071564,429.578888 402.685364,410.166840 405.444458,389.675812 
	C397.761566,394.271820 391.372223,398.093994 384.988556,401.454010 
	C384.996155,398.517426 385.098083,396.038208 384.980011,393.569550 
	C384.698944,387.691498 384.313812,381.818420 384.162872,375.667725 
	C391.054718,371.040039 397.818878,366.781586 404.397980,362.254242 
	C405.663879,361.383118 406.822601,359.517090 406.969025,358.007080 
	C407.530518,352.217285 407.947937,346.383179 407.899963,340.569885 
	C407.696442,315.928619 407.227478,291.289429 407.069550,266.648071 
	C407.045532,262.900940 405.977600,260.596619 402.715790,258.599243 
	C388.395294,249.830078 374.233765,240.801300 360.010681,231.433029 
	C360.386627,227.866013 360.766510,224.732605 361.468384,221.751648 
	C376.048523,230.249771 390.306732,238.595490 404.564911,246.941208 
	C405.086609,246.692657 405.608276,246.444107 406.129974,246.195572 
	C402.819275,221.853088 399.508575,197.510605 396.107300,172.502136 
	C383.639313,177.061523 372.473083,181.144897 360.971313,184.942932 
	C360.407104,181.397629 360.178497,178.137650 360.191956,174.626907 
	C371.170074,170.015320 381.906067,165.654495 393.121552,161.098907 
	C390.921967,152.155228 389.363617,142.956100 386.377106,134.246689 
	C379.243622,113.443787 371.436890,92.871735 364.073486,71.809532 
	C364.496613,67.685677 364.591278,63.939651 365.041870,60.236938 
	C365.545715,56.096725 366.372253,51.995785 367.058380,47.877750 
	C372.087494,58.083752 377.873047,67.995277 381.985352,78.558205 
	C390.075256,99.338425 396.951569,120.564140 401.312225,142.511780 
	C402.247101,147.216980 403.319427,151.894867 404.456665,157.181564 
	C409.182434,155.765930 413.705963,154.410904 418.615784,153.504364 
	C419.758453,157.348801 420.514832,160.744736 420.987976,164.386505 
	C417.221863,165.747040 413.786102,167.055374 410.241730,167.917145 
	C407.227356,168.650055 406.858734,170.344711 407.176117,173.046921 
	C410.217590,198.940735 413.067993,224.857666 416.290253,250.728470 
	C416.606689,253.269272 418.627014,255.981659 420.588593,257.842682 
	C423.445831,260.553436 426.967987,262.563324 429.890625,265.096802 
	C428.723511,268.522858 427.872406,271.724182 426.694275,274.828674 
	C423.807770,273.069885 421.248260,271.407867 418.037811,269.323090 
	C418.037811,297.880585 418.037811,325.401581 417.805542,353.243927 
	C417.137421,354.045624 416.325500,354.522949 416.321655,355.006744 
	C416.257690,363.036835 416.272339,371.068054 416.369263,379.097809 
	C416.374756,379.554382 417.239410,380.000641 417.429596,380.715210 
	C416.133301,387.272919 414.884766,393.540680 414.147339,399.868011 
	C413.223480,407.794861 412.956055,415.800201 411.968750,423.717224 
	C410.931274,432.036835 409.490814,440.312561 408.000458,448.566620 
	C407.299896,452.446350 407.248718,455.341827 412.324402,455.788055 
	C414.299896,455.961731 416.181732,457.201080 417.790955,458.189362 
	C416.983765,460.635742 416.231293,462.826721 416.050476,465.063873 
	C415.571564,470.988800 415.339935,476.933746 415.009918,482.870728 
z"/>
<path fill="#8ED3D9" opacity="1.000000" stroke="none" 
	d="
M529.118347,346.710266 
	C551.579163,369.675720 572.340759,393.878204 582.485352,425.132172 
	C588.062622,442.314728 588.283813,459.309875 576.593628,474.549286 
	C568.433044,485.187469 557.036926,490.768860 544.358276,494.048981 
	C540.990417,494.920227 537.544434,495.489563 533.430664,495.986206 
	C532.816895,489.167542 532.906677,482.560211 533.330383,475.769287 
	C535.932190,475.074188 538.206665,474.589935 540.466980,474.046722 
	C558.296875,469.761688 570.849854,459.292236 567.137939,436.679138 
	C565.140015,424.508087 560.713196,413.169800 554.087463,402.983948 
	C545.224609,389.358978 535.382690,376.370941 525.982666,362.682556 
	C526.336060,359.839081 526.545532,357.397491 527.031921,355.012390 
	C527.601501,352.219360 528.412231,349.475464 529.118347,346.710266 
z"/>
<path fill="#42ADB8" opacity="1.000000" stroke="none" 
	d="
M79.856979,270.049896 
	C72.272354,259.394714 64.047157,249.129379 57.265339,237.985611 
	C48.795185,224.067657 42.804909,209.104019 40.479401,192.615479 
	C37.364750,170.531631 49.478298,148.624237 70.681870,141.087357 
	C77.974396,138.495209 85.687386,137.085953 93.549759,135.546295 
	C93.002083,141.388382 92.112938,146.820511 91.162613,152.221252 
	C91.101433,152.189865 91.069603,152.056076 90.835983,152.148209 
	C90.398575,152.499588 90.194778,152.758835 89.662888,153.180252 
	C86.661499,154.236053 83.963333,155.062042 81.319000,156.034409 
	C65.162857,161.975250 56.893913,174.239441 60.419170,189.821213 
	C62.656948,199.712296 66.914055,209.265884 71.210220,218.532898 
	C74.457016,225.536362 79.199059,231.846603 83.200500,238.962494 
	C83.083427,248.231277 83.016235,257.002930 83.016762,265.774597 
	C83.016899,268.053864 83.127243,270.258636 79.856979,270.049896 
z"/>
<path fill="#5CC0C5" opacity="1.000000" stroke="none" 
	d="
M245.836884,131.992264 
	C244.992722,131.161041 243.409683,130.325790 243.414169,129.499176 
	C243.494064,114.788994 243.854156,100.079987 243.874100,85.370338 
	C243.876297,83.749161 242.168549,82.125664 241.067261,80.156250 
	C250.610123,56.071003 262.654846,33.831039 283.661346,18.030466 
	C288.839325,14.135712 295.357086,12.022170 301.631042,9.560658 
	C302.367889,15.702020 302.732666,21.372517 302.877502,27.305290 
	C296.701050,32.498001 290.054138,36.805756 284.930328,42.487152 
	C273.911346,54.705235 266.727020,69.441521 261.136871,84.743790 
	C255.460236,100.282631 250.891052,116.226036 245.836884,131.992264 
z"/>
<path fill="#5CC0C5" opacity="1.000000" stroke="none" 
	d="
M240.959808,550.474487 
	C241.940948,547.739380 243.784180,545.366028 243.859329,542.937866 
	C244.186920,532.352722 244.024414,521.751526 243.982162,511.156433 
	C243.972839,508.820374 244.000504,506.697937 247.847778,507.330017 
	C249.112228,510.717773 249.414368,513.910217 250.496445,516.811890 
	C255.192734,529.405151 259.624847,542.132019 265.072540,554.401978 
	C273.300476,572.933960 283.135437,590.484192 301.039215,602.243408 
	C301.350861,608.741516 301.679016,614.757385 302.007202,620.773193 
	C292.318207,618.647278 284.416901,613.298035 277.253540,606.767883 
	C262.262177,593.101746 252.470901,575.870850 244.204773,557.227783 
	C243.939270,556.131836 243.481735,555.561829 243.024216,554.991760 
	C242.352219,553.598145 241.680222,552.204529 240.959808,550.474487 
z"/>
<path fill="#42ACB8" opacity="1.000000" stroke="none" 
	d="
M84.007858,492.941742 
	C66.836563,489.035706 52.859413,480.798187 45.501274,463.952026 
	C40.337143,452.128998 41.302769,439.994385 44.560658,427.923676 
	C49.123886,411.016693 57.851154,396.221741 68.868790,382.119812 
	C72.789497,382.047729 72.922783,384.223877 73.042992,386.695038 
	C73.229958,390.538879 73.704010,394.368713 73.945419,398.523132 
	C69.016869,410.290009 63.451653,421.493469 59.600807,433.258118 
	C56.049049,444.109039 56.689533,455.622345 65.391968,464.032074 
	C70.432526,468.903076 77.723618,471.445221 84.012238,475.455139 
	C84.017670,481.563812 84.012764,487.252777 84.007858,492.941742 
z"/>
<path fill="#8DD2D9" opacity="1.000000" stroke="none" 
	d="
M587.265564,160.018890 
	C588.159851,161.118256 589.054138,162.217606 589.968262,163.631104 
	C589.777771,165.124802 589.423889,166.300079 589.388306,167.484924 
	C589.324097,169.616837 590.150208,172.058899 589.376404,173.837082 
	C586.012939,181.566772 585.810669,189.864548 584.261780,197.932312 
	C579.683716,221.778656 566.872620,241.618530 552.661133,260.652405 
	C547.959900,266.948853 542.724854,272.846741 537.270386,278.734406 
	C536.204956,276.539551 535.205383,274.561157 535.082886,272.529846 
	C534.817078,268.123199 535.239258,263.669098 534.865356,259.278259 
	C534.738708,257.791046 533.062805,256.435822 532.206665,254.708374 
	C538.521057,246.157074 545.113831,238.178314 550.833374,229.616165 
	C559.088318,217.258453 566.025208,204.193069 568.226318,189.041107 
	C569.761963,189.016693 570.878967,189.005127 572.383057,189.000732 
	C574.184998,188.676804 575.599854,188.345703 577.390625,187.968536 
	C581.037231,187.163742 582.188049,185.154388 582.068604,181.790237 
	C581.846008,175.519409 581.854187,169.229050 582.103577,162.960236 
	C582.171692,161.248703 583.441589,159.584976 584.159912,157.899307 
	C584.635010,158.045105 585.110168,158.190903 585.891968,158.123444 
	C586.198608,157.910217 586.140869,157.981079 585.942139,158.301270 
	C586.250854,159.087280 586.758179,159.553085 587.265564,160.018890 
z"/>
<path fill="#66C4C9" opacity="1.000000" stroke="none" 
	d="
M303.097443,27.043015 
	C302.732666,21.372517 302.367889,15.702020 302.006165,9.573311 
	C318.133087,5.221101 332.208313,9.545403 344.541687,20.083302 
	C353.563721,27.791960 361.110718,36.810619 366.998779,47.540169 
	C366.372253,51.995785 365.545715,56.096725 365.041870,60.236938 
	C364.591278,63.939651 364.496613,67.685677 363.801697,71.592575 
	C357.862732,63.087734 353.101837,53.812912 346.707947,45.849220 
	C335.698822,32.137207 323.234497,20.268881 303.097443,27.043015 
z"/>
<path fill="#85CFD4" opacity="1.000000" stroke="none" 
	d="
M528.971191,346.422058 
	C528.412231,349.475464 527.601501,352.219360 527.031921,355.012390 
	C526.545532,357.397491 526.336060,359.839081 525.678101,362.534546 
	C514.378174,351.512329 503.358795,340.254669 492.473724,328.868652 
	C490.590118,326.898407 489.060638,326.665985 487.074799,327.905579 
	C487.028687,320.859467 487.201538,314.307465 486.874664,307.780457 
	C486.786804,306.026398 485.178345,304.348450 484.476318,302.358948 
	C493.778625,293.685547 502.872528,285.288788 512.025146,277.313843 
	C512.389221,284.662018 512.597412,291.595123 513.075989,298.509460 
	C513.181152,300.028717 514.247375,301.481476 514.871033,302.964874 
	C509.660889,307.908813 504.450745,312.852753 499.256989,317.781128 
	C509.097626,327.217590 518.960876,336.675751 528.971191,346.422058 
z"/>
<path fill="#4AB5BD" opacity="1.000000" stroke="none" 
	d="
M104.599380,340.762360 
	C110.118965,335.280853 115.619736,329.780182 121.170341,324.330261 
	C122.703522,322.824890 124.385086,321.470642 126.093246,319.963470 
	C119.849442,313.638397 114.028641,307.741852 108.082626,301.068542 
	C108.026970,289.399689 108.096527,278.507599 108.474419,267.768768 
	C111.395302,270.644684 113.930588,273.446960 116.636688,276.073212 
	C122.071152,281.347321 127.598862,286.525360 133.059586,292.235321 
	C133.020721,302.452362 132.949341,312.177765 133.048691,321.901459 
	C133.069931,323.981689 133.710358,326.055573 133.905121,328.422272 
	C125.866966,336.487518 117.989220,344.262878 109.718430,351.980072 
	C108.550316,350.159119 107.755516,348.404694 107.005486,346.631317 
	C106.181946,344.684113 105.399643,342.719421 104.599380,340.762360 
z"/>
<path fill="#66C4C9" opacity="1.000000" stroke="none" 
	d="
M302.410767,620.897827 
	C301.679016,614.757385 301.350861,608.741516 301.393921,602.381958 
	C305.445099,602.973267 309.087585,604.489807 312.812408,604.730042 
	C322.410645,605.349060 330.602448,601.107971 336.777679,594.425964 
	C344.727844,585.823364 351.532257,576.161865 359.237335,567.046509 
	C360.096313,568.745239 360.812592,570.331238 360.952301,571.966553 
	C361.451019,577.802429 361.753906,583.655029 362.130890,589.501343 
	C349.336151,608.621826 333.813049,623.276001 308.647552,622.013123 
	C306.691467,621.914978 304.758209,621.363342 302.410767,620.897827 
z"/>
<path fill="#77CACF" opacity="1.000000" stroke="none" 
	d="
M415.378387,482.980957 
	C415.339935,476.933746 415.571564,470.988800 416.050476,465.063873 
	C416.231293,462.826721 416.983765,460.635742 418.177551,458.226044 
	C431.365295,461.625519 443.851135,465.222687 455.997437,469.048462 
	C455.105316,471.265076 454.074249,473.257080 454.090973,475.240234 
	C454.139038,480.930878 454.611328,486.617920 454.916870,492.306396 
	C441.860199,489.234650 428.803528,486.162903 415.378387,482.980957 
z"/>
<path fill="#87D0D5" opacity="1.000000" stroke="none" 
	d="
M532.996460,475.952881 
	C532.906677,482.560211 532.816895,489.167542 533.029846,495.988098 
	C524.661499,496.865387 515.997375,497.658325 507.316040,498.137146 
	C503.205566,498.363831 499.061951,497.989838 494.411743,497.457977 
	C489.186218,490.135345 490.772552,482.698853 492.422180,475.267792 
	C506.221161,475.479736 519.608826,475.716309 532.996460,475.952881 
z"/>
<path fill="#46B1BA" opacity="1.000000" stroke="none" 
	d="
M108.166092,267.615479 
	C108.096527,278.507599 108.026970,289.399689 107.918015,300.786987 
	C98.636795,291.077026 89.394958,280.871948 80.005051,270.358368 
	C83.127243,270.258636 83.016899,268.053864 83.016762,265.774597 
	C83.016235,257.002930 83.083427,248.231277 83.478470,239.166733 
	C87.007545,242.820358 90.096573,246.840958 93.380013,250.695953 
	C98.236237,256.397522 103.230560,261.981445 108.166092,267.615479 
z"/>
<path fill="#7ECDD1" opacity="1.000000" stroke="none" 
	d="
M492.010834,475.292419 
	C490.772552,482.698853 489.186218,490.135345 493.950958,497.373596 
	C481.187805,496.052704 468.363831,494.386261 455.228394,492.513092 
	C454.611328,486.617920 454.139038,480.930878 454.090973,475.240234 
	C454.074249,473.257080 455.105316,471.265076 456.382141,469.057220 
	C468.741211,470.989014 480.376038,473.140717 492.010834,475.292419 
z"/>
<path fill="#51BCC0" opacity="1.000000" stroke="none" 
	d="
M198.003006,463.039703 
	C198.177460,469.872406 198.351913,476.705139 198.847549,483.833862 
	C185.085495,487.174988 171.002228,490.220032 156.472565,492.831848 
	C155.990570,486.173798 155.954971,479.948975 156.227280,473.505157 
	C157.999863,473.005585 159.482697,472.796906 160.926422,472.433167 
	C173.289291,469.317902 185.645096,466.174622 198.003006,463.039703 
z"/>
<path fill="#78CACF" opacity="1.000000" stroke="none" 
	d="
M421.271210,164.140656 
	C420.514832,160.744736 419.758453,157.348801 419.004303,153.512756 
	C436.975677,148.391800 454.933075,143.665054 472.924408,139.071075 
	C476.290436,138.211563 479.792267,137.883896 483.619629,137.744110 
	C483.831604,141.093445 483.785980,144.025818 483.424194,146.918655 
	C483.242371,148.372284 482.485718,149.754028 481.632812,151.330139 
	C471.373322,153.286133 461.423065,154.857590 451.579895,156.936020 
	C441.422760,159.080688 431.369751,161.718567 421.271210,164.140656 
z"/>
<path fill="#6EC6CC" opacity="1.000000" stroke="none" 
	d="
M362.414093,589.273621 
	C361.753906,583.655029 361.451019,577.802429 360.952301,571.966553 
	C360.812592,570.331238 360.096313,568.745239 359.320862,566.696411 
	C366.736420,547.837158 374.475586,529.418152 382.214783,510.999146 
	C382.972748,511.689911 384.354279,512.346985 384.393738,513.076538 
	C384.870880,521.901611 385.150024,530.737366 385.748993,539.789429 
	C379.192657,555.006958 372.391205,570.016174 365.507080,584.987305 
	C364.830139,586.459595 363.646027,587.698608 362.414093,589.273621 
z"/>
<path fill="#4FBBC0" opacity="1.000000" stroke="none" 
	d="
M195.675842,148.802948 
	C195.789551,153.033813 195.579407,157.081192 194.802979,161.478394 
	C174.492874,158.196945 154.749023,154.565720 135.258133,150.671997 
	C139.243240,149.987457 140.277359,147.555344 139.978897,144.255188 
	C139.732849,141.534790 139.338135,138.827835 139.009293,136.114929 
	C157.790192,140.283112 176.571075,144.451294 195.675842,148.802948 
z"/>
<path fill="#49B5BD" opacity="1.000000" stroke="none" 
	d="
M138.582245,136.040253 
	C139.338135,138.827835 139.732849,141.534790 139.978897,144.255188 
	C140.277359,147.555344 139.243240,149.987457 134.798798,150.708313 
	C119.798943,151.422302 105.511360,151.837479 91.223785,152.252655 
	C92.112938,146.820511 93.002083,141.388382 93.951218,135.592789 
	C108.769905,132.834549 123.464203,134.300644 138.582245,136.040253 
z"/>
<path fill="#46B1BA" opacity="1.000000" stroke="none" 
	d="
M104.297165,340.866760 
	C105.399643,342.719421 106.181946,344.684113 107.005486,346.631317 
	C107.755516,348.404694 108.550316,350.159119 109.568840,352.283936 
	C104.439850,358.923584 98.824249,365.011963 93.754723,371.525391 
	C86.967186,380.246094 80.602577,389.295959 74.056374,398.204498 
	C73.704010,394.368713 73.229958,390.538879 73.042992,386.695038 
	C72.922783,384.223877 72.789497,382.047729 69.143280,381.937592 
	C70.972534,378.729370 73.235344,375.559235 76.104736,372.194244 
	C77.080177,371.303436 77.449043,370.607513 77.817917,369.911591 
	C86.543587,360.264771 95.269264,350.617981 104.297165,340.866760 
z"/>
<path fill="#4CB8BE" opacity="1.000000" stroke="none" 
	d="
M155.919388,473.724152 
	C155.954971,479.948975 155.990570,486.173798 156.041412,492.857178 
	C144.672806,494.511383 133.288925,495.707092 121.455444,496.400146 
	C120.672813,489.965149 120.339783,484.032806 120.447052,478.047729 
	C132.564697,476.571381 144.242050,475.147766 155.919388,473.724152 
z"/>
<path fill="#47B2BB" opacity="1.000000" stroke="none" 
	d="
M120.006752,478.100464 
	C120.339783,484.032806 120.672813,489.965149 121.010941,496.347046 
	C108.913803,495.627411 96.811584,494.458252 84.358612,493.115417 
	C84.012764,487.252777 84.017670,481.563812 84.383316,475.450928 
	C86.173546,475.401489 87.603043,475.776031 89.192993,476.357971 
	C89.684456,476.667511 90.015465,476.769653 90.773766,476.848969 
	C100.802963,477.250885 110.404854,477.675659 120.006752,478.100464 
z"/>
<path fill="#89D1D6" opacity="1.000000" stroke="none" 
	d="
M515.181702,302.831512 
	C514.247375,301.481476 513.181152,300.028717 513.075989,298.509460 
	C512.597412,291.595123 512.389221,284.662018 512.174133,277.021240 
	C518.874573,269.211304 525.484741,262.115814 532.094849,255.020264 
	C533.062805,256.435822 534.738708,257.791046 534.865356,259.278259 
	C535.239258,263.669098 534.817078,268.123199 535.082886,272.529846 
	C535.205383,274.561157 536.204956,276.539551 536.970642,278.918518 
	C529.920410,287.096130 522.706421,294.897125 515.181702,302.831512 
z"/>
<path fill="#8DD2D9" opacity="1.000000" stroke="none" 
	d="
M525.025330,135.390701 
	C539.694092,137.034515 554.237549,139.107224 566.729675,147.955429 
	C568.205933,149.001022 569.564819,150.212204 570.778076,151.691422 
	C568.713135,152.676880 566.848145,153.317566 564.633789,154.002289 
	C562.174866,155.646759 560.065430,157.247177 557.696533,158.994278 
	C556.930786,159.450500 556.424500,159.760025 555.620361,159.888535 
	C545.710693,153.798492 534.900452,151.726944 524.002197,149.511658 
	C522.613403,144.398468 522.783020,139.816971 525.025330,135.390701 
z"/>
<path fill="#84CED4" opacity="1.000000" stroke="none" 
	d="
M524.566772,135.276581 
	C522.783020,139.816971 522.613403,144.398468 523.535950,149.568298 
	C509.378265,150.416214 495.683655,150.792236 481.989044,151.168274 
	C482.485718,149.754028 483.242371,148.372284 483.424194,146.918655 
	C483.785980,144.025818 483.831604,141.093445 484.013245,137.789795 
	C497.381805,136.655624 510.744995,135.909042 524.566772,135.276581 
z"/>
<path fill="#5DC1C5" opacity="1.000000" stroke="none" 
	d="
M564.983215,153.958252 
	C566.848145,153.317566 568.713135,152.676880 570.970703,151.983078 
	C571.593262,151.900864 571.789917,151.968521 572.003540,152.792999 
	C572.034485,165.299911 572.015198,177.146744 571.995911,188.993576 
	C570.878967,189.005127 569.761963,189.016693 567.905640,189.042023 
	C566.415100,188.751511 565.663879,188.447235 565.089478,187.749557 
	C565.510071,179.301361 565.870178,171.247543 565.938293,163.191284 
	C565.964294,160.116516 565.321350,157.036102 564.983215,153.958252 
z"/>
<path fill="#6EC6CC" opacity="1.000000" stroke="none" 
	d="
M572.383057,189.000732 
	C572.015198,177.146744 572.034485,165.299911 572.080078,152.935226 
	C573.892822,152.748093 575.679199,153.078812 577.584045,154.049896 
	C577.469116,156.480286 577.046509,158.269028 577.034180,160.060593 
	C576.970093,169.378204 577.010559,178.696533 577.014648,188.014603 
	C575.599854,188.345703 574.184998,188.676804 572.383057,189.000732 
z"/>
<path fill="#7CCCD0" opacity="1.000000" stroke="none" 
	d="
M577.390625,187.968536 
	C577.010559,178.696533 576.970093,169.378204 577.034180,160.060593 
	C577.046509,158.269028 577.469116,156.480286 577.872437,154.299652 
	C579.974976,155.039795 581.907593,156.170532 584.000061,157.600296 
	C583.441589,159.584976 582.171692,161.248703 582.103577,162.960236 
	C581.854187,169.229050 581.846008,175.519409 582.068604,181.790237 
	C582.188049,185.154388 581.037231,187.163742 577.390625,187.968536 
z"/>
<path fill="#42ACB8" opacity="1.000000" stroke="none" 
	d="
M77.570770,370.049530 
	C77.449043,370.607513 77.080177,371.303436 76.381073,372.008911 
	C76.475098,371.408112 76.899353,370.797791 77.570770,370.049530 
z"/>
<path fill="#56BEC2" opacity="1.000000" stroke="none" 
	d="
M243.036774,555.285461 
	C243.481735,555.561829 243.939270,556.131836 244.159485,556.868408 
	C243.631241,556.549683 243.340271,556.064392 243.036774,555.285461 
z"/>
<path fill="#014BAD" opacity="1.000000" stroke="none" 
	d="
M587.181274,159.682510 
	C586.758179,159.553085 586.250854,159.087280 585.904297,158.275742 
	C586.409058,158.402054 586.752991,158.874084 587.181274,159.682510 
z"/>
<path fill="#004BAD" opacity="1.000000" stroke="none" 
	d="
M360.014618,231.866653 
	C374.233765,240.801300 388.395294,249.830078 402.715790,258.599243 
	C405.977600,260.596619 407.045532,262.900940 407.069550,266.648071 
	C407.227478,291.289429 407.696442,315.928619 407.899963,340.569885 
	C407.947937,346.383179 407.530518,352.217285 406.969025,358.007080 
	C406.822601,359.517090 405.663879,361.383118 404.397980,362.254242 
	C397.818878,366.781586 391.054718,371.040039 383.820099,375.734924 
	C375.824554,380.638824 368.363922,385.199890 360.558960,389.859192 
	C348.563995,396.341034 336.780212,402.496796 325.314972,409.197601 
	C318.896118,412.949097 313.019714,415.406067 306.694214,409.358948 
	C305.792328,408.496704 304.308746,408.242950 302.875671,407.454651 
	C299.879547,405.709778 297.071838,404.271210 294.329681,402.717010 
	C279.221619,394.154114 264.129547,385.562958 249.031982,376.981506 
	C242.767990,372.926544 236.387985,369.034180 230.319336,364.705383 
	C228.749054,363.585297 227.293671,361.119904 227.243652,359.233826 
	C226.671066,337.638641 226.119186,316.035980 226.119949,294.435333 
	C226.120346,282.833252 227.037903,271.218628 227.942902,259.641052 
	C228.101593,257.611053 229.883377,255.302582 231.560913,253.888138 
	C234.332123,251.551575 237.628891,249.838333 241.247406,247.479279 
	C245.629623,244.812973 249.444504,242.488007 253.312057,240.254227 
	C266.195496,232.813065 279.097870,225.404633 292.347626,217.935165 
	C298.013733,215.173264 303.460876,212.690079 308.589325,209.666321 
	C312.068512,207.614975 314.927063,207.976303 318.289581,209.786255 
	C332.145172,217.244370 346.097717,224.522415 360.014618,231.866653 
M342.766968,287.292725 
	C340.529114,285.475250 338.291290,283.657745 335.676300,281.280548 
	C331.788269,279.588501 327.900269,277.896454 323.221985,275.922028 
	C319.147095,275.609375 315.072235,275.296722 310.328400,274.891998 
	C309.882233,274.938110 309.436096,274.984192 308.505676,274.985260 
	C308.505676,274.985260 308.030151,275.087250 307.238586,275.026978 
	C303.015198,276.593994 298.791809,278.161041 293.914032,279.854004 
	C290.256622,282.875824 286.599213,285.897644 282.364166,289.273376 
	C269.707397,305.839630 269.968719,327.300385 283.262878,341.623199 
	C287.190613,344.657745 291.118347,347.692322 295.724030,351.041077 
	C300.819763,352.323944 305.915466,353.606842 311.910095,355.010010 
	C315.611511,354.631165 319.312927,354.252319 323.748657,353.867035 
	C328.250793,351.625580 332.752960,349.384125 337.789764,346.780792 
	C339.527405,345.190552 341.265015,343.600342 343.602783,341.689789 
	C344.801117,339.909698 345.938660,338.084961 347.207397,336.356537 
	C357.279694,322.634827 356.160980,301.576904 342.766968,287.292725 
z"/>
<path fill="#004AAD" opacity="1.000000" stroke="none" 
	d="
M302.877502,27.305290 
	C323.234497,20.268881 335.698822,32.137207 346.707947,45.849220 
	C353.101837,53.812912 357.862732,63.087734 363.630219,71.989517 
	C371.436890,92.871735 379.243622,113.443787 386.377106,134.246689 
	C389.363617,142.956100 390.921967,152.155228 393.121552,161.098907 
	C381.906067,165.654495 371.170074,170.015320 359.817078,174.651855 
	C345.716583,181.002640 332.161224,186.925934 318.796783,193.252472 
	C315.152740,194.977493 312.243073,195.444839 308.573212,193.427811 
	C303.964661,190.894882 298.989990,189.028122 293.945984,186.607300 
	C276.521301,179.097153 259.323944,171.853561 242.126602,164.609955 
	C238.195053,162.828491 239.872787,159.491074 240.364395,156.896729 
	C241.644196,150.142807 243.391891,143.477524 244.992172,136.136200 
	C245.031418,135.495529 244.997147,135.001068 244.997162,135.001068 
	C245.291245,134.210114 245.585327,133.419159 245.858154,132.310226 
	C250.891052,116.226036 255.460236,100.282631 261.136871,84.743790 
	C266.727020,69.441521 273.911346,54.705235 284.930328,42.487152 
	C290.054138,36.805756 296.701050,32.498001 302.877502,27.305290 
z"/>
<path fill="#004AAD" opacity="1.000000" stroke="none" 
	d="
M91.162613,152.221252 
	C105.511360,151.837479 119.798943,151.422302 134.545853,150.970795 
	C154.749023,154.565720 174.492874,158.196945 194.622803,161.842194 
	C200.280533,163.359009 205.528442,164.953278 210.833282,166.327927 
	C213.690353,167.068268 214.345383,168.593948 213.933990,171.415161 
	C210.629318,194.077850 207.377960,216.749039 204.286545,239.441620 
	C203.525284,245.029663 203.188141,250.701889 203.088669,256.343048 
	C203.035080,259.381561 201.931885,261.191162 199.472870,262.813171 
	C194.338104,266.200165 189.391159,269.871918 183.856110,273.814148 
	C172.508118,282.389648 161.616272,290.506622 150.859756,298.799164 
	C146.253265,302.350433 143.545502,302.274536 139.376251,297.918304 
	C137.345978,295.796936 135.188171,293.797638 133.088089,291.743073 
	C127.598862,286.525360 122.071152,281.347321 116.636688,276.073212 
	C113.930588,273.446960 111.395302,270.644684 108.474419,267.768768 
	C103.230560,261.981445 98.236237,256.397522 93.380013,250.695953 
	C90.096573,246.840958 87.007545,242.820358 83.553604,238.669617 
	C79.199059,231.846603 74.457016,225.536362 71.210220,218.532898 
	C66.914055,209.265884 62.656948,199.712296 60.419170,189.821213 
	C56.893913,174.239441 65.162857,161.975250 81.319000,156.034409 
	C83.963333,155.062042 86.661499,154.236053 89.930130,153.123840 
	C90.706848,152.622208 90.888229,152.339142 91.069611,152.056076 
	C91.069603,152.056076 91.101433,152.189865 91.162613,152.221252 
z"/>
<path fill="#004AAD" opacity="1.000000" stroke="none" 
	d="
M120.447052,478.047729 
	C110.404854,477.675659 100.802963,477.250885 90.602379,476.648010 
	C89.679977,476.363464 89.356262,476.256989 89.032547,476.150574 
	C87.603043,475.776031 86.173546,475.401489 84.372971,475.031189 
	C77.723618,471.445221 70.432526,468.903076 65.391968,464.032074 
	C56.689533,455.622345 56.049049,444.109039 59.600807,433.258118 
	C63.451653,421.493469 69.016869,410.290009 73.945419,398.523132 
	C80.602577,389.295959 86.967186,380.246094 93.754723,371.525391 
	C98.824249,365.011963 104.439850,358.923584 109.961884,352.342102 
	C117.989220,344.262878 125.866966,336.487518 134.253693,328.397888 
	C136.521973,329.262787 138.379852,330.319458 140.023346,331.642487 
	C146.721970,337.034973 153.354996,342.508972 160.190277,348.235474 
	C172.250687,357.294708 184.132965,366.071381 196.015259,374.848083 
	C206.014771,378.984314 203.774765,388.290100 204.904022,396.104370 
	C207.582245,414.637268 210.001404,433.208466 212.814682,451.720215 
	C213.479279,456.093414 212.724213,458.605072 208.104309,459.607849 
	C204.880524,460.307587 201.790848,461.625214 198.322144,462.853271 
	C185.645096,466.174622 173.289291,469.317902 160.926422,472.433167 
	C159.482697,472.796906 157.999863,473.005585 156.227280,473.505157 
	C144.242050,475.147766 132.564697,476.571381 120.447052,478.047729 
z"/>
<path fill="#004BAD" opacity="1.000000" stroke="none" 
	d="
M382.252075,510.636078 
	C374.475586,529.418152 366.736420,547.837158 358.913696,566.606323 
	C351.532257,576.161865 344.727844,585.823364 336.777679,594.425964 
	C330.602448,601.107971 322.410645,605.349060 312.812408,604.730042 
	C309.087585,604.489807 305.445099,602.973267 301.410400,601.899597 
	C283.135437,590.484192 273.300476,572.933960 265.072540,554.401978 
	C259.624847,542.132019 255.192734,529.405151 250.496445,516.811890 
	C249.414368,513.910217 249.112228,510.717773 248.276001,507.325439 
	C246.076019,498.117157 243.920959,489.269775 242.063309,480.360352 
	C240.242554,471.627808 240.375412,471.600098 249.294464,468.324951 
	C250.519150,467.745575 251.108353,467.455597 251.712769,467.201752 
	C269.174957,459.867859 286.638641,452.537567 304.436676,445.091644 
	C308.534058,442.511383 312.120331,442.343353 316.096436,444.919342 
	C318.989624,446.793701 322.382660,447.919678 325.600128,449.266296 
	C337.390320,454.200775 349.200256,459.087982 361.245605,464.252655 
	C369.326050,467.312958 377.163696,470.113586 385.001343,472.914215 
	C391.477692,476.116913 391.588196,476.145905 389.679596,483.422333 
	C387.324493,492.400970 384.762146,501.325256 382.252075,510.636078 
z"/>
<path fill="#5DC1C5" opacity="1.000000" stroke="none" 
	d="
M304.102112,445.206726 
	C286.638641,452.537567 269.174957,459.867859 251.712769,467.201752 
	C251.108353,467.455597 250.519150,467.745575 249.563522,468.075073 
	C248.469498,466.452057 247.189972,464.801117 247.100861,463.088196 
	C246.817627,457.644196 246.977966,452.177155 247.180130,445.985779 
	C259.523956,440.077026 271.654510,434.901459 284.355225,429.482605 
	C271.024445,421.682953 258.507141,414.359253 245.989838,407.035553 
	C246.326584,399.368774 246.580719,391.696899 247.051834,384.038361 
	C247.187836,381.827576 247.947723,379.655212 248.726776,377.223358 
	C264.129547,385.562958 279.221619,394.154114 294.329681,402.717010 
	C297.071838,404.271210 299.879547,405.709778 302.846100,407.948547 
	C303.023499,418.949615 302.955688,429.204376 303.050049,439.457611 
	C303.067719,441.377045 303.734741,443.290497 304.102112,445.206726 
z"/>
<path fill="#014BAD" opacity="1.000000" stroke="none" 
	d="
M239.866058,236.913971 
	C236.551590,238.735382 233.237106,240.556793 228.377747,243.227173 
	C231.167419,219.955399 233.824570,197.789261 236.529907,175.221085 
	C238.695374,175.707794 239.925964,175.984375 241.793488,176.521545 
	C247.203171,178.615463 252.012558,180.359512 256.741516,182.299606 
	C268.815948,187.253250 280.854553,192.294312 293.146820,197.526825 
	C295.788544,198.973877 298.190887,200.194534 301.147308,201.696701 
	C297.015991,204.088211 293.516632,206.113861 289.679932,208.218796 
	C272.850403,217.836700 256.358246,227.375336 239.866058,236.913971 
z"/>
<path fill="#014BAD" opacity="1.000000" stroke="none" 
	d="
M188.144897,283.300171 
	C192.380997,280.253662 196.617096,277.207153 201.905685,273.403687 
	C201.905685,277.326233 201.936905,280.016266 201.900681,282.705383 
	C201.645996,301.616119 201.421860,320.527649 201.025009,339.435455 
	C200.994797,340.875366 199.709488,342.288940 198.455414,343.320221 
	C185.302704,333.520630 172.702148,324.115570 159.925171,314.435181 
	C158.033981,313.180115 156.319214,312.200378 154.196884,310.987762 
	C157.651093,307.962830 159.322937,306.390137 161.105988,304.955658 
	C170.103043,297.717377 179.129044,290.515076 188.144897,283.300171 
z"/>
<path fill="#4EB9BF" opacity="1.000000" stroke="none" 
	d="
M187.906235,282.972534 
	C179.129044,290.515076 170.103043,297.717377 161.105988,304.955658 
	C159.322937,306.390137 157.651093,307.962830 154.196884,310.987762 
	C156.319214,312.200378 158.033981,313.180115 159.900238,314.884521 
	C160.038544,326.390442 160.025360,337.171692 160.012177,347.952942 
	C153.354996,342.508972 146.721970,337.034973 140.023346,331.642487 
	C138.379852,330.319458 136.521973,329.262787 134.414093,328.108032 
	C133.710358,326.055573 133.069931,323.981689 133.048691,321.901459 
	C132.949341,312.177765 133.020721,302.452362 133.059586,292.235321 
	C135.188171,293.797638 137.345978,295.796936 139.376251,297.918304 
	C143.545502,302.274536 146.253265,302.350433 150.859756,298.799164 
	C161.616272,290.506622 172.508118,282.389648 183.667511,274.088562 
	C184.503281,277.167603 182.106644,281.594147 187.906235,282.972534 
z"/>
<path fill="#024CAD" opacity="1.000000" stroke="none" 
	d="
M245.657166,406.932068 
	C258.507141,414.359253 271.024445,421.682953 284.355225,429.482605 
	C271.654510,434.901459 259.523956,440.077026 247.156555,445.502197 
	C243.660675,446.849152 240.401596,447.946472 235.906036,449.460083 
	C233.776443,432.196869 231.709213,415.439270 229.497498,397.510376 
	C235.483765,401.034821 240.404129,403.931732 245.657166,406.932068 
z"/>
<path fill="#51BCC0" opacity="1.000000" stroke="none" 
	d="
M160.190277,348.235474 
	C160.025360,337.171692 160.038544,326.390442 160.076660,315.159851 
	C172.702148,324.115570 185.302704,333.520630 198.055511,343.185608 
	C197.805176,351.532074 197.439880,359.620789 196.974762,367.703766 
	C196.852554,369.827484 196.421112,371.933380 196.073456,374.447754 
	C184.132965,366.071381 172.250687,357.294708 160.190277,348.235474 
z"/>
<path fill="#5CBFC5" opacity="1.000000" stroke="none" 
	d="
M292.907471,197.300400 
	C280.854553,192.294312 268.815948,187.253250 256.741516,182.299606 
	C252.012558,180.359512 247.203171,178.615463 242.164337,176.572830 
	C241.949692,172.740097 242.001114,169.116669 242.089569,165.051605 
	C259.323944,171.853561 276.521301,179.097153 293.627838,186.893951 
	C293.327148,190.731583 293.117310,194.015991 292.907471,197.300400 
z"/>
<path fill="#5ABEC5" opacity="1.000000" stroke="none" 
	d="
M240.179398,237.198792 
	C256.358246,227.375336 272.850403,217.836700 289.731201,208.600372 
	C290.744202,211.929657 291.368591,214.956635 291.992950,217.983643 
	C279.097870,225.404633 266.195496,232.813065 253.312057,240.254227 
	C249.444504,242.488007 245.629623,244.812973 241.456131,247.225891 
	C240.912018,244.064957 240.702377,240.774292 240.179398,237.198792 
z"/>
<path fill="#5CC0C5" opacity="1.000000" stroke="none" 
	d="
M244.835449,135.083420 
	C244.997147,135.001068 245.031418,135.495529 244.977051,135.737244 
	C244.772095,135.806412 244.604919,135.644348 244.484436,135.452881 
	C244.459198,135.412750 244.606155,135.264297 244.835449,135.083420 
z"/>
<path fill="#004BAD" opacity="1.000000" stroke="none" 
	d="
M564.912659,188.142975 
	C565.663879,188.447235 566.415100,188.751511 567.486938,189.054886 
	C566.025208,204.193069 559.088318,217.258453 550.833374,229.616165 
	C545.113831,238.178314 538.521057,246.157074 532.206665,254.708389 
	C525.484741,262.115814 518.874573,269.211304 512.115479,276.599426 
	C502.872528,285.288788 493.778625,293.685547 484.166931,302.487061 
	C482.096039,302.203247 480.357971,301.767700 479.018097,300.787689 
	C462.713623,288.862274 446.467773,276.856720 430.206665,264.872009 
	C426.967987,262.563324 423.445831,260.553436 420.588593,257.842682 
	C418.627014,255.981659 416.606689,253.269272 416.290253,250.728470 
	C413.067993,224.857666 410.217590,198.940735 407.176117,173.046921 
	C406.858734,170.344711 407.227356,168.650055 410.241730,167.917145 
	C413.786102,167.055374 417.221863,165.747040 420.987976,164.386520 
	C431.369751,161.718567 441.422760,159.080688 451.579895,156.936020 
	C461.423065,154.857590 471.373322,153.286133 481.632812,151.330139 
	C495.683655,150.792236 509.378265,150.416214 523.539185,149.983551 
	C534.900452,151.726944 545.710693,153.798492 555.494507,160.222061 
	C551.248596,169.636887 552.004822,177.270844 558.059814,183.486145 
	C560.456055,185.229233 562.684387,186.686096 564.912659,188.142975 
z"/>
<path fill="#014BAD" opacity="1.000000" stroke="none" 
	d="
M492.422180,475.267761 
	C480.376038,473.140717 468.741211,470.989014 456.721680,468.828552 
	C443.851135,465.222687 431.365295,461.625519 418.492859,457.991669 
	C416.181732,457.201080 414.299896,455.961731 412.324402,455.788055 
	C407.248718,455.341827 407.299896,452.446350 408.000458,448.566620 
	C409.490814,440.312561 410.931274,432.036835 411.968750,423.717224 
	C412.956055,415.800201 413.223480,407.794861 414.147339,399.868011 
	C414.884766,393.540680 416.133301,387.272919 417.700562,380.537354 
	C428.889496,372.769165 439.532898,365.442383 450.492340,357.993500 
	C453.457458,355.651093 456.073090,353.389343 458.761688,351.217926 
	C468.196259,343.598145 477.656006,336.009552 487.106140,328.409058 
	C489.060638,326.665985 490.590118,326.898407 492.473724,328.868652 
	C503.358795,340.254669 514.378174,351.512329 525.656616,362.961395 
	C535.382690,376.370941 545.224609,389.358978 554.087463,402.983948 
	C560.713196,413.169800 565.140015,424.508087 567.137939,436.679138 
	C570.849854,459.292236 558.296875,469.761688 540.466980,474.046722 
	C538.206665,474.589935 535.932190,475.074188 533.330444,475.769287 
	C519.608826,475.716309 506.221161,475.479736 492.422180,475.267761 
z"/>
<path fill="#014BAD" opacity="1.000000" stroke="none" 
	d="
M361.306854,185.228256 
	C372.473083,181.144897 383.639313,177.061523 396.107300,172.502136 
	C399.508575,197.510605 402.819275,221.853088 406.129974,246.195572 
	C405.608276,246.444107 405.086609,246.692657 404.564911,246.941208 
	C390.306732,238.595490 376.048523,230.249771 361.248657,221.514404 
	C349.236481,214.708252 337.766022,208.291779 325.548828,201.457596 
	C338.065857,195.776535 349.686371,190.502396 361.306854,185.228256 
z"/>
<path fill="#024CAD" opacity="1.000000" stroke="none" 
	d="
M418.037811,352.922546 
	C418.037811,325.401581 418.037811,297.880585 418.037811,269.323090 
	C421.248260,271.407867 423.807770,273.069885 426.883362,275.107178 
	C442.719696,287.250549 458.039948,299.018646 473.883942,311.189026 
	C464.247894,318.915527 455.725830,325.748779 446.930664,332.720215 
	C437.117645,339.546448 427.577728,346.234497 418.037811,352.922546 
z"/>
<path fill="#7CCCD0" opacity="1.000000" stroke="none" 
	d="
M447.203735,332.582031 
	C455.725830,325.748779 464.247894,318.915527 473.883942,311.189026 
	C458.039948,299.018646 442.719696,287.250549 427.210388,275.203979 
	C427.872406,271.724182 428.723511,268.522858 429.890625,265.096802 
	C446.467773,276.856720 462.713623,288.862274 479.018097,300.787689 
	C480.357971,301.767700 482.096039,302.203247 483.958496,302.763672 
	C485.178345,304.348450 486.786804,306.026398 486.874664,307.780457 
	C487.201538,314.307465 487.028687,320.859467 487.074829,327.905579 
	C477.656006,336.009552 468.196259,343.598145 458.761688,351.217926 
	C456.073090,353.389343 453.457458,355.651093 450.183044,357.736908 
	C449.240143,350.645386 448.988068,343.684296 448.550171,336.734863 
	C448.461517,335.327911 447.670807,333.965179 447.203735,332.582031 
z"/>
<path fill="#024CAD" opacity="1.000000" stroke="none" 
	d="
M384.982880,401.916199 
	C391.372223,398.093994 397.761566,394.271820 405.444458,389.675812 
	C402.685364,410.166840 400.071564,429.578888 397.371002,449.635162 
	C392.704407,448.065613 389.276917,446.912811 385.210388,445.477112 
	C377.065674,442.116425 369.559998,439.038574 361.814148,435.704834 
	C355.420258,432.649689 349.266510,429.850494 342.452179,426.750793 
	C349.666016,422.576538 355.907532,418.964935 362.497131,415.256897 
	C370.224426,410.745728 377.603668,406.330963 384.982880,401.916199 
z"/>
<path fill="#63C2C8" opacity="1.000000" stroke="none" 
	d="
M360.971313,184.942932 
	C349.686371,190.502396 338.065857,195.776535 325.548828,201.457596 
	C337.766022,208.291779 349.236481,214.708252 360.926697,221.361969 
	C360.766510,224.732605 360.386627,227.866013 360.010681,231.433029 
	C346.097717,224.522415 332.145172,217.244370 318.289581,209.786255 
	C314.927063,207.976303 312.068512,207.614975 308.589325,209.666321 
	C303.460876,212.690079 298.013733,215.173264 292.347626,217.935150 
	C291.368591,214.956635 290.744202,211.929657 290.068542,208.521088 
	C293.516632,206.113861 297.015991,204.088211 301.147308,201.696701 
	C298.190887,200.194534 295.788544,198.973877 293.146820,197.526825 
	C293.117310,194.015991 293.327148,190.731583 293.855164,187.160522 
	C298.989990,189.028122 303.964661,190.894882 308.573212,193.427811 
	C312.243073,195.444839 315.152740,194.977493 318.796783,193.252472 
	C332.161224,186.925934 345.716583,181.002640 359.574982,174.902618 
	C360.178497,178.137650 360.407104,181.397629 360.971313,184.942932 
z"/>
<path fill="#77CACF" opacity="1.000000" stroke="none" 
	d="
M446.930664,332.720215 
	C447.670807,333.965179 448.461517,335.327911 448.550171,336.734863 
	C448.988068,343.684296 449.240143,350.645386 449.867004,357.858978 
	C439.532898,365.442383 428.889496,372.769165 417.975159,380.273834 
	C417.239410,380.000641 416.374756,379.554382 416.369263,379.097809 
	C416.272339,371.068054 416.257690,363.036835 416.321655,355.006744 
	C416.325500,354.522949 417.137421,354.045624 417.805542,353.243927 
	C427.577728,346.234497 437.117645,339.546448 446.930664,332.720215 
z"/>
<path fill="#6EC6CC" opacity="1.000000" stroke="none" 
	d="
M362.054321,435.960724 
	C369.559998,439.038574 377.065674,442.116425 384.828918,445.410706 
	C385.057770,454.415192 385.029053,463.203247 385.000854,472.452759 
	C377.163696,470.113586 369.326050,467.312958 361.244720,463.784546 
	C361.000702,456.573730 360.903351,450.088531 361.048279,443.608704 
	C361.105438,441.053162 361.702881,438.509705 362.054321,435.960724 
z"/>
<path fill="#6EC6CC" opacity="1.000000" stroke="none" 
	d="
M384.988556,401.454010 
	C377.603668,406.330963 370.224426,410.745728 362.322205,414.839661 
	C361.500580,406.266205 361.201935,398.013580 360.903290,389.760925 
	C368.363922,385.199890 375.824554,380.638824 383.627960,376.010559 
	C384.313812,381.818420 384.698944,387.691498 384.980011,393.569550 
	C385.098083,396.038208 384.996155,398.517426 384.988556,401.454010 
z"/>
<path fill="#49B5BD" opacity="1.000000" stroke="none" 
	d="
M90.835991,152.148209 
	C90.888229,152.339142 90.706848,152.622208 90.258224,152.961670 
	C90.194778,152.758835 90.398575,152.499588 90.835991,152.148209 
z"/>
<path fill="#42ACB8" opacity="1.000000" stroke="none" 
	d="
M89.192993,476.357971 
	C89.356262,476.256989 89.679977,476.363464 90.175079,476.670898 
	C90.015465,476.769653 89.684456,476.667511 89.192993,476.357971 
z"/>
<path fill="#51BCC0" opacity="1.000000" stroke="none" 
	d="
M565.089478,187.749542 
	C562.684387,186.686096 560.456055,185.229233 558.102661,183.045624 
	C557.970398,174.495102 557.963196,166.671341 557.955933,158.847595 
	C560.065430,157.247177 562.174866,155.646759 564.633789,154.002289 
	C565.321350,157.036102 565.964294,160.116516 565.938293,163.191284 
	C565.870178,171.247543 565.510071,179.301361 565.089478,187.749542 
z"/>
<path fill="#44AFBA" opacity="1.000000" stroke="none" 
	d="
M557.696533,158.994263 
	C557.963196,166.671341 557.970398,174.495102 557.934692,182.759384 
	C552.004822,177.270844 551.248596,169.636887 555.792419,160.403076 
	C556.424500,159.760025 556.930786,159.450500 557.696533,158.994263 
z"/>
<path fill="#66C4C9" opacity="1.000000" stroke="none" 
	d="
M360.558960,389.859192 
	C361.201935,398.013580 361.500580,406.266205 361.974121,414.936066 
	C355.907532,418.964935 349.666016,422.576538 342.452179,426.750793 
	C349.266510,429.850494 355.420258,432.649689 361.814148,435.704834 
	C361.702881,438.509705 361.105438,441.053162 361.048279,443.608704 
	C360.903351,450.088531 361.000702,456.573730 361.001892,463.524902 
	C349.200256,459.087982 337.390320,454.200775 325.600128,449.266296 
	C322.382660,447.919678 318.989624,446.793701 316.096436,444.919342 
	C312.120331,442.343353 308.534058,442.511383 304.436646,445.091614 
	C303.734741,443.290497 303.067719,441.377045 303.050049,439.457611 
	C302.955688,429.204376 303.023499,418.949615 303.064819,408.201477 
	C304.308746,408.242950 305.792328,408.496704 306.694214,409.358948 
	C313.019714,415.406067 318.896118,412.949097 325.314972,409.197601 
	C336.780212,402.496796 348.563995,396.341034 360.558960,389.859192 
z"/>
<path fill="#5BC0C4" opacity="1.000000" stroke="none" 
	d="
M308.989929,275.030273 
	C309.436096,274.984192 309.882233,274.938110 310.662842,275.373901 
	C310.664886,282.628143 310.005707,289.403198 310.061829,296.172272 
	C310.224060,315.746033 310.674133,335.317413 311.011200,354.889709 
	C305.915466,353.606842 300.819763,352.323944 295.441437,350.494141 
	C295.439209,348.327301 295.959137,346.708099 295.963562,345.087494 
	C296.019012,324.793457 296.029877,304.499054 295.937988,284.205261 
	C295.931213,282.710815 295.045502,281.220398 294.568420,279.728088 
	C298.791809,278.161041 303.015198,276.593994 307.726959,275.207336 
	C308.473541,275.268555 308.731720,275.149414 308.989929,275.030273 
z"/>
<path fill="#68C5C9" opacity="1.000000" stroke="none" 
	d="
M311.460632,354.949860 
	C310.674133,335.317413 310.224060,315.746033 310.061829,296.172272 
	C310.005707,289.403198 310.664886,282.628143 310.997314,275.419952 
	C315.072235,275.296722 319.147095,275.609375 323.548218,276.460541 
	C323.583008,278.940399 323.042358,280.881226 323.037964,282.823212 
	C322.984375,306.506500 323.009583,330.190033 323.014343,353.873474 
	C319.312927,354.252319 315.611511,354.631165 311.460632,354.949860 
z"/>
<path fill="#77CBCE" opacity="1.000000" stroke="none" 
	d="
M323.381500,353.870239 
	C323.009583,330.190033 322.984375,306.506500 323.037964,282.823212 
	C323.042358,280.881226 323.583008,278.940399 323.943359,276.601746 
	C327.900269,277.896454 331.788269,279.588501 335.801453,281.987732 
	C335.618744,284.138428 335.047699,285.581055 335.042969,287.025543 
	C334.981964,305.561127 334.949646,324.097351 335.098816,342.631897 
	C335.110992,344.141174 336.503815,345.639343 337.255096,347.142670 
	C332.752960,349.384125 328.250793,351.625580 323.381500,353.870239 
z"/>
<path fill="#4EBABF" opacity="1.000000" stroke="none" 
	d="
M294.241211,279.791046 
	C295.045502,281.220398 295.931213,282.710815 295.937988,284.205261 
	C296.029877,304.499054 296.019012,324.793457 295.963562,345.087494 
	C295.959137,346.708099 295.439209,348.327301 295.102478,350.337036 
	C291.118347,347.692322 287.190613,344.657745 283.186798,340.901184 
	C283.406799,338.569977 283.951996,336.962006 283.959900,335.351410 
	C284.027954,321.461395 284.033112,307.570709 283.952789,293.680817 
	C283.943604,292.091797 283.294281,290.506470 282.941803,288.919434 
	C286.599213,285.897644 290.256622,282.875824 294.241211,279.791046 
z"/>
<path fill="#8DD2D9" opacity="1.000000" stroke="none" 
	d="
M343.026337,287.897705 
	C356.160980,301.576904 357.279694,322.634827 347.207397,336.356537 
	C345.938660,338.084961 344.801117,339.909698 343.302063,341.420319 
	C342.667786,338.717285 342.014771,336.278717 342.052673,333.850952 
	C342.291901,318.531860 342.684448,303.215179 343.026337,287.897705 
z"/>
<path fill="#85CFD4" opacity="1.000000" stroke="none" 
	d="
M342.896667,287.595215 
	C342.684448,303.215179 342.291901,318.531860 342.052673,333.850952 
	C342.014771,336.278717 342.667786,338.717285 343.002014,341.580475 
	C341.265015,343.600342 339.527405,345.190552 337.522430,346.961731 
	C336.503815,345.639343 335.110992,344.141174 335.098816,342.631897 
	C334.949646,324.097351 334.981964,305.561127 335.042969,287.025543 
	C335.047699,285.581055 335.618744,284.138428 335.990021,282.267578 
	C338.291290,283.657745 340.529114,285.475250 342.896667,287.595215 
z"/>
<path fill="#44AFBA" opacity="1.000000" stroke="none" 
	d="
M282.652985,289.096405 
	C283.294281,290.506470 283.943604,292.091797 283.952789,293.680817 
	C284.033112,307.570709 284.027954,321.461395 283.959900,335.351410 
	C283.951996,336.962006 283.406799,338.569977 283.052429,340.594849 
	C269.968719,327.300385 269.707397,305.839630 282.652985,289.096405 
z"/>
<path fill="#68C5C9" opacity="1.000000" stroke="none" 
	d="
M308.747803,275.007782 
	C308.731720,275.149414 308.473541,275.268555 308.122742,275.237488 
	C308.030151,275.087250 308.505676,274.985260 308.747803,275.007782 
z"/>
</svg>