<svg version="1.1" id="Layer_1" xmlns="http://www.w3.org/2000/svg" xmlns:xlink="http://www.w3.org/1999/xlink" x="0px" y="0px"
	 width="100%" viewBox="0 0 1200 628" enable-background="new 0 0 1200 628" xml:space="preserve">
<path fill="#004AAD" opacity="1.000000" stroke="none" 
	d="
M0.999999,487.000000 
	C1.000000,371.644653 1.000000,256.289307 1.343335,140.291702 
	C9.320503,95.509674 47.723286,67.577484 89.862190,67.632843 
	C431.784302,68.082062 773.707214,67.884262 1115.629883,67.886482 
	C1153.667725,67.886734 1186.416138,92.313774 1197.204468,128.811371 
	C1198.682251,133.811386 1199.745117,138.934082 1201.000000,144.000000 
	C1201.000000,258.355347 1201.000000,372.710693 1200.650879,487.714233 
	C1192.016602,533.730835 1158.174316,562.000427 1112.147461,562.000427 
	C769.929321,562.000427 427.711151,562.001831 85.492981,561.998291 
	C49.982132,561.997925 17.347979,538.726807 5.919348,505.084198 
	C3.913792,499.180359 2.621630,493.034241 0.999999,487.000000 
M400.606049,212.491867 
	C400.065155,212.331711 399.524292,212.171555 398.642273,211.430801 
	C382.244751,199.158279 363.747620,200.318893 344.146912,202.971527 
	C330.101074,206.351120 316.055206,209.730698 301.257782,213.131012 
	C299.990753,213.524765 298.676239,213.809235 297.466461,214.334793 
	C294.861450,215.466461 293.802582,214.824005 292.989075,211.914032 
	C288.677246,196.490509 284.616852,180.960403 279.370117,165.848892 
	C276.479095,157.522202 271.428925,149.945160 267.167938,141.475250 
	C263.854889,137.604446 260.889282,133.353836 257.157867,129.940353 
	C248.890671,122.377518 239.303192,118.835701 227.324585,122.382050 
	C222.466812,125.441803 217.040466,127.877068 212.861237,131.682098 
	C201.728714,141.817795 195.070663,154.980301 189.245834,169.375427 
	C184.418610,184.030762 179.591385,198.686096 174.639511,213.719833 
	C173.584625,213.428970 172.019226,212.983444 170.446411,212.565948 
	C161.971069,210.316254 153.493866,208.073532 144.410187,205.406082 
	C130.471909,202.064209 116.383865,200.206818 101.174606,201.041931 
	C95.516647,202.294708 89.665977,202.998749 84.237518,204.905060 
	C69.072342,210.230637 61.364662,224.464005 64.540596,240.293228 
	C68.544815,260.250702 79.731445,276.210449 93.136986,291.708160 
	C101.063309,299.869812 108.989632,308.031464 117.204056,316.747131 
	C116.569557,318.005096 116.178101,319.489471 115.255882,320.479370 
	C112.254585,323.700989 109.059219,326.741852 105.346092,330.173950 
	C91.539871,343.578888 79.040230,358.015198 70.723984,375.568298 
	C66.700943,384.059723 63.740971,392.982788 65.500008,402.571472 
	C68.365219,418.189972 83.906853,429.246979 102.840820,429.060364 
	C116.801712,431.400574 130.423019,428.937408 144.864334,426.143616 
	C153.566910,424.101562 162.358215,422.366669 170.934982,419.889099 
	C175.285187,418.632416 176.425476,419.788361 177.672043,423.869263 
	C181.728470,437.148926 186.368210,450.250397 190.903778,464.102386 
	C195.441559,472.386292 199.497665,480.985229 204.651703,488.866119 
	C209.871811,496.848053 216.692810,503.500031 226.794708,507.134216 
	C231.033340,507.590240 235.377731,508.874237 239.490997,508.348785 
	C252.388290,506.701294 260.666260,498.266327 267.852936,487.370941 
	C281.535828,466.581421 287.369019,442.803436 293.131775,418.978149 
	C296.213287,419.703979 298.613495,420.269348 301.708191,421.151642 
	C312.465240,423.500458 323.222321,425.849274 334.439301,428.433685 
	C334.748474,428.338196 335.057648,428.242737 335.737640,428.654846 
	C336.145752,428.704987 336.553864,428.755127 337.809967,428.953217 
	C347.543121,429.316559 357.276306,429.679901 367.903625,430.113068 
	C371.355316,429.722839 374.849945,429.557251 378.251801,428.906494 
	C403.559692,424.065216 414.007111,406.018860 405.264160,381.787537 
	C398.533203,363.132477 385.670197,348.654388 371.814667,334.157043 
	C366.269714,328.034729 360.724792,321.912415 354.509338,315.049774 
	C359.499237,310.332153 365.402100,304.751373 371.873108,298.844177 
	C377.835541,291.731110 384.160492,284.886566 389.675262,277.441895 
	C397.899689,266.339325 404.790161,254.452484 407.439819,240.589096 
	C408.327423,235.944946 409.316254,231.320251 410.240051,226.682907 
	C411.188446,221.922424 410.283081,217.815979 405.611328,214.359695 
	C404.087585,213.858765 402.563873,213.357834 400.606049,212.491867 
M1000.184937,363.973297 
	C998.411926,365.537048 996.088806,366.779449 994.956543,368.717560 
	C988.378540,379.977966 982.080505,391.401947 975.399902,403.282654 
	C970.313904,394.148468 965.662842,385.521179 960.755798,377.042084 
	C951.631042,361.274841 956.725403,364.160553 937.862488,363.900330 
	C931.968506,363.819031 931.343201,364.515900 931.332581,370.529205 
	C931.300415,388.682617 931.319946,406.836121 931.320740,424.989594 
	C931.321106,433.816498 931.368530,442.643738 931.306458,451.470184 
	C931.278870,455.392273 932.806763,457.326477 936.985413,457.055634 
	C940.634094,456.819122 944.324097,456.805756 947.970703,457.057648 
	C952.447388,457.366882 953.889221,455.222595 953.810486,451.111603 
	C953.692505,444.951660 953.780823,438.787811 953.780945,432.625610 
	C953.781189,424.231323 953.781067,415.837067 953.781067,407.442780 
	C958.836975,414.147858 963.003479,421.040405 966.861023,428.101746 
	C968.769348,431.595184 971.249756,432.913910 975.257324,432.955994 
	C979.663757,433.002228 982.336365,431.494446 984.392273,427.603302 
	C988.115540,420.556152 992.270691,413.737213 996.245605,406.822968 
	C997.080017,421.865814 997.157410,436.515839 997.031311,451.164093 
	C996.994873,455.389709 998.494446,457.336945 1002.890076,457.054443 
	C1006.539062,456.819916 1010.219299,456.895081 1013.877808,457.036224 
	C1017.501160,457.176086 1019.004639,455.577942 1018.999023,451.995728 
	C1018.955750,424.349213 1018.936707,396.702484 1019.019836,369.056152 
	C1019.031799,365.088745 1017.258240,363.725922 1013.546875,363.849640 
	C1009.387695,363.988251 1005.220886,363.900055 1000.184937,363.973297 
M618.781311,243.488953 
	C618.781311,231.964890 618.781311,220.440826 618.781311,208.916748 
	C627.920044,221.851196 635.913086,235.034744 644.157227,248.059418 
	C653.404297,262.668518 648.657776,259.643066 667.084045,260.016388 
	C670.389709,260.083374 671.989014,258.687164 671.984741,255.276886 
	C671.949768,227.462601 671.955444,199.648239 671.979370,171.833939 
	C671.982178,168.545502 670.605103,166.886261 667.184326,166.975433 
	C663.522644,167.070892 659.842346,167.197556 656.195984,166.941849 
	C651.635254,166.622025 649.939331,168.487610 650.008423,173.024048 
	C650.188354,184.846588 650.068665,196.673660 650.068481,208.498932 
	C650.068420,211.720917 650.068481,214.942902 650.068481,218.164886 
	C640.904602,205.091980 632.756592,191.816574 624.470764,178.627777 
	C615.626221,164.549911 619.425964,167.260498 603.354309,167.013931 
	C596.873779,166.914505 596.333069,167.531647 596.327271,174.160950 
	C596.308655,195.313171 596.319763,216.465424 596.320679,237.617661 
	C596.320923,243.280457 596.347168,248.943359 596.319763,254.606003 
	C596.302368,258.192780 597.583740,260.261963 601.620728,260.050903 
	C605.607117,259.842468 609.618591,259.872620 613.608521,260.043640 
	C617.302002,260.201935 618.773315,258.420380 618.773621,254.975067 
	C618.773926,251.477463 618.778564,247.979858 618.781311,243.488953 
M891.954102,215.874481 
	C890.481079,226.194427 893.196350,235.248749 900.130005,243.044281 
	C900.678528,243.661057 901.072876,244.414062 901.546692,245.098358 
	C914.148010,263.296661 907.833191,259.557709 930.249512,260.008392 
	C930.416138,260.011749 930.583008,260.013794 930.749451,260.007355 
	C935.404846,259.827454 936.291199,258.112671 933.741150,254.078995 
	C932.585632,252.251007 931.291687,250.510696 930.067688,248.725739 
	C925.032104,241.382263 919.999268,234.036865 914.903259,226.601562 
	C916.034424,226.050980 916.638489,225.774979 917.226440,225.468140 
	C930.018982,218.792374 936.257019,206.113449 933.858948,191.670441 
	C931.637573,178.291489 922.354736,169.082993 907.558533,167.877655 
	C893.646423,166.744324 879.599915,167.226486 865.611694,167.075775 
	C858.774109,167.002106 858.325439,167.511276 858.321655,174.491470 
	C858.308838,198.156540 858.275696,221.821716 858.330261,245.486664 
	C858.370361,262.906311 856.756531,259.722076 872.957825,259.987732 
	C880.210266,260.106659 880.608337,259.642639 880.614563,252.476639 
	C880.631958,232.477997 880.620667,212.479340 880.620728,192.480682 
	C880.620728,190.737366 880.620728,188.994049 880.620728,187.067535 
	C887.829773,187.067535 894.325195,186.772278 900.781677,187.147934 
	C907.673584,187.548950 912.117004,192.427994 912.108826,198.752853 
	C912.101257,204.592621 907.462952,209.323624 900.935303,210.075409 
	C899.449707,210.246490 897.940613,210.210068 896.442993,210.282211 
	C893.472961,210.425293 891.743591,211.765121 891.954102,215.874481 
M952.774963,170.884369 
	C952.755371,198.382950 952.723083,225.881546 952.725952,253.380127 
	C952.726624,259.683899 953.091309,259.996399 959.680603,260.000366 
	C977.346680,260.010956 995.012695,260.020355 1012.678772,259.998505 
	C1025.395020,259.982758 1024.159180,261.214996 1024.190186,248.447769 
	C1024.210327,240.117081 1024.187622,240.113312 1015.853455,240.111374 
	C1002.399719,240.108246 988.946045,240.110550 975.334839,240.110550 
	C975.334839,233.759796 975.334839,227.864609 975.334839,221.691422 
	C987.455872,221.691422 999.273682,221.636032 1011.090454,221.721802 
	C1015.163879,221.751358 1017.442383,220.420975 1017.049988,215.904709 
	C1016.820068,213.258118 1016.843567,210.562668 1017.045898,207.911545 
	C1017.360596,203.788712 1015.496216,202.137177 1011.506897,202.186630 
	C1004.674927,202.271332 997.841003,202.207123 991.007935,202.206238 
	C985.760437,202.205566 980.512939,202.206116 975.342407,202.206116 
	C975.342407,196.726547 975.342407,191.983337 975.342407,186.975037 
	C986.464844,186.975037 997.276733,187.039642 1008.087585,186.959732 
	C1023.824341,186.843399 1021.745972,189.258377 1021.923950,172.106033 
	C1021.960632,168.570267 1020.486267,166.955490 1016.846130,166.967712 
	C997.180420,167.033737 977.513550,166.926849 957.849609,167.126648 
	C956.183411,167.143570 954.535522,168.976700 952.774963,170.884369 
M906.129761,383.974518 
	C910.506348,384.399536 912.194336,382.290588 911.940979,378.061310 
	C911.771851,375.238220 911.793152,372.391052 911.934998,369.565002 
	C912.138367,365.510925 910.390991,363.921539 906.303833,363.945831 
	C886.972046,364.060669 867.638794,364.065979 848.307129,363.941315 
	C844.231323,363.915070 842.658691,365.417419 842.672241,369.502045 
	C842.763062,396.833832 842.763123,424.166199 842.671875,451.497986 
	C842.658264,455.577972 844.214478,457.085083 848.299011,457.059845 
	C868.463989,456.935028 888.630371,456.953644 908.795715,457.046600 
	C912.559692,457.063934 914.486572,455.768921 914.205933,451.829193 
	C914.111450,450.502777 914.197876,449.163757 914.194885,447.830475 
	C914.169739,436.833435 915.341064,437.049316 903.236450,437.098969 
	C890.628662,437.150665 878.020447,437.110504 865.376953,437.110504 
	C865.376953,430.673615 865.376953,424.783508 865.376953,418.693451 
	C875.384827,418.693451 885.046021,418.665009 894.707031,418.700165 
	C909.225037,418.752930 906.848633,419.043182 906.992188,406.292511 
	C907.066284,399.718445 906.520874,399.226440 899.891541,399.212769 
	C888.434021,399.189148 876.976379,399.206238 865.382446,399.206238 
	C865.382446,393.897949 865.382446,389.027191 865.382446,383.975006 
	C878.890747,383.975006 892.046509,383.975006 906.129761,383.974518 
M1062.177979,382.321564 
	C1071.214600,379.595245 1080.173950,380.912720 1082.975952,386.830872 
	C1085.729980,392.647919 1089.693481,393.322784 1094.966675,392.864410 
	C1097.115112,392.677673 1099.297974,392.736420 1101.456665,392.847534 
	C1105.194214,393.039886 1106.392578,391.253113 1106.230835,387.678223 
	C1105.841675,379.077301 1101.702026,372.658966 1094.480591,368.567566 
	C1080.288818,360.526886 1065.389648,359.490448 1050.414185,366.173157 
	C1040.354004,370.662476 1034.403076,378.521729 1034.273438,389.906708 
	C1034.145996,401.095703 1039.666870,408.910034 1049.674072,413.437317 
	C1054.646606,415.686920 1059.885742,417.393829 1065.096680,419.056671 
	C1070.154785,420.670746 1075.396240,421.717743 1080.434082,423.385315 
	C1084.164062,424.620056 1086.713989,427.035919 1086.103027,431.585663 
	C1085.528564,435.863312 1082.895508,438.346436 1078.989868,438.805939 
	C1074.744629,439.305389 1070.304443,439.398224 1066.104370,438.715302 
	C1060.868530,437.864014 1057.233643,434.771423 1055.818237,429.142456 
	C1055.410522,427.521027 1052.941895,425.516907 1051.218140,425.303253 
	C1046.789795,424.754486 1042.247192,425.195618 1037.754395,425.080048 
	C1033.973755,424.982819 1032.815186,426.852448 1033.034302,430.364197 
	C1033.619019,439.737610 1038.054565,446.945709 1045.839966,451.769135 
	C1060.637085,460.936554 1076.387329,461.461823 1092.238159,455.030090 
	C1103.669067,450.391846 1108.792114,441.064270 1108.732544,428.944336 
	C1108.676392,417.493042 1103.082764,410.072784 1091.166870,405.545074 
	C1086.363403,403.719940 1081.308594,402.566620 1076.452026,400.867859 
	C1071.453979,399.119568 1066.297729,397.558105 1061.681152,395.049194 
	C1055.487061,391.682983 1055.640137,387.030701 1062.177979,382.321564 
M550.921814,434.224335 
	C545.260986,441.636566 528.257812,441.200226 523.156189,433.504913 
	C522.790039,432.952667 522.241577,432.356262 522.221191,431.765076 
	C521.990356,425.087097 517.604797,424.679779 512.481262,425.062134 
	C509.666412,425.272156 506.810272,425.272736 503.995514,425.062836 
	C499.386902,424.719147 498.272400,426.948212 498.639954,431.124603 
	C499.465973,440.510162 504.124298,447.422150 512.006104,452.154297 
	C526.623352,460.930420 542.011841,461.286316 557.526855,455.114868 
	C568.852844,450.609802 574.334351,441.280365 574.111145,428.660034 
	C573.910156,417.298553 568.719421,410.140686 556.849304,405.666443 
	C550.955322,403.444824 544.749634,402.059448 538.817505,399.927155 
	C534.318420,398.309906 529.758118,396.546722 525.722412,394.045868 
	C521.683411,391.542999 521.770508,386.899475 525.198059,383.897217 
	C531.171082,378.665314 545.293518,380.238068 548.798889,387.273651 
	C551.321838,392.337463 554.633240,393.357025 559.491394,392.873016 
	C561.799561,392.643036 564.159302,392.694702 566.478394,392.860504 
	C571.128296,393.192932 572.271912,390.754333 571.793701,386.681976 
	C570.853699,378.675934 566.940735,372.450378 560.014465,368.558289 
	C545.794189,360.567413 530.891968,359.455383 515.938660,366.167847 
	C506.164673,370.555389 500.154572,378.060120 499.866150,389.389862 
	C499.572632,400.919769 505.081451,408.643127 515.162415,413.458313 
	C518.150391,414.885559 521.240356,416.180664 524.403015,417.144409 
	C531.391235,419.273834 538.533142,420.919006 545.464172,423.209808 
	C551.124023,425.080414 552.319824,427.733368 550.921814,434.224335 
M721.006470,457.745880 
	C723.374817,456.963501 725.802490,456.324524 728.101501,455.374390 
	C739.349182,450.726013 745.212463,441.620514 745.121826,429.121460 
	C745.037170,417.443573 739.849670,410.174103 727.789001,405.639740 
	C721.887939,403.421143 715.672913,402.045959 709.737122,399.908417 
	C705.236023,398.287537 700.675903,396.505310 696.648926,393.984985 
	C692.659424,391.488129 692.816406,386.782166 696.278015,383.826904 
	C702.371826,378.624512 716.330444,380.318176 719.874939,387.381714 
	C722.289795,392.194031 725.416199,393.329102 730.133667,392.875519 
	C732.610535,392.637360 735.136658,392.707489 737.627136,392.858521 
	C741.934204,393.119720 743.221191,390.969482 742.818176,387.023895 
	C741.976624,378.783722 737.980408,372.419952 730.864929,368.464783 
	C716.784424,360.638123 702.039856,359.484253 687.198914,366.064545 
	C677.383057,370.416748 671.267700,377.800110 670.880554,389.134918 
	C670.487244,400.652405 675.853271,408.487762 685.963684,413.346863 
	C689.100281,414.854340 692.344604,416.223358 695.666504,417.241669 
	C702.657349,419.384552 709.788208,421.078522 716.749756,423.306030 
	C720.413696,424.478394 723.284363,426.804199 722.681824,431.371094 
	C722.102173,435.764221 719.417236,438.428192 715.207947,438.868378 
	C711.109131,439.297058 706.665894,439.776520 702.855042,438.631805 
	C699.357605,437.581268 694.442627,434.884766 693.768982,432.053040 
	C692.091797,425.003235 687.896301,424.668274 682.396423,425.066650 
	C679.743835,425.258759 677.060364,425.213959 674.401001,425.077850 
	C670.655823,424.886200 669.389465,426.651123 669.581482,430.227173 
	C670.097412,439.834442 674.723022,446.949554 682.669250,451.989075 
	C694.290283,459.359161 706.969788,460.397339 721.006470,457.745880 
M1068.081177,184.114502 
	C1074.615356,183.684219 1081.390747,183.923126 1084.819092,190.325607 
	C1087.315186,194.986984 1090.267578,196.382782 1095.053589,195.882675 
	C1097.691284,195.607056 1100.384033,195.750168 1103.046753,195.848541 
	C1106.779419,195.986496 1108.116089,194.147903 1107.846069,190.605072 
	C1107.185181,181.930771 1103.007568,175.338196 1095.503174,171.255402 
	C1081.711548,163.751907 1067.303955,162.569870 1052.734741,168.844360 
	C1042.668823,173.179474 1036.341675,180.507019 1035.887695,192.053131 
	C1035.425171,203.815659 1041.028931,211.698944 1051.332275,216.541275 
	C1055.080444,218.302795 1058.995728,219.781952 1062.953125,221.008133 
	C1069.300781,222.974960 1075.801880,224.452240 1082.129028,226.477402 
	C1085.446289,227.539169 1088.026611,229.759918 1087.740234,233.792786 
	C1087.430054,238.161865 1084.997803,241.249374 1080.776611,241.736496 
	C1076.209839,242.263519 1071.287842,242.589935 1066.962891,241.398666 
	C1063.677734,240.493759 1059.173950,237.488434 1058.569580,234.692184 
	C1057.182739,228.274536 1053.610352,227.667587 1048.478394,228.063751 
	C1045.827759,228.268372 1043.148315,228.076691 1040.482178,228.105942 
	C1034.899170,228.167191 1034.249390,228.921448 1034.734375,234.637573 
	C1035.498535,243.640259 1040.117920,250.341263 1047.612305,254.923019 
	C1062.326050,263.918518 1077.896606,264.377716 1093.604858,258.083344 
	C1104.927490,253.546280 1110.364380,244.198654 1110.107788,231.546082 
	C1109.878052,220.219040 1104.633545,213.075592 1092.722412,208.603210 
	C1086.974609,206.444992 1080.944946,205.047089 1075.147583,203.007751 
	C1070.781860,201.472076 1066.294067,199.937057 1062.379150,197.550964 
	C1056.929443,194.229553 1057.648926,188.255112 1063.462524,185.487823 
	C1064.653320,184.921021 1065.980835,184.641220 1068.081177,184.114502 
M506.314301,227.764282 
	C503.453400,235.561569 500.603027,243.362762 497.728790,251.155121 
	C494.463165,260.008636 494.454895,260.092590 504.016510,259.985291 
	C519.026855,259.816925 516.279724,262.186340 521.287292,247.947113 
	C522.130432,245.549545 523.302368,244.606659 525.919922,244.668823 
	C533.406982,244.846603 540.901062,244.730850 548.392334,244.730759 
	C557.117310,244.730652 557.390747,244.647385 559.912170,252.916824 
	C561.516541,258.178406 564.084290,260.905182 569.864258,260.069336 
	C572.473267,259.692078 575.182129,260.008789 577.845703,260.004700 
	C584.709961,259.994202 585.062134,259.482727 582.612793,252.854004 
	C573.862366,229.172318 565.118530,205.488190 556.336548,181.818207 
	C549.782532,164.153351 552.933105,167.416061 535.167297,166.931534 
	C530.602966,166.807037 528.215027,168.618942 526.685913,172.846756 
	C520.133057,190.964783 513.356689,209.001938 506.314301,227.764282 
M839.367126,260.005402 
	C847.021545,259.987427 847.339600,259.549469 844.747253,252.532104 
	C835.990540,228.828217 827.280273,205.106979 818.455811,181.428314 
	C812.051331,164.242981 815.199097,167.401596 797.481140,166.929276 
	C792.931641,166.807999 790.426208,168.541504 788.934387,172.787262 
	C785.573120,182.353149 781.913269,191.813934 778.393860,201.324493 
	C771.874084,218.942520 765.345154,236.557220 758.870544,254.191849 
	C757.020752,259.230133 757.583618,259.942535 762.979614,260.003937 
	C763.812622,260.013397 764.645935,260.014252 765.478943,260.004120 
	C782.073792,259.801819 778.177063,261.985962 783.842407,247.806046 
	C784.384216,246.449799 786.523438,244.907883 787.961182,244.867172 
	C797.284546,244.603287 806.623718,244.582870 815.945251,244.877808 
	C817.501526,244.927048 819.823547,246.583130 820.391785,248.041992 
	C825.839417,262.028229 822.609253,259.784943 837.907227,260.005127 
	C838.073853,260.007538 838.240479,260.005432 839.367126,260.005402 
M655.401611,363.993683 
	C639.786011,364.280762 643.330200,361.629425 635.565125,376.128967 
	C634.858704,377.448059 634.162903,378.772888 633.462769,380.095306 
	C630.313721,386.043060 627.164856,391.990875 623.755127,398.431091 
	C618.257996,388.347595 613.028931,379.077820 608.138123,369.632874 
	C606.057434,365.614685 603.440613,363.507416 598.739014,363.928864 
	C595.103760,364.254700 591.415894,363.984741 587.751465,363.995728 
	C581.152832,364.015533 580.470276,365.109009 583.624207,370.777344 
	C592.438171,386.618256 601.353210,402.403717 610.028015,418.320221 
	C611.306458,420.665863 612.011169,423.588165 612.095703,426.271545 
	C612.357727,434.591583 612.287781,442.926636 612.153870,451.252747 
	C612.085510,455.504333 613.759033,457.365021 618.112793,457.055847 
	C621.593079,456.808685 625.121643,456.790894 628.598816,457.059265 
	C633.174744,457.412415 634.927124,455.485565 634.841675,450.998169 
	C634.683167,442.672913 634.651001,434.338318 634.885193,426.016632 
	C634.956421,423.485138 635.613037,420.740540 636.787109,418.506409 
	C645.141357,402.608612 653.706299,386.821594 662.189026,370.991241 
	C665.409241,364.981781 664.803101,364.023132 657.854309,363.993988 
	C657.354614,363.991882 656.854919,363.993683 655.401611,363.993683 
M812.490295,363.998718 
	C798.004639,363.998718 783.518311,363.911987 769.033508,364.021790 
	C752.763550,364.145081 755.209167,361.652161 754.888000,378.457397 
	C754.808960,382.593323 756.495056,384.119293 760.522400,384.016479 
	C767.127686,383.847778 773.740417,383.970795 780.808228,383.970795 
	C780.808228,388.437805 780.808228,392.394653 780.808289,396.351532 
	C780.808533,414.500214 780.919189,432.649994 780.734802,450.796783 
	C780.686096,455.597992 782.390198,457.504913 787.175110,457.053223 
	C790.145630,456.772827 793.164307,457.010132 796.161255,456.999481 
	C802.634583,456.976440 802.980713,456.659149 802.985474,450.234833 
	C803.000488,429.921631 802.991028,409.608459 802.990967,389.295258 
	C802.990967,387.554901 802.990906,385.814545 802.990906,383.972137 
	C807.430115,383.972137 811.092102,384.013153 814.752869,383.965057 
	C830.604065,383.756866 828.745850,386.631470 828.817078,368.842560 
	C828.830078,365.599243 827.389893,363.890747 823.973328,363.982025 
	C820.479309,364.075409 816.980835,364.000153 812.490295,363.998718 
M711.808228,237.499725 
	C711.816589,243.493530 711.852539,249.487457 711.822021,255.481064 
	C711.806213,258.578217 713.189697,260.083771 716.357971,260.012848 
	C719.852600,259.934662 723.350464,260.006561 726.846924,259.999695 
	C733.719055,259.986145 733.982544,259.748474 733.986572,253.049850 
	C733.998657,232.903534 733.990967,212.757202 733.990906,192.610886 
	C733.990906,190.838867 733.990906,189.066864 733.990906,186.972122 
	C738.506042,186.972122 742.471252,187.001358 746.435974,186.966904 
	C761.194397,186.838623 759.694031,188.997055 759.877258,173.158432 
	C759.928162,168.755051 758.447815,166.888153 753.791321,166.926178 
	C733.146912,167.094711 712.499878,167.067398 691.854858,166.941879 
	C687.677185,166.916504 685.560242,168.189362 685.895691,172.656723 
	C686.107056,175.471313 686.099670,178.326599 685.896484,181.142426 
	C685.585266,185.454453 687.380615,187.165359 691.709167,187.026596 
	C698.293030,186.815582 704.888611,186.971375 711.270935,186.971375 
	C711.569275,187.939056 711.745361,188.244461 711.745911,188.550201 
	C711.776062,204.533401 711.791382,220.516602 711.808228,237.499725 
z"/>
<path fill="#FFFFFF" opacity="1.000000" stroke="none" 
	d="
M0.999999,487.468658 
	C2.621630,493.034241 3.913792,499.180359 5.919348,505.084198 
	C17.347979,538.726807 49.982132,561.997925 85.492981,561.998291 
	C427.711151,562.001831 769.929321,562.000427 1112.147461,562.000427 
	C1158.174316,562.000427 1192.016602,533.730835 1200.650879,488.181213 
	C1201.000000,534.986145 1201.000000,581.972290 1201.000000,628.953125 
	C801.000000,628.947815 401.000000,628.947815 1.000000,628.947815 
	C1.000000,581.909546 1.000000,534.923401 0.999999,487.468658 
z"/>
<path fill="#FEFFFF" opacity="1.000000" stroke="none" 
	d="
M1201.000000,143.531342 
	C1199.745117,138.934082 1198.682251,133.811386 1197.204468,128.811371 
	C1186.416138,92.313774 1153.667725,67.886734 1115.629883,67.886482 
	C773.707214,67.884262 431.784302,68.082062 89.862190,67.632843 
	C47.723286,67.577484 9.320503,95.509674 1.343335,139.824722 
	C1.000000,93.680344 1.000000,47.360683 1.000001,1.046671 
	C401.000000,1.052315 801.000000,1.052315 1201.000000,1.052315 
	C1201.000000,48.423981 1201.000000,95.743332 1201.000000,143.531342 
z"/>
<path fill="#FBFCFE" opacity="1.000000" stroke="none" 
	d="
M1000.621216,363.941956 
	C1005.220886,363.900055 1009.387695,363.988251 1013.546875,363.849640 
	C1017.258240,363.725922 1019.031799,365.088745 1019.019836,369.056152 
	C1018.936707,396.702484 1018.955750,424.349213 1018.999023,451.995728 
	C1019.004639,455.577942 1017.501160,457.176086 1013.877808,457.036224 
	C1010.219299,456.895081 1006.539062,456.819916 1002.890076,457.054443 
	C998.494446,457.336945 996.994873,455.389709 997.031311,451.164093 
	C997.157410,436.515839 997.080017,421.865814 996.245605,406.822968 
	C992.270691,413.737213 988.115540,420.556152 984.392273,427.603302 
	C982.336365,431.494446 979.663757,433.002228 975.257324,432.955994 
	C971.249756,432.913910 968.769348,431.595184 966.861023,428.101746 
	C963.003479,421.040405 958.836975,414.147858 953.781067,407.442780 
	C953.781067,415.837067 953.781189,424.231323 953.780945,432.625610 
	C953.780823,438.787811 953.692505,444.951660 953.810486,451.111603 
	C953.889221,455.222595 952.447388,457.366882 947.970703,457.057648 
	C944.324097,456.805756 940.634094,456.819122 936.985413,457.055634 
	C932.806763,457.326477 931.278870,455.392273 931.306458,451.470184 
	C931.368530,442.643738 931.321106,433.816498 931.320740,424.989594 
	C931.319946,406.836121 931.300415,388.682617 931.332581,370.529205 
	C931.343201,364.515900 931.968506,363.819031 937.862488,363.900330 
	C956.725403,364.160553 951.631042,361.274841 960.755798,377.042084 
	C965.662842,385.521179 970.313904,394.148468 975.399902,403.282654 
	C982.080505,391.401947 988.378540,379.977966 994.956543,368.717560 
	C996.088806,366.779449 998.411926,365.537048 1000.621216,363.941956 
z"/>
<path fill="#56BEC2" opacity="1.000000" stroke="none" 
	d="
M190.783478,463.420471 
	C186.368210,450.250397 181.728470,437.148926 177.672043,423.869263 
	C176.425476,419.788361 175.285187,418.632416 170.934982,419.889099 
	C162.358215,422.366669 153.566910,424.101562 144.437927,425.683746 
	C143.673615,421.473175 143.335709,417.722473 143.334320,413.799194 
	C152.275635,411.176025 160.853760,408.624939 169.499313,406.327698 
	C172.649780,405.490540 173.218842,403.774384 172.807800,400.849182 
	C171.079086,388.546356 169.355515,376.238922 167.942154,363.897400 
	C167.325394,358.511780 166.049667,354.111877 160.505325,351.644714 
	C157.716400,350.403717 155.490967,347.896332 153.001190,345.538025 
	C151.999680,338.657532 150.704788,332.183441 154.387024,326.105042 
	C158.118973,328.720001 161.541641,331.204102 165.453491,334.043243 
	C165.453491,318.819183 165.453491,304.154022 165.453491,289.136322 
	C160.983932,292.368469 157.005997,295.245087 153.021561,297.649689 
	C152.948654,294.967438 152.882263,292.757202 153.030884,290.311890 
	C156.876587,287.450348 160.644577,284.987701 164.069702,282.116089 
	C165.420609,280.983521 166.619675,279.019867 166.846786,277.297394 
	C169.125488,260.016815 171.076004,242.692535 173.420532,225.421509 
	C173.807877,222.568268 173.250381,221.517746 170.610947,220.886490 
	C162.395325,218.921585 154.215607,216.806519 146.018158,214.336838 
	C145.681992,211.225464 145.349655,208.526947 145.017319,205.828415 
	C153.493866,208.073532 161.971069,210.316254 170.446411,212.565948 
	C172.019226,212.983444 173.584625,213.428970 174.639511,213.719833 
	C179.591385,198.686096 184.418610,184.030762 189.766907,169.363602 
	C190.827072,170.528961 191.837250,171.709930 191.827850,172.882721 
	C191.771667,179.888718 191.301102,186.894135 191.351379,193.897003 
	C191.373154,196.931885 192.305634,199.960220 192.829437,203.384216 
	C192.547760,205.074875 192.249847,206.370483 191.976242,207.671188 
	C189.666397,218.652390 189.669388,218.648911 199.773819,223.148438 
	C200.214111,223.344482 200.572220,223.725067 200.669601,224.235916 
	C199.890533,226.378860 199.410477,228.305603 198.546997,230.182617 
	C195.039703,229.119690 191.915817,228.106476 187.928391,226.813171 
	C186.206039,241.000656 184.545319,254.680328 182.736389,269.580902 
	C189.030930,265.979706 194.027817,263.120911 199.020370,260.684265 
	C199.019714,263.099121 199.023407,265.091766 198.812210,267.341797 
	C194.096222,270.426880 189.484070,273.098358 185.157852,276.172272 
	C183.757523,277.167236 182.291473,279.191345 182.239883,280.789398 
	C181.719925,296.892609 181.595734,313.008209 181.137070,329.113953 
	C180.832184,339.819550 182.669678,349.127472 194.406906,353.076569 
	C194.677002,353.167450 194.849594,353.548035 195.051163,354.277161 
	C195.029205,361.092163 195.023743,367.423523 194.699844,373.657349 
	C191.170654,371.675537 187.959885,369.791199 183.476196,367.159821 
	C184.819397,377.993011 185.895416,387.355286 187.282730,396.671265 
	C187.404816,397.491119 189.540207,398.477203 190.783157,398.539825 
	C192.168915,398.609619 193.603439,397.711884 195.013458,397.675598 
	C195.677887,402.419861 196.345612,406.723877 196.730530,411.256165 
	C190.950607,412.565552 189.799469,415.761780 191.666763,420.757385 
	C192.398422,422.714783 192.474747,424.917114 192.505157,427.177094 
	C191.923828,432.498596 191.651642,437.649628 191.458649,442.803589 
	C191.201355,449.674683 191.005630,456.548065 190.783478,463.420471 
z"/>
<path fill="#FBFCFE" opacity="1.000000" stroke="none" 
	d="
M618.781311,243.985596 
	C618.778564,247.979858 618.773926,251.477463 618.773621,254.975067 
	C618.773315,258.420380 617.302002,260.201935 613.608521,260.043640 
	C609.618591,259.872620 605.607117,259.842468 601.620728,260.050903 
	C597.583740,260.261963 596.302368,258.192780 596.319763,254.606003 
	C596.347168,248.943359 596.320923,243.280457 596.320679,237.617661 
	C596.319763,216.465424 596.308655,195.313171 596.327271,174.160950 
	C596.333069,167.531647 596.873779,166.914505 603.354309,167.013931 
	C619.425964,167.260498 615.626221,164.549911 624.470764,178.627777 
	C632.756592,191.816574 640.904602,205.091980 650.068481,218.164886 
	C650.068481,214.942902 650.068420,211.720917 650.068481,208.498932 
	C650.068665,196.673660 650.188354,184.846588 650.008423,173.024048 
	C649.939331,168.487610 651.635254,166.622025 656.195984,166.941849 
	C659.842346,167.197556 663.522644,167.070892 667.184326,166.975433 
	C670.605103,166.886261 671.982178,168.545502 671.979370,171.833939 
	C671.955444,199.648239 671.949768,227.462601 671.984741,255.276886 
	C671.989014,258.687164 670.389709,260.083374 667.084045,260.016388 
	C648.657776,259.643066 653.404297,262.668518 644.157227,248.059418 
	C635.913086,235.034744 627.920044,221.851196 618.781311,208.916748 
	C618.781311,220.440826 618.781311,231.964890 618.781311,243.985596 
z"/>
<path fill="#FAFBFD" opacity="1.000000" stroke="none" 
	d="
M891.956421,215.418961 
	C891.743591,211.765121 893.472961,210.425293 896.442993,210.282211 
	C897.940613,210.210068 899.449707,210.246490 900.935303,210.075409 
	C907.462952,209.323624 912.101257,204.592621 912.108826,198.752853 
	C912.117004,192.427994 907.673584,187.548950 900.781677,187.147934 
	C894.325195,186.772278 887.829773,187.067535 880.620728,187.067535 
	C880.620728,188.994049 880.620728,190.737366 880.620728,192.480682 
	C880.620667,212.479340 880.631958,232.477997 880.614563,252.476639 
	C880.608337,259.642639 880.210266,260.106659 872.957825,259.987732 
	C856.756531,259.722076 858.370361,262.906311 858.330261,245.486664 
	C858.275696,221.821716 858.308838,198.156540 858.321655,174.491470 
	C858.325439,167.511276 858.774109,167.002106 865.611694,167.075775 
	C879.599915,167.226486 893.646423,166.744324 907.558533,167.877655 
	C922.354736,169.082993 931.637573,178.291489 933.858948,191.670441 
	C936.257019,206.113449 930.018982,218.792374 917.226440,225.468140 
	C916.638489,225.774979 916.034424,226.050980 914.903259,226.601562 
	C919.999268,234.036865 925.032104,241.382263 930.067688,248.725739 
	C931.291687,250.510696 932.585632,252.251007 933.741150,254.078995 
	C936.291199,258.112671 935.404846,259.827454 930.749451,260.007355 
	C930.583008,260.013794 930.416138,260.011749 930.249512,260.008392 
	C907.833191,259.557709 914.148010,263.296661 901.546692,245.098358 
	C901.072876,244.414062 900.678528,243.661057 900.130005,243.044281 
	C893.196350,235.248749 890.481079,226.194427 891.956421,215.418961 
z"/>
<path fill="#FDFDFE" opacity="1.000000" stroke="none" 
	d="
M952.827026,170.425232 
	C954.535522,168.976700 956.183411,167.143570 957.849609,167.126648 
	C977.513550,166.926849 997.180420,167.033737 1016.846130,166.967712 
	C1020.486267,166.955490 1021.960632,168.570267 1021.923950,172.106033 
	C1021.745972,189.258377 1023.824341,186.843399 1008.087585,186.959732 
	C997.276733,187.039642 986.464844,186.975037 975.342407,186.975037 
	C975.342407,191.983337 975.342407,196.726547 975.342407,202.206116 
	C980.512939,202.206116 985.760437,202.205566 991.007935,202.206238 
	C997.841003,202.207123 1004.674927,202.271332 1011.506897,202.186630 
	C1015.496216,202.137177 1017.360596,203.788712 1017.045898,207.911545 
	C1016.843567,210.562668 1016.820068,213.258118 1017.049988,215.904709 
	C1017.442383,220.420975 1015.163879,221.751358 1011.090454,221.721802 
	C999.273682,221.636032 987.455872,221.691422 975.334839,221.691422 
	C975.334839,227.864609 975.334839,233.759796 975.334839,240.110550 
	C988.946045,240.110550 1002.399719,240.108246 1015.853455,240.111374 
	C1024.187622,240.113312 1024.210327,240.117081 1024.190186,248.447769 
	C1024.159180,261.214996 1025.395020,259.982758 1012.678772,259.998505 
	C995.012695,260.020355 977.346680,260.010956 959.680603,260.000366 
	C953.091309,259.996399 952.726624,259.683899 952.725952,253.380127 
	C952.723083,225.881546 952.755371,198.382950 952.827026,170.425232 
z"/>
<path fill="#FDFDFE" opacity="1.000000" stroke="none" 
	d="
M905.666016,383.974762 
	C892.046509,383.975006 878.890747,383.975006 865.382446,383.975006 
	C865.382446,389.027191 865.382446,393.897949 865.382446,399.206238 
	C876.976379,399.206238 888.434021,399.189148 899.891541,399.212769 
	C906.520874,399.226440 907.066284,399.718445 906.992188,406.292511 
	C906.848633,419.043182 909.225037,418.752930 894.707031,418.700165 
	C885.046021,418.665009 875.384827,418.693451 865.376953,418.693451 
	C865.376953,424.783508 865.376953,430.673615 865.376953,437.110504 
	C878.020447,437.110504 890.628662,437.150665 903.236450,437.098969 
	C915.341064,437.049316 914.169739,436.833435 914.194885,447.830475 
	C914.197876,449.163757 914.111450,450.502777 914.205933,451.829193 
	C914.486572,455.768921 912.559692,457.063934 908.795715,457.046600 
	C888.630371,456.953644 868.463989,456.935028 848.299011,457.059845 
	C844.214478,457.085083 842.658264,455.577972 842.671875,451.497986 
	C842.763123,424.166199 842.763062,396.833832 842.672241,369.502045 
	C842.658691,365.417419 844.231323,363.915070 848.307129,363.941315 
	C867.638794,364.065979 886.972046,364.060669 906.303833,363.945831 
	C910.390991,363.921539 912.138367,365.510925 911.934998,369.565002 
	C911.793152,372.391052 911.771851,375.238220 911.940979,378.061310 
	C912.194336,382.290588 910.506348,384.399536 905.666016,383.974762 
z"/>
<path fill="#FBFCFE" opacity="1.000000" stroke="none" 
	d="
M1061.838379,382.522949 
	C1055.640137,387.030701 1055.487061,391.682983 1061.681152,395.049194 
	C1066.297729,397.558105 1071.453979,399.119568 1076.452026,400.867859 
	C1081.308594,402.566620 1086.363403,403.719940 1091.166870,405.545074 
	C1103.082764,410.072784 1108.676392,417.493042 1108.732544,428.944336 
	C1108.792114,441.064270 1103.669067,450.391846 1092.238159,455.030090 
	C1076.387329,461.461823 1060.637085,460.936554 1045.839966,451.769135 
	C1038.054565,446.945709 1033.619019,439.737610 1033.034302,430.364197 
	C1032.815186,426.852448 1033.973755,424.982819 1037.754395,425.080048 
	C1042.247192,425.195618 1046.789795,424.754486 1051.218140,425.303253 
	C1052.941895,425.516907 1055.410522,427.521027 1055.818237,429.142456 
	C1057.233643,434.771423 1060.868530,437.864014 1066.104370,438.715302 
	C1070.304443,439.398224 1074.744629,439.305389 1078.989868,438.805939 
	C1082.895508,438.346436 1085.528564,435.863312 1086.103027,431.585663 
	C1086.713989,427.035919 1084.164062,424.620056 1080.434082,423.385315 
	C1075.396240,421.717743 1070.154785,420.670746 1065.096680,419.056671 
	C1059.885742,417.393829 1054.646606,415.686920 1049.674072,413.437317 
	C1039.666870,408.910034 1034.145996,401.095703 1034.273438,389.906708 
	C1034.403076,378.521729 1040.354004,370.662476 1050.414185,366.173157 
	C1065.389648,359.490448 1080.288818,360.526886 1094.480591,368.567566 
	C1101.702026,372.658966 1105.841675,379.077301 1106.230835,387.678223 
	C1106.392578,391.253113 1105.194214,393.039886 1101.456665,392.847534 
	C1099.297974,392.736420 1097.115112,392.677673 1094.966675,392.864410 
	C1089.693481,393.322784 1085.729980,392.647919 1082.975952,386.830872 
	C1080.173950,380.912720 1071.214600,379.595245 1061.838379,382.522949 
z"/>
<path fill="#FCFDFE" opacity="1.000000" stroke="none" 
	d="
M551.030029,433.855133 
	C552.319824,427.733368 551.124023,425.080414 545.464172,423.209808 
	C538.533142,420.919006 531.391235,419.273834 524.403015,417.144409 
	C521.240356,416.180664 518.150391,414.885559 515.162415,413.458313 
	C505.081451,408.643127 499.572632,400.919769 499.866150,389.389862 
	C500.154572,378.060120 506.164673,370.555389 515.938660,366.167847 
	C530.891968,359.455383 545.794189,360.567413 560.014465,368.558289 
	C566.940735,372.450378 570.853699,378.675934 571.793701,386.681976 
	C572.271912,390.754333 571.128296,393.192932 566.478394,392.860504 
	C564.159302,392.694702 561.799561,392.643036 559.491394,392.873016 
	C554.633240,393.357025 551.321838,392.337463 548.798889,387.273651 
	C545.293518,380.238068 531.171082,378.665314 525.198059,383.897217 
	C521.770508,386.899475 521.683411,391.542999 525.722412,394.045868 
	C529.758118,396.546722 534.318420,398.309906 538.817505,399.927155 
	C544.749634,402.059448 550.955322,403.444824 556.849304,405.666443 
	C568.719421,410.140686 573.910156,417.298553 574.111145,428.660034 
	C574.334351,441.280365 568.852844,450.609802 557.526855,455.114868 
	C542.011841,461.286316 526.623352,460.930420 512.006104,452.154297 
	C504.124298,447.422150 499.465973,440.510162 498.639954,431.124603 
	C498.272400,426.948212 499.386902,424.719147 503.995514,425.062836 
	C506.810272,425.272736 509.666412,425.272156 512.481262,425.062134 
	C517.604797,424.679779 521.990356,425.087097 522.221191,431.765076 
	C522.241577,432.356262 522.790039,432.952667 523.156189,433.504913 
	C528.257812,441.200226 545.260986,441.636566 551.030029,433.855133 
z"/>
<path fill="#FCFDFE" opacity="1.000000" stroke="none" 
	d="
M720.591553,457.814636 
	C706.969788,460.397339 694.290283,459.359161 682.669250,451.989075 
	C674.723022,446.949554 670.097412,439.834442 669.581482,430.227173 
	C669.389465,426.651123 670.655823,424.886200 674.401001,425.077850 
	C677.060364,425.213959 679.743835,425.258759 682.396423,425.066650 
	C687.896301,424.668274 692.091797,425.003235 693.768982,432.053040 
	C694.442627,434.884766 699.357605,437.581268 702.855042,438.631805 
	C706.665894,439.776520 711.109131,439.297058 715.207947,438.868378 
	C719.417236,438.428192 722.102173,435.764221 722.681824,431.371094 
	C723.284363,426.804199 720.413696,424.478394 716.749756,423.306030 
	C709.788208,421.078522 702.657349,419.384552 695.666504,417.241669 
	C692.344604,416.223358 689.100281,414.854340 685.963684,413.346863 
	C675.853271,408.487762 670.487244,400.652405 670.880554,389.134918 
	C671.267700,377.800110 677.383057,370.416748 687.198914,366.064545 
	C702.039856,359.484253 716.784424,360.638123 730.864929,368.464783 
	C737.980408,372.419952 741.976624,378.783722 742.818176,387.023895 
	C743.221191,390.969482 741.934204,393.119720 737.627136,392.858521 
	C735.136658,392.707489 732.610535,392.637360 730.133667,392.875519 
	C725.416199,393.329102 722.289795,392.194031 719.874939,387.381714 
	C716.330444,380.318176 702.371826,378.624512 696.278015,383.826904 
	C692.816406,386.782166 692.659424,391.488129 696.648926,393.984985 
	C700.675903,396.505310 705.236023,398.287537 709.737122,399.908417 
	C715.672913,402.045959 721.887939,403.421143 727.789001,405.639740 
	C739.849670,410.174103 745.037170,417.443573 745.121826,429.121460 
	C745.212463,441.620514 739.349182,450.726013 728.101501,455.374390 
	C725.802490,456.324524 723.374817,456.963501 720.591553,457.814636 
z"/>
<path fill="#FCFDFE" opacity="1.000000" stroke="none" 
	d="
M1067.663208,184.171814 
	C1065.980835,184.641220 1064.653320,184.921021 1063.462524,185.487823 
	C1057.648926,188.255112 1056.929443,194.229553 1062.379150,197.550964 
	C1066.294067,199.937057 1070.781860,201.472076 1075.147583,203.007751 
	C1080.944946,205.047089 1086.974609,206.444992 1092.722412,208.603210 
	C1104.633545,213.075592 1109.878052,220.219040 1110.107788,231.546082 
	C1110.364380,244.198654 1104.927490,253.546280 1093.604858,258.083344 
	C1077.896606,264.377716 1062.326050,263.918518 1047.612305,254.923019 
	C1040.117920,250.341263 1035.498535,243.640259 1034.734375,234.637573 
	C1034.249390,228.921448 1034.899170,228.167191 1040.482178,228.105942 
	C1043.148315,228.076691 1045.827759,228.268372 1048.478394,228.063751 
	C1053.610352,227.667587 1057.182739,228.274536 1058.569580,234.692184 
	C1059.173950,237.488434 1063.677734,240.493759 1066.962891,241.398666 
	C1071.287842,242.589935 1076.209839,242.263519 1080.776611,241.736496 
	C1084.997803,241.249374 1087.430054,238.161865 1087.740234,233.792786 
	C1088.026611,229.759918 1085.446289,227.539169 1082.129028,226.477402 
	C1075.801880,224.452240 1069.300781,222.974960 1062.953125,221.008133 
	C1058.995728,219.781952 1055.080444,218.302795 1051.332275,216.541275 
	C1041.028931,211.698944 1035.425171,203.815659 1035.887695,192.053131 
	C1036.341675,180.507019 1042.668823,173.179474 1052.734741,168.844360 
	C1067.303955,162.569870 1081.711548,163.751907 1095.503174,171.255402 
	C1103.007568,175.338196 1107.185181,181.930771 1107.846069,190.605072 
	C1108.116089,194.147903 1106.779419,195.986496 1103.046753,195.848541 
	C1100.384033,195.750168 1097.691284,195.607056 1095.053589,195.882675 
	C1090.267578,196.382782 1087.315186,194.986984 1084.819092,190.325607 
	C1081.390747,183.923126 1074.615356,183.684219 1067.663208,184.171814 
z"/>
<path fill="#FCFDFE" opacity="1.000000" stroke="none" 
	d="
M506.488037,227.416428 
	C513.356689,209.001938 520.133057,190.964783 526.685913,172.846756 
	C528.215027,168.618942 530.602966,166.807037 535.167297,166.931534 
	C552.933105,167.416061 549.782532,164.153351 556.336548,181.818207 
	C565.118530,205.488190 573.862366,229.172318 582.612793,252.854004 
	C585.062134,259.482727 584.709961,259.994202 577.845703,260.004700 
	C575.182129,260.008789 572.473267,259.692078 569.864258,260.069336 
	C564.084290,260.905182 561.516541,258.178406 559.912170,252.916824 
	C557.390747,244.647385 557.117310,244.730652 548.392334,244.730759 
	C540.901062,244.730850 533.406982,244.846603 525.919922,244.668823 
	C523.302368,244.606659 522.130432,245.549545 521.287292,247.947113 
	C516.279724,262.186340 519.026855,259.816925 504.016510,259.985291 
	C494.454895,260.092590 494.463165,260.008636 497.728790,251.155121 
	C500.603027,243.362762 503.453400,235.561569 506.488037,227.416428 
M531.876831,217.352325 
	C531.134033,219.674408 530.391174,221.996490 529.566833,224.573532 
	C536.696594,224.573532 543.237610,224.573532 550.372498,224.573532 
	C546.913940,214.450638 543.607849,204.774261 539.867188,193.825851 
	C536.914307,202.443085 534.493225,209.508423 531.876831,217.352325 
z"/>
<path fill="#FCFDFE" opacity="1.000000" stroke="none" 
	d="
M838.887085,260.005432 
	C838.240479,260.005432 838.073853,260.007538 837.907227,260.005127 
	C822.609253,259.784943 825.839417,262.028229 820.391785,248.041992 
	C819.823547,246.583130 817.501526,244.927048 815.945251,244.877808 
	C806.623718,244.582870 797.284546,244.603287 787.961182,244.867172 
	C786.523438,244.907883 784.384216,246.449799 783.842407,247.806046 
	C778.177063,261.985962 782.073792,259.801819 765.478943,260.004120 
	C764.645935,260.014252 763.812622,260.013397 762.979614,260.003937 
	C757.583618,259.942535 757.020752,259.230133 758.870544,254.191849 
	C765.345154,236.557220 771.874084,218.942520 778.393860,201.324493 
	C781.913269,191.813934 785.573120,182.353149 788.934387,172.787262 
	C790.426208,168.541504 792.931641,166.807999 797.481140,166.929276 
	C815.199097,167.401596 812.051331,164.242981 818.455811,181.428314 
	C827.280273,205.106979 835.990540,228.828217 844.747253,252.532104 
	C847.339600,259.549469 847.021545,259.987427 838.887085,260.005432 
M799.889160,200.378387 
	C797.183838,208.359085 794.478455,216.339783 791.692810,224.557312 
	C798.844788,224.557312 805.388550,224.557312 812.572510,224.557312 
	C809.161377,214.462509 805.908325,204.835220 802.289124,194.124557 
	C801.266968,196.668152 800.670776,198.151733 799.889160,200.378387 
z"/>
<path fill="#6EC6CC" opacity="1.000000" stroke="none" 
	d="
M301.013702,420.834717 
	C298.613495,420.269348 296.213287,419.703979 293.131775,418.978149 
	C287.369019,442.803436 281.535828,466.581421 267.505798,487.133850 
	C266.442291,482.607422 265.725922,478.318115 265.091919,473.685913 
	C274.940216,455.419983 281.135498,436.261902 285.468201,416.586487 
	C278.916107,413.914825 272.949249,411.481842 266.986633,408.578674 
	C267.342072,402.675354 267.693268,397.242218 268.408875,391.879761 
	C275.225464,394.576874 281.677643,397.203247 289.224640,400.275269 
	C291.015198,387.077942 292.617645,375.267395 294.374573,362.317932 
	C284.751678,367.956665 276.377441,372.863678 267.994873,377.359131 
	C267.644409,371.930664 267.302277,366.913788 267.165527,361.630676 
	C275.557159,356.273865 283.841400,351.330109 291.853699,345.979126 
	C293.636047,344.788818 295.545654,342.171448 295.557831,340.199768 
	C295.672638,321.581848 295.500641,302.958832 295.055664,284.345764 
	C295.008728,282.382172 293.117798,279.792114 291.339172,278.650574 
	C280.712952,271.830292 269.868622,265.349823 259.239990,258.451965 
	C260.375702,256.700317 261.368927,255.252014 262.687775,253.894196 
	C273.183685,259.900116 283.353973,265.815552 294.988708,272.582733 
	C292.739044,256.008972 290.703033,241.009583 288.515350,224.892456 
	C278.545013,228.749207 269.820801,232.123917 260.970093,235.147003 
	C260.260712,232.949539 259.677856,231.103745 259.429291,229.108124 
	C267.118347,225.927963 274.385651,222.654190 281.864044,219.968155 
	C285.704285,218.588882 286.461548,216.753021 285.564209,212.941666 
	C280.829865,192.831833 274.350647,173.382935 264.926270,154.910583 
	C265.973633,150.478348 266.662903,146.254257 267.352142,142.030151 
	C271.428925,149.945160 276.479095,157.522202 279.370117,165.848892 
	C284.616852,180.960403 288.677246,196.490509 292.989075,211.914032 
	C293.802582,214.824005 294.861450,215.466461 297.466461,214.334793 
	C298.676239,213.809235 299.990753,213.524765 301.631104,213.534210 
	C302.395325,215.985748 302.786194,218.034103 302.887756,220.319336 
	C298.812714,221.852493 294.899475,222.045944 295.894958,228.478317 
	C298.228821,243.558762 299.407440,258.815521 301.285248,273.972229 
	C301.518005,275.850861 303.155151,277.555511 304.111786,279.818542 
	C304.062164,282.460205 304.042267,284.624115 303.687683,286.743347 
	C302.945221,287.886688 302.186493,289.073730 302.183014,290.262939 
	C302.140076,305.020355 302.187958,319.778198 302.276062,334.535553 
	C302.284576,335.963928 302.717102,337.389801 302.963196,339.292786 
	C303.336456,344.906158 303.699341,350.043549 303.856018,355.479431 
	C302.792664,356.916321 301.316620,357.981934 301.172882,359.204224 
	C299.489288,373.520599 298.005768,387.860504 296.444397,402.427856 
	C298.242249,403.230408 300.173737,404.092590 301.854919,405.289246 
	C301.407684,410.694031 301.210693,415.764374 301.013702,420.834717 
z"/>
<path fill="#FBFCFE" opacity="1.000000" stroke="none" 
	d="
M655.878418,363.993683 
	C656.854919,363.993683 657.354614,363.991882 657.854309,363.993988 
	C664.803101,364.023132 665.409241,364.981781 662.189026,370.991241 
	C653.706299,386.821594 645.141357,402.608612 636.787109,418.506409 
	C635.613037,420.740540 634.956421,423.485138 634.885193,426.016632 
	C634.651001,434.338318 634.683167,442.672913 634.841675,450.998169 
	C634.927124,455.485565 633.174744,457.412415 628.598816,457.059265 
	C625.121643,456.790894 621.593079,456.808685 618.112793,457.055847 
	C613.759033,457.365021 612.085510,455.504333 612.153870,451.252747 
	C612.287781,442.926636 612.357727,434.591583 612.095703,426.271545 
	C612.011169,423.588165 611.306458,420.665863 610.028015,418.320221 
	C601.353210,402.403717 592.438171,386.618256 583.624207,370.777344 
	C580.470276,365.109009 581.152832,364.015533 587.751465,363.995728 
	C591.415894,363.984741 595.103760,364.254700 598.739014,363.928864 
	C603.440613,363.507416 606.057434,365.614685 608.138123,369.632874 
	C613.028931,379.077820 618.257996,388.347595 623.755127,398.431091 
	C627.164856,391.990875 630.313721,386.043060 633.462769,380.095306 
	C634.162903,378.772888 634.858704,377.448059 635.565125,376.128967 
	C643.330200,361.629425 639.786011,364.280762 655.878418,363.993683 
z"/>
<path fill="#FEFEFF" opacity="1.000000" stroke="none" 
	d="
M812.987305,363.998718 
	C816.980835,364.000153 820.479309,364.075409 823.973328,363.982025 
	C827.389893,363.890747 828.830078,365.599243 828.817078,368.842560 
	C828.745850,386.631470 830.604065,383.756866 814.752869,383.965057 
	C811.092102,384.013153 807.430115,383.972137 802.990906,383.972137 
	C802.990906,385.814545 802.990967,387.554901 802.990967,389.295258 
	C802.991028,409.608459 803.000488,429.921631 802.985474,450.234833 
	C802.980713,456.659149 802.634583,456.976440 796.161255,456.999481 
	C793.164307,457.010132 790.145630,456.772827 787.175110,457.053223 
	C782.390198,457.504913 780.686096,455.597992 780.734802,450.796783 
	C780.919189,432.649994 780.808533,414.500214 780.808289,396.351532 
	C780.808228,392.394653 780.808228,388.437805 780.808228,383.970795 
	C773.740417,383.970795 767.127686,383.847778 760.522400,384.016479 
	C756.495056,384.119293 754.808960,382.593323 754.888000,378.457397 
	C755.209167,361.652161 752.763550,364.145081 769.033508,364.021790 
	C783.518311,363.911987 798.004639,363.998718 812.987305,363.998718 
z"/>
<path fill="#FEFEFF" opacity="1.000000" stroke="none" 
	d="
M711.808228,236.999771 
	C711.791382,220.516602 711.776062,204.533401 711.745911,188.550201 
	C711.745361,188.244461 711.569275,187.939056 711.270935,186.971375 
	C704.888611,186.971375 698.293030,186.815582 691.709167,187.026596 
	C687.380615,187.165359 685.585266,185.454453 685.896484,181.142426 
	C686.099670,178.326599 686.107056,175.471313 685.895691,172.656723 
	C685.560242,168.189362 687.677185,166.916504 691.854858,166.941879 
	C712.499878,167.067398 733.146912,167.094711 753.791321,166.926178 
	C758.447815,166.888153 759.928162,168.755051 759.877258,173.158432 
	C759.694031,188.997055 761.194397,186.838623 746.435974,186.966904 
	C742.471252,187.001358 738.506042,186.972122 733.990906,186.972122 
	C733.990906,189.066864 733.990906,190.838867 733.990906,192.610886 
	C733.990967,212.757202 733.998657,232.903534 733.986572,253.049850 
	C733.982544,259.748474 733.719055,259.986145 726.846924,259.999695 
	C723.350464,260.006561 719.852600,259.934662 716.357971,260.012848 
	C713.189697,260.083771 711.806213,258.578217 711.822021,255.481064 
	C711.852539,249.487457 711.816589,243.493530 711.808228,236.999771 
z"/>
<path fill="#8DD3D9" opacity="1.000000" stroke="none" 
	d="
M372.103485,334.741394 
	C385.670197,348.654388 398.533203,363.132477 405.264160,381.787537 
	C414.007111,406.018860 403.559692,424.065216 378.251801,428.906494 
	C374.849945,429.557251 371.355316,429.722839 367.454224,429.614014 
	C366.989349,419.201935 366.989349,419.201935 360.468811,417.097107 
	C366.216003,416.666016 371.546478,416.601471 376.782166,415.863922 
	C392.744110,413.615326 399.498840,404.215302 395.734192,388.607697 
	C394.240326,382.414337 391.691589,376.173004 388.276764,370.810974 
	C381.962769,360.896667 374.656372,351.614380 368.106812,341.956726 
	C369.667999,339.476868 370.885742,337.109131 372.103485,334.741394 
z"/>
<path fill="#42ACB8" opacity="1.000000" stroke="none" 
	d="
M92.828987,291.105927 
	C79.731445,276.210449 68.544815,260.250702 64.540596,240.293228 
	C61.364662,224.464005 69.072342,210.230637 84.237518,204.905060 
	C89.665977,202.998749 95.516647,202.294708 101.563782,201.475174 
	C101.986107,205.124420 102.019264,208.340439 101.717911,211.678482 
	C96.328041,213.312744 91.026680,214.286896 86.273422,216.459930 
	C78.632187,219.953247 75.034973,227.547974 76.845512,235.811310 
	C77.932724,240.773361 79.298233,245.887131 81.699608,250.301117 
	C85.797470,257.833435 90.808456,264.868958 95.303574,272.573242 
	C94.780838,276.717957 94.440727,280.408875 93.981857,284.084991 
	C93.688309,286.436646 93.219322,288.766357 92.828987,291.105927 
z"/>
<path fill="#42ACB8" opacity="1.000000" stroke="none" 
	d="
M102.018135,428.876282 
	C83.906853,429.246979 68.365219,418.189972 65.500008,402.571472 
	C63.740971,392.982788 66.700943,384.059723 70.723984,375.568298 
	C79.040230,358.015198 91.539871,343.578888 105.657700,330.462708 
	C106.329834,333.601471 106.690353,336.451538 106.898140,339.578278 
	C103.338280,343.933136 99.775818,347.892670 96.553513,352.111938 
	C87.356491,364.154510 78.430840,376.364716 75.776833,391.850342 
	C73.829788,403.210938 78.140587,410.994904 89.006500,414.793152 
	C93.194733,416.257111 97.658356,416.933228 102.002495,418.369843 
	C102.011711,422.139679 102.014923,425.507965 102.018135,428.876282 
z"/>
<path fill="#4EB9BF" opacity="1.000000" stroke="none" 
	d="
M107.050873,339.301575 
	C106.690353,336.451538 106.329834,333.601471 105.953934,330.301849 
	C109.059219,326.741852 112.254585,323.700989 115.255882,320.479370 
	C116.178101,319.489471 116.569557,318.005096 117.081390,315.987762 
	C116.978584,311.254425 117.041420,307.280090 117.003830,303.306641 
	C116.976837,300.454498 118.250107,298.961853 121.431664,299.106384 
	C124.702194,301.825439 127.686447,304.385834 130.597931,306.883820 
	C138.218887,301.280121 145.517380,295.913544 152.815857,290.546997 
	C152.882263,292.757202 152.948654,294.967438 152.855331,297.933563 
	C147.393448,302.961090 142.091278,307.232697 136.382919,311.831573 
	C142.802658,316.962555 148.440201,321.468384 154.077728,325.974182 
	C150.704788,332.183441 151.999680,338.657532 152.686569,345.418640 
	C142.890335,338.273163 133.399185,330.823486 121.436211,321.433685 
	C116.762756,327.238525 111.906815,333.270050 107.050873,339.301575 
z"/>
<path fill="#8CD2D8" opacity="1.000000" stroke="none" 
	d="
M406.013275,214.925415 
	C410.283081,217.815979 411.188446,221.922424 410.240051,226.682907 
	C409.316254,231.320251 408.327423,235.944946 407.439819,240.589096 
	C404.790161,254.452484 397.899689,266.339325 389.675262,277.441895 
	C384.160492,284.886566 377.835541,291.731110 371.248962,298.778687 
	C370.082916,296.431427 369.648834,294.116821 368.967194,291.877594 
	C368.347839,289.843048 367.459198,287.890503 366.856812,285.601990 
	C369.306763,282.688660 371.638977,280.116791 373.863098,277.454590 
	C384.187592,265.096710 393.725494,252.290482 397.447083,236.001434 
	C398.863312,235.952484 399.893341,235.918869 401.259705,235.761597 
	C405.101349,234.407166 406.187012,231.844070 406.039948,228.283875 
	C405.856323,223.838287 406.006958,219.378860 406.013275,214.925415 
z"/>
<path fill="#5CC0C5" opacity="1.000000" stroke="none" 
	d="
M192.824463,202.991531 
	C192.305634,199.960220 191.373154,196.931885 191.351379,193.897003 
	C191.301102,186.894135 191.771667,179.888718 191.827850,172.882721 
	C191.837250,171.709930 190.827072,170.528961 189.986694,169.089996 
	C195.070663,154.980301 201.728714,141.817795 212.861237,131.682098 
	C217.040466,127.877068 222.466812,125.441803 227.667145,122.769669 
	C228.015167,126.810898 228.020660,130.464508 227.812958,134.367783 
	C217.132233,141.743622 210.626373,152.055466 206.171631,163.428329 
	C201.101318,176.372711 197.221649,189.783478 192.824463,202.991531 
z"/>
<path fill="#5CC0C5" opacity="1.000000" stroke="none" 
	d="
M190.843628,463.761414 
	C191.005630,456.548065 191.201355,449.674683 191.458649,442.803589 
	C191.651642,437.649628 191.923828,432.498596 192.637390,427.543823 
	C194.792862,433.821991 196.187042,439.998840 198.203384,445.965393 
	C204.562119,464.781464 211.247696,483.462158 228.028351,496.162109 
	C227.185776,499.930573 226.615616,503.387421 226.045441,506.844269 
	C216.692810,503.500031 209.871811,496.848053 204.651703,488.866119 
	C199.497665,480.985229 195.441559,472.386292 190.843628,463.761414 
z"/>
<path fill="#85CFD5" opacity="1.000000" stroke="none" 
	d="
M366.689301,285.901794 
	C367.459198,287.890503 368.347839,289.843048 368.967194,291.877594 
	C369.648834,294.116821 370.082916,296.431427 370.964905,298.941895 
	C365.402100,304.751373 359.499237,310.332153 354.509338,315.049774 
	C360.724792,321.912415 366.269714,328.034729 371.959076,334.449219 
	C370.885742,337.109131 369.667999,339.476868 367.819427,341.805603 
	C361.679779,336.138611 356.245605,330.433716 350.596069,324.950745 
	C349.530914,323.916992 347.608276,323.766785 345.914978,322.814240 
	C345.176361,317.393066 344.604095,312.366516 344.262329,307.082458 
	C351.891663,299.850586 359.290497,292.876190 366.689301,285.901794 
z"/>
<path fill="#78CACF" opacity="1.000000" stroke="none" 
	d="
M301.360962,420.993164 
	C301.210693,415.764374 301.407684,410.694031 302.235962,405.311066 
	C313.578156,407.989868 324.289032,410.981293 334.999481,414.432251 
	C334.659149,419.327179 334.319275,423.762665 333.979370,428.198120 
	C323.222321,425.849274 312.465240,423.500458 301.360962,420.993164 
z"/>
<path fill="#48B3BB" opacity="1.000000" stroke="none" 
	d="
M121.145378,298.947754 
	C118.250107,298.961853 116.976837,300.454498 117.003830,303.306641 
	C117.041420,307.280090 116.978584,311.254425 116.937347,315.710754 
	C108.989632,308.031464 101.063309,299.869812 92.982986,291.407043 
	C93.219322,288.766357 93.688309,286.436646 93.981857,284.084991 
	C94.440727,280.408875 94.780838,276.717957 95.559845,272.824097 
	C104.347412,281.392487 112.746391,290.170135 121.145378,298.947754 
z"/>
<path fill="#4BB7BE" opacity="1.000000" stroke="none" 
	d="
M102.429474,428.968323 
	C102.014923,425.507965 102.011711,422.139679 102.469917,418.356659 
	C116.286835,416.618561 129.642319,415.295166 142.997803,413.971802 
	C143.335709,417.722473 143.673615,421.473175 144.016434,425.686462 
	C130.423019,428.937408 116.801712,431.400574 102.429474,428.968323 
z"/>
<path fill="#65C3C9" opacity="1.000000" stroke="none" 
	d="
M228.026154,134.118118 
	C228.020660,130.464508 228.015167,126.810898 228.012268,122.714005 
	C239.303192,118.835701 248.890671,122.377518 257.157867,129.940353 
	C260.889282,133.353836 263.854889,137.604446 267.260040,141.752701 
	C266.662903,146.254257 265.973633,150.478348 264.692566,154.692978 
	C260.027557,149.515518 256.290131,144.032120 251.801712,139.254196 
	C245.224655,132.252899 237.249969,129.809570 228.026154,134.118118 
z"/>
<path fill="#65C3C9" opacity="1.000000" stroke="none" 
	d="
M226.420074,506.989258 
	C226.615616,503.387421 227.185776,499.930573 228.388580,496.240417 
	C237.254486,499.915680 244.605545,497.594147 250.509567,491.691345 
	C255.870499,486.331512 260.216248,479.956360 265.009583,474.028809 
	C265.725922,478.318115 266.442291,482.607422 267.238831,487.378632 
	C260.666260,498.266327 252.388290,506.701294 239.490997,508.348785 
	C235.377731,508.874237 231.033340,507.590240 226.420074,506.989258 
z"/>
<path fill="#85CFD5" opacity="1.000000" stroke="none" 
	d="
M345.005432,203.047424 
	C363.747620,200.318893 382.244751,199.158279 398.517090,211.853226 
	C397.576324,212.550735 396.760742,212.825836 395.610718,213.147247 
	C393.190857,214.473190 391.105377,215.752777 388.717621,216.841248 
	C383.898193,215.066757 379.472412,212.547134 374.844849,212.095459 
	C365.289429,211.162842 355.626465,211.332520 345.932495,210.656342 
	C345.573334,207.858414 345.289368,205.452927 345.005432,203.047424 
z"/>
<path fill="#83CED3" opacity="1.000000" stroke="none" 
	d="
M334.209351,428.315918 
	C334.319275,423.762665 334.659149,419.327179 335.412079,414.412567 
	C343.886322,415.007568 351.947540,416.081726 360.008728,417.155914 
	C366.989349,419.201935 366.989349,419.201935 367.007141,429.579102 
	C357.276306,429.679901 347.543121,429.316559 337.143097,428.720337 
	C336.106415,428.374023 335.736633,428.260651 335.366821,428.147278 
	C335.057648,428.242737 334.748474,428.338196 334.209351,428.315918 
z"/>
<path fill="#4BB7BE" opacity="1.000000" stroke="none" 
	d="
M102.052429,211.556442 
	C102.019264,208.340439 101.986107,205.124420 101.984177,201.518753 
	C116.383865,200.206818 130.471909,202.064209 144.713745,205.617249 
	C145.349655,208.526947 145.681992,211.225464 145.624207,214.318878 
	C130.968948,211.900513 116.629616,210.101944 102.052429,211.556442 
z"/>
<path fill="#78CACF" opacity="1.000000" stroke="none" 
	d="
M344.576172,203.009476 
	C345.289368,205.452927 345.573334,207.858414 345.577087,210.826965 
	C331.256897,214.287491 317.216980,217.184967 303.177032,220.082458 
	C302.786194,218.034103 302.395325,215.985748 302.006897,213.523834 
	C316.055206,209.730698 330.101074,206.351120 344.576172,203.009476 
z"/>
<path fill="#62C1C7" opacity="1.000000" stroke="none" 
	d="
M395.945129,213.100922 
	C396.760742,212.825836 397.576324,212.550735 398.687683,212.143524 
	C399.524292,212.171555 400.065155,212.331711 400.812714,213.153351 
	C400.987366,221.171631 400.955383,228.528427 400.923370,235.885239 
	C399.893341,235.918869 398.863312,235.952484 397.274628,235.824005 
	C396.494141,235.416977 396.256409,235.188629 395.999451,234.510040 
	C395.979156,227.062469 395.962128,220.081696 395.945129,213.100922 
z"/>
<path fill="#73C9CD" opacity="1.000000" stroke="none" 
	d="
M401.259705,235.761597 
	C400.955383,228.528427 400.987366,221.171631 401.029755,213.335876 
	C402.563873,213.357834 404.087585,213.858765 405.812317,214.642548 
	C406.006958,219.378860 405.856323,223.838287 406.039948,228.283875 
	C406.187012,231.844070 405.101349,234.407166 401.259705,235.761597 
z"/>
<path fill="#78CACF" opacity="1.000000" stroke="none" 
	d="
M335.552246,428.401062 
	C335.736633,428.260651 336.106415,428.374023 336.719116,428.646332 
	C336.553864,428.755127 336.145752,428.704987 335.552246,428.401062 
z"/>
<path fill="#014BAD" opacity="1.000000" stroke="none" 
	d="
M259.097504,258.755310 
	C269.868622,265.349823 280.712952,271.830292 291.339172,278.650574 
	C293.117798,279.792114 295.008728,282.382172 295.055664,284.345764 
	C295.500641,302.958832 295.672638,321.581848 295.557831,340.199768 
	C295.545654,342.171448 293.636047,344.788818 291.853699,345.979126 
	C283.841400,351.330109 275.557159,356.273865 266.821075,361.707794 
	C258.194153,366.462158 250.214752,371.070282 241.974152,375.150940 
	C239.809998,376.222626 236.836563,375.660004 234.006332,375.581604 
	C220.874481,368.141388 207.971069,360.967438 195.067657,353.793488 
	C194.849594,353.548035 194.677002,353.167450 194.406906,353.076569 
	C182.669678,349.127472 180.832184,339.819550 181.137070,329.113953 
	C181.595734,313.008209 181.719925,296.892609 182.239883,280.789398 
	C182.291473,279.191345 183.757523,277.167236 185.157852,276.172272 
	C189.484070,273.098358 194.096222,270.426880 199.151215,267.251190 
	C210.862320,260.842834 221.959930,254.666870 233.240845,248.846146 
	C234.939819,247.969513 237.805878,248.069733 239.597855,248.887985 
	C246.219070,251.911377 252.616165,255.425598 259.097504,258.755310 
M250.679169,335.879150 
	C265.997803,324.647064 265.693817,303.283539 249.663467,293.216583 
	C246.779327,292.171448 243.895187,291.126312 240.264908,289.895050 
	C237.195145,289.977844 234.125381,290.060669 230.322128,290.166687 
	C227.209274,291.767120 224.096436,293.367523 220.362045,295.230225 
	C207.563232,306.872864 207.864700,324.978119 221.528610,335.367157 
	C225.025208,336.858032 228.521805,338.348907 232.912872,339.951782 
	C235.614792,339.907867 238.316711,339.863953 241.744370,339.833221 
	C244.506500,338.584839 247.268646,337.336487 250.679169,335.879150 
z"/>
<path fill="#004BAD" opacity="1.000000" stroke="none" 
	d="
M227.812958,134.367783 
	C237.249969,129.809570 245.224655,132.252899 251.801712,139.254196 
	C256.290131,144.032120 260.027557,149.515518 264.334442,154.901108 
	C274.350647,173.382935 280.829865,192.831833 285.564209,212.941666 
	C286.461548,216.753021 285.704285,218.588882 281.864044,219.968155 
	C274.385651,222.654190 267.118347,225.927963 259.095459,229.212280 
	C252.580200,232.169067 246.651825,234.712646 240.918594,237.638611 
	C237.829056,239.215347 235.263458,239.177826 232.092499,237.712906 
	C221.804840,232.960236 211.355621,228.557312 200.968613,224.019699 
	C200.572220,223.725067 200.214111,223.344482 199.773819,223.148438 
	C189.669388,218.648911 189.666397,218.652390 191.976242,207.671188 
	C192.249847,206.370483 192.547760,205.074875 192.829437,203.384216 
	C197.221649,189.783478 201.101318,176.372711 206.171631,163.428329 
	C210.626373,152.055466 217.132233,141.743622 227.812958,134.367783 
z"/>
<path fill="#004BAD" opacity="1.000000" stroke="none" 
	d="
M101.717911,211.678482 
	C116.629616,210.101944 130.968948,211.900513 145.628021,214.731720 
	C154.215607,216.806519 162.395325,218.921585 170.610947,220.886490 
	C173.250381,221.517746 173.807877,222.568268 173.420532,225.421509 
	C171.076004,242.692535 169.125488,260.016815 166.846786,277.297394 
	C166.619675,279.019867 165.420609,280.983521 164.069702,282.116089 
	C160.644577,284.987701 156.876587,287.450348 153.030884,290.311890 
	C145.517380,295.913544 138.218887,301.280121 130.597931,306.883820 
	C127.686447,304.385834 124.702194,301.825439 121.431664,299.106384 
	C112.746391,290.170135 104.347412,281.392487 95.692154,272.364014 
	C90.808456,264.868958 85.797470,257.833435 81.699608,250.301117 
	C79.298233,245.887131 77.932724,240.773361 76.845512,235.811310 
	C75.034973,227.547974 78.632187,219.953247 86.273422,216.459930 
	C91.026680,214.286896 96.328041,213.312744 101.717911,211.678482 
z"/>
<path fill="#004BAD" opacity="1.000000" stroke="none" 
	d="
M143.334320,413.799225 
	C129.642319,415.295166 116.286835,416.618561 102.463921,417.955139 
	C97.658356,416.933228 93.194733,416.257111 89.006500,414.793152 
	C78.140587,410.994904 73.829788,403.210938 75.776833,391.850342 
	C78.430840,376.364716 87.356491,364.154510 96.553513,352.111938 
	C99.775818,347.892670 103.338280,343.933136 106.898132,339.578278 
	C111.906815,333.270050 116.762756,327.238525 121.436211,321.433685 
	C133.399185,330.823486 142.890335,338.273163 152.696106,345.842224 
	C155.490967,347.896332 157.716400,350.403717 160.505325,351.644714 
	C166.049667,354.111877 167.325394,358.511780 167.942154,363.897400 
	C169.355515,376.238922 171.079086,388.546356 172.807800,400.849182 
	C173.218842,403.774384 172.649780,405.490540 169.499313,406.327698 
	C160.853760,408.624939 152.275635,411.176025 143.334320,413.799225 
z"/>
<path fill="#014BAD" opacity="1.000000" stroke="none" 
	d="
M265.091919,473.685944 
	C260.216248,479.956360 255.870499,486.331512 250.509567,491.691345 
	C244.605545,497.594147 237.254486,499.915680 228.660995,495.928772 
	C211.247696,483.462158 204.562119,464.781464 198.203384,445.965393 
	C196.187042,439.998840 194.792862,433.821991 192.981750,427.374634 
	C192.474747,424.917114 192.398422,422.714783 191.666763,420.757385 
	C189.799469,415.761780 190.950607,412.565552 197.106140,411.230286 
	C209.201324,406.060944 220.638123,401.145752 232.481201,396.154510 
	C235.088165,396.552185 237.412582,396.720245 239.468292,397.552246 
	C248.681427,401.281219 257.818115,405.199127 266.982391,409.048828 
	C272.949249,411.481842 278.916107,413.914825 285.468201,416.586487 
	C281.135498,436.261902 274.940216,455.419983 265.091919,473.685944 
z"/>
<path fill="#5EC1C5" opacity="1.000000" stroke="none" 
	d="
M232.074921,396.230591 
	C220.638123,401.145752 209.201324,406.060944 197.388916,411.002014 
	C196.345612,406.723877 195.677887,402.419861 195.342316,397.513672 
	C202.821503,393.748871 209.968552,390.586273 217.783752,387.128021 
	C209.510056,382.267792 202.264160,378.011322 195.018265,373.754852 
	C195.023743,367.423523 195.029205,361.092163 195.051163,354.277161 
	C207.971069,360.967438 220.874481,368.141388 233.670288,375.817688 
	C233.042633,377.986053 232.136200,379.638031 232.075302,381.320587 
	C231.895676,386.284119 232.050797,391.259705 232.074921,396.230591 
z"/>
<path fill="#024CAE" opacity="1.000000" stroke="none" 
	d="
M199.024719,260.262115 
	C194.027817,263.120911 189.030930,265.979706 182.736389,269.580902 
	C184.545319,254.680328 186.206039,241.000656 187.928391,226.813171 
	C191.915817,228.106476 195.039703,229.119690 198.806305,230.412384 
	C209.037308,234.794586 218.625610,238.897308 228.654236,243.188431 
	C218.234299,249.192810 208.629501,254.727463 199.024719,260.262115 
z"/>
<path fill="#62C1C7" opacity="1.000000" stroke="none" 
	d="
M199.020370,260.684265 
	C208.629501,254.727463 218.234299,249.192810 228.654236,243.188431 
	C218.625610,238.897308 209.037308,234.794586 199.189713,230.462097 
	C199.410477,228.305603 199.890533,226.378860 200.669601,224.235916 
	C211.355621,228.557312 221.804840,232.960236 232.092499,237.712906 
	C235.263458,239.177826 237.829056,239.215347 240.918594,237.638611 
	C246.651825,234.712646 252.580200,232.169067 258.761139,229.362091 
	C259.677856,231.103745 260.260712,232.949539 260.698547,235.332336 
	C255.220871,238.277832 249.888229,240.686310 244.138718,243.283096 
	C250.654800,247.044907 256.508484,250.424301 262.362183,253.803711 
	C261.368927,255.252014 260.375702,256.700317 259.239990,258.451965 
	C252.616165,255.425598 246.219070,251.911377 239.597855,248.887985 
	C237.805878,248.069733 234.939819,247.969513 233.240845,248.846146 
	C221.959930,254.666870 210.862320,260.842834 199.366089,266.993835 
	C199.023407,265.091766 199.019714,263.099121 199.020370,260.684265 
z"/>
<path fill="#024CAE" opacity="1.000000" stroke="none" 
	d="
M154.387024,326.105042 
	C148.440201,321.468384 142.802658,316.962555 136.382919,311.831573 
	C142.091278,307.232697 147.393448,302.961090 152.861832,298.405609 
	C157.005997,295.245087 160.983932,292.368469 165.453491,289.136322 
	C165.453491,304.154022 165.453491,318.819183 165.453491,334.043243 
	C161.541641,331.204102 158.118973,328.720001 154.387024,326.105042 
z"/>
<path fill="#024CAE" opacity="1.000000" stroke="none" 
	d="
M194.699829,373.657349 
	C202.264160,378.011322 209.510056,382.267792 217.783752,387.128021 
	C209.968552,390.586273 202.821503,393.748871 195.345612,397.073364 
	C193.603439,397.711884 192.168915,398.609619 190.783157,398.539825 
	C189.540207,398.477203 187.404816,397.491119 187.282730,396.671265 
	C185.895416,387.355286 184.819397,377.993011 183.476196,367.159821 
	C187.959885,369.791199 191.170654,371.675537 194.699829,373.657349 
z"/>
<path fill="#0A51B0" opacity="1.000000" stroke="none" 
	d="
M531.974487,216.963043 
	C534.493225,209.508423 536.914307,202.443085 539.867188,193.825851 
	C543.607849,204.774261 546.913940,214.450638 550.372498,224.573532 
	C543.237610,224.573532 536.696594,224.573532 529.566833,224.573532 
	C530.391174,221.996490 531.134033,219.674408 531.974487,216.963043 
z"/>
<path fill="#0A51B0" opacity="1.000000" stroke="none" 
	d="
M799.981812,200.006851 
	C800.670776,198.151733 801.266968,196.668152 802.289124,194.124557 
	C805.908325,204.835220 809.161377,214.462509 812.572510,224.557312 
	C805.388550,224.557312 798.844788,224.557312 791.692810,224.557312 
	C794.478455,216.339783 797.183838,208.359085 799.981812,200.006851 
z"/>
<path fill="#014BAD" opacity="1.000000" stroke="none" 
	d="
M396.002777,234.976837 
	C396.256409,235.188629 396.494141,235.416977 396.888428,235.839340 
	C393.725494,252.290482 384.187592,265.096710 373.863098,277.454590 
	C371.638977,280.116791 369.306763,282.688660 366.856812,285.601990 
	C359.290497,292.876190 351.891663,299.850586 343.889221,307.069794 
	C341.906219,306.430847 340.481415,305.610138 339.154724,304.653412 
	C327.473724,296.229645 315.810211,287.781616 304.141510,279.340790 
	C303.155151,277.555511 301.518005,275.850861 301.285248,273.972229 
	C299.407440,258.815521 298.228821,243.558762 295.894958,228.478317 
	C294.899475,222.045944 298.812714,221.852493 302.887756,220.319336 
	C317.216980,217.184967 331.256897,214.287491 345.652283,211.219391 
	C355.626465,211.332520 365.289429,211.162842 374.844849,212.095459 
	C379.472412,212.547134 383.898193,215.066757 388.687500,217.216904 
	C386.039917,226.945709 388.344971,232.572647 396.002777,234.976837 
z"/>
<path fill="#014BAD" opacity="1.000000" stroke="none" 
	d="
M360.468811,417.097107 
	C351.947540,416.081726 343.886322,415.007568 335.412537,413.953064 
	C324.289032,410.981293 313.578156,407.989868 302.486206,404.976624 
	C300.173737,404.092590 298.242249,403.230408 296.444397,402.427856 
	C298.005768,387.860504 299.489288,373.520599 301.172882,359.204224 
	C301.316620,357.981934 302.792664,356.916321 304.183563,355.361572 
	C308.717773,352.002869 312.778198,349.138214 316.706726,346.102814 
	C326.530182,338.512787 336.293732,330.845276 346.081329,323.208862 
	C347.608276,323.766785 349.530914,323.916992 350.596069,324.950745 
	C356.245605,330.433716 361.679779,336.138611 367.476013,341.917725 
	C374.656372,351.614380 381.962769,360.896667 388.276764,370.810974 
	C391.691589,376.173004 394.240326,382.414337 395.734192,388.607697 
	C399.498840,404.215302 392.744110,413.615326 376.782166,415.863922 
	C371.546478,416.601471 366.216003,416.666016 360.468811,417.097107 
z"/>
<path fill="#024CAE" opacity="1.000000" stroke="none" 
	d="
M262.687775,253.894196 
	C256.508484,250.424301 250.654800,247.044907 244.138718,243.283096 
	C249.888229,240.686310 255.220871,238.277832 260.825043,235.683990 
	C269.820801,232.123917 278.545013,228.749207 288.515350,224.892456 
	C290.703033,241.009583 292.739044,256.008972 294.988708,272.582733 
	C283.353973,265.815552 273.183685,259.900116 262.687775,253.894196 
z"/>
<path fill="#7ACBD0" opacity="1.000000" stroke="none" 
	d="
M345.914978,322.814240 
	C336.293732,330.845276 326.530182,338.512787 316.706726,346.102814 
	C312.778198,349.138214 308.717773,352.002869 304.389771,355.063080 
	C303.699341,350.043549 303.336456,344.906158 303.189148,339.055603 
	C314.684875,330.014038 325.965088,321.685638 338.017822,312.786896 
	C325.924103,303.537933 314.973267,295.162964 304.022400,286.788025 
	C304.042267,284.624115 304.062164,282.460205 304.111786,279.818542 
	C315.810211,287.781616 327.473724,296.229645 339.154724,304.653412 
	C340.481415,305.610138 341.906219,306.430847 343.658691,307.327271 
	C344.604095,312.366516 345.176361,317.393066 345.914978,322.814240 
z"/>
<path fill="#67C4C9" opacity="1.000000" stroke="none" 
	d="
M232.481186,396.154510 
	C232.050797,391.259705 231.895676,386.284119 232.075302,381.320587 
	C232.136200,379.638031 233.042633,377.986053 233.898712,376.084015 
	C236.836563,375.660004 239.809998,376.222626 241.974152,375.150940 
	C250.214752,371.070282 258.194153,366.462158 266.615662,361.973999 
	C267.302277,366.913788 267.644409,371.930664 267.718903,377.579956 
	C263.453552,380.512756 259.455841,382.813141 254.953598,385.403870 
	C259.840546,387.794983 263.942505,389.802032 268.044464,391.809052 
	C267.693268,397.242218 267.342072,402.675354 266.986633,408.578674 
	C257.818115,405.199127 248.681427,401.281219 239.468292,397.552246 
	C237.412582,396.720245 235.088165,396.552185 232.481186,396.154510 
z"/>
<path fill="#024CAE" opacity="1.000000" stroke="none" 
	d="
M303.687683,286.743347 
	C314.973267,295.162964 325.924103,303.537933 338.017822,312.786896 
	C325.965088,321.685638 314.684875,330.014038 303.178711,338.579651 
	C302.717102,337.389801 302.284576,335.963928 302.276062,334.535553 
	C302.187958,319.778198 302.140076,305.020355 302.183014,290.262939 
	C302.186493,289.073730 302.945221,287.886688 303.687683,286.743347 
z"/>
<path fill="#024CAE" opacity="1.000000" stroke="none" 
	d="
M268.408875,391.879761 
	C263.942505,389.802032 259.840546,387.794983 254.953598,385.403870 
	C259.455841,382.813141 263.453552,380.512756 267.727234,377.991516 
	C276.377441,372.863678 284.751678,367.956665 294.374573,362.317932 
	C292.617645,375.267395 291.015198,387.077942 289.224640,400.275269 
	C281.677643,397.203247 275.225464,394.576874 268.408875,391.879761 
z"/>
<path fill="#4EB9BF" opacity="1.000000" stroke="none" 
	d="
M395.999451,234.510040 
	C388.344971,232.572647 386.039917,226.945709 388.989807,217.408020 
	C391.105377,215.752777 393.190857,214.473190 395.610718,213.147247 
	C395.962128,220.081696 395.979156,227.062469 395.999451,234.510040 
z"/>
<path fill="#56BEC2" opacity="1.000000" stroke="none" 
	d="
M232.018417,339.839783 
	C228.521805,338.348907 225.025208,336.858032 221.301086,334.716705 
	C221.043579,321.033478 221.013580,308.000732 220.983582,294.967957 
	C224.096436,293.367523 227.209274,291.767120 230.848312,290.528381 
	C231.582977,292.843842 231.964523,294.796875 231.972321,296.751434 
	C232.029678,311.114044 232.012268,325.476959 232.018417,339.839783 
z"/>
<path fill="#65C3C9" opacity="1.000000" stroke="none" 
	d="
M232.465637,339.895782 
	C232.012268,325.476959 232.029678,311.114044 231.972321,296.751434 
	C231.964523,294.796875 231.582977,292.843842 231.215057,290.516785 
	C234.125381,290.060669 237.195145,289.977844 240.634399,290.450867 
	C241.008789,307.277802 241.013718,323.548920 241.018631,339.820007 
	C238.316711,339.863953 235.614792,339.907867 232.465637,339.895782 
z"/>
<path fill="#85CFD5" opacity="1.000000" stroke="none" 
	d="
M250.079987,293.771362 
	C265.693817,303.283539 265.997803,324.647064 250.190735,335.593414 
	C249.470184,323.231262 249.190582,311.155396 249.058350,299.077881 
	C249.039017,297.312988 249.721985,295.540405 250.079987,293.771362 
z"/>
<path fill="#73C9CD" opacity="1.000000" stroke="none" 
	d="
M249.871735,293.493958 
	C249.721985,295.540405 249.039017,297.312988 249.058350,299.077881 
	C249.190582,311.155396 249.470184,323.231262 249.866547,335.697906 
	C247.268646,337.336487 244.506500,338.584839 241.381500,339.826599 
	C241.013718,323.548920 241.008789,307.277802 241.007477,290.543945 
	C243.895187,291.126312 246.779327,292.171448 249.871735,293.493958 
z"/>
<path fill="#48B3BB" opacity="1.000000" stroke="none" 
	d="
M220.672806,295.099091 
	C221.013580,308.000732 221.043579,321.033478 221.047974,334.477020 
	C207.864700,324.978119 207.563232,306.872864 220.672806,295.099091 
z"/>
</svg>